%TF.GenerationSoftware,KiCad,Pcbnew,9.0.0*%
%TF.CreationDate,2025-04-02T12:31:35+08:00*%
%TF.ProjectId,EggClassifier,45676743-6c61-4737-9369-666965722e6b,rev?*%
%TF.SameCoordinates,Original*%
%TF.FileFunction,Legend,Top*%
%TF.FilePolarity,Positive*%
%FSLAX46Y46*%
G04 Gerber Fmt 4.6, Leading zero omitted, Abs format (unit mm)*
G04 Created by KiCad (PCBNEW 9.0.0) date 2025-04-02 12:31:35*
%MOMM*%
%LPD*%
G01*
G04 APERTURE LIST*
%ADD10C,0.150000*%
%ADD11C,0.120000*%
%ADD12C,0.127000*%
%ADD13C,0.200000*%
G04 APERTURE END LIST*
D10*
X88111219Y-106897466D02*
X87635028Y-107230799D01*
X88111219Y-107468894D02*
X87111219Y-107468894D01*
X87111219Y-107468894D02*
X87111219Y-107087942D01*
X87111219Y-107087942D02*
X87158838Y-106992704D01*
X87158838Y-106992704D02*
X87206457Y-106945085D01*
X87206457Y-106945085D02*
X87301695Y-106897466D01*
X87301695Y-106897466D02*
X87444552Y-106897466D01*
X87444552Y-106897466D02*
X87539790Y-106945085D01*
X87539790Y-106945085D02*
X87587409Y-106992704D01*
X87587409Y-106992704D02*
X87635028Y-107087942D01*
X87635028Y-107087942D02*
X87635028Y-107468894D01*
X87206457Y-106516513D02*
X87158838Y-106468894D01*
X87158838Y-106468894D02*
X87111219Y-106373656D01*
X87111219Y-106373656D02*
X87111219Y-106135561D01*
X87111219Y-106135561D02*
X87158838Y-106040323D01*
X87158838Y-106040323D02*
X87206457Y-105992704D01*
X87206457Y-105992704D02*
X87301695Y-105945085D01*
X87301695Y-105945085D02*
X87396933Y-105945085D01*
X87396933Y-105945085D02*
X87539790Y-105992704D01*
X87539790Y-105992704D02*
X88111219Y-106564132D01*
X88111219Y-106564132D02*
X88111219Y-105945085D01*
X131151333Y-131518819D02*
X130818000Y-131042628D01*
X130579905Y-131518819D02*
X130579905Y-130518819D01*
X130579905Y-130518819D02*
X130960857Y-130518819D01*
X130960857Y-130518819D02*
X131056095Y-130566438D01*
X131056095Y-130566438D02*
X131103714Y-130614057D01*
X131103714Y-130614057D02*
X131151333Y-130709295D01*
X131151333Y-130709295D02*
X131151333Y-130852152D01*
X131151333Y-130852152D02*
X131103714Y-130947390D01*
X131103714Y-130947390D02*
X131056095Y-130995009D01*
X131056095Y-130995009D02*
X130960857Y-131042628D01*
X130960857Y-131042628D02*
X130579905Y-131042628D01*
X131722762Y-130947390D02*
X131627524Y-130899771D01*
X131627524Y-130899771D02*
X131579905Y-130852152D01*
X131579905Y-130852152D02*
X131532286Y-130756914D01*
X131532286Y-130756914D02*
X131532286Y-130709295D01*
X131532286Y-130709295D02*
X131579905Y-130614057D01*
X131579905Y-130614057D02*
X131627524Y-130566438D01*
X131627524Y-130566438D02*
X131722762Y-130518819D01*
X131722762Y-130518819D02*
X131913238Y-130518819D01*
X131913238Y-130518819D02*
X132008476Y-130566438D01*
X132008476Y-130566438D02*
X132056095Y-130614057D01*
X132056095Y-130614057D02*
X132103714Y-130709295D01*
X132103714Y-130709295D02*
X132103714Y-130756914D01*
X132103714Y-130756914D02*
X132056095Y-130852152D01*
X132056095Y-130852152D02*
X132008476Y-130899771D01*
X132008476Y-130899771D02*
X131913238Y-130947390D01*
X131913238Y-130947390D02*
X131722762Y-130947390D01*
X131722762Y-130947390D02*
X131627524Y-130995009D01*
X131627524Y-130995009D02*
X131579905Y-131042628D01*
X131579905Y-131042628D02*
X131532286Y-131137866D01*
X131532286Y-131137866D02*
X131532286Y-131328342D01*
X131532286Y-131328342D02*
X131579905Y-131423580D01*
X131579905Y-131423580D02*
X131627524Y-131471200D01*
X131627524Y-131471200D02*
X131722762Y-131518819D01*
X131722762Y-131518819D02*
X131913238Y-131518819D01*
X131913238Y-131518819D02*
X132008476Y-131471200D01*
X132008476Y-131471200D02*
X132056095Y-131423580D01*
X132056095Y-131423580D02*
X132103714Y-131328342D01*
X132103714Y-131328342D02*
X132103714Y-131137866D01*
X132103714Y-131137866D02*
X132056095Y-131042628D01*
X132056095Y-131042628D02*
X132008476Y-130995009D01*
X132008476Y-130995009D02*
X131913238Y-130947390D01*
X107275333Y-130379580D02*
X107227714Y-130427200D01*
X107227714Y-130427200D02*
X107084857Y-130474819D01*
X107084857Y-130474819D02*
X106989619Y-130474819D01*
X106989619Y-130474819D02*
X106846762Y-130427200D01*
X106846762Y-130427200D02*
X106751524Y-130331961D01*
X106751524Y-130331961D02*
X106703905Y-130236723D01*
X106703905Y-130236723D02*
X106656286Y-130046247D01*
X106656286Y-130046247D02*
X106656286Y-129903390D01*
X106656286Y-129903390D02*
X106703905Y-129712914D01*
X106703905Y-129712914D02*
X106751524Y-129617676D01*
X106751524Y-129617676D02*
X106846762Y-129522438D01*
X106846762Y-129522438D02*
X106989619Y-129474819D01*
X106989619Y-129474819D02*
X107084857Y-129474819D01*
X107084857Y-129474819D02*
X107227714Y-129522438D01*
X107227714Y-129522438D02*
X107275333Y-129570057D01*
X108132476Y-129808152D02*
X108132476Y-130474819D01*
X107894381Y-129427200D02*
X107656286Y-130141485D01*
X107656286Y-130141485D02*
X108275333Y-130141485D01*
X139623819Y-50969523D02*
X140338104Y-50969523D01*
X140338104Y-50969523D02*
X140480961Y-51017142D01*
X140480961Y-51017142D02*
X140576200Y-51112380D01*
X140576200Y-51112380D02*
X140623819Y-51255237D01*
X140623819Y-51255237D02*
X140623819Y-51350475D01*
X140623819Y-49969523D02*
X140623819Y-50540951D01*
X140623819Y-50255237D02*
X139623819Y-50255237D01*
X139623819Y-50255237D02*
X139766676Y-50350475D01*
X139766676Y-50350475D02*
X139861914Y-50445713D01*
X139861914Y-50445713D02*
X139909533Y-50540951D01*
X139623819Y-49064761D02*
X139623819Y-49540951D01*
X139623819Y-49540951D02*
X140100009Y-49588570D01*
X140100009Y-49588570D02*
X140052390Y-49540951D01*
X140052390Y-49540951D02*
X140004771Y-49445713D01*
X140004771Y-49445713D02*
X140004771Y-49207618D01*
X140004771Y-49207618D02*
X140052390Y-49112380D01*
X140052390Y-49112380D02*
X140100009Y-49064761D01*
X140100009Y-49064761D02*
X140195247Y-49017142D01*
X140195247Y-49017142D02*
X140433342Y-49017142D01*
X140433342Y-49017142D02*
X140528580Y-49064761D01*
X140528580Y-49064761D02*
X140576200Y-49112380D01*
X140576200Y-49112380D02*
X140623819Y-49207618D01*
X140623819Y-49207618D02*
X140623819Y-49445713D01*
X140623819Y-49445713D02*
X140576200Y-49540951D01*
X140576200Y-49540951D02*
X140528580Y-49588570D01*
X161804819Y-99683833D02*
X162519104Y-99683833D01*
X162519104Y-99683833D02*
X162661961Y-99731452D01*
X162661961Y-99731452D02*
X162757200Y-99826690D01*
X162757200Y-99826690D02*
X162804819Y-99969547D01*
X162804819Y-99969547D02*
X162804819Y-100064785D01*
X161804819Y-99302880D02*
X161804819Y-98683833D01*
X161804819Y-98683833D02*
X162185771Y-99017166D01*
X162185771Y-99017166D02*
X162185771Y-98874309D01*
X162185771Y-98874309D02*
X162233390Y-98779071D01*
X162233390Y-98779071D02*
X162281009Y-98731452D01*
X162281009Y-98731452D02*
X162376247Y-98683833D01*
X162376247Y-98683833D02*
X162614342Y-98683833D01*
X162614342Y-98683833D02*
X162709580Y-98731452D01*
X162709580Y-98731452D02*
X162757200Y-98779071D01*
X162757200Y-98779071D02*
X162804819Y-98874309D01*
X162804819Y-98874309D02*
X162804819Y-99160023D01*
X162804819Y-99160023D02*
X162757200Y-99255261D01*
X162757200Y-99255261D02*
X162709580Y-99302880D01*
X83975676Y-127667219D02*
X83975676Y-128381504D01*
X83975676Y-128381504D02*
X83928057Y-128524361D01*
X83928057Y-128524361D02*
X83832819Y-128619600D01*
X83832819Y-128619600D02*
X83689962Y-128667219D01*
X83689962Y-128667219D02*
X83594724Y-128667219D01*
X84975676Y-128667219D02*
X84404248Y-128667219D01*
X84689962Y-128667219D02*
X84689962Y-127667219D01*
X84689962Y-127667219D02*
X84594724Y-127810076D01*
X84594724Y-127810076D02*
X84499486Y-127905314D01*
X84499486Y-127905314D02*
X84404248Y-127952933D01*
X85928057Y-128667219D02*
X85356629Y-128667219D01*
X85642343Y-128667219D02*
X85642343Y-127667219D01*
X85642343Y-127667219D02*
X85547105Y-127810076D01*
X85547105Y-127810076D02*
X85451867Y-127905314D01*
X85451867Y-127905314D02*
X85356629Y-127952933D01*
X123594905Y-112889819D02*
X123594905Y-111889819D01*
X123594905Y-111889819D02*
X123833000Y-111889819D01*
X123833000Y-111889819D02*
X123975857Y-111937438D01*
X123975857Y-111937438D02*
X124071095Y-112032676D01*
X124071095Y-112032676D02*
X124118714Y-112127914D01*
X124118714Y-112127914D02*
X124166333Y-112318390D01*
X124166333Y-112318390D02*
X124166333Y-112461247D01*
X124166333Y-112461247D02*
X124118714Y-112651723D01*
X124118714Y-112651723D02*
X124071095Y-112746961D01*
X124071095Y-112746961D02*
X123975857Y-112842200D01*
X123975857Y-112842200D02*
X123833000Y-112889819D01*
X123833000Y-112889819D02*
X123594905Y-112889819D01*
X125118714Y-112889819D02*
X124547286Y-112889819D01*
X124833000Y-112889819D02*
X124833000Y-111889819D01*
X124833000Y-111889819D02*
X124737762Y-112032676D01*
X124737762Y-112032676D02*
X124642524Y-112127914D01*
X124642524Y-112127914D02*
X124547286Y-112175533D01*
X113879333Y-125073580D02*
X113831714Y-125121200D01*
X113831714Y-125121200D02*
X113688857Y-125168819D01*
X113688857Y-125168819D02*
X113593619Y-125168819D01*
X113593619Y-125168819D02*
X113450762Y-125121200D01*
X113450762Y-125121200D02*
X113355524Y-125025961D01*
X113355524Y-125025961D02*
X113307905Y-124930723D01*
X113307905Y-124930723D02*
X113260286Y-124740247D01*
X113260286Y-124740247D02*
X113260286Y-124597390D01*
X113260286Y-124597390D02*
X113307905Y-124406914D01*
X113307905Y-124406914D02*
X113355524Y-124311676D01*
X113355524Y-124311676D02*
X113450762Y-124216438D01*
X113450762Y-124216438D02*
X113593619Y-124168819D01*
X113593619Y-124168819D02*
X113688857Y-124168819D01*
X113688857Y-124168819D02*
X113831714Y-124216438D01*
X113831714Y-124216438D02*
X113879333Y-124264057D01*
X114784095Y-124168819D02*
X114307905Y-124168819D01*
X114307905Y-124168819D02*
X114260286Y-124645009D01*
X114260286Y-124645009D02*
X114307905Y-124597390D01*
X114307905Y-124597390D02*
X114403143Y-124549771D01*
X114403143Y-124549771D02*
X114641238Y-124549771D01*
X114641238Y-124549771D02*
X114736476Y-124597390D01*
X114736476Y-124597390D02*
X114784095Y-124645009D01*
X114784095Y-124645009D02*
X114831714Y-124740247D01*
X114831714Y-124740247D02*
X114831714Y-124978342D01*
X114831714Y-124978342D02*
X114784095Y-125073580D01*
X114784095Y-125073580D02*
X114736476Y-125121200D01*
X114736476Y-125121200D02*
X114641238Y-125168819D01*
X114641238Y-125168819D02*
X114403143Y-125168819D01*
X114403143Y-125168819D02*
X114307905Y-125121200D01*
X114307905Y-125121200D02*
X114260286Y-125073580D01*
X95789761Y-111421057D02*
X95694523Y-111373438D01*
X95694523Y-111373438D02*
X95599285Y-111278200D01*
X95599285Y-111278200D02*
X95456428Y-111135342D01*
X95456428Y-111135342D02*
X95361190Y-111087723D01*
X95361190Y-111087723D02*
X95265952Y-111087723D01*
X95313571Y-111325819D02*
X95218333Y-111278200D01*
X95218333Y-111278200D02*
X95123095Y-111182961D01*
X95123095Y-111182961D02*
X95075476Y-110992485D01*
X95075476Y-110992485D02*
X95075476Y-110659152D01*
X95075476Y-110659152D02*
X95123095Y-110468676D01*
X95123095Y-110468676D02*
X95218333Y-110373438D01*
X95218333Y-110373438D02*
X95313571Y-110325819D01*
X95313571Y-110325819D02*
X95504047Y-110325819D01*
X95504047Y-110325819D02*
X95599285Y-110373438D01*
X95599285Y-110373438D02*
X95694523Y-110468676D01*
X95694523Y-110468676D02*
X95742142Y-110659152D01*
X95742142Y-110659152D02*
X95742142Y-110992485D01*
X95742142Y-110992485D02*
X95694523Y-111182961D01*
X95694523Y-111182961D02*
X95599285Y-111278200D01*
X95599285Y-111278200D02*
X95504047Y-111325819D01*
X95504047Y-111325819D02*
X95313571Y-111325819D01*
X96694523Y-111325819D02*
X96123095Y-111325819D01*
X96408809Y-111325819D02*
X96408809Y-110325819D01*
X96408809Y-110325819D02*
X96313571Y-110468676D01*
X96313571Y-110468676D02*
X96218333Y-110563914D01*
X96218333Y-110563914D02*
X96123095Y-110611533D01*
X96860619Y-45864123D02*
X97574904Y-45864123D01*
X97574904Y-45864123D02*
X97717761Y-45911742D01*
X97717761Y-45911742D02*
X97813000Y-46006980D01*
X97813000Y-46006980D02*
X97860619Y-46149837D01*
X97860619Y-46149837D02*
X97860619Y-46245075D01*
X97860619Y-44864123D02*
X97860619Y-45435551D01*
X97860619Y-45149837D02*
X96860619Y-45149837D01*
X96860619Y-45149837D02*
X97003476Y-45245075D01*
X97003476Y-45245075D02*
X97098714Y-45340313D01*
X97098714Y-45340313D02*
X97146333Y-45435551D01*
X96860619Y-44245075D02*
X96860619Y-44149837D01*
X96860619Y-44149837D02*
X96908238Y-44054599D01*
X96908238Y-44054599D02*
X96955857Y-44006980D01*
X96955857Y-44006980D02*
X97051095Y-43959361D01*
X97051095Y-43959361D02*
X97241571Y-43911742D01*
X97241571Y-43911742D02*
X97479666Y-43911742D01*
X97479666Y-43911742D02*
X97670142Y-43959361D01*
X97670142Y-43959361D02*
X97765380Y-44006980D01*
X97765380Y-44006980D02*
X97813000Y-44054599D01*
X97813000Y-44054599D02*
X97860619Y-44149837D01*
X97860619Y-44149837D02*
X97860619Y-44245075D01*
X97860619Y-44245075D02*
X97813000Y-44340313D01*
X97813000Y-44340313D02*
X97765380Y-44387932D01*
X97765380Y-44387932D02*
X97670142Y-44435551D01*
X97670142Y-44435551D02*
X97479666Y-44483170D01*
X97479666Y-44483170D02*
X97241571Y-44483170D01*
X97241571Y-44483170D02*
X97051095Y-44435551D01*
X97051095Y-44435551D02*
X96955857Y-44387932D01*
X96955857Y-44387932D02*
X96908238Y-44340313D01*
X96908238Y-44340313D02*
X96860619Y-44245075D01*
X91926580Y-110021666D02*
X91974200Y-110069285D01*
X91974200Y-110069285D02*
X92021819Y-110212142D01*
X92021819Y-110212142D02*
X92021819Y-110307380D01*
X92021819Y-110307380D02*
X91974200Y-110450237D01*
X91974200Y-110450237D02*
X91878961Y-110545475D01*
X91878961Y-110545475D02*
X91783723Y-110593094D01*
X91783723Y-110593094D02*
X91593247Y-110640713D01*
X91593247Y-110640713D02*
X91450390Y-110640713D01*
X91450390Y-110640713D02*
X91259914Y-110593094D01*
X91259914Y-110593094D02*
X91164676Y-110545475D01*
X91164676Y-110545475D02*
X91069438Y-110450237D01*
X91069438Y-110450237D02*
X91021819Y-110307380D01*
X91021819Y-110307380D02*
X91021819Y-110212142D01*
X91021819Y-110212142D02*
X91069438Y-110069285D01*
X91069438Y-110069285D02*
X91117057Y-110021666D01*
X92021819Y-109545475D02*
X92021819Y-109354999D01*
X92021819Y-109354999D02*
X91974200Y-109259761D01*
X91974200Y-109259761D02*
X91926580Y-109212142D01*
X91926580Y-109212142D02*
X91783723Y-109116904D01*
X91783723Y-109116904D02*
X91593247Y-109069285D01*
X91593247Y-109069285D02*
X91212295Y-109069285D01*
X91212295Y-109069285D02*
X91117057Y-109116904D01*
X91117057Y-109116904D02*
X91069438Y-109164523D01*
X91069438Y-109164523D02*
X91021819Y-109259761D01*
X91021819Y-109259761D02*
X91021819Y-109450237D01*
X91021819Y-109450237D02*
X91069438Y-109545475D01*
X91069438Y-109545475D02*
X91117057Y-109593094D01*
X91117057Y-109593094D02*
X91212295Y-109640713D01*
X91212295Y-109640713D02*
X91450390Y-109640713D01*
X91450390Y-109640713D02*
X91545628Y-109593094D01*
X91545628Y-109593094D02*
X91593247Y-109545475D01*
X91593247Y-109545475D02*
X91640866Y-109450237D01*
X91640866Y-109450237D02*
X91640866Y-109259761D01*
X91640866Y-109259761D02*
X91593247Y-109164523D01*
X91593247Y-109164523D02*
X91545628Y-109116904D01*
X91545628Y-109116904D02*
X91450390Y-109069285D01*
X163226761Y-116556057D02*
X163131523Y-116508438D01*
X163131523Y-116508438D02*
X163036285Y-116413200D01*
X163036285Y-116413200D02*
X162893428Y-116270342D01*
X162893428Y-116270342D02*
X162798190Y-116222723D01*
X162798190Y-116222723D02*
X162702952Y-116222723D01*
X162750571Y-116460819D02*
X162655333Y-116413200D01*
X162655333Y-116413200D02*
X162560095Y-116317961D01*
X162560095Y-116317961D02*
X162512476Y-116127485D01*
X162512476Y-116127485D02*
X162512476Y-115794152D01*
X162512476Y-115794152D02*
X162560095Y-115603676D01*
X162560095Y-115603676D02*
X162655333Y-115508438D01*
X162655333Y-115508438D02*
X162750571Y-115460819D01*
X162750571Y-115460819D02*
X162941047Y-115460819D01*
X162941047Y-115460819D02*
X163036285Y-115508438D01*
X163036285Y-115508438D02*
X163131523Y-115603676D01*
X163131523Y-115603676D02*
X163179142Y-115794152D01*
X163179142Y-115794152D02*
X163179142Y-116127485D01*
X163179142Y-116127485D02*
X163131523Y-116317961D01*
X163131523Y-116317961D02*
X163036285Y-116413200D01*
X163036285Y-116413200D02*
X162941047Y-116460819D01*
X162941047Y-116460819D02*
X162750571Y-116460819D01*
X163512476Y-115460819D02*
X164131523Y-115460819D01*
X164131523Y-115460819D02*
X163798190Y-115841771D01*
X163798190Y-115841771D02*
X163941047Y-115841771D01*
X163941047Y-115841771D02*
X164036285Y-115889390D01*
X164036285Y-115889390D02*
X164083904Y-115937009D01*
X164083904Y-115937009D02*
X164131523Y-116032247D01*
X164131523Y-116032247D02*
X164131523Y-116270342D01*
X164131523Y-116270342D02*
X164083904Y-116365580D01*
X164083904Y-116365580D02*
X164036285Y-116413200D01*
X164036285Y-116413200D02*
X163941047Y-116460819D01*
X163941047Y-116460819D02*
X163655333Y-116460819D01*
X163655333Y-116460819D02*
X163560095Y-116413200D01*
X163560095Y-116413200D02*
X163512476Y-116365580D01*
X173942476Y-63164819D02*
X173942476Y-63879104D01*
X173942476Y-63879104D02*
X173894857Y-64021961D01*
X173894857Y-64021961D02*
X173799619Y-64117200D01*
X173799619Y-64117200D02*
X173656762Y-64164819D01*
X173656762Y-64164819D02*
X173561524Y-64164819D01*
X174942476Y-64164819D02*
X174371048Y-64164819D01*
X174656762Y-64164819D02*
X174656762Y-63164819D01*
X174656762Y-63164819D02*
X174561524Y-63307676D01*
X174561524Y-63307676D02*
X174466286Y-63402914D01*
X174466286Y-63402914D02*
X174371048Y-63450533D01*
X175275810Y-63164819D02*
X175942476Y-63164819D01*
X175942476Y-63164819D02*
X175513905Y-64164819D01*
X154609819Y-45413333D02*
X155324104Y-45413333D01*
X155324104Y-45413333D02*
X155466961Y-45460952D01*
X155466961Y-45460952D02*
X155562200Y-45556190D01*
X155562200Y-45556190D02*
X155609819Y-45699047D01*
X155609819Y-45699047D02*
X155609819Y-45794285D01*
X155609819Y-44889523D02*
X155609819Y-44699047D01*
X155609819Y-44699047D02*
X155562200Y-44603809D01*
X155562200Y-44603809D02*
X155514580Y-44556190D01*
X155514580Y-44556190D02*
X155371723Y-44460952D01*
X155371723Y-44460952D02*
X155181247Y-44413333D01*
X155181247Y-44413333D02*
X154800295Y-44413333D01*
X154800295Y-44413333D02*
X154705057Y-44460952D01*
X154705057Y-44460952D02*
X154657438Y-44508571D01*
X154657438Y-44508571D02*
X154609819Y-44603809D01*
X154609819Y-44603809D02*
X154609819Y-44794285D01*
X154609819Y-44794285D02*
X154657438Y-44889523D01*
X154657438Y-44889523D02*
X154705057Y-44937142D01*
X154705057Y-44937142D02*
X154800295Y-44984761D01*
X154800295Y-44984761D02*
X155038390Y-44984761D01*
X155038390Y-44984761D02*
X155133628Y-44937142D01*
X155133628Y-44937142D02*
X155181247Y-44889523D01*
X155181247Y-44889523D02*
X155228866Y-44794285D01*
X155228866Y-44794285D02*
X155228866Y-44603809D01*
X155228866Y-44603809D02*
X155181247Y-44508571D01*
X155181247Y-44508571D02*
X155133628Y-44460952D01*
X155133628Y-44460952D02*
X155038390Y-44413333D01*
X116927333Y-130379580D02*
X116879714Y-130427200D01*
X116879714Y-130427200D02*
X116736857Y-130474819D01*
X116736857Y-130474819D02*
X116641619Y-130474819D01*
X116641619Y-130474819D02*
X116498762Y-130427200D01*
X116498762Y-130427200D02*
X116403524Y-130331961D01*
X116403524Y-130331961D02*
X116355905Y-130236723D01*
X116355905Y-130236723D02*
X116308286Y-130046247D01*
X116308286Y-130046247D02*
X116308286Y-129903390D01*
X116308286Y-129903390D02*
X116355905Y-129712914D01*
X116355905Y-129712914D02*
X116403524Y-129617676D01*
X116403524Y-129617676D02*
X116498762Y-129522438D01*
X116498762Y-129522438D02*
X116641619Y-129474819D01*
X116641619Y-129474819D02*
X116736857Y-129474819D01*
X116736857Y-129474819D02*
X116879714Y-129522438D01*
X116879714Y-129522438D02*
X116927333Y-129570057D01*
X117260667Y-129474819D02*
X117879714Y-129474819D01*
X117879714Y-129474819D02*
X117546381Y-129855771D01*
X117546381Y-129855771D02*
X117689238Y-129855771D01*
X117689238Y-129855771D02*
X117784476Y-129903390D01*
X117784476Y-129903390D02*
X117832095Y-129951009D01*
X117832095Y-129951009D02*
X117879714Y-130046247D01*
X117879714Y-130046247D02*
X117879714Y-130284342D01*
X117879714Y-130284342D02*
X117832095Y-130379580D01*
X117832095Y-130379580D02*
X117784476Y-130427200D01*
X117784476Y-130427200D02*
X117689238Y-130474819D01*
X117689238Y-130474819D02*
X117403524Y-130474819D01*
X117403524Y-130474819D02*
X117308286Y-130427200D01*
X117308286Y-130427200D02*
X117260667Y-130379580D01*
X87450819Y-123305866D02*
X86974628Y-123639199D01*
X87450819Y-123877294D02*
X86450819Y-123877294D01*
X86450819Y-123877294D02*
X86450819Y-123496342D01*
X86450819Y-123496342D02*
X86498438Y-123401104D01*
X86498438Y-123401104D02*
X86546057Y-123353485D01*
X86546057Y-123353485D02*
X86641295Y-123305866D01*
X86641295Y-123305866D02*
X86784152Y-123305866D01*
X86784152Y-123305866D02*
X86879390Y-123353485D01*
X86879390Y-123353485D02*
X86927009Y-123401104D01*
X86927009Y-123401104D02*
X86974628Y-123496342D01*
X86974628Y-123496342D02*
X86974628Y-123877294D01*
X86450819Y-122448723D02*
X86450819Y-122639199D01*
X86450819Y-122639199D02*
X86498438Y-122734437D01*
X86498438Y-122734437D02*
X86546057Y-122782056D01*
X86546057Y-122782056D02*
X86688914Y-122877294D01*
X86688914Y-122877294D02*
X86879390Y-122924913D01*
X86879390Y-122924913D02*
X87260342Y-122924913D01*
X87260342Y-122924913D02*
X87355580Y-122877294D01*
X87355580Y-122877294D02*
X87403200Y-122829675D01*
X87403200Y-122829675D02*
X87450819Y-122734437D01*
X87450819Y-122734437D02*
X87450819Y-122543961D01*
X87450819Y-122543961D02*
X87403200Y-122448723D01*
X87403200Y-122448723D02*
X87355580Y-122401104D01*
X87355580Y-122401104D02*
X87260342Y-122353485D01*
X87260342Y-122353485D02*
X87022247Y-122353485D01*
X87022247Y-122353485D02*
X86927009Y-122401104D01*
X86927009Y-122401104D02*
X86879390Y-122448723D01*
X86879390Y-122448723D02*
X86831771Y-122543961D01*
X86831771Y-122543961D02*
X86831771Y-122734437D01*
X86831771Y-122734437D02*
X86879390Y-122829675D01*
X86879390Y-122829675D02*
X86927009Y-122877294D01*
X86927009Y-122877294D02*
X87022247Y-122924913D01*
X158763905Y-59972819D02*
X158763905Y-58972819D01*
X158763905Y-58972819D02*
X159002000Y-58972819D01*
X159002000Y-58972819D02*
X159144857Y-59020438D01*
X159144857Y-59020438D02*
X159240095Y-59115676D01*
X159240095Y-59115676D02*
X159287714Y-59210914D01*
X159287714Y-59210914D02*
X159335333Y-59401390D01*
X159335333Y-59401390D02*
X159335333Y-59544247D01*
X159335333Y-59544247D02*
X159287714Y-59734723D01*
X159287714Y-59734723D02*
X159240095Y-59829961D01*
X159240095Y-59829961D02*
X159144857Y-59925200D01*
X159144857Y-59925200D02*
X159002000Y-59972819D01*
X159002000Y-59972819D02*
X158763905Y-59972819D01*
X159716286Y-59068057D02*
X159763905Y-59020438D01*
X159763905Y-59020438D02*
X159859143Y-58972819D01*
X159859143Y-58972819D02*
X160097238Y-58972819D01*
X160097238Y-58972819D02*
X160192476Y-59020438D01*
X160192476Y-59020438D02*
X160240095Y-59068057D01*
X160240095Y-59068057D02*
X160287714Y-59163295D01*
X160287714Y-59163295D02*
X160287714Y-59258533D01*
X160287714Y-59258533D02*
X160240095Y-59401390D01*
X160240095Y-59401390D02*
X159668667Y-59972819D01*
X159668667Y-59972819D02*
X160287714Y-59972819D01*
X98609161Y-121331257D02*
X98513923Y-121283638D01*
X98513923Y-121283638D02*
X98418685Y-121188400D01*
X98418685Y-121188400D02*
X98275828Y-121045542D01*
X98275828Y-121045542D02*
X98180590Y-120997923D01*
X98180590Y-120997923D02*
X98085352Y-120997923D01*
X98132971Y-121236019D02*
X98037733Y-121188400D01*
X98037733Y-121188400D02*
X97942495Y-121093161D01*
X97942495Y-121093161D02*
X97894876Y-120902685D01*
X97894876Y-120902685D02*
X97894876Y-120569352D01*
X97894876Y-120569352D02*
X97942495Y-120378876D01*
X97942495Y-120378876D02*
X98037733Y-120283638D01*
X98037733Y-120283638D02*
X98132971Y-120236019D01*
X98132971Y-120236019D02*
X98323447Y-120236019D01*
X98323447Y-120236019D02*
X98418685Y-120283638D01*
X98418685Y-120283638D02*
X98513923Y-120378876D01*
X98513923Y-120378876D02*
X98561542Y-120569352D01*
X98561542Y-120569352D02*
X98561542Y-120902685D01*
X98561542Y-120902685D02*
X98513923Y-121093161D01*
X98513923Y-121093161D02*
X98418685Y-121188400D01*
X98418685Y-121188400D02*
X98323447Y-121236019D01*
X98323447Y-121236019D02*
X98132971Y-121236019D01*
X98942495Y-120331257D02*
X98990114Y-120283638D01*
X98990114Y-120283638D02*
X99085352Y-120236019D01*
X99085352Y-120236019D02*
X99323447Y-120236019D01*
X99323447Y-120236019D02*
X99418685Y-120283638D01*
X99418685Y-120283638D02*
X99466304Y-120331257D01*
X99466304Y-120331257D02*
X99513923Y-120426495D01*
X99513923Y-120426495D02*
X99513923Y-120521733D01*
X99513923Y-120521733D02*
X99466304Y-120664590D01*
X99466304Y-120664590D02*
X98894876Y-121236019D01*
X98894876Y-121236019D02*
X99513923Y-121236019D01*
X159264819Y-71743833D02*
X159979104Y-71743833D01*
X159979104Y-71743833D02*
X160121961Y-71791452D01*
X160121961Y-71791452D02*
X160217200Y-71886690D01*
X160217200Y-71886690D02*
X160264819Y-72029547D01*
X160264819Y-72029547D02*
X160264819Y-72124785D01*
X159598152Y-70839071D02*
X160264819Y-70839071D01*
X159217200Y-71077166D02*
X159931485Y-71315261D01*
X159931485Y-71315261D02*
X159931485Y-70696214D01*
X169537142Y-72463819D02*
X169203809Y-71987628D01*
X168965714Y-72463819D02*
X168965714Y-71463819D01*
X168965714Y-71463819D02*
X169346666Y-71463819D01*
X169346666Y-71463819D02*
X169441904Y-71511438D01*
X169441904Y-71511438D02*
X169489523Y-71559057D01*
X169489523Y-71559057D02*
X169537142Y-71654295D01*
X169537142Y-71654295D02*
X169537142Y-71797152D01*
X169537142Y-71797152D02*
X169489523Y-71892390D01*
X169489523Y-71892390D02*
X169441904Y-71940009D01*
X169441904Y-71940009D02*
X169346666Y-71987628D01*
X169346666Y-71987628D02*
X168965714Y-71987628D01*
X170489523Y-72463819D02*
X169918095Y-72463819D01*
X170203809Y-72463819D02*
X170203809Y-71463819D01*
X170203809Y-71463819D02*
X170108571Y-71606676D01*
X170108571Y-71606676D02*
X170013333Y-71701914D01*
X170013333Y-71701914D02*
X169918095Y-71749533D01*
X171441904Y-72463819D02*
X170870476Y-72463819D01*
X171156190Y-72463819D02*
X171156190Y-71463819D01*
X171156190Y-71463819D02*
X171060952Y-71606676D01*
X171060952Y-71606676D02*
X170965714Y-71701914D01*
X170965714Y-71701914D02*
X170870476Y-71749533D01*
X161804819Y-64123833D02*
X162519104Y-64123833D01*
X162519104Y-64123833D02*
X162661961Y-64171452D01*
X162661961Y-64171452D02*
X162757200Y-64266690D01*
X162757200Y-64266690D02*
X162804819Y-64409547D01*
X162804819Y-64409547D02*
X162804819Y-64504785D01*
X162804819Y-63123833D02*
X162804819Y-63695261D01*
X162804819Y-63409547D02*
X161804819Y-63409547D01*
X161804819Y-63409547D02*
X161947676Y-63504785D01*
X161947676Y-63504785D02*
X162042914Y-63600023D01*
X162042914Y-63600023D02*
X162090533Y-63695261D01*
X92057142Y-66234819D02*
X91723809Y-65758628D01*
X91485714Y-66234819D02*
X91485714Y-65234819D01*
X91485714Y-65234819D02*
X91866666Y-65234819D01*
X91866666Y-65234819D02*
X91961904Y-65282438D01*
X91961904Y-65282438D02*
X92009523Y-65330057D01*
X92009523Y-65330057D02*
X92057142Y-65425295D01*
X92057142Y-65425295D02*
X92057142Y-65568152D01*
X92057142Y-65568152D02*
X92009523Y-65663390D01*
X92009523Y-65663390D02*
X91961904Y-65711009D01*
X91961904Y-65711009D02*
X91866666Y-65758628D01*
X91866666Y-65758628D02*
X91485714Y-65758628D01*
X93009523Y-66234819D02*
X92438095Y-66234819D01*
X92723809Y-66234819D02*
X92723809Y-65234819D01*
X92723809Y-65234819D02*
X92628571Y-65377676D01*
X92628571Y-65377676D02*
X92533333Y-65472914D01*
X92533333Y-65472914D02*
X92438095Y-65520533D01*
X93628571Y-65234819D02*
X93723809Y-65234819D01*
X93723809Y-65234819D02*
X93819047Y-65282438D01*
X93819047Y-65282438D02*
X93866666Y-65330057D01*
X93866666Y-65330057D02*
X93914285Y-65425295D01*
X93914285Y-65425295D02*
X93961904Y-65615771D01*
X93961904Y-65615771D02*
X93961904Y-65853866D01*
X93961904Y-65853866D02*
X93914285Y-66044342D01*
X93914285Y-66044342D02*
X93866666Y-66139580D01*
X93866666Y-66139580D02*
X93819047Y-66187200D01*
X93819047Y-66187200D02*
X93723809Y-66234819D01*
X93723809Y-66234819D02*
X93628571Y-66234819D01*
X93628571Y-66234819D02*
X93533333Y-66187200D01*
X93533333Y-66187200D02*
X93485714Y-66139580D01*
X93485714Y-66139580D02*
X93438095Y-66044342D01*
X93438095Y-66044342D02*
X93390476Y-65853866D01*
X93390476Y-65853866D02*
X93390476Y-65615771D01*
X93390476Y-65615771D02*
X93438095Y-65425295D01*
X93438095Y-65425295D02*
X93485714Y-65330057D01*
X93485714Y-65330057D02*
X93533333Y-65282438D01*
X93533333Y-65282438D02*
X93628571Y-65234819D01*
X169695905Y-116786819D02*
X169695905Y-115786819D01*
X169695905Y-115786819D02*
X169934000Y-115786819D01*
X169934000Y-115786819D02*
X170076857Y-115834438D01*
X170076857Y-115834438D02*
X170172095Y-115929676D01*
X170172095Y-115929676D02*
X170219714Y-116024914D01*
X170219714Y-116024914D02*
X170267333Y-116215390D01*
X170267333Y-116215390D02*
X170267333Y-116358247D01*
X170267333Y-116358247D02*
X170219714Y-116548723D01*
X170219714Y-116548723D02*
X170172095Y-116643961D01*
X170172095Y-116643961D02*
X170076857Y-116739200D01*
X170076857Y-116739200D02*
X169934000Y-116786819D01*
X169934000Y-116786819D02*
X169695905Y-116786819D01*
X171124476Y-116120152D02*
X171124476Y-116786819D01*
X170886381Y-115739200D02*
X170648286Y-116453485D01*
X170648286Y-116453485D02*
X171267333Y-116453485D01*
X92549333Y-61408819D02*
X92216000Y-60932628D01*
X91977905Y-61408819D02*
X91977905Y-60408819D01*
X91977905Y-60408819D02*
X92358857Y-60408819D01*
X92358857Y-60408819D02*
X92454095Y-60456438D01*
X92454095Y-60456438D02*
X92501714Y-60504057D01*
X92501714Y-60504057D02*
X92549333Y-60599295D01*
X92549333Y-60599295D02*
X92549333Y-60742152D01*
X92549333Y-60742152D02*
X92501714Y-60837390D01*
X92501714Y-60837390D02*
X92454095Y-60885009D01*
X92454095Y-60885009D02*
X92358857Y-60932628D01*
X92358857Y-60932628D02*
X91977905Y-60932628D01*
X93025524Y-61408819D02*
X93216000Y-61408819D01*
X93216000Y-61408819D02*
X93311238Y-61361200D01*
X93311238Y-61361200D02*
X93358857Y-61313580D01*
X93358857Y-61313580D02*
X93454095Y-61170723D01*
X93454095Y-61170723D02*
X93501714Y-60980247D01*
X93501714Y-60980247D02*
X93501714Y-60599295D01*
X93501714Y-60599295D02*
X93454095Y-60504057D01*
X93454095Y-60504057D02*
X93406476Y-60456438D01*
X93406476Y-60456438D02*
X93311238Y-60408819D01*
X93311238Y-60408819D02*
X93120762Y-60408819D01*
X93120762Y-60408819D02*
X93025524Y-60456438D01*
X93025524Y-60456438D02*
X92977905Y-60504057D01*
X92977905Y-60504057D02*
X92930286Y-60599295D01*
X92930286Y-60599295D02*
X92930286Y-60837390D01*
X92930286Y-60837390D02*
X92977905Y-60932628D01*
X92977905Y-60932628D02*
X93025524Y-60980247D01*
X93025524Y-60980247D02*
X93120762Y-61027866D01*
X93120762Y-61027866D02*
X93311238Y-61027866D01*
X93311238Y-61027866D02*
X93406476Y-60980247D01*
X93406476Y-60980247D02*
X93454095Y-60932628D01*
X93454095Y-60932628D02*
X93501714Y-60837390D01*
X174196476Y-125213819D02*
X174196476Y-125928104D01*
X174196476Y-125928104D02*
X174148857Y-126070961D01*
X174148857Y-126070961D02*
X174053619Y-126166200D01*
X174053619Y-126166200D02*
X173910762Y-126213819D01*
X173910762Y-126213819D02*
X173815524Y-126213819D01*
X175196476Y-126213819D02*
X174625048Y-126213819D01*
X174910762Y-126213819D02*
X174910762Y-125213819D01*
X174910762Y-125213819D02*
X174815524Y-125356676D01*
X174815524Y-125356676D02*
X174720286Y-125451914D01*
X174720286Y-125451914D02*
X174625048Y-125499533D01*
X176053619Y-125547152D02*
X176053619Y-126213819D01*
X175815524Y-125166200D02*
X175577429Y-125880485D01*
X175577429Y-125880485D02*
X176196476Y-125880485D01*
X152955333Y-117509580D02*
X152907714Y-117557200D01*
X152907714Y-117557200D02*
X152764857Y-117604819D01*
X152764857Y-117604819D02*
X152669619Y-117604819D01*
X152669619Y-117604819D02*
X152526762Y-117557200D01*
X152526762Y-117557200D02*
X152431524Y-117461961D01*
X152431524Y-117461961D02*
X152383905Y-117366723D01*
X152383905Y-117366723D02*
X152336286Y-117176247D01*
X152336286Y-117176247D02*
X152336286Y-117033390D01*
X152336286Y-117033390D02*
X152383905Y-116842914D01*
X152383905Y-116842914D02*
X152431524Y-116747676D01*
X152431524Y-116747676D02*
X152526762Y-116652438D01*
X152526762Y-116652438D02*
X152669619Y-116604819D01*
X152669619Y-116604819D02*
X152764857Y-116604819D01*
X152764857Y-116604819D02*
X152907714Y-116652438D01*
X152907714Y-116652438D02*
X152955333Y-116700057D01*
X153907714Y-117604819D02*
X153336286Y-117604819D01*
X153622000Y-117604819D02*
X153622000Y-116604819D01*
X153622000Y-116604819D02*
X153526762Y-116747676D01*
X153526762Y-116747676D02*
X153431524Y-116842914D01*
X153431524Y-116842914D02*
X153336286Y-116890533D01*
X96870619Y-50944123D02*
X97584904Y-50944123D01*
X97584904Y-50944123D02*
X97727761Y-50991742D01*
X97727761Y-50991742D02*
X97823000Y-51086980D01*
X97823000Y-51086980D02*
X97870619Y-51229837D01*
X97870619Y-51229837D02*
X97870619Y-51325075D01*
X97870619Y-49944123D02*
X97870619Y-50515551D01*
X97870619Y-50229837D02*
X96870619Y-50229837D01*
X96870619Y-50229837D02*
X97013476Y-50325075D01*
X97013476Y-50325075D02*
X97108714Y-50420313D01*
X97108714Y-50420313D02*
X97156333Y-50515551D01*
X96965857Y-49563170D02*
X96918238Y-49515551D01*
X96918238Y-49515551D02*
X96870619Y-49420313D01*
X96870619Y-49420313D02*
X96870619Y-49182218D01*
X96870619Y-49182218D02*
X96918238Y-49086980D01*
X96918238Y-49086980D02*
X96965857Y-49039361D01*
X96965857Y-49039361D02*
X97061095Y-48991742D01*
X97061095Y-48991742D02*
X97156333Y-48991742D01*
X97156333Y-48991742D02*
X97299190Y-49039361D01*
X97299190Y-49039361D02*
X97870619Y-49610789D01*
X97870619Y-49610789D02*
X97870619Y-48991742D01*
X85540476Y-53644819D02*
X85540476Y-54359104D01*
X85540476Y-54359104D02*
X85492857Y-54501961D01*
X85492857Y-54501961D02*
X85397619Y-54597200D01*
X85397619Y-54597200D02*
X85254762Y-54644819D01*
X85254762Y-54644819D02*
X85159524Y-54644819D01*
X86540476Y-54644819D02*
X85969048Y-54644819D01*
X86254762Y-54644819D02*
X86254762Y-53644819D01*
X86254762Y-53644819D02*
X86159524Y-53787676D01*
X86159524Y-53787676D02*
X86064286Y-53882914D01*
X86064286Y-53882914D02*
X85969048Y-53930533D01*
X87397619Y-53644819D02*
X87207143Y-53644819D01*
X87207143Y-53644819D02*
X87111905Y-53692438D01*
X87111905Y-53692438D02*
X87064286Y-53740057D01*
X87064286Y-53740057D02*
X86969048Y-53882914D01*
X86969048Y-53882914D02*
X86921429Y-54073390D01*
X86921429Y-54073390D02*
X86921429Y-54454342D01*
X86921429Y-54454342D02*
X86969048Y-54549580D01*
X86969048Y-54549580D02*
X87016667Y-54597200D01*
X87016667Y-54597200D02*
X87111905Y-54644819D01*
X87111905Y-54644819D02*
X87302381Y-54644819D01*
X87302381Y-54644819D02*
X87397619Y-54597200D01*
X87397619Y-54597200D02*
X87445238Y-54549580D01*
X87445238Y-54549580D02*
X87492857Y-54454342D01*
X87492857Y-54454342D02*
X87492857Y-54216247D01*
X87492857Y-54216247D02*
X87445238Y-54121009D01*
X87445238Y-54121009D02*
X87397619Y-54073390D01*
X87397619Y-54073390D02*
X87302381Y-54025771D01*
X87302381Y-54025771D02*
X87111905Y-54025771D01*
X87111905Y-54025771D02*
X87016667Y-54073390D01*
X87016667Y-54073390D02*
X86969048Y-54121009D01*
X86969048Y-54121009D02*
X86921429Y-54216247D01*
X162075905Y-130970819D02*
X162075905Y-129970819D01*
X162075905Y-129970819D02*
X162314000Y-129970819D01*
X162314000Y-129970819D02*
X162456857Y-130018438D01*
X162456857Y-130018438D02*
X162552095Y-130113676D01*
X162552095Y-130113676D02*
X162599714Y-130208914D01*
X162599714Y-130208914D02*
X162647333Y-130399390D01*
X162647333Y-130399390D02*
X162647333Y-130542247D01*
X162647333Y-130542247D02*
X162599714Y-130732723D01*
X162599714Y-130732723D02*
X162552095Y-130827961D01*
X162552095Y-130827961D02*
X162456857Y-130923200D01*
X162456857Y-130923200D02*
X162314000Y-130970819D01*
X162314000Y-130970819D02*
X162075905Y-130970819D01*
X162980667Y-129970819D02*
X163599714Y-129970819D01*
X163599714Y-129970819D02*
X163266381Y-130351771D01*
X163266381Y-130351771D02*
X163409238Y-130351771D01*
X163409238Y-130351771D02*
X163504476Y-130399390D01*
X163504476Y-130399390D02*
X163552095Y-130447009D01*
X163552095Y-130447009D02*
X163599714Y-130542247D01*
X163599714Y-130542247D02*
X163599714Y-130780342D01*
X163599714Y-130780342D02*
X163552095Y-130875580D01*
X163552095Y-130875580D02*
X163504476Y-130923200D01*
X163504476Y-130923200D02*
X163409238Y-130970819D01*
X163409238Y-130970819D02*
X163123524Y-130970819D01*
X163123524Y-130970819D02*
X163028286Y-130923200D01*
X163028286Y-130923200D02*
X162980667Y-130875580D01*
X93087619Y-123305866D02*
X92611428Y-123639199D01*
X93087619Y-123877294D02*
X92087619Y-123877294D01*
X92087619Y-123877294D02*
X92087619Y-123496342D01*
X92087619Y-123496342D02*
X92135238Y-123401104D01*
X92135238Y-123401104D02*
X92182857Y-123353485D01*
X92182857Y-123353485D02*
X92278095Y-123305866D01*
X92278095Y-123305866D02*
X92420952Y-123305866D01*
X92420952Y-123305866D02*
X92516190Y-123353485D01*
X92516190Y-123353485D02*
X92563809Y-123401104D01*
X92563809Y-123401104D02*
X92611428Y-123496342D01*
X92611428Y-123496342D02*
X92611428Y-123877294D01*
X92087619Y-122401104D02*
X92087619Y-122877294D01*
X92087619Y-122877294D02*
X92563809Y-122924913D01*
X92563809Y-122924913D02*
X92516190Y-122877294D01*
X92516190Y-122877294D02*
X92468571Y-122782056D01*
X92468571Y-122782056D02*
X92468571Y-122543961D01*
X92468571Y-122543961D02*
X92516190Y-122448723D01*
X92516190Y-122448723D02*
X92563809Y-122401104D01*
X92563809Y-122401104D02*
X92659047Y-122353485D01*
X92659047Y-122353485D02*
X92897142Y-122353485D01*
X92897142Y-122353485D02*
X92992380Y-122401104D01*
X92992380Y-122401104D02*
X93040000Y-122448723D01*
X93040000Y-122448723D02*
X93087619Y-122543961D01*
X93087619Y-122543961D02*
X93087619Y-122782056D01*
X93087619Y-122782056D02*
X93040000Y-122877294D01*
X93040000Y-122877294D02*
X92992380Y-122924913D01*
X159264819Y-107303833D02*
X159979104Y-107303833D01*
X159979104Y-107303833D02*
X160121961Y-107351452D01*
X160121961Y-107351452D02*
X160217200Y-107446690D01*
X160217200Y-107446690D02*
X160264819Y-107589547D01*
X160264819Y-107589547D02*
X160264819Y-107684785D01*
X159360057Y-106875261D02*
X159312438Y-106827642D01*
X159312438Y-106827642D02*
X159264819Y-106732404D01*
X159264819Y-106732404D02*
X159264819Y-106494309D01*
X159264819Y-106494309D02*
X159312438Y-106399071D01*
X159312438Y-106399071D02*
X159360057Y-106351452D01*
X159360057Y-106351452D02*
X159455295Y-106303833D01*
X159455295Y-106303833D02*
X159550533Y-106303833D01*
X159550533Y-106303833D02*
X159693390Y-106351452D01*
X159693390Y-106351452D02*
X160264819Y-106922880D01*
X160264819Y-106922880D02*
X160264819Y-106303833D01*
X130579905Y-135074819D02*
X130579905Y-134074819D01*
X130579905Y-134074819D02*
X130818000Y-134074819D01*
X130818000Y-134074819D02*
X130960857Y-134122438D01*
X130960857Y-134122438D02*
X131056095Y-134217676D01*
X131056095Y-134217676D02*
X131103714Y-134312914D01*
X131103714Y-134312914D02*
X131151333Y-134503390D01*
X131151333Y-134503390D02*
X131151333Y-134646247D01*
X131151333Y-134646247D02*
X131103714Y-134836723D01*
X131103714Y-134836723D02*
X131056095Y-134931961D01*
X131056095Y-134931961D02*
X130960857Y-135027200D01*
X130960857Y-135027200D02*
X130818000Y-135074819D01*
X130818000Y-135074819D02*
X130579905Y-135074819D01*
X132056095Y-134074819D02*
X131579905Y-134074819D01*
X131579905Y-134074819D02*
X131532286Y-134551009D01*
X131532286Y-134551009D02*
X131579905Y-134503390D01*
X131579905Y-134503390D02*
X131675143Y-134455771D01*
X131675143Y-134455771D02*
X131913238Y-134455771D01*
X131913238Y-134455771D02*
X132008476Y-134503390D01*
X132008476Y-134503390D02*
X132056095Y-134551009D01*
X132056095Y-134551009D02*
X132103714Y-134646247D01*
X132103714Y-134646247D02*
X132103714Y-134884342D01*
X132103714Y-134884342D02*
X132056095Y-134979580D01*
X132056095Y-134979580D02*
X132008476Y-135027200D01*
X132008476Y-135027200D02*
X131913238Y-135074819D01*
X131913238Y-135074819D02*
X131675143Y-135074819D01*
X131675143Y-135074819D02*
X131579905Y-135027200D01*
X131579905Y-135027200D02*
X131532286Y-134979580D01*
X139623819Y-45889523D02*
X140338104Y-45889523D01*
X140338104Y-45889523D02*
X140480961Y-45937142D01*
X140480961Y-45937142D02*
X140576200Y-46032380D01*
X140576200Y-46032380D02*
X140623819Y-46175237D01*
X140623819Y-46175237D02*
X140623819Y-46270475D01*
X140623819Y-44889523D02*
X140623819Y-45460951D01*
X140623819Y-45175237D02*
X139623819Y-45175237D01*
X139623819Y-45175237D02*
X139766676Y-45270475D01*
X139766676Y-45270475D02*
X139861914Y-45365713D01*
X139861914Y-45365713D02*
X139909533Y-45460951D01*
X139623819Y-44556189D02*
X139623819Y-43937142D01*
X139623819Y-43937142D02*
X140004771Y-44270475D01*
X140004771Y-44270475D02*
X140004771Y-44127618D01*
X140004771Y-44127618D02*
X140052390Y-44032380D01*
X140052390Y-44032380D02*
X140100009Y-43984761D01*
X140100009Y-43984761D02*
X140195247Y-43937142D01*
X140195247Y-43937142D02*
X140433342Y-43937142D01*
X140433342Y-43937142D02*
X140528580Y-43984761D01*
X140528580Y-43984761D02*
X140576200Y-44032380D01*
X140576200Y-44032380D02*
X140623819Y-44127618D01*
X140623819Y-44127618D02*
X140623819Y-44413332D01*
X140623819Y-44413332D02*
X140576200Y-44508570D01*
X140576200Y-44508570D02*
X140528580Y-44556189D01*
X107824133Y-57599819D02*
X107490800Y-57123628D01*
X107252705Y-57599819D02*
X107252705Y-56599819D01*
X107252705Y-56599819D02*
X107633657Y-56599819D01*
X107633657Y-56599819D02*
X107728895Y-56647438D01*
X107728895Y-56647438D02*
X107776514Y-56695057D01*
X107776514Y-56695057D02*
X107824133Y-56790295D01*
X107824133Y-56790295D02*
X107824133Y-56933152D01*
X107824133Y-56933152D02*
X107776514Y-57028390D01*
X107776514Y-57028390D02*
X107728895Y-57076009D01*
X107728895Y-57076009D02*
X107633657Y-57123628D01*
X107633657Y-57123628D02*
X107252705Y-57123628D01*
X108681276Y-56933152D02*
X108681276Y-57599819D01*
X108443181Y-56552200D02*
X108205086Y-57266485D01*
X108205086Y-57266485D02*
X108824133Y-57266485D01*
X104496733Y-57752219D02*
X104163400Y-57276028D01*
X103925305Y-57752219D02*
X103925305Y-56752219D01*
X103925305Y-56752219D02*
X104306257Y-56752219D01*
X104306257Y-56752219D02*
X104401495Y-56799838D01*
X104401495Y-56799838D02*
X104449114Y-56847457D01*
X104449114Y-56847457D02*
X104496733Y-56942695D01*
X104496733Y-56942695D02*
X104496733Y-57085552D01*
X104496733Y-57085552D02*
X104449114Y-57180790D01*
X104449114Y-57180790D02*
X104401495Y-57228409D01*
X104401495Y-57228409D02*
X104306257Y-57276028D01*
X104306257Y-57276028D02*
X103925305Y-57276028D01*
X104830067Y-56752219D02*
X105449114Y-56752219D01*
X105449114Y-56752219D02*
X105115781Y-57133171D01*
X105115781Y-57133171D02*
X105258638Y-57133171D01*
X105258638Y-57133171D02*
X105353876Y-57180790D01*
X105353876Y-57180790D02*
X105401495Y-57228409D01*
X105401495Y-57228409D02*
X105449114Y-57323647D01*
X105449114Y-57323647D02*
X105449114Y-57561742D01*
X105449114Y-57561742D02*
X105401495Y-57656980D01*
X105401495Y-57656980D02*
X105353876Y-57704600D01*
X105353876Y-57704600D02*
X105258638Y-57752219D01*
X105258638Y-57752219D02*
X104972924Y-57752219D01*
X104972924Y-57752219D02*
X104877686Y-57704600D01*
X104877686Y-57704600D02*
X104830067Y-57656980D01*
X163663333Y-136151580D02*
X163615714Y-136199200D01*
X163615714Y-136199200D02*
X163472857Y-136246819D01*
X163472857Y-136246819D02*
X163377619Y-136246819D01*
X163377619Y-136246819D02*
X163234762Y-136199200D01*
X163234762Y-136199200D02*
X163139524Y-136103961D01*
X163139524Y-136103961D02*
X163091905Y-136008723D01*
X163091905Y-136008723D02*
X163044286Y-135818247D01*
X163044286Y-135818247D02*
X163044286Y-135675390D01*
X163044286Y-135675390D02*
X163091905Y-135484914D01*
X163091905Y-135484914D02*
X163139524Y-135389676D01*
X163139524Y-135389676D02*
X163234762Y-135294438D01*
X163234762Y-135294438D02*
X163377619Y-135246819D01*
X163377619Y-135246819D02*
X163472857Y-135246819D01*
X163472857Y-135246819D02*
X163615714Y-135294438D01*
X163615714Y-135294438D02*
X163663333Y-135342057D01*
X163996667Y-135246819D02*
X164663333Y-135246819D01*
X164663333Y-135246819D02*
X164234762Y-136246819D01*
X172346580Y-67698857D02*
X172394200Y-67746476D01*
X172394200Y-67746476D02*
X172441819Y-67889333D01*
X172441819Y-67889333D02*
X172441819Y-67984571D01*
X172441819Y-67984571D02*
X172394200Y-68127428D01*
X172394200Y-68127428D02*
X172298961Y-68222666D01*
X172298961Y-68222666D02*
X172203723Y-68270285D01*
X172203723Y-68270285D02*
X172013247Y-68317904D01*
X172013247Y-68317904D02*
X171870390Y-68317904D01*
X171870390Y-68317904D02*
X171679914Y-68270285D01*
X171679914Y-68270285D02*
X171584676Y-68222666D01*
X171584676Y-68222666D02*
X171489438Y-68127428D01*
X171489438Y-68127428D02*
X171441819Y-67984571D01*
X171441819Y-67984571D02*
X171441819Y-67889333D01*
X171441819Y-67889333D02*
X171489438Y-67746476D01*
X171489438Y-67746476D02*
X171537057Y-67698857D01*
X172441819Y-66746476D02*
X172441819Y-67317904D01*
X172441819Y-67032190D02*
X171441819Y-67032190D01*
X171441819Y-67032190D02*
X171584676Y-67127428D01*
X171584676Y-67127428D02*
X171679914Y-67222666D01*
X171679914Y-67222666D02*
X171727533Y-67317904D01*
X171441819Y-66127428D02*
X171441819Y-66032190D01*
X171441819Y-66032190D02*
X171489438Y-65936952D01*
X171489438Y-65936952D02*
X171537057Y-65889333D01*
X171537057Y-65889333D02*
X171632295Y-65841714D01*
X171632295Y-65841714D02*
X171822771Y-65794095D01*
X171822771Y-65794095D02*
X172060866Y-65794095D01*
X172060866Y-65794095D02*
X172251342Y-65841714D01*
X172251342Y-65841714D02*
X172346580Y-65889333D01*
X172346580Y-65889333D02*
X172394200Y-65936952D01*
X172394200Y-65936952D02*
X172441819Y-66032190D01*
X172441819Y-66032190D02*
X172441819Y-66127428D01*
X172441819Y-66127428D02*
X172394200Y-66222666D01*
X172394200Y-66222666D02*
X172346580Y-66270285D01*
X172346580Y-66270285D02*
X172251342Y-66317904D01*
X172251342Y-66317904D02*
X172060866Y-66365523D01*
X172060866Y-66365523D02*
X171822771Y-66365523D01*
X171822771Y-66365523D02*
X171632295Y-66317904D01*
X171632295Y-66317904D02*
X171537057Y-66270285D01*
X171537057Y-66270285D02*
X171489438Y-66222666D01*
X171489438Y-66222666D02*
X171441819Y-66127428D01*
X109307333Y-125073580D02*
X109259714Y-125121200D01*
X109259714Y-125121200D02*
X109116857Y-125168819D01*
X109116857Y-125168819D02*
X109021619Y-125168819D01*
X109021619Y-125168819D02*
X108878762Y-125121200D01*
X108878762Y-125121200D02*
X108783524Y-125025961D01*
X108783524Y-125025961D02*
X108735905Y-124930723D01*
X108735905Y-124930723D02*
X108688286Y-124740247D01*
X108688286Y-124740247D02*
X108688286Y-124597390D01*
X108688286Y-124597390D02*
X108735905Y-124406914D01*
X108735905Y-124406914D02*
X108783524Y-124311676D01*
X108783524Y-124311676D02*
X108878762Y-124216438D01*
X108878762Y-124216438D02*
X109021619Y-124168819D01*
X109021619Y-124168819D02*
X109116857Y-124168819D01*
X109116857Y-124168819D02*
X109259714Y-124216438D01*
X109259714Y-124216438D02*
X109307333Y-124264057D01*
X110164476Y-124168819D02*
X109974000Y-124168819D01*
X109974000Y-124168819D02*
X109878762Y-124216438D01*
X109878762Y-124216438D02*
X109831143Y-124264057D01*
X109831143Y-124264057D02*
X109735905Y-124406914D01*
X109735905Y-124406914D02*
X109688286Y-124597390D01*
X109688286Y-124597390D02*
X109688286Y-124978342D01*
X109688286Y-124978342D02*
X109735905Y-125073580D01*
X109735905Y-125073580D02*
X109783524Y-125121200D01*
X109783524Y-125121200D02*
X109878762Y-125168819D01*
X109878762Y-125168819D02*
X110069238Y-125168819D01*
X110069238Y-125168819D02*
X110164476Y-125121200D01*
X110164476Y-125121200D02*
X110212095Y-125073580D01*
X110212095Y-125073580D02*
X110259714Y-124978342D01*
X110259714Y-124978342D02*
X110259714Y-124740247D01*
X110259714Y-124740247D02*
X110212095Y-124645009D01*
X110212095Y-124645009D02*
X110164476Y-124597390D01*
X110164476Y-124597390D02*
X110069238Y-124549771D01*
X110069238Y-124549771D02*
X109878762Y-124549771D01*
X109878762Y-124549771D02*
X109783524Y-124597390D01*
X109783524Y-124597390D02*
X109735905Y-124645009D01*
X109735905Y-124645009D02*
X109688286Y-124740247D01*
X116626819Y-46561333D02*
X117341104Y-46561333D01*
X117341104Y-46561333D02*
X117483961Y-46608952D01*
X117483961Y-46608952D02*
X117579200Y-46704190D01*
X117579200Y-46704190D02*
X117626819Y-46847047D01*
X117626819Y-46847047D02*
X117626819Y-46942285D01*
X116626819Y-46180380D02*
X116626819Y-45513714D01*
X116626819Y-45513714D02*
X117626819Y-45942285D01*
X160859333Y-116272819D02*
X160526000Y-115796628D01*
X160287905Y-116272819D02*
X160287905Y-115272819D01*
X160287905Y-115272819D02*
X160668857Y-115272819D01*
X160668857Y-115272819D02*
X160764095Y-115320438D01*
X160764095Y-115320438D02*
X160811714Y-115368057D01*
X160811714Y-115368057D02*
X160859333Y-115463295D01*
X160859333Y-115463295D02*
X160859333Y-115606152D01*
X160859333Y-115606152D02*
X160811714Y-115701390D01*
X160811714Y-115701390D02*
X160764095Y-115749009D01*
X160764095Y-115749009D02*
X160668857Y-115796628D01*
X160668857Y-115796628D02*
X160287905Y-115796628D01*
X161192667Y-115272819D02*
X161859333Y-115272819D01*
X161859333Y-115272819D02*
X161430762Y-116272819D01*
X142549819Y-134445333D02*
X143264104Y-134445333D01*
X143264104Y-134445333D02*
X143406961Y-134492952D01*
X143406961Y-134492952D02*
X143502200Y-134588190D01*
X143502200Y-134588190D02*
X143549819Y-134731047D01*
X143549819Y-134731047D02*
X143549819Y-134826285D01*
X142549819Y-133492952D02*
X142549819Y-133969142D01*
X142549819Y-133969142D02*
X143026009Y-134016761D01*
X143026009Y-134016761D02*
X142978390Y-133969142D01*
X142978390Y-133969142D02*
X142930771Y-133873904D01*
X142930771Y-133873904D02*
X142930771Y-133635809D01*
X142930771Y-133635809D02*
X142978390Y-133540571D01*
X142978390Y-133540571D02*
X143026009Y-133492952D01*
X143026009Y-133492952D02*
X143121247Y-133445333D01*
X143121247Y-133445333D02*
X143359342Y-133445333D01*
X143359342Y-133445333D02*
X143454580Y-133492952D01*
X143454580Y-133492952D02*
X143502200Y-133540571D01*
X143502200Y-133540571D02*
X143549819Y-133635809D01*
X143549819Y-133635809D02*
X143549819Y-133873904D01*
X143549819Y-133873904D02*
X143502200Y-133969142D01*
X143502200Y-133969142D02*
X143454580Y-134016761D01*
X84451866Y-113443219D02*
X84451866Y-114157504D01*
X84451866Y-114157504D02*
X84404247Y-114300361D01*
X84404247Y-114300361D02*
X84309009Y-114395600D01*
X84309009Y-114395600D02*
X84166152Y-114443219D01*
X84166152Y-114443219D02*
X84070914Y-114443219D01*
X85070914Y-113871790D02*
X84975676Y-113824171D01*
X84975676Y-113824171D02*
X84928057Y-113776552D01*
X84928057Y-113776552D02*
X84880438Y-113681314D01*
X84880438Y-113681314D02*
X84880438Y-113633695D01*
X84880438Y-113633695D02*
X84928057Y-113538457D01*
X84928057Y-113538457D02*
X84975676Y-113490838D01*
X84975676Y-113490838D02*
X85070914Y-113443219D01*
X85070914Y-113443219D02*
X85261390Y-113443219D01*
X85261390Y-113443219D02*
X85356628Y-113490838D01*
X85356628Y-113490838D02*
X85404247Y-113538457D01*
X85404247Y-113538457D02*
X85451866Y-113633695D01*
X85451866Y-113633695D02*
X85451866Y-113681314D01*
X85451866Y-113681314D02*
X85404247Y-113776552D01*
X85404247Y-113776552D02*
X85356628Y-113824171D01*
X85356628Y-113824171D02*
X85261390Y-113871790D01*
X85261390Y-113871790D02*
X85070914Y-113871790D01*
X85070914Y-113871790D02*
X84975676Y-113919409D01*
X84975676Y-113919409D02*
X84928057Y-113967028D01*
X84928057Y-113967028D02*
X84880438Y-114062266D01*
X84880438Y-114062266D02*
X84880438Y-114252742D01*
X84880438Y-114252742D02*
X84928057Y-114347980D01*
X84928057Y-114347980D02*
X84975676Y-114395600D01*
X84975676Y-114395600D02*
X85070914Y-114443219D01*
X85070914Y-114443219D02*
X85261390Y-114443219D01*
X85261390Y-114443219D02*
X85356628Y-114395600D01*
X85356628Y-114395600D02*
X85404247Y-114347980D01*
X85404247Y-114347980D02*
X85451866Y-114252742D01*
X85451866Y-114252742D02*
X85451866Y-114062266D01*
X85451866Y-114062266D02*
X85404247Y-113967028D01*
X85404247Y-113967028D02*
X85356628Y-113919409D01*
X85356628Y-113919409D02*
X85261390Y-113871790D01*
X95957819Y-106973666D02*
X95481628Y-107306999D01*
X95957819Y-107545094D02*
X94957819Y-107545094D01*
X94957819Y-107545094D02*
X94957819Y-107164142D01*
X94957819Y-107164142D02*
X95005438Y-107068904D01*
X95005438Y-107068904D02*
X95053057Y-107021285D01*
X95053057Y-107021285D02*
X95148295Y-106973666D01*
X95148295Y-106973666D02*
X95291152Y-106973666D01*
X95291152Y-106973666D02*
X95386390Y-107021285D01*
X95386390Y-107021285D02*
X95434009Y-107068904D01*
X95434009Y-107068904D02*
X95481628Y-107164142D01*
X95481628Y-107164142D02*
X95481628Y-107545094D01*
X95957819Y-106021285D02*
X95957819Y-106592713D01*
X95957819Y-106306999D02*
X94957819Y-106306999D01*
X94957819Y-106306999D02*
X95100676Y-106402237D01*
X95100676Y-106402237D02*
X95195914Y-106497475D01*
X95195914Y-106497475D02*
X95243533Y-106592713D01*
X84746666Y-73334819D02*
X84746666Y-74049104D01*
X84746666Y-74049104D02*
X84699047Y-74191961D01*
X84699047Y-74191961D02*
X84603809Y-74287200D01*
X84603809Y-74287200D02*
X84460952Y-74334819D01*
X84460952Y-74334819D02*
X84365714Y-74334819D01*
X85651428Y-73334819D02*
X85460952Y-73334819D01*
X85460952Y-73334819D02*
X85365714Y-73382438D01*
X85365714Y-73382438D02*
X85318095Y-73430057D01*
X85318095Y-73430057D02*
X85222857Y-73572914D01*
X85222857Y-73572914D02*
X85175238Y-73763390D01*
X85175238Y-73763390D02*
X85175238Y-74144342D01*
X85175238Y-74144342D02*
X85222857Y-74239580D01*
X85222857Y-74239580D02*
X85270476Y-74287200D01*
X85270476Y-74287200D02*
X85365714Y-74334819D01*
X85365714Y-74334819D02*
X85556190Y-74334819D01*
X85556190Y-74334819D02*
X85651428Y-74287200D01*
X85651428Y-74287200D02*
X85699047Y-74239580D01*
X85699047Y-74239580D02*
X85746666Y-74144342D01*
X85746666Y-74144342D02*
X85746666Y-73906247D01*
X85746666Y-73906247D02*
X85699047Y-73811009D01*
X85699047Y-73811009D02*
X85651428Y-73763390D01*
X85651428Y-73763390D02*
X85556190Y-73715771D01*
X85556190Y-73715771D02*
X85365714Y-73715771D01*
X85365714Y-73715771D02*
X85270476Y-73763390D01*
X85270476Y-73763390D02*
X85222857Y-73811009D01*
X85222857Y-73811009D02*
X85175238Y-73906247D01*
X138684095Y-115250819D02*
X138684095Y-116060342D01*
X138684095Y-116060342D02*
X138731714Y-116155580D01*
X138731714Y-116155580D02*
X138779333Y-116203200D01*
X138779333Y-116203200D02*
X138874571Y-116250819D01*
X138874571Y-116250819D02*
X139065047Y-116250819D01*
X139065047Y-116250819D02*
X139160285Y-116203200D01*
X139160285Y-116203200D02*
X139207904Y-116155580D01*
X139207904Y-116155580D02*
X139255523Y-116060342D01*
X139255523Y-116060342D02*
X139255523Y-115250819D01*
X140255523Y-116250819D02*
X139684095Y-116250819D01*
X139969809Y-116250819D02*
X139969809Y-115250819D01*
X139969809Y-115250819D02*
X139874571Y-115393676D01*
X139874571Y-115393676D02*
X139779333Y-115488914D01*
X139779333Y-115488914D02*
X139684095Y-115536533D01*
X133132533Y-113694380D02*
X133084914Y-113742000D01*
X133084914Y-113742000D02*
X132942057Y-113789619D01*
X132942057Y-113789619D02*
X132846819Y-113789619D01*
X132846819Y-113789619D02*
X132703962Y-113742000D01*
X132703962Y-113742000D02*
X132608724Y-113646761D01*
X132608724Y-113646761D02*
X132561105Y-113551523D01*
X132561105Y-113551523D02*
X132513486Y-113361047D01*
X132513486Y-113361047D02*
X132513486Y-113218190D01*
X132513486Y-113218190D02*
X132561105Y-113027714D01*
X132561105Y-113027714D02*
X132608724Y-112932476D01*
X132608724Y-112932476D02*
X132703962Y-112837238D01*
X132703962Y-112837238D02*
X132846819Y-112789619D01*
X132846819Y-112789619D02*
X132942057Y-112789619D01*
X132942057Y-112789619D02*
X133084914Y-112837238D01*
X133084914Y-112837238D02*
X133132533Y-112884857D01*
X133513486Y-112884857D02*
X133561105Y-112837238D01*
X133561105Y-112837238D02*
X133656343Y-112789619D01*
X133656343Y-112789619D02*
X133894438Y-112789619D01*
X133894438Y-112789619D02*
X133989676Y-112837238D01*
X133989676Y-112837238D02*
X134037295Y-112884857D01*
X134037295Y-112884857D02*
X134084914Y-112980095D01*
X134084914Y-112980095D02*
X134084914Y-113075333D01*
X134084914Y-113075333D02*
X134037295Y-113218190D01*
X134037295Y-113218190D02*
X133465867Y-113789619D01*
X133465867Y-113789619D02*
X134084914Y-113789619D01*
X89495333Y-126314580D02*
X89447714Y-126362200D01*
X89447714Y-126362200D02*
X89304857Y-126409819D01*
X89304857Y-126409819D02*
X89209619Y-126409819D01*
X89209619Y-126409819D02*
X89066762Y-126362200D01*
X89066762Y-126362200D02*
X88971524Y-126266961D01*
X88971524Y-126266961D02*
X88923905Y-126171723D01*
X88923905Y-126171723D02*
X88876286Y-125981247D01*
X88876286Y-125981247D02*
X88876286Y-125838390D01*
X88876286Y-125838390D02*
X88923905Y-125647914D01*
X88923905Y-125647914D02*
X88971524Y-125552676D01*
X88971524Y-125552676D02*
X89066762Y-125457438D01*
X89066762Y-125457438D02*
X89209619Y-125409819D01*
X89209619Y-125409819D02*
X89304857Y-125409819D01*
X89304857Y-125409819D02*
X89447714Y-125457438D01*
X89447714Y-125457438D02*
X89495333Y-125505057D01*
X90066762Y-125838390D02*
X89971524Y-125790771D01*
X89971524Y-125790771D02*
X89923905Y-125743152D01*
X89923905Y-125743152D02*
X89876286Y-125647914D01*
X89876286Y-125647914D02*
X89876286Y-125600295D01*
X89876286Y-125600295D02*
X89923905Y-125505057D01*
X89923905Y-125505057D02*
X89971524Y-125457438D01*
X89971524Y-125457438D02*
X90066762Y-125409819D01*
X90066762Y-125409819D02*
X90257238Y-125409819D01*
X90257238Y-125409819D02*
X90352476Y-125457438D01*
X90352476Y-125457438D02*
X90400095Y-125505057D01*
X90400095Y-125505057D02*
X90447714Y-125600295D01*
X90447714Y-125600295D02*
X90447714Y-125647914D01*
X90447714Y-125647914D02*
X90400095Y-125743152D01*
X90400095Y-125743152D02*
X90352476Y-125790771D01*
X90352476Y-125790771D02*
X90257238Y-125838390D01*
X90257238Y-125838390D02*
X90066762Y-125838390D01*
X90066762Y-125838390D02*
X89971524Y-125886009D01*
X89971524Y-125886009D02*
X89923905Y-125933628D01*
X89923905Y-125933628D02*
X89876286Y-126028866D01*
X89876286Y-126028866D02*
X89876286Y-126219342D01*
X89876286Y-126219342D02*
X89923905Y-126314580D01*
X89923905Y-126314580D02*
X89971524Y-126362200D01*
X89971524Y-126362200D02*
X90066762Y-126409819D01*
X90066762Y-126409819D02*
X90257238Y-126409819D01*
X90257238Y-126409819D02*
X90352476Y-126362200D01*
X90352476Y-126362200D02*
X90400095Y-126314580D01*
X90400095Y-126314580D02*
X90447714Y-126219342D01*
X90447714Y-126219342D02*
X90447714Y-126028866D01*
X90447714Y-126028866D02*
X90400095Y-125933628D01*
X90400095Y-125933628D02*
X90352476Y-125886009D01*
X90352476Y-125886009D02*
X90257238Y-125838390D01*
X85590142Y-69159580D02*
X85542523Y-69207200D01*
X85542523Y-69207200D02*
X85399666Y-69254819D01*
X85399666Y-69254819D02*
X85304428Y-69254819D01*
X85304428Y-69254819D02*
X85161571Y-69207200D01*
X85161571Y-69207200D02*
X85066333Y-69111961D01*
X85066333Y-69111961D02*
X85018714Y-69016723D01*
X85018714Y-69016723D02*
X84971095Y-68826247D01*
X84971095Y-68826247D02*
X84971095Y-68683390D01*
X84971095Y-68683390D02*
X85018714Y-68492914D01*
X85018714Y-68492914D02*
X85066333Y-68397676D01*
X85066333Y-68397676D02*
X85161571Y-68302438D01*
X85161571Y-68302438D02*
X85304428Y-68254819D01*
X85304428Y-68254819D02*
X85399666Y-68254819D01*
X85399666Y-68254819D02*
X85542523Y-68302438D01*
X85542523Y-68302438D02*
X85590142Y-68350057D01*
X86542523Y-69254819D02*
X85971095Y-69254819D01*
X86256809Y-69254819D02*
X86256809Y-68254819D01*
X86256809Y-68254819D02*
X86161571Y-68397676D01*
X86161571Y-68397676D02*
X86066333Y-68492914D01*
X86066333Y-68492914D02*
X85971095Y-68540533D01*
X87494904Y-69254819D02*
X86923476Y-69254819D01*
X87209190Y-69254819D02*
X87209190Y-68254819D01*
X87209190Y-68254819D02*
X87113952Y-68397676D01*
X87113952Y-68397676D02*
X87018714Y-68492914D01*
X87018714Y-68492914D02*
X86923476Y-68540533D01*
X106968819Y-119887904D02*
X107778342Y-119887904D01*
X107778342Y-119887904D02*
X107873580Y-119840285D01*
X107873580Y-119840285D02*
X107921200Y-119792666D01*
X107921200Y-119792666D02*
X107968819Y-119697428D01*
X107968819Y-119697428D02*
X107968819Y-119506952D01*
X107968819Y-119506952D02*
X107921200Y-119411714D01*
X107921200Y-119411714D02*
X107873580Y-119364095D01*
X107873580Y-119364095D02*
X107778342Y-119316476D01*
X107778342Y-119316476D02*
X106968819Y-119316476D01*
X107064057Y-118887904D02*
X107016438Y-118840285D01*
X107016438Y-118840285D02*
X106968819Y-118745047D01*
X106968819Y-118745047D02*
X106968819Y-118506952D01*
X106968819Y-118506952D02*
X107016438Y-118411714D01*
X107016438Y-118411714D02*
X107064057Y-118364095D01*
X107064057Y-118364095D02*
X107159295Y-118316476D01*
X107159295Y-118316476D02*
X107254533Y-118316476D01*
X107254533Y-118316476D02*
X107397390Y-118364095D01*
X107397390Y-118364095D02*
X107968819Y-118935523D01*
X107968819Y-118935523D02*
X107968819Y-118316476D01*
D11*
%TO.C,R2*%
X88571400Y-106957864D02*
X88571400Y-106503736D01*
X90041400Y-106957864D02*
X90041400Y-106503736D01*
%TO.C,R8*%
X131545064Y-131853000D02*
X131090936Y-131853000D01*
X131545064Y-133323000D02*
X131090936Y-133323000D01*
%TO.C,C4*%
X110466000Y-135017000D02*
X107701000Y-135017000D01*
X110466000Y-135057000D02*
X107716000Y-135057000D01*
X110466000Y-135097000D02*
X107732000Y-135097000D01*
X110466000Y-135137000D02*
X107749000Y-135137000D01*
X110466000Y-135177000D02*
X107766000Y-135177000D01*
X110466000Y-135217000D02*
X107784000Y-135217000D01*
X110466000Y-135257000D02*
X107802000Y-135257000D01*
X110466000Y-135297000D02*
X107820000Y-135297000D01*
X110466000Y-135337000D02*
X107840000Y-135337000D01*
X110466000Y-135377000D02*
X107859000Y-135377000D01*
X110466000Y-135417000D02*
X107879000Y-135417000D01*
X110466000Y-135457000D02*
X107900000Y-135457000D01*
X110466000Y-135497000D02*
X107922000Y-135497000D01*
X110466000Y-135537000D02*
X107944000Y-135537000D01*
X110466000Y-135577000D02*
X107966000Y-135577000D01*
X110466000Y-135617000D02*
X107989000Y-135617000D01*
X110466000Y-135657000D02*
X108013000Y-135657000D01*
X110466000Y-135697000D02*
X108037000Y-135697000D01*
X110466000Y-135737000D02*
X108062000Y-135737000D01*
X110466000Y-135777000D02*
X108088000Y-135777000D01*
X110466000Y-135817000D02*
X108114000Y-135817000D01*
X110466000Y-135857000D02*
X108141000Y-135857000D01*
X110466000Y-135897000D02*
X108168000Y-135897000D01*
X110466000Y-135937000D02*
X108197000Y-135937000D01*
X110466000Y-135977000D02*
X108226000Y-135977000D01*
X110466000Y-136017000D02*
X108256000Y-136017000D01*
X110466000Y-136057000D02*
X108286000Y-136057000D01*
X110466000Y-136097000D02*
X108317000Y-136097000D01*
X110466000Y-136137000D02*
X108350000Y-136137000D01*
X110466000Y-136177000D02*
X108382000Y-136177000D01*
X110466000Y-136217000D02*
X108416000Y-136217000D01*
X110466000Y-136257000D02*
X108451000Y-136257000D01*
X110466000Y-136297000D02*
X108487000Y-136297000D01*
X110466000Y-136337000D02*
X108523000Y-136337000D01*
X110466000Y-136377000D02*
X108561000Y-136377000D01*
X110466000Y-136417000D02*
X108599000Y-136417000D01*
X110466000Y-136457000D02*
X108639000Y-136457000D01*
X110466000Y-136497000D02*
X108680000Y-136497000D01*
X110466000Y-136537000D02*
X108722000Y-136537000D01*
X110466000Y-136577000D02*
X108765000Y-136577000D01*
X110466000Y-136617000D02*
X108809000Y-136617000D01*
X110466000Y-136657000D02*
X108855000Y-136657000D01*
X110466000Y-136697000D02*
X108902000Y-136697000D01*
X110466000Y-136737000D02*
X108950000Y-136737000D01*
X110466000Y-136777000D02*
X109001000Y-136777000D01*
X110466000Y-136817000D02*
X109052000Y-136817000D01*
X110466000Y-136857000D02*
X109106000Y-136857000D01*
X110466000Y-136897000D02*
X109161000Y-136897000D01*
X110466000Y-136937000D02*
X109219000Y-136937000D01*
X110466000Y-136977000D02*
X109278000Y-136977000D01*
X110466000Y-137017000D02*
X109340000Y-137017000D01*
X110466000Y-137057000D02*
X109404000Y-137057000D01*
X112039000Y-137617000D02*
X110973000Y-137617000D01*
X112274000Y-137577000D02*
X110738000Y-137577000D01*
X112454000Y-137537000D02*
X110558000Y-137537000D01*
X112604000Y-137497000D02*
X110408000Y-137497000D01*
X112735000Y-137457000D02*
X110277000Y-137457000D01*
X112852000Y-137417000D02*
X110160000Y-137417000D01*
X112959000Y-137377000D02*
X110053000Y-137377000D01*
X113058000Y-137337000D02*
X109954000Y-137337000D01*
X113151000Y-137297000D02*
X109861000Y-137297000D01*
X113237000Y-137257000D02*
X109775000Y-137257000D01*
X113319000Y-137217000D02*
X109693000Y-137217000D01*
X113396000Y-137177000D02*
X109616000Y-137177000D01*
X113470000Y-137137000D02*
X109542000Y-137137000D01*
X113540000Y-137097000D02*
X109472000Y-137097000D01*
X113608000Y-137057000D02*
X112546000Y-137057000D01*
X113672000Y-137017000D02*
X112546000Y-137017000D01*
X113734000Y-136977000D02*
X112546000Y-136977000D01*
X113793000Y-136937000D02*
X112546000Y-136937000D01*
X113821000Y-129126302D02*
X113821000Y-129926302D01*
X113851000Y-136897000D02*
X112546000Y-136897000D01*
X113906000Y-136857000D02*
X112546000Y-136857000D01*
X113960000Y-136817000D02*
X112546000Y-136817000D01*
X114011000Y-136777000D02*
X112546000Y-136777000D01*
X114062000Y-136737000D02*
X112546000Y-136737000D01*
X114110000Y-136697000D02*
X112546000Y-136697000D01*
X114157000Y-136657000D02*
X112546000Y-136657000D01*
X114203000Y-136617000D02*
X112546000Y-136617000D01*
X114221000Y-129526302D02*
X113421000Y-129526302D01*
X114247000Y-136577000D02*
X112546000Y-136577000D01*
X114290000Y-136537000D02*
X112546000Y-136537000D01*
X114332000Y-136497000D02*
X112546000Y-136497000D01*
X114373000Y-136457000D02*
X112546000Y-136457000D01*
X114413000Y-136417000D02*
X112546000Y-136417000D01*
X114451000Y-136377000D02*
X112546000Y-136377000D01*
X114489000Y-136337000D02*
X112546000Y-136337000D01*
X114525000Y-136297000D02*
X112546000Y-136297000D01*
X114561000Y-136257000D02*
X112546000Y-136257000D01*
X114596000Y-136217000D02*
X112546000Y-136217000D01*
X114630000Y-136177000D02*
X112546000Y-136177000D01*
X114662000Y-136137000D02*
X112546000Y-136137000D01*
X114695000Y-136097000D02*
X112546000Y-136097000D01*
X114726000Y-136057000D02*
X112546000Y-136057000D01*
X114756000Y-136017000D02*
X112546000Y-136017000D01*
X114786000Y-135977000D02*
X112546000Y-135977000D01*
X114815000Y-135937000D02*
X112546000Y-135937000D01*
X114844000Y-135897000D02*
X112546000Y-135897000D01*
X114871000Y-135857000D02*
X112546000Y-135857000D01*
X114898000Y-135817000D02*
X112546000Y-135817000D01*
X114924000Y-135777000D02*
X112546000Y-135777000D01*
X114950000Y-135737000D02*
X112546000Y-135737000D01*
X114975000Y-135697000D02*
X112546000Y-135697000D01*
X114999000Y-135657000D02*
X112546000Y-135657000D01*
X115023000Y-135617000D02*
X112546000Y-135617000D01*
X115046000Y-135577000D02*
X112546000Y-135577000D01*
X115068000Y-135537000D02*
X112546000Y-135537000D01*
X115090000Y-135497000D02*
X112546000Y-135497000D01*
X115112000Y-135457000D02*
X112546000Y-135457000D01*
X115133000Y-135417000D02*
X112546000Y-135417000D01*
X115153000Y-135377000D02*
X112546000Y-135377000D01*
X115172000Y-135337000D02*
X112546000Y-135337000D01*
X115192000Y-135297000D02*
X112546000Y-135297000D01*
X115210000Y-135257000D02*
X112546000Y-135257000D01*
X115228000Y-135217000D02*
X112546000Y-135217000D01*
X115246000Y-135177000D02*
X112546000Y-135177000D01*
X115263000Y-135137000D02*
X112546000Y-135137000D01*
X115280000Y-135097000D02*
X112546000Y-135097000D01*
X115296000Y-135057000D02*
X112546000Y-135057000D01*
X115311000Y-135017000D02*
X112546000Y-135017000D01*
X115327000Y-134977000D02*
X107685000Y-134977000D01*
X115341000Y-134937000D02*
X107671000Y-134937000D01*
X115356000Y-134897000D02*
X107656000Y-134897000D01*
X115369000Y-134857000D02*
X107643000Y-134857000D01*
X115383000Y-134817000D02*
X107629000Y-134817000D01*
X115395000Y-134777000D02*
X107617000Y-134777000D01*
X115408000Y-134737000D02*
X107604000Y-134737000D01*
X115420000Y-134697000D02*
X107592000Y-134697000D01*
X115431000Y-134657000D02*
X107581000Y-134657000D01*
X115442000Y-134617000D02*
X107570000Y-134617000D01*
X115453000Y-134577000D02*
X107559000Y-134577000D01*
X115463000Y-134537000D02*
X107549000Y-134537000D01*
X115473000Y-134497000D02*
X107539000Y-134497000D01*
X115482000Y-134457000D02*
X107530000Y-134457000D01*
X115491000Y-134417000D02*
X107521000Y-134417000D01*
X115500000Y-134377000D02*
X107512000Y-134377000D01*
X115508000Y-134337000D02*
X107504000Y-134337000D01*
X115516000Y-134297000D02*
X107496000Y-134297000D01*
X115523000Y-134257000D02*
X107489000Y-134257000D01*
X115530000Y-134216000D02*
X107482000Y-134216000D01*
X115536000Y-134176000D02*
X107476000Y-134176000D01*
X115543000Y-134136000D02*
X107469000Y-134136000D01*
X115548000Y-134096000D02*
X107464000Y-134096000D01*
X115554000Y-134056000D02*
X107458000Y-134056000D01*
X115558000Y-134016000D02*
X107454000Y-134016000D01*
X115563000Y-133976000D02*
X107449000Y-133976000D01*
X115567000Y-133936000D02*
X107445000Y-133936000D01*
X115571000Y-133896000D02*
X107441000Y-133896000D01*
X115574000Y-133856000D02*
X107438000Y-133856000D01*
X115577000Y-133816000D02*
X107435000Y-133816000D01*
X115580000Y-133776000D02*
X107432000Y-133776000D01*
X115582000Y-133736000D02*
X107430000Y-133736000D01*
X115583000Y-133696000D02*
X107429000Y-133696000D01*
X115585000Y-133656000D02*
X107427000Y-133656000D01*
X115586000Y-133536000D02*
X107426000Y-133536000D01*
X115586000Y-133576000D02*
X107426000Y-133576000D01*
X115586000Y-133616000D02*
X107426000Y-133616000D01*
X115626000Y-133536000D02*
G75*
G02*
X107386000Y-133536000I-4120000J0D01*
G01*
X107386000Y-133536000D02*
G75*
G02*
X115626000Y-133536000I4120000J0D01*
G01*
%TO.C,J15*%
X141169000Y-51490000D02*
X141169000Y-50160000D01*
X142499000Y-51490000D02*
X141169000Y-51490000D01*
X143769000Y-48830000D02*
X148909000Y-48830000D01*
X143769000Y-51490000D02*
X143769000Y-48830000D01*
X143769000Y-51490000D02*
X148909000Y-51490000D01*
X148909000Y-51490000D02*
X148909000Y-48830000D01*
%TO.C,J3*%
X100270000Y-96750500D02*
X100270000Y-101950500D01*
X158750000Y-96750500D02*
X100270000Y-96750500D01*
X158750000Y-96750500D02*
X158750000Y-99350500D01*
X158750000Y-99350500D02*
X161350000Y-99350500D01*
X160020000Y-96750500D02*
X161350000Y-96750500D01*
X161350000Y-96750500D02*
X161350000Y-98080500D01*
X161350000Y-99350500D02*
X161350000Y-101950500D01*
X161350000Y-101950500D02*
X100270000Y-101950500D01*
%TO.C,J11*%
X83455200Y-124612400D02*
X83455200Y-119472400D01*
X86115200Y-119472400D02*
X83455200Y-119472400D01*
X86115200Y-124612400D02*
X83455200Y-124612400D01*
X86115200Y-124612400D02*
X86115200Y-119472400D01*
X86115200Y-125882400D02*
X86115200Y-127212400D01*
X86115200Y-127212400D02*
X84785200Y-127212400D01*
%TO.C,D1*%
X120823000Y-113285000D02*
X120823000Y-116585000D01*
X120823000Y-113285000D02*
X126333000Y-113285000D01*
X120823000Y-116585000D02*
X126333000Y-116585000D01*
%TO.C,C5*%
X114307252Y-126011000D02*
X113784748Y-126011000D01*
X114307252Y-127481000D02*
X113784748Y-127481000D01*
%TO.C,Q1*%
X88514800Y-111717600D02*
X97514800Y-111717600D01*
X88514800Y-119117600D02*
X88514800Y-111717600D01*
X97514800Y-111717600D02*
X97514800Y-119117600D01*
X97514800Y-119117600D02*
X88514800Y-119117600D01*
D10*
%TO.C,L1*%
X120186000Y-118828000D02*
X120186000Y-126988000D01*
X128226000Y-118828000D02*
X128226000Y-126988000D01*
D11*
%TO.C,J10*%
X98405800Y-46384600D02*
X98405800Y-45054600D01*
X99735800Y-46384600D02*
X98405800Y-46384600D01*
X101005800Y-43724600D02*
X108685800Y-43724600D01*
X101005800Y-46384600D02*
X101005800Y-43724600D01*
X101005800Y-46384600D02*
X108685800Y-46384600D01*
X108685800Y-46384600D02*
X108685800Y-43724600D01*
%TO.C,C9*%
X90832000Y-107068252D02*
X90832000Y-106545748D01*
X92302000Y-107068252D02*
X92302000Y-106545748D01*
%TO.C,Q3*%
X158822000Y-116950000D02*
X167822000Y-116950000D01*
X158822000Y-124350000D02*
X158822000Y-116950000D01*
X167822000Y-116950000D02*
X167822000Y-124350000D01*
X167822000Y-124350000D02*
X158822000Y-124350000D01*
%TO.C,J17*%
X173422000Y-64710000D02*
X174752000Y-64710000D01*
X173422000Y-66040000D02*
X173422000Y-64710000D01*
X173422000Y-67310000D02*
X173422000Y-102930000D01*
X173422000Y-67310000D02*
X176082000Y-67310000D01*
X173422000Y-102930000D02*
X176082000Y-102930000D01*
X176082000Y-67310000D02*
X176082000Y-102930000D01*
%TO.C,J9*%
X156155000Y-46410000D02*
X156155000Y-45080000D01*
X157485000Y-46410000D02*
X156155000Y-46410000D01*
X158755000Y-43750000D02*
X163895000Y-43750000D01*
X158755000Y-46410000D02*
X158755000Y-43750000D01*
X158755000Y-46410000D02*
X163895000Y-46410000D01*
X163895000Y-46410000D02*
X163895000Y-43750000D01*
%TO.C,C3*%
X120626000Y-135017000D02*
X117861000Y-135017000D01*
X120626000Y-135057000D02*
X117876000Y-135057000D01*
X120626000Y-135097000D02*
X117892000Y-135097000D01*
X120626000Y-135137000D02*
X117909000Y-135137000D01*
X120626000Y-135177000D02*
X117926000Y-135177000D01*
X120626000Y-135217000D02*
X117944000Y-135217000D01*
X120626000Y-135257000D02*
X117962000Y-135257000D01*
X120626000Y-135297000D02*
X117980000Y-135297000D01*
X120626000Y-135337000D02*
X118000000Y-135337000D01*
X120626000Y-135377000D02*
X118019000Y-135377000D01*
X120626000Y-135417000D02*
X118039000Y-135417000D01*
X120626000Y-135457000D02*
X118060000Y-135457000D01*
X120626000Y-135497000D02*
X118082000Y-135497000D01*
X120626000Y-135537000D02*
X118104000Y-135537000D01*
X120626000Y-135577000D02*
X118126000Y-135577000D01*
X120626000Y-135617000D02*
X118149000Y-135617000D01*
X120626000Y-135657000D02*
X118173000Y-135657000D01*
X120626000Y-135697000D02*
X118197000Y-135697000D01*
X120626000Y-135737000D02*
X118222000Y-135737000D01*
X120626000Y-135777000D02*
X118248000Y-135777000D01*
X120626000Y-135817000D02*
X118274000Y-135817000D01*
X120626000Y-135857000D02*
X118301000Y-135857000D01*
X120626000Y-135897000D02*
X118328000Y-135897000D01*
X120626000Y-135937000D02*
X118357000Y-135937000D01*
X120626000Y-135977000D02*
X118386000Y-135977000D01*
X120626000Y-136017000D02*
X118416000Y-136017000D01*
X120626000Y-136057000D02*
X118446000Y-136057000D01*
X120626000Y-136097000D02*
X118477000Y-136097000D01*
X120626000Y-136137000D02*
X118510000Y-136137000D01*
X120626000Y-136177000D02*
X118542000Y-136177000D01*
X120626000Y-136217000D02*
X118576000Y-136217000D01*
X120626000Y-136257000D02*
X118611000Y-136257000D01*
X120626000Y-136297000D02*
X118647000Y-136297000D01*
X120626000Y-136337000D02*
X118683000Y-136337000D01*
X120626000Y-136377000D02*
X118721000Y-136377000D01*
X120626000Y-136417000D02*
X118759000Y-136417000D01*
X120626000Y-136457000D02*
X118799000Y-136457000D01*
X120626000Y-136497000D02*
X118840000Y-136497000D01*
X120626000Y-136537000D02*
X118882000Y-136537000D01*
X120626000Y-136577000D02*
X118925000Y-136577000D01*
X120626000Y-136617000D02*
X118969000Y-136617000D01*
X120626000Y-136657000D02*
X119015000Y-136657000D01*
X120626000Y-136697000D02*
X119062000Y-136697000D01*
X120626000Y-136737000D02*
X119110000Y-136737000D01*
X120626000Y-136777000D02*
X119161000Y-136777000D01*
X120626000Y-136817000D02*
X119212000Y-136817000D01*
X120626000Y-136857000D02*
X119266000Y-136857000D01*
X120626000Y-136897000D02*
X119321000Y-136897000D01*
X120626000Y-136937000D02*
X119379000Y-136937000D01*
X120626000Y-136977000D02*
X119438000Y-136977000D01*
X120626000Y-137017000D02*
X119500000Y-137017000D01*
X120626000Y-137057000D02*
X119564000Y-137057000D01*
X122199000Y-137617000D02*
X121133000Y-137617000D01*
X122434000Y-137577000D02*
X120898000Y-137577000D01*
X122614000Y-137537000D02*
X120718000Y-137537000D01*
X122764000Y-137497000D02*
X120568000Y-137497000D01*
X122895000Y-137457000D02*
X120437000Y-137457000D01*
X123012000Y-137417000D02*
X120320000Y-137417000D01*
X123119000Y-137377000D02*
X120213000Y-137377000D01*
X123218000Y-137337000D02*
X120114000Y-137337000D01*
X123311000Y-137297000D02*
X120021000Y-137297000D01*
X123397000Y-137257000D02*
X119935000Y-137257000D01*
X123479000Y-137217000D02*
X119853000Y-137217000D01*
X123556000Y-137177000D02*
X119776000Y-137177000D01*
X123630000Y-137137000D02*
X119702000Y-137137000D01*
X123700000Y-137097000D02*
X119632000Y-137097000D01*
X123768000Y-137057000D02*
X122706000Y-137057000D01*
X123832000Y-137017000D02*
X122706000Y-137017000D01*
X123894000Y-136977000D02*
X122706000Y-136977000D01*
X123953000Y-136937000D02*
X122706000Y-136937000D01*
X123981000Y-129126302D02*
X123981000Y-129926302D01*
X124011000Y-136897000D02*
X122706000Y-136897000D01*
X124066000Y-136857000D02*
X122706000Y-136857000D01*
X124120000Y-136817000D02*
X122706000Y-136817000D01*
X124171000Y-136777000D02*
X122706000Y-136777000D01*
X124222000Y-136737000D02*
X122706000Y-136737000D01*
X124270000Y-136697000D02*
X122706000Y-136697000D01*
X124317000Y-136657000D02*
X122706000Y-136657000D01*
X124363000Y-136617000D02*
X122706000Y-136617000D01*
X124381000Y-129526302D02*
X123581000Y-129526302D01*
X124407000Y-136577000D02*
X122706000Y-136577000D01*
X124450000Y-136537000D02*
X122706000Y-136537000D01*
X124492000Y-136497000D02*
X122706000Y-136497000D01*
X124533000Y-136457000D02*
X122706000Y-136457000D01*
X124573000Y-136417000D02*
X122706000Y-136417000D01*
X124611000Y-136377000D02*
X122706000Y-136377000D01*
X124649000Y-136337000D02*
X122706000Y-136337000D01*
X124685000Y-136297000D02*
X122706000Y-136297000D01*
X124721000Y-136257000D02*
X122706000Y-136257000D01*
X124756000Y-136217000D02*
X122706000Y-136217000D01*
X124790000Y-136177000D02*
X122706000Y-136177000D01*
X124822000Y-136137000D02*
X122706000Y-136137000D01*
X124855000Y-136097000D02*
X122706000Y-136097000D01*
X124886000Y-136057000D02*
X122706000Y-136057000D01*
X124916000Y-136017000D02*
X122706000Y-136017000D01*
X124946000Y-135977000D02*
X122706000Y-135977000D01*
X124975000Y-135937000D02*
X122706000Y-135937000D01*
X125004000Y-135897000D02*
X122706000Y-135897000D01*
X125031000Y-135857000D02*
X122706000Y-135857000D01*
X125058000Y-135817000D02*
X122706000Y-135817000D01*
X125084000Y-135777000D02*
X122706000Y-135777000D01*
X125110000Y-135737000D02*
X122706000Y-135737000D01*
X125135000Y-135697000D02*
X122706000Y-135697000D01*
X125159000Y-135657000D02*
X122706000Y-135657000D01*
X125183000Y-135617000D02*
X122706000Y-135617000D01*
X125206000Y-135577000D02*
X122706000Y-135577000D01*
X125228000Y-135537000D02*
X122706000Y-135537000D01*
X125250000Y-135497000D02*
X122706000Y-135497000D01*
X125272000Y-135457000D02*
X122706000Y-135457000D01*
X125293000Y-135417000D02*
X122706000Y-135417000D01*
X125313000Y-135377000D02*
X122706000Y-135377000D01*
X125332000Y-135337000D02*
X122706000Y-135337000D01*
X125352000Y-135297000D02*
X122706000Y-135297000D01*
X125370000Y-135257000D02*
X122706000Y-135257000D01*
X125388000Y-135217000D02*
X122706000Y-135217000D01*
X125406000Y-135177000D02*
X122706000Y-135177000D01*
X125423000Y-135137000D02*
X122706000Y-135137000D01*
X125440000Y-135097000D02*
X122706000Y-135097000D01*
X125456000Y-135057000D02*
X122706000Y-135057000D01*
X125471000Y-135017000D02*
X122706000Y-135017000D01*
X125487000Y-134977000D02*
X117845000Y-134977000D01*
X125501000Y-134937000D02*
X117831000Y-134937000D01*
X125516000Y-134897000D02*
X117816000Y-134897000D01*
X125529000Y-134857000D02*
X117803000Y-134857000D01*
X125543000Y-134817000D02*
X117789000Y-134817000D01*
X125555000Y-134777000D02*
X117777000Y-134777000D01*
X125568000Y-134737000D02*
X117764000Y-134737000D01*
X125580000Y-134697000D02*
X117752000Y-134697000D01*
X125591000Y-134657000D02*
X117741000Y-134657000D01*
X125602000Y-134617000D02*
X117730000Y-134617000D01*
X125613000Y-134577000D02*
X117719000Y-134577000D01*
X125623000Y-134537000D02*
X117709000Y-134537000D01*
X125633000Y-134497000D02*
X117699000Y-134497000D01*
X125642000Y-134457000D02*
X117690000Y-134457000D01*
X125651000Y-134417000D02*
X117681000Y-134417000D01*
X125660000Y-134377000D02*
X117672000Y-134377000D01*
X125668000Y-134337000D02*
X117664000Y-134337000D01*
X125676000Y-134297000D02*
X117656000Y-134297000D01*
X125683000Y-134257000D02*
X117649000Y-134257000D01*
X125690000Y-134216000D02*
X117642000Y-134216000D01*
X125696000Y-134176000D02*
X117636000Y-134176000D01*
X125703000Y-134136000D02*
X117629000Y-134136000D01*
X125708000Y-134096000D02*
X117624000Y-134096000D01*
X125714000Y-134056000D02*
X117618000Y-134056000D01*
X125718000Y-134016000D02*
X117614000Y-134016000D01*
X125723000Y-133976000D02*
X117609000Y-133976000D01*
X125727000Y-133936000D02*
X117605000Y-133936000D01*
X125731000Y-133896000D02*
X117601000Y-133896000D01*
X125734000Y-133856000D02*
X117598000Y-133856000D01*
X125737000Y-133816000D02*
X117595000Y-133816000D01*
X125740000Y-133776000D02*
X117592000Y-133776000D01*
X125742000Y-133736000D02*
X117590000Y-133736000D01*
X125743000Y-133696000D02*
X117589000Y-133696000D01*
X125745000Y-133656000D02*
X117587000Y-133656000D01*
X125746000Y-133536000D02*
X117586000Y-133536000D01*
X125746000Y-133576000D02*
X117586000Y-133576000D01*
X125746000Y-133616000D02*
X117586000Y-133616000D01*
X125786000Y-133536000D02*
G75*
G02*
X117546000Y-133536000I-4120000J0D01*
G01*
X117546000Y-133536000D02*
G75*
G02*
X125786000Y-133536000I4120000J0D01*
G01*
%TO.C,R6*%
X87911000Y-123366264D02*
X87911000Y-122912136D01*
X89381000Y-123366264D02*
X89381000Y-122912136D01*
%TO.C,D2*%
X163012000Y-55368000D02*
X157502000Y-55368000D01*
X163012000Y-58668000D02*
X157502000Y-58668000D01*
X163012000Y-58668000D02*
X163012000Y-55368000D01*
%TO.C,Q2*%
X94204400Y-121725200D02*
X103204400Y-121725200D01*
X94204400Y-129125200D02*
X94204400Y-121725200D01*
X103204400Y-121725200D02*
X103204400Y-129125200D01*
X103204400Y-129125200D02*
X94204400Y-129125200D01*
%TO.C,J4*%
X102810000Y-68810500D02*
X102810000Y-74010500D01*
X156210000Y-68810500D02*
X102810000Y-68810500D01*
X156210000Y-68810500D02*
X156210000Y-71410500D01*
X156210000Y-71410500D02*
X158810000Y-71410500D01*
X157480000Y-68810500D02*
X158810000Y-68810500D01*
X158810000Y-68810500D02*
X158810000Y-70140500D01*
X158810000Y-71410500D02*
X158810000Y-74010500D01*
X158810000Y-74010500D02*
X102810000Y-74010500D01*
%TO.C,R11*%
X169572000Y-75030064D02*
X169572000Y-74575936D01*
X171042000Y-75030064D02*
X171042000Y-74575936D01*
%TO.C,J1*%
X100270000Y-61190500D02*
X100270000Y-66390500D01*
X158750000Y-61190500D02*
X100270000Y-61190500D01*
X158750000Y-61190500D02*
X158750000Y-63790500D01*
X158750000Y-63790500D02*
X161350000Y-63790500D01*
X160020000Y-61190500D02*
X161350000Y-61190500D01*
X161350000Y-61190500D02*
X161350000Y-62520500D01*
X161350000Y-63790500D02*
X161350000Y-66390500D01*
X161350000Y-66390500D02*
X100270000Y-66390500D01*
%TO.C,R10*%
X92927064Y-63395000D02*
X92472936Y-63395000D01*
X92927064Y-64865000D02*
X92472936Y-64865000D01*
%TO.C,D4*%
X168784000Y-124414000D02*
X168784000Y-118904000D01*
X168784000Y-124414000D02*
X172084000Y-124414000D01*
X172084000Y-124414000D02*
X172084000Y-118904000D01*
%TO.C,R9*%
X92943064Y-58569000D02*
X92488936Y-58569000D01*
X92943064Y-60039000D02*
X92488936Y-60039000D01*
%TO.C,J14*%
X173676000Y-122159000D02*
X173676000Y-117019000D01*
X176336000Y-117019000D02*
X173676000Y-117019000D01*
X176336000Y-122159000D02*
X173676000Y-122159000D01*
X176336000Y-122159000D02*
X176336000Y-117019000D01*
X176336000Y-123429000D02*
X176336000Y-124759000D01*
X176336000Y-124759000D02*
X175006000Y-124759000D01*
%TO.C,C1*%
X148712302Y-120085000D02*
X149512302Y-120085000D01*
X149112302Y-119685000D02*
X149112302Y-120485000D01*
X153122000Y-118320000D02*
X153122000Y-126480000D01*
X153162000Y-118320000D02*
X153162000Y-126480000D01*
X153202000Y-118320000D02*
X153202000Y-126480000D01*
X153242000Y-118321000D02*
X153242000Y-126479000D01*
X153282000Y-118323000D02*
X153282000Y-126477000D01*
X153322000Y-118324000D02*
X153322000Y-126476000D01*
X153362000Y-118326000D02*
X153362000Y-126474000D01*
X153402000Y-118329000D02*
X153402000Y-126471000D01*
X153442000Y-118332000D02*
X153442000Y-126468000D01*
X153482000Y-118335000D02*
X153482000Y-126465000D01*
X153522000Y-118339000D02*
X153522000Y-126461000D01*
X153562000Y-118343000D02*
X153562000Y-126457000D01*
X153602000Y-118348000D02*
X153602000Y-126452000D01*
X153642000Y-118352000D02*
X153642000Y-126448000D01*
X153682000Y-118358000D02*
X153682000Y-126442000D01*
X153722000Y-118363000D02*
X153722000Y-126437000D01*
X153762000Y-118370000D02*
X153762000Y-126430000D01*
X153802000Y-118376000D02*
X153802000Y-126424000D01*
X153843000Y-118383000D02*
X153843000Y-126417000D01*
X153883000Y-118390000D02*
X153883000Y-126410000D01*
X153923000Y-118398000D02*
X153923000Y-126402000D01*
X153963000Y-118406000D02*
X153963000Y-126394000D01*
X154003000Y-118415000D02*
X154003000Y-126385000D01*
X154043000Y-118424000D02*
X154043000Y-126376000D01*
X154083000Y-118433000D02*
X154083000Y-126367000D01*
X154123000Y-118443000D02*
X154123000Y-126357000D01*
X154163000Y-118453000D02*
X154163000Y-126347000D01*
X154203000Y-118464000D02*
X154203000Y-126336000D01*
X154243000Y-118475000D02*
X154243000Y-126325000D01*
X154283000Y-118486000D02*
X154283000Y-126314000D01*
X154323000Y-118498000D02*
X154323000Y-126302000D01*
X154363000Y-118511000D02*
X154363000Y-126289000D01*
X154403000Y-118523000D02*
X154403000Y-126277000D01*
X154443000Y-118537000D02*
X154443000Y-126263000D01*
X154483000Y-118550000D02*
X154483000Y-126250000D01*
X154523000Y-118565000D02*
X154523000Y-126235000D01*
X154563000Y-118579000D02*
X154563000Y-126221000D01*
X154603000Y-118595000D02*
X154603000Y-121360000D01*
X154603000Y-123440000D02*
X154603000Y-126205000D01*
X154643000Y-118610000D02*
X154643000Y-121360000D01*
X154643000Y-123440000D02*
X154643000Y-126190000D01*
X154683000Y-118626000D02*
X154683000Y-121360000D01*
X154683000Y-123440000D02*
X154683000Y-126174000D01*
X154723000Y-118643000D02*
X154723000Y-121360000D01*
X154723000Y-123440000D02*
X154723000Y-126157000D01*
X154763000Y-118660000D02*
X154763000Y-121360000D01*
X154763000Y-123440000D02*
X154763000Y-126140000D01*
X154803000Y-118678000D02*
X154803000Y-121360000D01*
X154803000Y-123440000D02*
X154803000Y-126122000D01*
X154843000Y-118696000D02*
X154843000Y-121360000D01*
X154843000Y-123440000D02*
X154843000Y-126104000D01*
X154883000Y-118714000D02*
X154883000Y-121360000D01*
X154883000Y-123440000D02*
X154883000Y-126086000D01*
X154923000Y-118734000D02*
X154923000Y-121360000D01*
X154923000Y-123440000D02*
X154923000Y-126066000D01*
X154963000Y-118753000D02*
X154963000Y-121360000D01*
X154963000Y-123440000D02*
X154963000Y-126047000D01*
X155003000Y-118773000D02*
X155003000Y-121360000D01*
X155003000Y-123440000D02*
X155003000Y-126027000D01*
X155043000Y-118794000D02*
X155043000Y-121360000D01*
X155043000Y-123440000D02*
X155043000Y-126006000D01*
X155083000Y-118816000D02*
X155083000Y-121360000D01*
X155083000Y-123440000D02*
X155083000Y-125984000D01*
X155123000Y-118838000D02*
X155123000Y-121360000D01*
X155123000Y-123440000D02*
X155123000Y-125962000D01*
X155163000Y-118860000D02*
X155163000Y-121360000D01*
X155163000Y-123440000D02*
X155163000Y-125940000D01*
X155203000Y-118883000D02*
X155203000Y-121360000D01*
X155203000Y-123440000D02*
X155203000Y-125917000D01*
X155243000Y-118907000D02*
X155243000Y-121360000D01*
X155243000Y-123440000D02*
X155243000Y-125893000D01*
X155283000Y-118931000D02*
X155283000Y-121360000D01*
X155283000Y-123440000D02*
X155283000Y-125869000D01*
X155323000Y-118956000D02*
X155323000Y-121360000D01*
X155323000Y-123440000D02*
X155323000Y-125844000D01*
X155363000Y-118982000D02*
X155363000Y-121360000D01*
X155363000Y-123440000D02*
X155363000Y-125818000D01*
X155403000Y-119008000D02*
X155403000Y-121360000D01*
X155403000Y-123440000D02*
X155403000Y-125792000D01*
X155443000Y-119035000D02*
X155443000Y-121360000D01*
X155443000Y-123440000D02*
X155443000Y-125765000D01*
X155483000Y-119062000D02*
X155483000Y-121360000D01*
X155483000Y-123440000D02*
X155483000Y-125738000D01*
X155523000Y-119091000D02*
X155523000Y-121360000D01*
X155523000Y-123440000D02*
X155523000Y-125709000D01*
X155563000Y-119120000D02*
X155563000Y-121360000D01*
X155563000Y-123440000D02*
X155563000Y-125680000D01*
X155603000Y-119150000D02*
X155603000Y-121360000D01*
X155603000Y-123440000D02*
X155603000Y-125650000D01*
X155643000Y-119180000D02*
X155643000Y-121360000D01*
X155643000Y-123440000D02*
X155643000Y-125620000D01*
X155683000Y-119211000D02*
X155683000Y-121360000D01*
X155683000Y-123440000D02*
X155683000Y-125589000D01*
X155723000Y-119244000D02*
X155723000Y-121360000D01*
X155723000Y-123440000D02*
X155723000Y-125556000D01*
X155763000Y-119276000D02*
X155763000Y-121360000D01*
X155763000Y-123440000D02*
X155763000Y-125524000D01*
X155803000Y-119310000D02*
X155803000Y-121360000D01*
X155803000Y-123440000D02*
X155803000Y-125490000D01*
X155843000Y-119345000D02*
X155843000Y-121360000D01*
X155843000Y-123440000D02*
X155843000Y-125455000D01*
X155883000Y-119381000D02*
X155883000Y-121360000D01*
X155883000Y-123440000D02*
X155883000Y-125419000D01*
X155923000Y-119417000D02*
X155923000Y-121360000D01*
X155923000Y-123440000D02*
X155923000Y-125383000D01*
X155963000Y-119455000D02*
X155963000Y-121360000D01*
X155963000Y-123440000D02*
X155963000Y-125345000D01*
X156003000Y-119493000D02*
X156003000Y-121360000D01*
X156003000Y-123440000D02*
X156003000Y-125307000D01*
X156043000Y-119533000D02*
X156043000Y-121360000D01*
X156043000Y-123440000D02*
X156043000Y-125267000D01*
X156083000Y-119574000D02*
X156083000Y-121360000D01*
X156083000Y-123440000D02*
X156083000Y-125226000D01*
X156123000Y-119616000D02*
X156123000Y-121360000D01*
X156123000Y-123440000D02*
X156123000Y-125184000D01*
X156163000Y-119659000D02*
X156163000Y-121360000D01*
X156163000Y-123440000D02*
X156163000Y-125141000D01*
X156203000Y-119703000D02*
X156203000Y-121360000D01*
X156203000Y-123440000D02*
X156203000Y-125097000D01*
X156243000Y-119749000D02*
X156243000Y-121360000D01*
X156243000Y-123440000D02*
X156243000Y-125051000D01*
X156283000Y-119796000D02*
X156283000Y-121360000D01*
X156283000Y-123440000D02*
X156283000Y-125004000D01*
X156323000Y-119844000D02*
X156323000Y-121360000D01*
X156323000Y-123440000D02*
X156323000Y-124956000D01*
X156363000Y-119895000D02*
X156363000Y-121360000D01*
X156363000Y-123440000D02*
X156363000Y-124905000D01*
X156403000Y-119946000D02*
X156403000Y-121360000D01*
X156403000Y-123440000D02*
X156403000Y-124854000D01*
X156443000Y-120000000D02*
X156443000Y-121360000D01*
X156443000Y-123440000D02*
X156443000Y-124800000D01*
X156483000Y-120055000D02*
X156483000Y-121360000D01*
X156483000Y-123440000D02*
X156483000Y-124745000D01*
X156523000Y-120113000D02*
X156523000Y-121360000D01*
X156523000Y-123440000D02*
X156523000Y-124687000D01*
X156563000Y-120172000D02*
X156563000Y-121360000D01*
X156563000Y-123440000D02*
X156563000Y-124628000D01*
X156603000Y-120234000D02*
X156603000Y-121360000D01*
X156603000Y-123440000D02*
X156603000Y-124566000D01*
X156643000Y-120298000D02*
X156643000Y-121360000D01*
X156643000Y-123440000D02*
X156643000Y-124502000D01*
X156683000Y-120366000D02*
X156683000Y-124434000D01*
X156723000Y-120436000D02*
X156723000Y-124364000D01*
X156763000Y-120510000D02*
X156763000Y-124290000D01*
X156803000Y-120587000D02*
X156803000Y-124213000D01*
X156843000Y-120669000D02*
X156843000Y-124131000D01*
X156883000Y-120755000D02*
X156883000Y-124045000D01*
X156923000Y-120848000D02*
X156923000Y-123952000D01*
X156963000Y-120947000D02*
X156963000Y-123853000D01*
X157003000Y-121054000D02*
X157003000Y-123746000D01*
X157043000Y-121171000D02*
X157043000Y-123629000D01*
X157083000Y-121302000D02*
X157083000Y-123498000D01*
X157123000Y-121452000D02*
X157123000Y-123348000D01*
X157163000Y-121632000D02*
X157163000Y-123168000D01*
X157203000Y-121867000D02*
X157203000Y-122933000D01*
X157242000Y-122400000D02*
G75*
G02*
X149002000Y-122400000I-4120000J0D01*
G01*
X149002000Y-122400000D02*
G75*
G02*
X157242000Y-122400000I4120000J0D01*
G01*
%TO.C,J12*%
X98415800Y-51464600D02*
X98415800Y-50134600D01*
X99745800Y-51464600D02*
X98415800Y-51464600D01*
X101015800Y-48804600D02*
X108695800Y-48804600D01*
X101015800Y-51464600D02*
X101015800Y-48804600D01*
X101015800Y-51464600D02*
X108695800Y-51464600D01*
X108695800Y-51464600D02*
X108695800Y-48804600D01*
%TO.C,J16*%
X85020000Y-55190000D02*
X86350000Y-55190000D01*
X85020000Y-56520000D02*
X85020000Y-55190000D01*
X85020000Y-57790000D02*
X85020000Y-65470000D01*
X85020000Y-57790000D02*
X87680000Y-57790000D01*
X85020000Y-65470000D02*
X87680000Y-65470000D01*
X87680000Y-57790000D02*
X87680000Y-65470000D01*
%TO.C,D3*%
X166324000Y-126366000D02*
X160814000Y-126366000D01*
X166324000Y-129666000D02*
X160814000Y-129666000D01*
X166324000Y-129666000D02*
X166324000Y-126366000D01*
%TO.C,R5*%
X90247800Y-122912136D02*
X90247800Y-123366264D01*
X91717800Y-122912136D02*
X91717800Y-123366264D01*
%TO.C,J2*%
X102810000Y-104370500D02*
X102810000Y-109570500D01*
X156210000Y-104370500D02*
X102810000Y-104370500D01*
X156210000Y-104370500D02*
X156210000Y-106970500D01*
X156210000Y-106970500D02*
X158810000Y-106970500D01*
X157480000Y-104370500D02*
X158810000Y-104370500D01*
X158810000Y-104370500D02*
X158810000Y-105700500D01*
X158810000Y-106970500D02*
X158810000Y-109570500D01*
X158810000Y-109570500D02*
X102810000Y-109570500D01*
%TO.C,D5*%
X130318000Y-137612000D02*
X133178000Y-137612000D01*
X133178000Y-135692000D02*
X130318000Y-135692000D01*
X133178000Y-137612000D02*
X133178000Y-135692000D01*
%TO.C,J13*%
X141169000Y-46410000D02*
X141169000Y-45080000D01*
X142499000Y-46410000D02*
X141169000Y-46410000D01*
X143769000Y-43750000D02*
X148909000Y-43750000D01*
X143769000Y-46410000D02*
X143769000Y-43750000D01*
X143769000Y-46410000D02*
X148909000Y-46410000D01*
X148909000Y-46410000D02*
X148909000Y-43750000D01*
%TO.C,R4*%
X107205000Y-54578064D02*
X107205000Y-54123936D01*
X108675000Y-54578064D02*
X108675000Y-54123936D01*
%TO.C,R3*%
X103776000Y-54628864D02*
X103776000Y-54174736D01*
X105246000Y-54628864D02*
X105246000Y-54174736D01*
%TO.C,C7*%
X164091252Y-133377000D02*
X163568748Y-133377000D01*
X164091252Y-134847000D02*
X163568748Y-134847000D01*
%TO.C,C10*%
X169572000Y-66794748D02*
X169572000Y-67317252D01*
X171042000Y-66794748D02*
X171042000Y-67317252D01*
%TO.C,C6*%
X109735252Y-126011000D02*
X109212748Y-126011000D01*
X109735252Y-127481000D02*
X109212748Y-127481000D01*
%TO.C,J7*%
X118172000Y-43628000D02*
X130992000Y-43628000D01*
X118172000Y-46228000D02*
X118172000Y-43628000D01*
X118172000Y-48828000D02*
X118172000Y-47498000D01*
X119502000Y-48828000D02*
X118172000Y-48828000D01*
X120772000Y-46228000D02*
X118172000Y-46228000D01*
X120772000Y-48828000D02*
X120772000Y-46228000D01*
X120772000Y-48828000D02*
X130992000Y-48828000D01*
X130992000Y-48828000D02*
X130992000Y-43628000D01*
%TO.C,R7*%
X161253064Y-113433000D02*
X160798936Y-113433000D01*
X161253064Y-114903000D02*
X160798936Y-114903000D01*
%TO.C,J5*%
X144095000Y-135442000D02*
X144095000Y-134112000D01*
X145425000Y-135442000D02*
X144095000Y-135442000D01*
X146695000Y-132782000D02*
X154375000Y-132782000D01*
X146695000Y-135442000D02*
X146695000Y-132782000D01*
X146695000Y-135442000D02*
X154375000Y-135442000D01*
X154375000Y-135442000D02*
X154375000Y-132782000D01*
%TO.C,J8*%
X83455200Y-110388400D02*
X83455200Y-105248400D01*
X86115200Y-105248400D02*
X83455200Y-105248400D01*
X86115200Y-110388400D02*
X83455200Y-110388400D01*
X86115200Y-110388400D02*
X86115200Y-105248400D01*
X86115200Y-111658400D02*
X86115200Y-112988400D01*
X86115200Y-112988400D02*
X84785200Y-112988400D01*
%TO.C,R1*%
X93118000Y-106579936D02*
X93118000Y-107034064D01*
X94588000Y-106579936D02*
X94588000Y-107034064D01*
%TO.C,J6*%
X82480000Y-74880000D02*
X83810000Y-74880000D01*
X82480000Y-76210000D02*
X82480000Y-74880000D01*
X82480000Y-77480000D02*
X82480000Y-97860000D01*
X82480000Y-77480000D02*
X85080000Y-77480000D01*
X82480000Y-97860000D02*
X87680000Y-97860000D01*
X85080000Y-74880000D02*
X87680000Y-74880000D01*
X85080000Y-77480000D02*
X85080000Y-74880000D01*
X87680000Y-74880000D02*
X87680000Y-97860000D01*
D12*
%TO.C,U1*%
X136871000Y-117320000D02*
X136871000Y-127480000D01*
X136871000Y-127480000D02*
X139746000Y-127480000D01*
X139746000Y-117320000D02*
X136871000Y-117320000D01*
D13*
X133246000Y-117400000D02*
G75*
G02*
X133046000Y-117400000I-100000J0D01*
G01*
X133046000Y-117400000D02*
G75*
G02*
X133246000Y-117400000I100000J0D01*
G01*
D11*
%TO.C,C2*%
X133496267Y-114270000D02*
X133203733Y-114270000D01*
X133496267Y-115290000D02*
X133203733Y-115290000D01*
%TO.C,C8*%
X89400748Y-126900000D02*
X89923252Y-126900000D01*
X89400748Y-128370000D02*
X89923252Y-128370000D01*
%TO.C,C11*%
X85971748Y-69745000D02*
X86494252Y-69745000D01*
X85971748Y-71215000D02*
X86494252Y-71215000D01*
%TO.C,U2*%
X108604000Y-117216000D02*
X109864000Y-117216000D01*
X108604000Y-120976000D02*
X108604000Y-117216000D01*
X115424000Y-117216000D02*
X114164000Y-117216000D01*
X115424000Y-120976000D02*
X115424000Y-117216000D01*
X108704000Y-122256000D02*
X108374000Y-122496000D01*
X108374000Y-122016000D01*
X108704000Y-122256000D01*
G36*
X108704000Y-122256000D02*
G01*
X108374000Y-122496000D01*
X108374000Y-122016000D01*
X108704000Y-122256000D01*
G37*
%TD*%
M02*
