%TF.GenerationSoftware,KiCad,Pcbnew,9.0.0*%
%TF.CreationDate,2025-04-01T14:40:12+08:00*%
%TF.ProjectId,EggClassifier,45676743-6c61-4737-9369-666965722e6b,rev?*%
%TF.SameCoordinates,Original*%
%TF.FileFunction,Plated,1,2,PTH,Drill*%
%TF.FilePolarity,Positive*%
%FSLAX46Y46*%
G04 Gerber Fmt 4.6, Leading zero omitted, Abs format (unit mm)*
G04 Created by KiCad (PCBNEW 9.0.0) date 2025-04-01 14:40:12*
%MOMM*%
%LPD*%
G01*
G04 APERTURE LIST*
%TA.AperFunction,ViaDrill*%
%ADD10C,0.400000*%
%TD*%
%TA.AperFunction,ComponentDrill*%
%ADD11C,0.800000*%
%TD*%
%TA.AperFunction,ComponentDrill*%
%ADD12C,1.000000*%
%TD*%
%TA.AperFunction,ComponentDrill*%
%ADD13C,3.000000*%
%TD*%
G04 APERTURE END LIST*
D10*
X84180500Y-71414900D03*
X91313000Y-76962000D03*
X91440000Y-104521000D03*
X92143900Y-117652000D03*
X92521200Y-127044000D03*
X93091000Y-99568000D03*
X93980600Y-127830000D03*
X94615000Y-64770000D03*
X94742000Y-71628000D03*
X94869000Y-51689000D03*
X94869000Y-57658000D03*
X95885000Y-102616000D03*
X96520000Y-96500000D03*
X97241000Y-61095000D03*
X97536000Y-63754000D03*
X97536000Y-78740000D03*
X97917000Y-104140000D03*
X98171000Y-76073000D03*
X98933000Y-119888000D03*
X101600000Y-77343000D03*
X104902000Y-85598000D03*
X106680000Y-125476000D03*
X107061000Y-122757000D03*
X107950000Y-58420000D03*
X108204000Y-86360000D03*
X110584000Y-82390000D03*
X111125000Y-80137000D03*
X112141000Y-82296000D03*
X113030000Y-61595000D03*
X113030000Y-128270000D03*
X114300000Y-81280000D03*
X114554000Y-86360000D03*
X114808000Y-58401100D03*
X115570000Y-95758000D03*
X116840000Y-59436000D03*
X116840000Y-85471000D03*
X118110000Y-60579000D03*
X118822000Y-97324100D03*
X119385000Y-59804000D03*
X120650000Y-79629000D03*
X121925000Y-59703000D03*
X125095000Y-85598000D03*
X126873000Y-77724000D03*
X128074000Y-48036300D03*
X128270000Y-52832000D03*
X128397000Y-114935000D03*
X129667000Y-90551000D03*
X130457000Y-122400000D03*
X131445000Y-87630000D03*
X131572000Y-94742000D03*
X131826000Y-79743000D03*
X131953000Y-83960000D03*
X132264000Y-68385900D03*
X133223000Y-80505000D03*
X133350000Y-61595000D03*
X133731000Y-136462000D03*
X134620000Y-76581000D03*
X134874000Y-85471000D03*
X135636000Y-114808000D03*
X135636000Y-121158000D03*
X136906000Y-77978000D03*
X138430000Y-83185000D03*
X140843000Y-54102000D03*
X142240000Y-94742000D03*
X143606000Y-115824000D03*
X143891000Y-85471000D03*
X145275000Y-91821000D03*
X147320000Y-52410600D03*
X148684000Y-96139000D03*
X149078000Y-84735000D03*
X149733000Y-88519000D03*
X151130000Y-96393000D03*
X152265365Y-59062635D03*
X153670000Y-85217000D03*
X154940000Y-91821000D03*
X156083000Y-76581000D03*
X156718000Y-93091000D03*
X158075000Y-122757000D03*
X158750000Y-77978000D03*
X158905000Y-134112000D03*
X159385000Y-85217000D03*
X164465000Y-95123000D03*
X165481000Y-90043000D03*
X166624000Y-71120000D03*
X166624000Y-98679000D03*
X167894000Y-58293000D03*
X169060000Y-67778900D03*
X170053000Y-77343000D03*
X170180000Y-101981000D03*
D11*
%TO.C,C4*%
X111506000Y-131036000D03*
X111506000Y-136036000D03*
%TO.C,C3*%
X121666000Y-131036000D03*
X121666000Y-136036000D03*
%TO.C,C1*%
X150622000Y-122400000D03*
X155622000Y-122400000D03*
D12*
%TO.C,J8*%
X84785200Y-106578400D03*
X84785200Y-109118400D03*
X84785200Y-111658400D03*
%TO.C,J11*%
X84785200Y-120802400D03*
X84785200Y-123342400D03*
X84785200Y-125882400D03*
%TO.C,J6*%
X85110000Y-76210000D03*
X85110000Y-78750000D03*
X85110000Y-81290000D03*
X85110000Y-83830000D03*
X85110000Y-86370000D03*
X85110000Y-88910000D03*
X85110000Y-91450000D03*
X85110000Y-93990000D03*
X85110000Y-96530000D03*
%TO.C,J16*%
X86503000Y-57404000D03*
X86503000Y-59944000D03*
X86503000Y-62484000D03*
X86503000Y-65024000D03*
%TO.C,J6*%
X87650000Y-76210000D03*
X87650000Y-78750000D03*
X87650000Y-81290000D03*
X87650000Y-83830000D03*
X87650000Y-86370000D03*
X87650000Y-88910000D03*
X87650000Y-91450000D03*
X87650000Y-93990000D03*
X87650000Y-96530000D03*
%TO.C,J9*%
X97297000Y-46278800D03*
X99837000Y-46278800D03*
%TO.C,J3*%
X101600000Y-70950000D03*
X101600000Y-73490000D03*
%TO.C,J1*%
X101600000Y-106510000D03*
X101600000Y-109050000D03*
%TO.C,J9*%
X102377000Y-46278800D03*
%TO.C,J2*%
X104140000Y-63330000D03*
X104140000Y-65870000D03*
%TO.C,J3*%
X104140000Y-70950000D03*
X104140000Y-73490000D03*
%TO.C,J4*%
X104140000Y-98890000D03*
X104140000Y-101430000D03*
%TO.C,J1*%
X104140000Y-106510000D03*
X104140000Y-109050000D03*
%TO.C,J2*%
X106680000Y-63330000D03*
X106680000Y-65870000D03*
%TO.C,J3*%
X106680000Y-70950000D03*
X106680000Y-73490000D03*
%TO.C,J4*%
X106680000Y-98890000D03*
X106680000Y-101430000D03*
%TO.C,J1*%
X106680000Y-106510000D03*
X106680000Y-109050000D03*
%TO.C,J2*%
X109220000Y-63330000D03*
X109220000Y-65870000D03*
%TO.C,J3*%
X109220000Y-70950000D03*
X109220000Y-73490000D03*
%TO.C,J4*%
X109220000Y-98890000D03*
X109220000Y-101430000D03*
%TO.C,J1*%
X109220000Y-106510000D03*
X109220000Y-109050000D03*
%TO.C,J2*%
X111760000Y-63330000D03*
X111760000Y-65870000D03*
%TO.C,J3*%
X111760000Y-70950000D03*
X111760000Y-73490000D03*
%TO.C,J4*%
X111760000Y-98890000D03*
X111760000Y-101430000D03*
%TO.C,J1*%
X111760000Y-106510000D03*
X111760000Y-109050000D03*
%TO.C,J2*%
X114300000Y-63330000D03*
X114300000Y-65870000D03*
%TO.C,J3*%
X114300000Y-70950000D03*
X114300000Y-73490000D03*
%TO.C,J4*%
X114300000Y-98890000D03*
X114300000Y-101430000D03*
%TO.C,J1*%
X114300000Y-106510000D03*
X114300000Y-109050000D03*
%TO.C,J7*%
X114305000Y-45064600D03*
X114305000Y-47604600D03*
%TO.C,J2*%
X116840000Y-63330000D03*
X116840000Y-65870000D03*
%TO.C,J3*%
X116840000Y-70950000D03*
X116840000Y-73490000D03*
%TO.C,J4*%
X116840000Y-98890000D03*
X116840000Y-101430000D03*
%TO.C,J1*%
X116840000Y-106510000D03*
X116840000Y-109050000D03*
%TO.C,J7*%
X116845000Y-45064600D03*
X116845000Y-47604600D03*
%TO.C,J2*%
X119380000Y-63330000D03*
X119380000Y-65870000D03*
%TO.C,J3*%
X119380000Y-70950000D03*
X119380000Y-73490000D03*
%TO.C,J4*%
X119380000Y-98890000D03*
X119380000Y-101430000D03*
%TO.C,J1*%
X119380000Y-106510000D03*
X119380000Y-109050000D03*
%TO.C,J7*%
X119385000Y-45064600D03*
X119385000Y-47604600D03*
%TO.C,J2*%
X121920000Y-63330000D03*
X121920000Y-65870000D03*
%TO.C,J3*%
X121920000Y-70950000D03*
X121920000Y-73490000D03*
%TO.C,J4*%
X121920000Y-98890000D03*
X121920000Y-101430000D03*
%TO.C,J1*%
X121920000Y-106510000D03*
X121920000Y-109050000D03*
%TO.C,J7*%
X121925000Y-45064600D03*
X121925000Y-47604600D03*
%TO.C,J2*%
X124460000Y-63330000D03*
X124460000Y-65870000D03*
%TO.C,J3*%
X124460000Y-70950000D03*
X124460000Y-73490000D03*
%TO.C,J4*%
X124460000Y-98890000D03*
X124460000Y-101430000D03*
%TO.C,J1*%
X124460000Y-106510000D03*
X124460000Y-109050000D03*
%TO.C,J7*%
X124465000Y-45064600D03*
X124465000Y-47604600D03*
%TO.C,J2*%
X127000000Y-63330000D03*
X127000000Y-65870000D03*
%TO.C,J3*%
X127000000Y-70950000D03*
X127000000Y-73490000D03*
%TO.C,J4*%
X127000000Y-98890000D03*
X127000000Y-101430000D03*
%TO.C,J1*%
X127000000Y-106510000D03*
X127000000Y-109050000D03*
%TO.C,J2*%
X129540000Y-63330000D03*
X129540000Y-65870000D03*
%TO.C,J3*%
X129540000Y-70950000D03*
X129540000Y-73490000D03*
%TO.C,J4*%
X129540000Y-98890000D03*
X129540000Y-101430000D03*
%TO.C,J1*%
X129540000Y-106510000D03*
X129540000Y-109050000D03*
%TO.C,J2*%
X132080000Y-63330000D03*
X132080000Y-65870000D03*
%TO.C,J3*%
X132080000Y-70950000D03*
X132080000Y-73490000D03*
%TO.C,J4*%
X132080000Y-98890000D03*
X132080000Y-101430000D03*
%TO.C,J1*%
X132080000Y-106510000D03*
X132080000Y-109050000D03*
%TO.C,J2*%
X134620000Y-63330000D03*
X134620000Y-65870000D03*
%TO.C,J3*%
X134620000Y-70950000D03*
X134620000Y-73490000D03*
%TO.C,J4*%
X134620000Y-98890000D03*
X134620000Y-101430000D03*
%TO.C,J1*%
X134620000Y-106510000D03*
X134620000Y-109050000D03*
%TO.C,J2*%
X137160000Y-63330000D03*
X137160000Y-65870000D03*
%TO.C,J3*%
X137160000Y-70950000D03*
X137160000Y-73490000D03*
%TO.C,J4*%
X137160000Y-98890000D03*
X137160000Y-101430000D03*
%TO.C,J1*%
X137160000Y-106510000D03*
X137160000Y-109050000D03*
%TO.C,J10*%
X137718800Y-45720000D03*
%TO.C,J12*%
X137728800Y-50800000D03*
%TO.C,J2*%
X139700000Y-63330000D03*
X139700000Y-65870000D03*
%TO.C,J3*%
X139700000Y-70950000D03*
X139700000Y-73490000D03*
%TO.C,J4*%
X139700000Y-98890000D03*
X139700000Y-101430000D03*
%TO.C,J1*%
X139700000Y-106510000D03*
X139700000Y-109050000D03*
%TO.C,J10*%
X140258800Y-45720000D03*
%TO.C,J12*%
X140268800Y-50800000D03*
%TO.C,J2*%
X142240000Y-63330000D03*
X142240000Y-65870000D03*
%TO.C,J3*%
X142240000Y-70950000D03*
X142240000Y-73490000D03*
%TO.C,J4*%
X142240000Y-98890000D03*
X142240000Y-101430000D03*
%TO.C,J1*%
X142240000Y-106510000D03*
X142240000Y-109050000D03*
%TO.C,J10*%
X142798800Y-45720000D03*
%TO.C,J12*%
X142808800Y-50800000D03*
%TO.C,J2*%
X144780000Y-63330000D03*
X144780000Y-65870000D03*
%TO.C,J3*%
X144780000Y-70950000D03*
X144780000Y-73490000D03*
%TO.C,J4*%
X144780000Y-98890000D03*
X144780000Y-101430000D03*
%TO.C,J1*%
X144780000Y-106510000D03*
X144780000Y-109050000D03*
%TO.C,J10*%
X145338800Y-45720000D03*
%TO.C,J12*%
X145348800Y-50800000D03*
%TO.C,J5*%
X145425000Y-134112000D03*
%TO.C,J2*%
X147320000Y-63330000D03*
X147320000Y-65870000D03*
%TO.C,J3*%
X147320000Y-70950000D03*
X147320000Y-73490000D03*
%TO.C,J4*%
X147320000Y-98890000D03*
X147320000Y-101430000D03*
%TO.C,J1*%
X147320000Y-106510000D03*
X147320000Y-109050000D03*
%TO.C,J5*%
X147965000Y-134112000D03*
%TO.C,J2*%
X149860000Y-63330000D03*
X149860000Y-65870000D03*
%TO.C,J3*%
X149860000Y-70950000D03*
X149860000Y-73490000D03*
%TO.C,J4*%
X149860000Y-98890000D03*
X149860000Y-101430000D03*
%TO.C,J1*%
X149860000Y-106510000D03*
X149860000Y-109050000D03*
%TO.C,J5*%
X150505000Y-134112000D03*
%TO.C,J2*%
X152400000Y-63330000D03*
X152400000Y-65870000D03*
%TO.C,J3*%
X152400000Y-70950000D03*
X152400000Y-73490000D03*
%TO.C,J4*%
X152400000Y-98890000D03*
X152400000Y-101430000D03*
%TO.C,J1*%
X152400000Y-106510000D03*
X152400000Y-109050000D03*
%TO.C,J5*%
X153045000Y-134112000D03*
%TO.C,J2*%
X154940000Y-63330000D03*
X154940000Y-65870000D03*
%TO.C,J3*%
X154940000Y-70950000D03*
X154940000Y-73490000D03*
%TO.C,J4*%
X154940000Y-98890000D03*
X154940000Y-101430000D03*
%TO.C,J1*%
X154940000Y-106510000D03*
X154940000Y-109050000D03*
%TO.C,J13*%
X157480000Y-45720000D03*
%TO.C,J15*%
X157480000Y-50800000D03*
%TO.C,J2*%
X157480000Y-63330000D03*
X157480000Y-65870000D03*
%TO.C,J3*%
X157480000Y-70950000D03*
X157480000Y-73490000D03*
%TO.C,J4*%
X157480000Y-98890000D03*
X157480000Y-101430000D03*
%TO.C,J1*%
X157480000Y-106510000D03*
X157480000Y-109050000D03*
%TO.C,J13*%
X160020000Y-45720000D03*
%TO.C,J15*%
X160020000Y-50800000D03*
%TO.C,J3*%
X160020000Y-70950000D03*
X160020000Y-73490000D03*
%TO.C,J1*%
X160020000Y-106510000D03*
X160020000Y-109050000D03*
%TO.C,J13*%
X162560000Y-45720000D03*
%TO.C,J15*%
X162560000Y-50800000D03*
%TO.C,J17*%
X174752000Y-66040000D03*
X174752000Y-68580000D03*
X174752000Y-71120000D03*
X174752000Y-73660000D03*
X174752000Y-76200000D03*
X174752000Y-78740000D03*
X174752000Y-81280000D03*
X174752000Y-83820000D03*
X174752000Y-86360000D03*
X174752000Y-88900000D03*
X174752000Y-91440000D03*
X174752000Y-93980000D03*
X174752000Y-96520000D03*
X174752000Y-99060000D03*
X174752000Y-101600000D03*
%TO.C,J14*%
X175006000Y-118349000D03*
X175006000Y-120889000D03*
X175006000Y-123429000D03*
D13*
%TO.C,H1*%
X85000000Y-45000000D03*
%TO.C,H2*%
X85000000Y-135000000D03*
%TO.C,H4*%
X175000000Y-45000000D03*
%TO.C,H3*%
X175000000Y-135000000D03*
M02*
