%TF.GenerationSoftware,KiCad,Pcbnew,9.0.1*%
%TF.CreationDate,2025-04-22T11:41:16+08:00*%
%TF.ProjectId,EggClassifier,45676743-6c61-4737-9369-666965722e6b,rev?*%
%TF.SameCoordinates,Original*%
%TF.FileFunction,Soldermask,Top*%
%TF.FilePolarity,Negative*%
%FSLAX46Y46*%
G04 Gerber Fmt 4.6, Leading zero omitted, Abs format (unit mm)*
G04 Created by KiCad (PCBNEW 9.0.1) date 2025-04-22 11:41:16*
%MOMM*%
%LPD*%
G01*
G04 APERTURE LIST*
G04 Aperture macros list*
%AMRoundRect*
0 Rectangle with rounded corners*
0 $1 Rounding radius*
0 $2 $3 $4 $5 $6 $7 $8 $9 X,Y pos of 4 corners*
0 Add a 4 corners polygon primitive as box body*
4,1,4,$2,$3,$4,$5,$6,$7,$8,$9,$2,$3,0*
0 Add four circle primitives for the rounded corners*
1,1,$1+$1,$2,$3*
1,1,$1+$1,$4,$5*
1,1,$1+$1,$6,$7*
1,1,$1+$1,$8,$9*
0 Add four rect primitives between the rounded corners*
20,1,$1+$1,$2,$3,$4,$5,0*
20,1,$1+$1,$4,$5,$6,$7,0*
20,1,$1+$1,$6,$7,$8,$9,0*
20,1,$1+$1,$8,$9,$2,$3,0*%
G04 Aperture macros list end*
%ADD10C,2.000000*%
%ADD11RoundRect,0.250000X0.450000X-0.350000X0.450000X0.350000X-0.450000X0.350000X-0.450000X-0.350000X0*%
%ADD12RoundRect,0.250000X0.350000X0.450000X-0.350000X0.450000X-0.350000X-0.450000X0.350000X-0.450000X0*%
%ADD13R,1.600000X1.600000*%
%ADD14C,1.600000*%
%ADD15R,1.700000X1.700000*%
%ADD16O,1.700000X1.700000*%
%ADD17RoundRect,0.075000X-0.725000X-0.075000X0.725000X-0.075000X0.725000X0.075000X-0.725000X0.075000X0*%
%ADD18RoundRect,0.075000X-0.075000X-0.725000X0.075000X-0.725000X0.075000X0.725000X-0.075000X0.725000X0*%
%ADD19RoundRect,0.250000X0.325000X0.450000X-0.325000X0.450000X-0.325000X-0.450000X0.325000X-0.450000X0*%
%ADD20C,5.200000*%
%ADD21RoundRect,0.250000X0.337500X0.475000X-0.337500X0.475000X-0.337500X-0.475000X0.337500X-0.475000X0*%
%ADD22RoundRect,0.250000X-0.750000X-0.500000X0.750000X-0.500000X0.750000X0.500000X-0.750000X0.500000X0*%
%ADD23RoundRect,0.250000X-0.750000X-1.650000X0.750000X-1.650000X0.750000X1.650000X-0.750000X1.650000X0*%
%ADD24RoundRect,0.250000X-3.500000X1.260000X-3.500000X-1.260000X3.500000X-1.260000X3.500000X1.260000X0*%
%ADD25RoundRect,0.250000X-0.350000X-0.450000X0.350000X-0.450000X0.350000X0.450000X-0.350000X0.450000X0*%
%ADD26RoundRect,0.250000X0.650000X-1.500000X0.650000X1.500000X-0.650000X1.500000X-0.650000X-1.500000X0*%
%ADD27R,1.980000X3.000000*%
%ADD28RoundRect,0.250000X0.475000X-0.337500X0.475000X0.337500X-0.475000X0.337500X-0.475000X-0.337500X0*%
%ADD29RoundRect,0.250000X1.500000X0.650000X-1.500000X0.650000X-1.500000X-0.650000X1.500000X-0.650000X0*%
%ADD30RoundRect,0.250000X-0.475000X0.337500X-0.475000X-0.337500X0.475000X-0.337500X0.475000X0.337500X0*%
%ADD31RoundRect,0.250000X-1.500000X-0.900000X1.500000X-0.900000X1.500000X0.900000X-1.500000X0.900000X0*%
%ADD32RoundRect,0.250000X-0.337500X-0.475000X0.337500X-0.475000X0.337500X0.475000X-0.337500X0.475000X0*%
%ADD33RoundRect,0.250000X-0.450000X0.350000X-0.450000X-0.350000X0.450000X-0.350000X0.450000X0.350000X0*%
%ADD34O,2.250000X0.630000*%
%ADD35RoundRect,0.102000X-1.395000X0.445000X-1.395000X-0.445000X1.395000X-0.445000X1.395000X0.445000X0*%
%ADD36RoundRect,0.102000X-3.420000X5.290000X-3.420000X-5.290000X3.420000X-5.290000X3.420000X5.290000X0*%
%ADD37RoundRect,0.375000X0.375000X-0.625000X0.375000X0.625000X-0.375000X0.625000X-0.375000X-0.625000X0*%
%ADD38RoundRect,0.500000X1.400000X-0.500000X1.400000X0.500000X-1.400000X0.500000X-1.400000X-0.500000X0*%
G04 APERTURE END LIST*
D10*
%TO.C,SW1*%
X102096800Y-137169800D03*
X95596800Y-137169800D03*
X102096800Y-132669800D03*
X95596800Y-132669800D03*
%TD*%
D11*
%TO.C,R2*%
X89306400Y-107730800D03*
X89306400Y-105730800D03*
%TD*%
D12*
%TO.C,R8*%
X132318000Y-132588000D03*
X130318000Y-132588000D03*
%TD*%
D13*
%TO.C,C4*%
X111506000Y-131036000D03*
D14*
X111506000Y-134536000D03*
%TD*%
D15*
%TO.C,J15*%
X142499000Y-51430000D03*
D16*
X145039000Y-51430000D03*
X147579000Y-51430000D03*
%TD*%
D17*
%TO.C,U3*%
X123531400Y-78602400D03*
X123531400Y-79102400D03*
X123531400Y-79602400D03*
X123531400Y-80102400D03*
X123531400Y-80602400D03*
X123531400Y-81102400D03*
X123531400Y-81602400D03*
X123531400Y-82102400D03*
X123531400Y-82602400D03*
X123531400Y-83102400D03*
X123531400Y-83602400D03*
X123531400Y-84102400D03*
X123531400Y-84602400D03*
X123531400Y-85102400D03*
X123531400Y-85602400D03*
X123531400Y-86102400D03*
X123531400Y-86602400D03*
X123531400Y-87102400D03*
X123531400Y-87602400D03*
X123531400Y-88102400D03*
X123531400Y-88602400D03*
X123531400Y-89102400D03*
X123531400Y-89602400D03*
X123531400Y-90102400D03*
X123531400Y-90602400D03*
D18*
X125206400Y-92277400D03*
X125706400Y-92277400D03*
X126206400Y-92277400D03*
X126706400Y-92277400D03*
X127206400Y-92277400D03*
X127706400Y-92277400D03*
X128206400Y-92277400D03*
X128706400Y-92277400D03*
X129206400Y-92277400D03*
X129706400Y-92277400D03*
X130206400Y-92277400D03*
X130706400Y-92277400D03*
X131206400Y-92277400D03*
X131706400Y-92277400D03*
X132206400Y-92277400D03*
X132706400Y-92277400D03*
X133206400Y-92277400D03*
X133706400Y-92277400D03*
X134206400Y-92277400D03*
X134706400Y-92277400D03*
X135206400Y-92277400D03*
X135706400Y-92277400D03*
X136206400Y-92277400D03*
X136706400Y-92277400D03*
X137206400Y-92277400D03*
D17*
X138881400Y-90602400D03*
X138881400Y-90102400D03*
X138881400Y-89602400D03*
X138881400Y-89102400D03*
X138881400Y-88602400D03*
X138881400Y-88102400D03*
X138881400Y-87602400D03*
X138881400Y-87102400D03*
X138881400Y-86602400D03*
X138881400Y-86102400D03*
X138881400Y-85602400D03*
X138881400Y-85102400D03*
X138881400Y-84602400D03*
X138881400Y-84102400D03*
X138881400Y-83602400D03*
X138881400Y-83102400D03*
X138881400Y-82602400D03*
X138881400Y-82102400D03*
X138881400Y-81602400D03*
X138881400Y-81102400D03*
X138881400Y-80602400D03*
X138881400Y-80102400D03*
X138881400Y-79602400D03*
X138881400Y-79102400D03*
X138881400Y-78602400D03*
D18*
X137206400Y-76927400D03*
X136706400Y-76927400D03*
X136206400Y-76927400D03*
X135706400Y-76927400D03*
X135206400Y-76927400D03*
X134706400Y-76927400D03*
X134206400Y-76927400D03*
X133706400Y-76927400D03*
X133206400Y-76927400D03*
X132706400Y-76927400D03*
X132206400Y-76927400D03*
X131706400Y-76927400D03*
X131206400Y-76927400D03*
X130706400Y-76927400D03*
X130206400Y-76927400D03*
X129706400Y-76927400D03*
X129206400Y-76927400D03*
X128706400Y-76927400D03*
X128206400Y-76927400D03*
X127706400Y-76927400D03*
X127206400Y-76927400D03*
X126706400Y-76927400D03*
X126206400Y-76927400D03*
X125706400Y-76927400D03*
X125206400Y-76927400D03*
%TD*%
D15*
%TO.C,J11*%
X84785200Y-125882400D03*
D16*
X84785200Y-123342400D03*
X84785200Y-120802400D03*
%TD*%
D19*
%TO.C,D6*%
X105104200Y-107259200D03*
X103054200Y-107259200D03*
%TD*%
D20*
%TO.C,H2*%
X85000000Y-135000000D03*
%TD*%
%TO.C,H4*%
X175000000Y-45000000D03*
%TD*%
D21*
%TO.C,C5*%
X115098900Y-125648800D03*
X113023900Y-125648800D03*
%TD*%
D15*
%TO.C,J2*%
X175000000Y-100350400D03*
D16*
X175000000Y-102890400D03*
X175000000Y-105430400D03*
X175000000Y-107970400D03*
%TD*%
D22*
%TO.C,Q1*%
X89864800Y-113117600D03*
X89864800Y-115417600D03*
D23*
X96164800Y-115417600D03*
D22*
X89864800Y-117717600D03*
%TD*%
D12*
%TO.C,R14*%
X105079200Y-102179200D03*
X103079200Y-102179200D03*
%TD*%
D14*
%TO.C,L1*%
X124206000Y-124908000D03*
D24*
X124206000Y-126238000D03*
X124206000Y-119578000D03*
D14*
X124206000Y-120908000D03*
%TD*%
D25*
%TO.C,R12*%
X152304400Y-74386600D03*
X154304400Y-74386600D03*
%TD*%
D15*
%TO.C,J10*%
X99761200Y-44267200D03*
D16*
X102301200Y-44267200D03*
X104841200Y-44267200D03*
X107381200Y-44267200D03*
%TD*%
D15*
%TO.C,J1*%
X158130400Y-74386600D03*
D16*
X158130400Y-71846600D03*
X158130400Y-69306600D03*
X158130400Y-66766600D03*
X158130400Y-64226600D03*
%TD*%
D21*
%TO.C,C18*%
X119950300Y-83535600D03*
X117875300Y-83535600D03*
%TD*%
D25*
%TO.C,R15*%
X152304400Y-66766600D03*
X154304400Y-66766600D03*
%TD*%
D26*
%TO.C,D4*%
X170728800Y-123526000D03*
X170728800Y-118526000D03*
%TD*%
D15*
%TO.C,J17*%
X175000000Y-55000000D03*
D16*
X175000000Y-57540000D03*
X175000000Y-60080000D03*
X175000000Y-62620000D03*
X175000000Y-65160000D03*
X175000000Y-67700000D03*
X175000000Y-70240000D03*
X175000000Y-72780000D03*
X175000000Y-75320000D03*
X175000000Y-77860000D03*
X175000000Y-80400000D03*
X175000000Y-82940000D03*
X175000000Y-85480000D03*
X175000000Y-88020000D03*
%TD*%
D27*
%TO.C,Y1*%
X104014600Y-71049600D03*
X109274600Y-71049600D03*
X109274600Y-66049600D03*
X104014600Y-66049600D03*
%TD*%
D28*
%TO.C,C9*%
X91567000Y-107844500D03*
X91567000Y-105769500D03*
%TD*%
D22*
%TO.C,Q3*%
X160172000Y-118350000D03*
X160172000Y-120650000D03*
D23*
X166472000Y-120650000D03*
D22*
X160172000Y-122950000D03*
%TD*%
D12*
%TO.C,R19*%
X105079200Y-104719200D03*
X103079200Y-104719200D03*
%TD*%
D15*
%TO.C,J9*%
X157485000Y-45080000D03*
D16*
X160025000Y-45080000D03*
X162565000Y-45080000D03*
%TD*%
D13*
%TO.C,C3*%
X121666000Y-131036000D03*
D14*
X121666000Y-134536000D03*
%TD*%
D11*
%TO.C,R6*%
X88646000Y-124139200D03*
X88646000Y-122139200D03*
%TD*%
D29*
%TO.C,D2*%
X169774400Y-95930800D03*
X164774400Y-95930800D03*
%TD*%
D22*
%TO.C,Q2*%
X95554400Y-123125200D03*
X95554400Y-125425200D03*
D23*
X101854400Y-125425200D03*
D22*
X95554400Y-127725200D03*
%TD*%
D30*
%TO.C,C14*%
X136489600Y-96925300D03*
X136489600Y-99000300D03*
%TD*%
D11*
%TO.C,R11*%
X170322400Y-64317200D03*
X170322400Y-62317200D03*
%TD*%
D20*
%TO.C,H1*%
X85000000Y-45000000D03*
%TD*%
%TO.C,H3*%
X175000000Y-135000000D03*
%TD*%
D25*
%TO.C,R20*%
X168560400Y-100350400D03*
X170560400Y-100350400D03*
%TD*%
D12*
%TO.C,R10*%
X93700000Y-64130000D03*
X91700000Y-64130000D03*
%TD*%
%TO.C,R9*%
X93700000Y-61590000D03*
X91700000Y-61590000D03*
%TD*%
D15*
%TO.C,J14*%
X175006000Y-123429000D03*
D16*
X175006000Y-120889000D03*
X175006000Y-118349000D03*
%TD*%
D21*
%TO.C,C13*%
X105040500Y-99639200D03*
X102965500Y-99639200D03*
%TD*%
D13*
%TO.C,C1*%
X151374000Y-122296000D03*
D14*
X154874000Y-122296000D03*
%TD*%
D31*
%TO.C,D1*%
X121038800Y-114168000D03*
X126438800Y-114168000D03*
%TD*%
D15*
%TO.C,J12*%
X99761200Y-51430000D03*
D16*
X102301200Y-51430000D03*
X104841200Y-51430000D03*
X107381200Y-51430000D03*
%TD*%
D15*
%TO.C,J16*%
X86350000Y-56520000D03*
D16*
X86350000Y-59060000D03*
X86350000Y-61600000D03*
X86350000Y-64140000D03*
%TD*%
D12*
%TO.C,R16*%
X154304400Y-64226600D03*
X152304400Y-64226600D03*
%TD*%
D29*
%TO.C,D3*%
X165314000Y-128016000D03*
X160314000Y-128016000D03*
%TD*%
D32*
%TO.C,C12*%
X105505500Y-75052000D03*
X107580500Y-75052000D03*
%TD*%
D33*
%TO.C,R5*%
X90982800Y-122139200D03*
X90982800Y-124139200D03*
%TD*%
D21*
%TO.C,C19*%
X124649300Y-96616600D03*
X122574300Y-96616600D03*
%TD*%
D25*
%TO.C,R18*%
X168560400Y-105430400D03*
X170560400Y-105430400D03*
%TD*%
D19*
%TO.C,D5*%
X132343000Y-136652000D03*
X130293000Y-136652000D03*
%TD*%
D15*
%TO.C,J13*%
X142499000Y-44267200D03*
D16*
X145039000Y-44267200D03*
X147579000Y-44267200D03*
%TD*%
D33*
%TO.C,R13*%
X117541200Y-67956000D03*
X117541200Y-69956000D03*
%TD*%
D11*
%TO.C,R4*%
X107729333Y-56838856D03*
X107729333Y-54838856D03*
%TD*%
%TO.C,R3*%
X104300333Y-56838856D03*
X104300333Y-54838856D03*
%TD*%
D21*
%TO.C,C7*%
X164867500Y-134112000D03*
X162792500Y-134112000D03*
%TD*%
D30*
%TO.C,C10*%
X170170000Y-55167700D03*
X170170000Y-57242700D03*
%TD*%
D21*
%TO.C,C6*%
X110511500Y-125648800D03*
X108436500Y-125648800D03*
%TD*%
D28*
%TO.C,C17*%
X124627800Y-73320900D03*
X124627800Y-71245900D03*
%TD*%
D15*
%TO.C,J7*%
X119502000Y-47498000D03*
D16*
X119502000Y-44958000D03*
X122042000Y-47498000D03*
X122042000Y-44958000D03*
X124582000Y-47498000D03*
X124582000Y-44958000D03*
X127122000Y-47498000D03*
X127122000Y-44958000D03*
X129662000Y-47498000D03*
X129662000Y-44958000D03*
%TD*%
D12*
%TO.C,R7*%
X162026000Y-114168000D03*
X160026000Y-114168000D03*
%TD*%
D34*
%TO.C,U4*%
X147132800Y-101539200D03*
X147132800Y-102809200D03*
X147132800Y-104089200D03*
X147132800Y-105359200D03*
X154192800Y-105359200D03*
X154192800Y-104089200D03*
X154192800Y-102809200D03*
X154192800Y-101539200D03*
%TD*%
D15*
%TO.C,J5*%
X145425000Y-134112000D03*
D16*
X147965000Y-134112000D03*
X150505000Y-134112000D03*
X153045000Y-134112000D03*
%TD*%
D32*
%TO.C,C15*%
X142716500Y-79573200D03*
X144791500Y-79573200D03*
%TD*%
D15*
%TO.C,J8*%
X84785200Y-111658400D03*
D16*
X84785200Y-109118400D03*
X84785200Y-106578400D03*
%TD*%
D33*
%TO.C,R1*%
X93853000Y-105807000D03*
X93853000Y-107807000D03*
%TD*%
D15*
%TO.C,J6*%
X83810000Y-76210000D03*
D16*
X86350000Y-76210000D03*
X83810000Y-78750000D03*
X86350000Y-78750000D03*
X83810000Y-81290000D03*
X86350000Y-81290000D03*
X83810000Y-83830000D03*
X86350000Y-83830000D03*
X83810000Y-86370000D03*
X86350000Y-86370000D03*
X83810000Y-88910000D03*
X86350000Y-88910000D03*
X83810000Y-91450000D03*
X86350000Y-91450000D03*
X83810000Y-93990000D03*
X86350000Y-93990000D03*
X83810000Y-96530000D03*
X86350000Y-96530000D03*
%TD*%
D25*
%TO.C,R17*%
X168560400Y-102890400D03*
X170560400Y-102890400D03*
%TD*%
D32*
%TO.C,C22*%
X142716500Y-77515800D03*
X144791500Y-77515800D03*
%TD*%
D35*
%TO.C,U1*%
X133256000Y-118590000D03*
X133256000Y-119860000D03*
X133256000Y-121130000D03*
X133256000Y-122400000D03*
X133256000Y-123670000D03*
X133256000Y-124940000D03*
X133256000Y-126210000D03*
D36*
X143606000Y-122400000D03*
%TD*%
D21*
%TO.C,C2*%
X134387500Y-114780000D03*
X132312500Y-114780000D03*
%TD*%
%TO.C,C16*%
X151547900Y-99283600D03*
X149472900Y-99283600D03*
%TD*%
D30*
%TO.C,C20*%
X139080400Y-96925300D03*
X139080400Y-99000300D03*
%TD*%
D32*
%TO.C,C8*%
X88624500Y-127635000D03*
X90699500Y-127635000D03*
%TD*%
%TO.C,C11*%
X85195500Y-70480000D03*
X87270500Y-70480000D03*
%TD*%
D37*
%TO.C,U2*%
X109714000Y-120874000D03*
X112014000Y-120874000D03*
D38*
X112014000Y-114574000D03*
D37*
X114314000Y-120874000D03*
%TD*%
D21*
%TO.C,C21*%
X154341900Y-70734000D03*
X152266900Y-70734000D03*
%TD*%
M02*
