M48
; DRILL file {KiCad 9.0.1} date 2025-04-24T17:47:53+0800
; FORMAT={-:-/ absolute / metric / decimal}
; #@! TF.CreationDate,2025-04-24T17:47:53+08:00
; #@! TF.GenerationSoftware,Kicad,Pcbnew,9.0.1
; #@! TF.FileFunction,MixedPlating,1,2
FMAT,2
METRIC
; #@! TA.AperFunction,Plated,PTH,ViaDrill
T1C0.400
; #@! TA.AperFunction,Plated,PTH,ComponentDrill
T2C1.000
; #@! TA.AperFunction,Plated,PTH,ComponentDrill
T3C2.300
; #@! TA.AperFunction,Plated,PTH,ComponentDrill
T4C3.000
%
G90
G05
T1
X84.182Y-70.316
X91.105Y-97.638
X92.09Y-87.092
X92.12Y-79.602
X92.192Y-97.607
X93.023Y-96.885
X93.056Y-85.194
X93.106Y-80.327
X94.173Y-86.076
X94.249Y-80.97
X95.138Y-94.508
X95.977Y-81.695
X96.916Y-94.508
X96.967Y-86.888
X100.015Y-87.904
X100.066Y-77.236
X100.066Y-98.42
X100.218Y-83.434
X102.301Y-106.294
X103.571Y-103.246
X103.876Y-86.685
X106.721Y-74.595
X107.686Y-98.42
X107.737Y-83.536
X107.788Y-87.904
X108.092Y-65.908
X110.124Y-87.193
X110.242Y-57.018
X111.242Y-103.195
X111.293Y-91.46
X111.75Y-77.338
X111.75Y-83.256
X112.106Y-86.98
X112.41Y-64.359
X112.563Y-87.905
X112.868Y-62.733
X113.884Y-87.903
X114.544Y-83.383
X115.255Y-78.456
X116.474Y-104.11
X117.211Y-78.075
X117.541Y-85.579
X117.668Y-89.403
X117.948Y-74.86
X118.049Y-82.316
X118.74Y-85.579
X119.446Y-89.454
X120.335Y-91.968
X120.85Y-90.31
X121.046Y-105.024
X121.148Y-95.118
X121.453Y-96.642
X121.758Y-76.424
X121.834Y-74.417
X121.91Y-92.934
X122.57Y-94.407
X122.875Y-91.664
X124.552Y-70.277
X124.602Y-101.671
X124.653Y-97.72
X125.006Y-90.444
X125.263Y-78.71
X125.644Y-87.854
X126.279Y-69.464
X126.584Y-84.044
X127.122Y-57.018
X127.346Y-82.113
X127.346Y-99.334
X127.346Y-104.821
X127.676Y-94.407
X128.209Y-78.506
X128.463Y-97.658
X128.489Y-95.931
X128.768Y-69.515
X128.906Y-73.032
X129.53Y-90.038
X129.682Y-99.487
X129.886Y-111.222
X130.546Y-90.292
X131.105Y-109.952
X131.206Y-104.789
X131.308Y-98.369
X131.308Y-108.529
X131.765Y-90.343
X132.112Y-78.468
X132.362Y-107.805
X132.476Y-81.834
X132.883Y-90.343
X133.188Y-79.624
X133.746Y-89.886
X134.559Y-83.891
X134.661Y-90.749
X135.982Y-79.878
X136.286Y-74.544
X136.464Y-82.824
X136.947Y-93.95
X137.048Y-84.602
X137.76Y-99.0
X137.912Y-74.9
X140.554Y-78.76
X140.871Y-89.822
X141.265Y-90.913
X142.078Y-89.632
X142.103Y-88.489
X142.84Y-91.613
X143.691Y-83.333
X143.754Y-102.027
X143.779Y-87.981
X143.856Y-65.502
X144.237Y-71.42
X144.973Y-81.046
X144.973Y-83.282
X145.532Y-97.963
X145.837Y-79.573
X146.65Y-87.701
X147.158Y-100.655
X147.183Y-106.294
X147.869Y-88.311
X147.869Y-92.832
X149.444Y-97.963
X150.307Y-68.956
X150.866Y-74.392
X151.171Y-70.785
X152.238Y-62.708
X156.124Y-86.634
X156.124Y-102.809
X156.269Y-84.178
X157.724Y-105.354
X158.791Y-106.243
X158.943Y-98.928
X159.756Y-99.944
X159.807Y-106.751
X161.483Y-101.519
X161.483Y-103.449
X161.483Y-105.532
X161.483Y-107.564
X161.483Y-109.596
X161.636Y-83.282
X161.686Y-80.996
X161.686Y-85.669
X163.261Y-80.843
X163.261Y-85.72
X172.151Y-98.674
X181.803Y-61.133
X182.921Y-98.674
X192.471Y-104.872
X194.474Y-87.813
X195.058Y-81.209
X197.094Y-103.398
X197.246Y-106.396
X199.158Y-68.687
X199.482Y-52.7
X201.129Y-109.098
X201.408Y-81.209
X202.632Y-81.275
X205.904Y-109.657
X216.717Y-83.448
T2
X83.81Y-76.21
X83.81Y-78.75
X83.81Y-81.29
X83.81Y-83.83
X83.81Y-86.37
X83.81Y-88.91
X83.81Y-91.45
X83.81Y-93.99
X83.81Y-96.53
X86.35Y-56.52
X86.35Y-59.06
X86.35Y-61.6
X86.35Y-64.14
X86.35Y-76.21
X86.35Y-78.75
X86.35Y-81.29
X86.35Y-83.83
X86.35Y-86.37
X86.35Y-88.91
X86.35Y-91.45
X86.35Y-93.99
X86.35Y-96.53
X95.089Y-112.223
X95.089Y-116.723
X99.761Y-44.267
X99.761Y-51.43
X101.589Y-112.223
X101.589Y-116.723
X102.301Y-44.267
X102.301Y-51.43
X104.841Y-44.267
X104.841Y-51.43
X107.381Y-44.267
X107.381Y-51.43
X116.98Y-115.0
X119.502Y-44.958
X119.502Y-47.498
X119.52Y-115.0
X122.042Y-44.958
X122.042Y-47.498
X122.06Y-115.0
X124.582Y-44.958
X124.582Y-47.498
X124.6Y-115.0
X127.122Y-44.958
X127.122Y-47.498
X127.14Y-115.0
X129.662Y-44.958
X129.662Y-47.498
X129.68Y-115.0
X132.22Y-115.0
X134.76Y-115.0
X137.3Y-115.0
X139.84Y-115.0
X142.38Y-115.0
X142.499Y-44.267
X142.499Y-51.43
X144.92Y-115.0
X145.039Y-44.267
X145.039Y-51.43
X147.46Y-115.0
X147.579Y-44.267
X147.579Y-51.43
X150.0Y-115.0
X157.485Y-44.267
X158.13Y-64.227
X158.13Y-66.767
X158.13Y-69.307
X158.13Y-71.847
X158.13Y-74.387
X160.025Y-44.267
X162.565Y-44.267
X173.528Y-53.488
X174.742Y-115.0
X176.028Y-53.488
X177.282Y-115.0
X178.028Y-53.488
X179.822Y-115.0
X180.528Y-53.488
X184.419Y-61.356
X184.419Y-63.896
X193.502Y-44.267
X193.523Y-115.0
X196.042Y-44.267
X196.063Y-115.0
X198.163Y-92.629
X198.582Y-44.267
X198.603Y-115.0
X202.551Y-61.961
X202.551Y-65.461
X208.163Y-92.629
X211.826Y-95.118
X211.826Y-105.329
X214.367Y-63.79
X214.367Y-66.33
X214.367Y-68.87
X214.367Y-71.41
X215.326Y-95.118
X215.326Y-105.329
T3
X170.458Y-50.778
X183.598Y-50.778
T4
X85.0Y-45.0
X85.0Y-115.0
X215.0Y-45.0
X215.0Y-115.0
M30
