%TF.GenerationSoftware,KiCad,Pcbnew,9.0.0*%
%TF.CreationDate,2025-04-02T15:37:18+08:00*%
%TF.ProjectId,EggClassifier,45676743-6c61-4737-9369-666965722e6b,rev?*%
%TF.SameCoordinates,Original*%
%TF.FileFunction,Soldermask,Top*%
%TF.FilePolarity,Negative*%
%FSLAX46Y46*%
G04 Gerber Fmt 4.6, Leading zero omitted, Abs format (unit mm)*
G04 Created by KiCad (PCBNEW 9.0.0) date 2025-04-02 15:37:18*
%MOMM*%
%LPD*%
G01*
G04 APERTURE LIST*
G04 Aperture macros list*
%AMRoundRect*
0 Rectangle with rounded corners*
0 $1 Rounding radius*
0 $2 $3 $4 $5 $6 $7 $8 $9 X,Y pos of 4 corners*
0 Add a 4 corners polygon primitive as box body*
4,1,4,$2,$3,$4,$5,$6,$7,$8,$9,$2,$3,0*
0 Add four circle primitives for the rounded corners*
1,1,$1+$1,$2,$3*
1,1,$1+$1,$4,$5*
1,1,$1+$1,$6,$7*
1,1,$1+$1,$8,$9*
0 Add four rect primitives between the rounded corners*
20,1,$1+$1,$2,$3,$4,$5,0*
20,1,$1+$1,$4,$5,$6,$7,0*
20,1,$1+$1,$6,$7,$8,$9,0*
20,1,$1+$1,$8,$9,$2,$3,0*%
G04 Aperture macros list end*
%ADD10RoundRect,0.250000X0.450000X-0.350000X0.450000X0.350000X-0.450000X0.350000X-0.450000X-0.350000X0*%
%ADD11RoundRect,0.250000X0.350000X0.450000X-0.350000X0.450000X-0.350000X-0.450000X0.350000X-0.450000X0*%
%ADD12R,1.600000X1.600000*%
%ADD13C,1.600000*%
%ADD14R,1.700000X1.700000*%
%ADD15O,1.700000X1.700000*%
%ADD16C,5.200000*%
%ADD17RoundRect,0.250000X-1.000000X-0.650000X1.000000X-0.650000X1.000000X0.650000X-1.000000X0.650000X0*%
%ADD18RoundRect,0.250000X0.337500X0.475000X-0.337500X0.475000X-0.337500X-0.475000X0.337500X-0.475000X0*%
%ADD19RoundRect,0.250000X-0.750000X-0.500000X0.750000X-0.500000X0.750000X0.500000X-0.750000X0.500000X0*%
%ADD20RoundRect,0.250000X-0.750000X-1.650000X0.750000X-1.650000X0.750000X1.650000X-0.750000X1.650000X0*%
%ADD21RoundRect,0.250000X-3.500000X1.260000X-3.500000X-1.260000X3.500000X-1.260000X3.500000X1.260000X0*%
%ADD22RoundRect,0.250000X0.475000X-0.337500X0.475000X0.337500X-0.475000X0.337500X-0.475000X-0.337500X0*%
%ADD23RoundRect,0.250000X1.000000X0.650000X-1.000000X0.650000X-1.000000X-0.650000X1.000000X-0.650000X0*%
%ADD24RoundRect,0.250000X0.650000X-1.000000X0.650000X1.000000X-0.650000X1.000000X-0.650000X-1.000000X0*%
%ADD25RoundRect,0.250000X-0.450000X0.350000X-0.450000X-0.350000X0.450000X-0.350000X0.450000X0.350000X0*%
%ADD26RoundRect,0.250000X0.325000X0.450000X-0.325000X0.450000X-0.325000X-0.450000X0.325000X-0.450000X0*%
%ADD27RoundRect,0.250000X-0.475000X0.337500X-0.475000X-0.337500X0.475000X-0.337500X0.475000X0.337500X0*%
%ADD28RoundRect,0.102000X-1.395000X0.445000X-1.395000X-0.445000X1.395000X-0.445000X1.395000X0.445000X0*%
%ADD29RoundRect,0.102000X-3.420000X5.290000X-3.420000X-5.290000X3.420000X-5.290000X3.420000X5.290000X0*%
%ADD30RoundRect,0.237500X0.300000X0.237500X-0.300000X0.237500X-0.300000X-0.237500X0.300000X-0.237500X0*%
%ADD31RoundRect,0.250000X-0.337500X-0.475000X0.337500X-0.475000X0.337500X0.475000X-0.337500X0.475000X0*%
%ADD32RoundRect,0.375000X0.375000X-0.625000X0.375000X0.625000X-0.375000X0.625000X-0.375000X-0.625000X0*%
%ADD33RoundRect,0.500000X1.400000X-0.500000X1.400000X0.500000X-1.400000X0.500000X-1.400000X-0.500000X0*%
G04 APERTURE END LIST*
D10*
%TO.C,R2*%
X89306400Y-107730800D03*
X89306400Y-105730800D03*
%TD*%
D11*
%TO.C,R8*%
X132318000Y-132588000D03*
X130318000Y-132588000D03*
%TD*%
D12*
%TO.C,C4*%
X111506000Y-131036000D03*
D13*
X111506000Y-136036000D03*
%TD*%
D14*
%TO.C,J15*%
X142499000Y-50160000D03*
D15*
X145039000Y-50160000D03*
X147579000Y-50160000D03*
%TD*%
D14*
%TO.C,J3*%
X160020000Y-98080500D03*
D15*
X160020000Y-100620500D03*
X157480000Y-98080500D03*
X157480000Y-100620500D03*
X154940000Y-98080500D03*
X154940000Y-100620500D03*
X152400000Y-98080500D03*
X152400000Y-100620500D03*
X149860000Y-98080500D03*
X149860000Y-100620500D03*
X147320000Y-98080500D03*
X147320000Y-100620500D03*
X144780000Y-98080500D03*
X144780000Y-100620500D03*
X142240000Y-98080500D03*
X142240000Y-100620500D03*
X139700000Y-98080500D03*
X139700000Y-100620500D03*
X137160000Y-98080500D03*
X137160000Y-100620500D03*
X134620000Y-98080500D03*
X134620000Y-100620500D03*
X132080000Y-98080500D03*
X132080000Y-100620500D03*
X129540000Y-98080500D03*
X129540000Y-100620500D03*
X127000000Y-98080500D03*
X127000000Y-100620500D03*
X124460000Y-98080500D03*
X124460000Y-100620500D03*
X121920000Y-98080500D03*
X121920000Y-100620500D03*
X119380000Y-98080500D03*
X119380000Y-100620500D03*
X116840000Y-98080500D03*
X116840000Y-100620500D03*
X114300000Y-98080500D03*
X114300000Y-100620500D03*
X111760000Y-98080500D03*
X111760000Y-100620500D03*
X109220000Y-98080500D03*
X109220000Y-100620500D03*
X106680000Y-98080500D03*
X106680000Y-100620500D03*
X104140000Y-98080500D03*
X104140000Y-100620500D03*
X101600000Y-98080500D03*
X101600000Y-100620500D03*
%TD*%
D14*
%TO.C,J11*%
X84785200Y-125882400D03*
D15*
X84785200Y-123342400D03*
X84785200Y-120802400D03*
%TD*%
D16*
%TO.C,H2*%
X85000000Y-135000000D03*
%TD*%
D17*
%TO.C,D1*%
X122333000Y-114935000D03*
X126333000Y-114935000D03*
%TD*%
D16*
%TO.C,H4*%
X175000000Y-45000000D03*
%TD*%
D18*
%TO.C,C5*%
X115083500Y-126746000D03*
X113008500Y-126746000D03*
%TD*%
D19*
%TO.C,Q1*%
X89864800Y-113117600D03*
X89864800Y-115417600D03*
D20*
X96164800Y-115417600D03*
D19*
X89864800Y-117717600D03*
%TD*%
D21*
%TO.C,L1*%
X124206000Y-126238000D03*
X124206000Y-119578000D03*
%TD*%
D14*
%TO.C,J10*%
X99735800Y-45054600D03*
D15*
X102275800Y-45054600D03*
X104815800Y-45054600D03*
X107355800Y-45054600D03*
%TD*%
D22*
%TO.C,C9*%
X91567000Y-107844500D03*
X91567000Y-105769500D03*
%TD*%
D19*
%TO.C,Q3*%
X160172000Y-118350000D03*
X160172000Y-120650000D03*
D20*
X166472000Y-120650000D03*
D19*
X160172000Y-122950000D03*
%TD*%
D14*
%TO.C,J17*%
X174752000Y-66040000D03*
D15*
X174752000Y-68580000D03*
X174752000Y-71120000D03*
X174752000Y-73660000D03*
X174752000Y-76200000D03*
X174752000Y-78740000D03*
X174752000Y-81280000D03*
X174752000Y-83820000D03*
X174752000Y-86360000D03*
X174752000Y-88900000D03*
X174752000Y-91440000D03*
X174752000Y-93980000D03*
X174752000Y-96520000D03*
X174752000Y-99060000D03*
X174752000Y-101600000D03*
%TD*%
D14*
%TO.C,J9*%
X157485000Y-45080000D03*
D15*
X160025000Y-45080000D03*
X162565000Y-45080000D03*
%TD*%
D12*
%TO.C,C3*%
X121666000Y-131036000D03*
D13*
X121666000Y-136036000D03*
%TD*%
D10*
%TO.C,R6*%
X88646000Y-124139200D03*
X88646000Y-122139200D03*
%TD*%
D23*
%TO.C,D2*%
X161502000Y-57018000D03*
X157502000Y-57018000D03*
%TD*%
D19*
%TO.C,Q2*%
X95554400Y-123125200D03*
X95554400Y-125425200D03*
D20*
X101854400Y-125425200D03*
D19*
X95554400Y-127725200D03*
%TD*%
D14*
%TO.C,J4*%
X157480000Y-70140500D03*
D15*
X157480000Y-72680500D03*
X154940000Y-70140500D03*
X154940000Y-72680500D03*
X152400000Y-70140500D03*
X152400000Y-72680500D03*
X149860000Y-70140500D03*
X149860000Y-72680500D03*
X147320000Y-70140500D03*
X147320000Y-72680500D03*
X144780000Y-70140500D03*
X144780000Y-72680500D03*
X142240000Y-70140500D03*
X142240000Y-72680500D03*
X139700000Y-70140500D03*
X139700000Y-72680500D03*
X137160000Y-70140500D03*
X137160000Y-72680500D03*
X134620000Y-70140500D03*
X134620000Y-72680500D03*
X132080000Y-70140500D03*
X132080000Y-72680500D03*
X129540000Y-70140500D03*
X129540000Y-72680500D03*
X127000000Y-70140500D03*
X127000000Y-72680500D03*
X124460000Y-70140500D03*
X124460000Y-72680500D03*
X121920000Y-70140500D03*
X121920000Y-72680500D03*
X119380000Y-70140500D03*
X119380000Y-72680500D03*
X116840000Y-70140500D03*
X116840000Y-72680500D03*
X114300000Y-70140500D03*
X114300000Y-72680500D03*
X111760000Y-70140500D03*
X111760000Y-72680500D03*
X109220000Y-70140500D03*
X109220000Y-72680500D03*
X106680000Y-70140500D03*
X106680000Y-72680500D03*
X104140000Y-70140500D03*
X104140000Y-72680500D03*
%TD*%
D10*
%TO.C,R11*%
X170307000Y-75803000D03*
X170307000Y-73803000D03*
%TD*%
D16*
%TO.C,H1*%
X85000000Y-45000000D03*
%TD*%
%TO.C,H3*%
X175000000Y-135000000D03*
%TD*%
D14*
%TO.C,J1*%
X160020000Y-62520500D03*
D15*
X160020000Y-65060500D03*
X157480000Y-62520500D03*
X157480000Y-65060500D03*
X154940000Y-62520500D03*
X154940000Y-65060500D03*
X152400000Y-62520500D03*
X152400000Y-65060500D03*
X149860000Y-62520500D03*
X149860000Y-65060500D03*
X147320000Y-62520500D03*
X147320000Y-65060500D03*
X144780000Y-62520500D03*
X144780000Y-65060500D03*
X142240000Y-62520500D03*
X142240000Y-65060500D03*
X139700000Y-62520500D03*
X139700000Y-65060500D03*
X137160000Y-62520500D03*
X137160000Y-65060500D03*
X134620000Y-62520500D03*
X134620000Y-65060500D03*
X132080000Y-62520500D03*
X132080000Y-65060500D03*
X129540000Y-62520500D03*
X129540000Y-65060500D03*
X127000000Y-62520500D03*
X127000000Y-65060500D03*
X124460000Y-62520500D03*
X124460000Y-65060500D03*
X121920000Y-62520500D03*
X121920000Y-65060500D03*
X119380000Y-62520500D03*
X119380000Y-65060500D03*
X116840000Y-62520500D03*
X116840000Y-65060500D03*
X114300000Y-62520500D03*
X114300000Y-65060500D03*
X111760000Y-62520500D03*
X111760000Y-65060500D03*
X109220000Y-62520500D03*
X109220000Y-65060500D03*
X106680000Y-62520500D03*
X106680000Y-65060500D03*
X104140000Y-62520500D03*
X104140000Y-65060500D03*
X101600000Y-62520500D03*
X101600000Y-65060500D03*
%TD*%
D11*
%TO.C,R10*%
X93700000Y-64130000D03*
X91700000Y-64130000D03*
%TD*%
D24*
%TO.C,D4*%
X170434000Y-122904000D03*
X170434000Y-118904000D03*
%TD*%
D11*
%TO.C,R9*%
X93716000Y-59304000D03*
X91716000Y-59304000D03*
%TD*%
D14*
%TO.C,J14*%
X175006000Y-123429000D03*
D15*
X175006000Y-120889000D03*
X175006000Y-118349000D03*
%TD*%
D12*
%TO.C,C1*%
X150622000Y-122400000D03*
D13*
X155622000Y-122400000D03*
%TD*%
D14*
%TO.C,J12*%
X99745800Y-50134600D03*
D15*
X102285800Y-50134600D03*
X104825800Y-50134600D03*
X107365800Y-50134600D03*
%TD*%
D14*
%TO.C,J16*%
X86350000Y-56520000D03*
D15*
X86350000Y-59060000D03*
X86350000Y-61600000D03*
X86350000Y-64140000D03*
%TD*%
D23*
%TO.C,D3*%
X164814000Y-128016000D03*
X160814000Y-128016000D03*
%TD*%
D25*
%TO.C,R5*%
X90982800Y-122139200D03*
X90982800Y-124139200D03*
%TD*%
D14*
%TO.C,J2*%
X157480000Y-105700500D03*
D15*
X157480000Y-108240500D03*
X154940000Y-105700500D03*
X154940000Y-108240500D03*
X152400000Y-105700500D03*
X152400000Y-108240500D03*
X149860000Y-105700500D03*
X149860000Y-108240500D03*
X147320000Y-105700500D03*
X147320000Y-108240500D03*
X144780000Y-105700500D03*
X144780000Y-108240500D03*
X142240000Y-105700500D03*
X142240000Y-108240500D03*
X139700000Y-105700500D03*
X139700000Y-108240500D03*
X137160000Y-105700500D03*
X137160000Y-108240500D03*
X134620000Y-105700500D03*
X134620000Y-108240500D03*
X132080000Y-105700500D03*
X132080000Y-108240500D03*
X129540000Y-105700500D03*
X129540000Y-108240500D03*
X127000000Y-105700500D03*
X127000000Y-108240500D03*
X124460000Y-105700500D03*
X124460000Y-108240500D03*
X121920000Y-105700500D03*
X121920000Y-108240500D03*
X119380000Y-105700500D03*
X119380000Y-108240500D03*
X116840000Y-105700500D03*
X116840000Y-108240500D03*
X114300000Y-105700500D03*
X114300000Y-108240500D03*
X111760000Y-105700500D03*
X111760000Y-108240500D03*
X109220000Y-105700500D03*
X109220000Y-108240500D03*
X106680000Y-105700500D03*
X106680000Y-108240500D03*
X104140000Y-105700500D03*
X104140000Y-108240500D03*
%TD*%
D26*
%TO.C,D5*%
X132343000Y-136652000D03*
X130293000Y-136652000D03*
%TD*%
D14*
%TO.C,J13*%
X142499000Y-45080000D03*
D15*
X145039000Y-45080000D03*
X147579000Y-45080000D03*
%TD*%
D10*
%TO.C,R4*%
X107940000Y-55351000D03*
X107940000Y-53351000D03*
%TD*%
%TO.C,R3*%
X104511000Y-55401800D03*
X104511000Y-53401800D03*
%TD*%
D18*
%TO.C,C7*%
X164867500Y-134112000D03*
X162792500Y-134112000D03*
%TD*%
D27*
%TO.C,C10*%
X170307000Y-66018500D03*
X170307000Y-68093500D03*
%TD*%
D18*
%TO.C,C6*%
X110511500Y-126746000D03*
X108436500Y-126746000D03*
%TD*%
D14*
%TO.C,J7*%
X119502000Y-47498000D03*
D15*
X119502000Y-44958000D03*
X122042000Y-47498000D03*
X122042000Y-44958000D03*
X124582000Y-47498000D03*
X124582000Y-44958000D03*
X127122000Y-47498000D03*
X127122000Y-44958000D03*
X129662000Y-47498000D03*
X129662000Y-44958000D03*
%TD*%
D11*
%TO.C,R7*%
X162026000Y-114168000D03*
X160026000Y-114168000D03*
%TD*%
D14*
%TO.C,J5*%
X145425000Y-134112000D03*
D15*
X147965000Y-134112000D03*
X150505000Y-134112000D03*
X153045000Y-134112000D03*
%TD*%
D14*
%TO.C,J8*%
X84785200Y-111658400D03*
D15*
X84785200Y-109118400D03*
X84785200Y-106578400D03*
%TD*%
D25*
%TO.C,R1*%
X93853000Y-105807000D03*
X93853000Y-107807000D03*
%TD*%
D14*
%TO.C,J6*%
X83810000Y-76210000D03*
D15*
X86350000Y-76210000D03*
X83810000Y-78750000D03*
X86350000Y-78750000D03*
X83810000Y-81290000D03*
X86350000Y-81290000D03*
X83810000Y-83830000D03*
X86350000Y-83830000D03*
X83810000Y-86370000D03*
X86350000Y-86370000D03*
X83810000Y-88910000D03*
X86350000Y-88910000D03*
X83810000Y-91450000D03*
X86350000Y-91450000D03*
X83810000Y-93990000D03*
X86350000Y-93990000D03*
X83810000Y-96530000D03*
X86350000Y-96530000D03*
%TD*%
D28*
%TO.C,U1*%
X133256000Y-118590000D03*
X133256000Y-119860000D03*
X133256000Y-121130000D03*
X133256000Y-122400000D03*
X133256000Y-123670000D03*
X133256000Y-124940000D03*
X133256000Y-126210000D03*
D29*
X143606000Y-122400000D03*
%TD*%
D30*
%TO.C,C2*%
X134212500Y-114780000D03*
X132487500Y-114780000D03*
%TD*%
D31*
%TO.C,C8*%
X88624500Y-127635000D03*
X90699500Y-127635000D03*
%TD*%
%TO.C,C11*%
X85195500Y-70480000D03*
X87270500Y-70480000D03*
%TD*%
D32*
%TO.C,U2*%
X109714000Y-122276000D03*
X112014000Y-122276000D03*
D33*
X112014000Y-115976000D03*
D32*
X114314000Y-122276000D03*
%TD*%
M02*
