M48
; DRILL file {KiCad 9.0.1} date 2025-04-23T10:10:30+0800
; FORMAT={-:-/ absolute / metric / decimal}
; #@! TF.CreationDate,2025-04-23T10:10:30+08:00
; #@! TF.GenerationSoftware,Kicad,Pcbnew,9.0.1
; #@! TF.FileFunction,MixedPlating,1,2
FMAT,2
METRIC
; #@! TA.AperFunction,Plated,PTH,ViaDrill
T1C0.400
; #@! TA.AperFunction,Plated,PTH,ComponentDrill
T2C1.000
; #@! TA.AperFunction,Plated,PTH,ComponentDrill
T3C3.000
%
G90
G05
T1
X83.078Y-111.658
X84.182Y-70.316
X88.236Y-117.723
X89.373Y-98.776
X91.074Y-120.01
X91.163Y-97.62
X91.43Y-104.135
X92.09Y-87.092
X92.12Y-79.602
X93.008Y-127.044
X93.056Y-85.194
X93.106Y-80.327
X93.513Y-125.425
X94.173Y-86.076
X94.249Y-80.97
X94.884Y-103.652
X94.935Y-96.642
X95.138Y-94.508
X95.977Y-81.695
X96.154Y-113.05
X96.916Y-94.661
X96.967Y-86.888
X99.964Y-95.88
X99.964Y-99.436
X100.371Y-76.474
X100.371Y-83.129
X100.371Y-88.362
X101.031Y-92.121
X101.946Y-99.588
X103.851Y-103.297
X106.314Y-99.588
X106.391Y-86.406
X106.721Y-74.595
X107.178Y-125.649
X107.737Y-120.874
X108.092Y-65.908
X108.143Y-107.208
X108.245Y-91.41
X108.346Y-77.451
X110.242Y-57.018
X110.912Y-88.666
X111.699Y-97.963
X111.75Y-77.338
X111.75Y-83.256
X112.036Y-87.854
X112.41Y-64.359
X112.868Y-62.733
X112.868Y-86.979
X112.969Y-96.032
X113.477Y-87.904
X114.773Y-87.903
X114.849Y-83.485
X116.474Y-104.11
X116.525Y-78.76
X117.338Y-89.733
X117.541Y-85.579
X117.948Y-74.036
X118.049Y-82.316
X118.74Y-85.579
X119.167Y-89.733
X119.573Y-78.354
X119.878Y-95.118
X120.64Y-75.814
X121.097Y-90.088
X121.199Y-93.543
X121.3Y-74.95
X121.453Y-96.642
X121.504Y-91.664
X124.145Y-94.407
X124.552Y-70.277
X125.006Y-90.444
X125.263Y-78.71
X125.644Y-87.854
X126.279Y-69.464
X126.584Y-84.044
X127.122Y-57.018
X127.346Y-82.113
X127.676Y-94.407
X128.209Y-78.506
X128.438Y-85.771
X128.489Y-95.931
X128.768Y-69.515
X128.906Y-73.032
X129.022Y-114.219
X129.225Y-84.094
X129.53Y-90.038
X129.936Y-70.886
X130.063Y-95.016
X130.089Y-78.557
X130.089Y-96.032
X130.292Y-82.926
X130.495Y-98.166
X130.546Y-90.292
X130.902Y-107.132
X130.931Y-122.254
X131.706Y-74.849
X131.867Y-79.548
X132.375Y-89.581
X132.476Y-81.834
X133.387Y-136.462
X134.0Y-88.666
X134.559Y-83.891
X135.626Y-114.803
X135.626Y-121.153
X135.982Y-79.878
X136.464Y-82.824
X136.947Y-93.95
X137.048Y-84.602
X137.912Y-74.9
X140.3Y-98.979
X140.554Y-78.76
X140.554Y-91.968
X141.722Y-92.07
X141.925Y-88.311
X143.691Y-83.333
X143.754Y-102.027
X143.779Y-87.981
X143.856Y-65.502
X144.237Y-81.021
X144.491Y-82.864
X145.938Y-77.694
X146.65Y-87.701
X147.158Y-100.249
X147.869Y-88.311
X147.869Y-92.832
X148.148Y-118.903
X148.428Y-79.472
X148.936Y-105.359
X149.266Y-68.956
X149.444Y-97.963
X149.799Y-70.937
X150.307Y-76.932
X150.307Y-79.624
X150.866Y-74.392
X151.171Y-70.785
X151.882Y-76.932
X151.882Y-79.522
X152.238Y-62.708
X153.457Y-81.758
X156.098Y-107.894
X156.124Y-86.634
X156.124Y-102.809
X156.129Y-104.089
X156.708Y-84.617
X157.724Y-105.354
X158.232Y-83.217
X159.4Y-81.758
X159.629Y-83.205
X160.721Y-85.415
X161.229Y-104.922
X161.229Y-134.132
X161.331Y-102.89
X161.737Y-76.982
X161.737Y-81.808
X161.788Y-88.26
X161.788Y-92.832
X162.245Y-110.688
X164.328Y-63.266
X164.328Y-65.4
X164.328Y-76.779
X164.328Y-82.012
X164.328Y-88.082
X164.328Y-93.162
X166.563Y-66.162
X166.614Y-91.327
X167.782Y-88.158
X168.036Y-67.788
X169.154Y-75.306
X169.154Y-88.87
X170.221Y-70.226
X170.221Y-89.522
X171.44Y-60.08
X171.44Y-90.495
X172.1Y-92.07
T2
X83.81Y-76.21
X83.81Y-78.75
X83.81Y-81.29
X83.81Y-83.83
X83.81Y-86.37
X83.81Y-88.91
X83.81Y-91.45
X83.81Y-93.99
X83.81Y-96.53
X84.785Y-106.578
X84.785Y-109.118
X84.785Y-111.658
X84.785Y-120.802
X84.785Y-123.342
X84.785Y-125.882
X86.35Y-56.52
X86.35Y-59.06
X86.35Y-61.6
X86.35Y-64.14
X86.35Y-76.21
X86.35Y-78.75
X86.35Y-81.29
X86.35Y-83.83
X86.35Y-86.37
X86.35Y-88.91
X86.35Y-91.45
X86.35Y-93.99
X86.35Y-96.53
X95.597Y-132.67
X95.597Y-137.17
X99.761Y-44.267
X99.761Y-51.43
X102.097Y-132.67
X102.097Y-137.17
X102.301Y-44.267
X102.301Y-51.43
X104.841Y-44.267
X104.841Y-51.43
X107.381Y-44.267
X107.381Y-51.43
X111.506Y-131.036
X111.506Y-134.536
X119.502Y-44.958
X119.502Y-47.498
X121.666Y-131.036
X121.666Y-134.536
X122.042Y-44.958
X122.042Y-47.498
X124.206Y-120.908
X124.206Y-124.908
X124.582Y-44.958
X124.582Y-47.498
X127.122Y-44.958
X127.122Y-47.498
X129.662Y-44.958
X129.662Y-47.498
X142.499Y-44.267
X142.499Y-51.43
X145.039Y-44.267
X145.039Y-51.43
X145.425Y-134.112
X147.579Y-44.267
X147.579Y-51.43
X147.965Y-134.112
X150.505Y-134.112
X151.374Y-122.296
X153.045Y-134.112
X154.874Y-122.296
X157.485Y-45.08
X158.13Y-64.227
X158.13Y-66.767
X158.13Y-69.307
X158.13Y-71.847
X158.13Y-74.387
X160.025Y-45.08
X162.565Y-45.08
X175.0Y-55.0
X175.0Y-57.54
X175.0Y-60.08
X175.0Y-62.62
X175.0Y-65.16
X175.0Y-67.7
X175.0Y-70.24
X175.0Y-72.78
X175.0Y-75.32
X175.0Y-77.86
X175.0Y-80.4
X175.0Y-82.94
X175.0Y-85.48
X175.0Y-88.02
X175.0Y-100.35
X175.0Y-102.89
X175.0Y-105.43
X175.0Y-107.97
X175.006Y-118.349
X175.006Y-120.889
X175.006Y-123.429
T3
X85.0Y-45.0
X85.0Y-135.0
X175.0Y-45.0
X175.0Y-135.0
M30
