M48
; DRILL file {KiCad 9.0.1} date 2025-04-25T13:54:40+0800
; FORMAT={-:-/ absolute / metric / decimal}
; #@! TF.CreationDate,2025-04-25T13:54:40+08:00
; #@! TF.GenerationSoftware,Kicad,Pcbnew,9.0.1
; #@! TF.FileFunction,MixedPlating,1,2
FMAT,2
METRIC
; #@! TA.AperFunction,Plated,PTH,ViaDrill
T1C0.400
; #@! TA.AperFunction,Plated,PTH,ComponentDrill
T2C1.000
; #@! TA.AperFunction,Plated,PTH,ComponentDrill
T3C2.300
; #@! TA.AperFunction,Plated,PTH,ComponentDrill
T4C3.000
%
G90
G05
T1
X84.182Y-70.316
X91.105Y-97.638
X92.09Y-87.092
X92.12Y-79.602
X92.192Y-97.607
X93.023Y-96.885
X93.056Y-85.194
X93.106Y-80.327
X94.173Y-86.076
X94.249Y-80.97
X95.138Y-94.508
X95.977Y-81.695
X96.916Y-94.508
X96.967Y-86.888
X100.015Y-87.904
X100.066Y-77.236
X100.066Y-98.42
X100.218Y-83.434
X102.301Y-106.294
X103.622Y-101.138
X106.721Y-74.595
X107.61Y-86.304
X108.092Y-65.908
X109.083Y-77.363
X109.083Y-83.51
X109.439Y-90.698
X110.556Y-82.697
X111.242Y-103.195
X111.293Y-91.46
X111.877Y-88.158
X113.401Y-85.263
X113.503Y-87.092
X114.112Y-109.063
X114.519Y-87.015
X114.773Y-107.742
X115.52Y-86.98
X115.56Y-106.802
X115.865Y-83.485
X116.474Y-104.11
X117.223Y-78.877
X117.541Y-85.579
X117.821Y-88.96
X117.948Y-76.892
X118.049Y-82.316
X118.735Y-90.368
X118.74Y-85.579
X120.335Y-91.968
X121.046Y-105.024
X121.123Y-88.997
X121.148Y-95.118
X121.453Y-96.642
X121.758Y-72.487
X121.834Y-76.703
X121.91Y-92.934
X122.57Y-94.407
X122.875Y-91.664
X124.552Y-70.277
X124.602Y-101.671
X124.653Y-98.064
X124.983Y-89.403
X125.212Y-90.343
X125.263Y-78.71
X125.466Y-64.384
X125.644Y-87.854
X126.012Y-62.974
X126.279Y-69.464
X126.584Y-84.044
X127.346Y-82.113
X127.346Y-99.334
X127.346Y-104.821
X127.676Y-94.407
X128.209Y-78.506
X128.489Y-95.931
X128.768Y-69.515
X128.938Y-72.493
X129.413Y-75.207
X129.417Y-73.353
X129.417Y-74.28
X129.53Y-90.038
X130.42Y-94.915
X130.546Y-90.292
X131.206Y-104.789
X131.308Y-72.055
X131.308Y-98.369
X131.765Y-90.343
X132.112Y-78.468
X132.476Y-81.834
X133.188Y-79.624
X133.67Y-82.926
X133.924Y-73.884
X135.982Y-79.878
X136.464Y-82.824
X136.481Y-90.851
X136.947Y-93.95
X137.048Y-84.602
X137.76Y-99.0
X137.912Y-74.9
X140.554Y-78.76
X141.481Y-87.993
X141.874Y-90.952
X141.976Y-91.918
X143.691Y-83.333
X143.754Y-102.027
X143.779Y-87.981
X143.856Y-65.502
X144.973Y-81.046
X144.973Y-83.282
X145.532Y-97.963
X145.837Y-79.573
X146.65Y-87.701
X147.158Y-100.655
X147.183Y-106.294
X147.488Y-62.682
X147.691Y-80.792
X147.691Y-83.053
X147.869Y-87.803
X147.869Y-92.832
X149.444Y-97.963
X149.875Y-62.606
X150.307Y-68.956
X150.866Y-74.392
X151.171Y-70.785
X152.238Y-62.708
X156.124Y-86.634
X156.124Y-102.809
X156.269Y-84.178
X156.937Y-104.567
X157.648Y-106.396
X159.248Y-106.116
X161.483Y-101.519
X161.483Y-103.449
X161.483Y-105.532
X161.483Y-107.564
X161.483Y-109.596
X161.61Y-80.945
X161.61Y-83.307
X161.686Y-85.618
X163.439Y-80.869
X163.439Y-83.434
X163.439Y-85.644
X163.541Y-92.451
X164.455Y-94.026
X165.09Y-100.807
X173.218Y-81.351
X174.005Y-64.816
X174.386Y-100.807
X175.123Y-82.164
X176.088Y-64.943
X177.384Y-76.424
X177.434Y-84.602
X178.755Y-75.458
X178.755Y-89.936
X179.619Y-86.482
X181.092Y-81.808
X181.143Y-88.565
X181.803Y-61.133
X192.471Y-104.872
X194.474Y-87.813
X195.058Y-81.209
X197.094Y-103.398
X197.246Y-106.396
X199.158Y-68.687
X199.482Y-52.7
X201.129Y-109.098
X201.408Y-81.209
X202.632Y-81.275
X205.904Y-109.657
X216.717Y-83.448
T2
X83.81Y-76.21
X83.81Y-78.75
X83.81Y-81.29
X83.81Y-83.83
X83.81Y-86.37
X83.81Y-88.91
X83.81Y-91.45
X83.81Y-93.99
X83.81Y-96.53
X86.35Y-56.52
X86.35Y-59.06
X86.35Y-61.6
X86.35Y-64.14
X86.35Y-76.21
X86.35Y-78.75
X86.35Y-81.29
X86.35Y-83.83
X86.35Y-86.37
X86.35Y-88.91
X86.35Y-91.45
X86.35Y-93.99
X86.35Y-96.53
X95.089Y-112.223
X95.089Y-116.723
X99.761Y-45.08
X101.589Y-112.223
X101.589Y-116.723
X102.301Y-45.08
X104.028Y-83.078
X104.028Y-85.618
X104.028Y-88.158
X104.028Y-90.698
X104.841Y-45.08
X107.381Y-45.08
X118.364Y-45.08
X120.904Y-45.08
X123.444Y-45.08
X123.734Y-113.604
X123.734Y-116.144
X125.984Y-45.08
X126.274Y-113.604
X126.274Y-116.144
X128.814Y-113.604
X128.814Y-116.144
X131.354Y-113.604
X131.354Y-116.144
X133.894Y-113.604
X133.894Y-116.144
X140.467Y-45.08
X140.467Y-54.275
X143.007Y-45.08
X143.007Y-54.275
X145.547Y-45.08
X145.547Y-54.275
X157.485Y-45.08
X158.13Y-64.227
X158.13Y-66.767
X158.13Y-69.307
X158.13Y-71.847
X158.13Y-74.387
X159.944Y-115.0
X160.025Y-45.08
X162.484Y-115.0
X162.565Y-45.08
X165.024Y-115.0
X173.528Y-53.488
X176.028Y-53.488
X178.028Y-53.488
X180.528Y-53.488
X180.686Y-115.0
X183.226Y-115.0
X185.308Y-70.378
X185.308Y-72.918
X185.308Y-75.458
X185.308Y-77.998
X185.308Y-80.538
X185.308Y-83.078
X185.308Y-85.618
X185.308Y-88.158
X185.308Y-90.698
X185.308Y-93.238
X185.308Y-95.778
X185.308Y-98.318
X185.308Y-100.858
X185.308Y-103.398
X185.766Y-115.0
X187.061Y-58.968
X187.061Y-61.508
X193.502Y-44.267
X196.042Y-44.267
X198.163Y-92.629
X198.582Y-44.267
X202.551Y-61.961
X202.551Y-65.461
X208.163Y-92.629
X211.826Y-95.118
X211.826Y-105.329
X214.367Y-63.79
X214.367Y-66.33
X214.367Y-68.87
X214.367Y-71.41
X215.326Y-95.118
X215.326Y-105.329
T3
X170.458Y-50.778
X183.598Y-50.778
T4
X85.0Y-45.0
X85.0Y-115.0
X215.0Y-45.0
X215.0Y-115.0
M30
