%TF.GenerationSoftware,KiCad,Pcbnew,9.0.1*%
%TF.CreationDate,2025-04-24T17:47:55+08:00*%
%TF.ProjectId,EggClassifier,45676743-6c61-4737-9369-666965722e6b,rev?*%
%TF.SameCoordinates,Original*%
%TF.FileFunction,Soldermask,Bot*%
%TF.FilePolarity,Negative*%
%FSLAX46Y46*%
G04 Gerber Fmt 4.6, Leading zero omitted, Abs format (unit mm)*
G04 Created by KiCad (PCBNEW 9.0.1) date 2025-04-24 17:47:55*
%MOMM*%
%LPD*%
G01*
G04 APERTURE LIST*
G04 Aperture macros list*
%AMRoundRect*
0 Rectangle with rounded corners*
0 $1 Rounding radius*
0 $2 $3 $4 $5 $6 $7 $8 $9 X,Y pos of 4 corners*
0 Add a 4 corners polygon primitive as box body*
4,1,4,$2,$3,$4,$5,$6,$7,$8,$9,$2,$3,0*
0 Add four circle primitives for the rounded corners*
1,1,$1+$1,$2,$3*
1,1,$1+$1,$4,$5*
1,1,$1+$1,$6,$7*
1,1,$1+$1,$8,$9*
0 Add four rect primitives between the rounded corners*
20,1,$1+$1,$2,$3,$4,$5,0*
20,1,$1+$1,$4,$5,$6,$7,0*
20,1,$1+$1,$6,$7,$8,$9,0*
20,1,$1+$1,$8,$9,$2,$3,0*%
G04 Aperture macros list end*
%ADD10R,1.600000X1.600000*%
%ADD11C,1.600000*%
%ADD12R,1.700000X1.700000*%
%ADD13O,1.700000X1.700000*%
%ADD14C,5.200000*%
%ADD15C,2.000000*%
%ADD16R,1.600000X1.500000*%
%ADD17C,3.000000*%
%ADD18RoundRect,0.250000X0.750000X-0.750000X0.750000X0.750000X-0.750000X0.750000X-0.750000X-0.750000X0*%
G04 APERTURE END LIST*
D10*
%TO.C,C4*%
X211826000Y-105328800D03*
D11*
X215326000Y-105328800D03*
%TD*%
D12*
%TO.C,J15*%
X142499000Y-51430000D03*
D13*
X145039000Y-51430000D03*
X147579000Y-51430000D03*
%TD*%
D12*
%TO.C,J11*%
X179822000Y-115000000D03*
D13*
X177282000Y-115000000D03*
X174742000Y-115000000D03*
%TD*%
D14*
%TO.C,H2*%
X85000000Y-115000000D03*
%TD*%
%TO.C,H4*%
X215000000Y-45000000D03*
%TD*%
D11*
%TO.C,L1*%
X208162949Y-92628800D03*
X198162949Y-92628800D03*
%TD*%
D12*
%TO.C,J10*%
X99761200Y-44267200D03*
D13*
X102301200Y-44267200D03*
X104841200Y-44267200D03*
X107381200Y-44267200D03*
%TD*%
D12*
%TO.C,J1*%
X158130400Y-74386600D03*
D13*
X158130400Y-71846600D03*
X158130400Y-69306600D03*
X158130400Y-66766600D03*
X158130400Y-64226600D03*
%TD*%
D15*
%TO.C,SW1*%
X101588800Y-116722800D03*
X95088800Y-116722800D03*
X101588800Y-112222800D03*
X95088800Y-112222800D03*
%TD*%
D12*
%TO.C,J17*%
X150000000Y-115000000D03*
D13*
X147460000Y-115000000D03*
X144920000Y-115000000D03*
X142380000Y-115000000D03*
X139840000Y-115000000D03*
X137300000Y-115000000D03*
X134760000Y-115000000D03*
X132220000Y-115000000D03*
X129680000Y-115000000D03*
X127140000Y-115000000D03*
X124600000Y-115000000D03*
X122060000Y-115000000D03*
X119520000Y-115000000D03*
X116980000Y-115000000D03*
%TD*%
D12*
%TO.C,J9*%
X157485000Y-44267200D03*
D13*
X160025000Y-44267200D03*
X162565000Y-44267200D03*
%TD*%
D10*
%TO.C,C3*%
X211826000Y-95118000D03*
D11*
X215326000Y-95118000D03*
%TD*%
D14*
%TO.C,H1*%
X85000000Y-45000000D03*
%TD*%
%TO.C,H3*%
X215000000Y-115000000D03*
%TD*%
D12*
%TO.C,J14*%
X193502200Y-44267200D03*
D13*
X196042200Y-44267200D03*
X198582200Y-44267200D03*
%TD*%
D10*
%TO.C,C1*%
X202550949Y-65460800D03*
D11*
X202550949Y-61960800D03*
%TD*%
D12*
%TO.C,J12*%
X99761200Y-51430000D03*
D13*
X102301200Y-51430000D03*
X104841200Y-51430000D03*
X107381200Y-51430000D03*
%TD*%
D12*
%TO.C,J16*%
X86350000Y-56520000D03*
D13*
X86350000Y-59060000D03*
X86350000Y-61600000D03*
X86350000Y-64140000D03*
%TD*%
D12*
%TO.C,J13*%
X142499000Y-44267200D03*
D13*
X145039000Y-44267200D03*
X147579000Y-44267200D03*
%TD*%
D16*
%TO.C,J2*%
X180528000Y-53488000D03*
D11*
X178028000Y-53488000D03*
X176028000Y-53488000D03*
X173528000Y-53488000D03*
D17*
X183598000Y-50778000D03*
X170458000Y-50778000D03*
%TD*%
D12*
%TO.C,J7*%
X119502000Y-47498000D03*
D13*
X119502000Y-44958000D03*
X122042000Y-47498000D03*
X122042000Y-44958000D03*
X124582000Y-47498000D03*
X124582000Y-44958000D03*
X127122000Y-47498000D03*
X127122000Y-44958000D03*
X129662000Y-47498000D03*
X129662000Y-44958000D03*
%TD*%
D18*
%TO.C,J5*%
X214366949Y-71409800D03*
D15*
X214366949Y-68869800D03*
X214366949Y-66329800D03*
X214366949Y-63789800D03*
%TD*%
D12*
%TO.C,J8*%
X198603000Y-115000000D03*
D13*
X196063000Y-115000000D03*
X193523000Y-115000000D03*
%TD*%
%TO.C,J3*%
X184419000Y-63896000D03*
D12*
X184419000Y-61356000D03*
%TD*%
%TO.C,J6*%
X83810000Y-76210000D03*
D13*
X86350000Y-76210000D03*
X83810000Y-78750000D03*
X86350000Y-78750000D03*
X83810000Y-81290000D03*
X86350000Y-81290000D03*
X83810000Y-83830000D03*
X86350000Y-83830000D03*
X83810000Y-86370000D03*
X86350000Y-86370000D03*
X83810000Y-88910000D03*
X86350000Y-88910000D03*
X83810000Y-91450000D03*
X86350000Y-91450000D03*
X83810000Y-93990000D03*
X86350000Y-93990000D03*
X83810000Y-96530000D03*
X86350000Y-96530000D03*
%TD*%
M02*
