%TF.GenerationSoftware,KiCad,Pcbnew,9.0.1*%
%TF.CreationDate,2025-04-23T10:10:32+08:00*%
%TF.ProjectId,EggClassifier,45676743-6c61-4737-9369-666965722e6b,rev?*%
%TF.SameCoordinates,Original*%
%TF.FileFunction,Paste,Top*%
%TF.FilePolarity,Positive*%
%FSLAX46Y46*%
G04 Gerber Fmt 4.6, Leading zero omitted, Abs format (unit mm)*
G04 Created by KiCad (PCBNEW 9.0.1) date 2025-04-23 10:10:32*
%MOMM*%
%LPD*%
G01*
G04 APERTURE LIST*
G04 Aperture macros list*
%AMRoundRect*
0 Rectangle with rounded corners*
0 $1 Rounding radius*
0 $2 $3 $4 $5 $6 $7 $8 $9 X,Y pos of 4 corners*
0 Add a 4 corners polygon primitive as box body*
4,1,4,$2,$3,$4,$5,$6,$7,$8,$9,$2,$3,0*
0 Add four circle primitives for the rounded corners*
1,1,$1+$1,$2,$3*
1,1,$1+$1,$4,$5*
1,1,$1+$1,$6,$7*
1,1,$1+$1,$8,$9*
0 Add four rect primitives between the rounded corners*
20,1,$1+$1,$2,$3,$4,$5,0*
20,1,$1+$1,$4,$5,$6,$7,0*
20,1,$1+$1,$6,$7,$8,$9,0*
20,1,$1+$1,$8,$9,$2,$3,0*%
G04 Aperture macros list end*
%ADD10C,0.010000*%
%ADD11RoundRect,0.250000X0.450000X-0.350000X0.450000X0.350000X-0.450000X0.350000X-0.450000X-0.350000X0*%
%ADD12RoundRect,0.250000X0.350000X0.450000X-0.350000X0.450000X-0.350000X-0.450000X0.350000X-0.450000X0*%
%ADD13RoundRect,0.075000X-0.725000X-0.075000X0.725000X-0.075000X0.725000X0.075000X-0.725000X0.075000X0*%
%ADD14RoundRect,0.075000X-0.075000X-0.725000X0.075000X-0.725000X0.075000X0.725000X-0.075000X0.725000X0*%
%ADD15RoundRect,0.250000X0.325000X0.450000X-0.325000X0.450000X-0.325000X-0.450000X0.325000X-0.450000X0*%
%ADD16RoundRect,0.250000X0.337500X0.475000X-0.337500X0.475000X-0.337500X-0.475000X0.337500X-0.475000X0*%
%ADD17RoundRect,0.250000X-0.750000X-0.500000X0.750000X-0.500000X0.750000X0.500000X-0.750000X0.500000X0*%
%ADD18RoundRect,0.250000X-0.750000X-1.650000X0.750000X-1.650000X0.750000X1.650000X-0.750000X1.650000X0*%
%ADD19RoundRect,0.250000X-3.500000X1.260000X-3.500000X-1.260000X3.500000X-1.260000X3.500000X1.260000X0*%
%ADD20RoundRect,0.250000X-0.350000X-0.450000X0.350000X-0.450000X0.350000X0.450000X-0.350000X0.450000X0*%
%ADD21RoundRect,0.250000X0.650000X-1.500000X0.650000X1.500000X-0.650000X1.500000X-0.650000X-1.500000X0*%
%ADD22R,1.980000X3.000000*%
%ADD23RoundRect,0.250000X0.475000X-0.337500X0.475000X0.337500X-0.475000X0.337500X-0.475000X-0.337500X0*%
%ADD24RoundRect,0.250000X1.500000X0.650000X-1.500000X0.650000X-1.500000X-0.650000X1.500000X-0.650000X0*%
%ADD25RoundRect,0.250000X-0.475000X0.337500X-0.475000X-0.337500X0.475000X-0.337500X0.475000X0.337500X0*%
%ADD26RoundRect,0.250000X-1.500000X-0.900000X1.500000X-0.900000X1.500000X0.900000X-1.500000X0.900000X0*%
%ADD27RoundRect,0.250000X-0.337500X-0.475000X0.337500X-0.475000X0.337500X0.475000X-0.337500X0.475000X0*%
%ADD28RoundRect,0.250000X-0.450000X0.350000X-0.450000X-0.350000X0.450000X-0.350000X0.450000X0.350000X0*%
%ADD29O,2.250000X0.630000*%
%ADD30R,2.790000X0.890000*%
%ADD31RoundRect,0.375000X0.375000X-0.625000X0.375000X0.625000X-0.375000X0.625000X-0.375000X-0.625000X0*%
%ADD32RoundRect,0.500000X1.400000X-0.500000X1.400000X0.500000X-1.400000X0.500000X-1.400000X-0.500000X0*%
G04 APERTURE END LIST*
D10*
%TO.C,U1*%
X142851000Y-118630000D02*
X140941000Y-118630000D01*
X140941000Y-117370000D01*
X142851000Y-117370000D01*
X142851000Y-118630000D01*
G36*
X142851000Y-118630000D02*
G01*
X140941000Y-118630000D01*
X140941000Y-117370000D01*
X142851000Y-117370000D01*
X142851000Y-118630000D01*
G37*
X142851000Y-120390000D02*
X140941000Y-120390000D01*
X140941000Y-119130000D01*
X142851000Y-119130000D01*
X142851000Y-120390000D01*
G36*
X142851000Y-120390000D02*
G01*
X140941000Y-120390000D01*
X140941000Y-119130000D01*
X142851000Y-119130000D01*
X142851000Y-120390000D01*
G37*
X142851000Y-122150000D02*
X140941000Y-122150000D01*
X140941000Y-120890000D01*
X142851000Y-120890000D01*
X142851000Y-122150000D01*
G36*
X142851000Y-122150000D02*
G01*
X140941000Y-122150000D01*
X140941000Y-120890000D01*
X142851000Y-120890000D01*
X142851000Y-122150000D01*
G37*
X142851000Y-123910000D02*
X140941000Y-123910000D01*
X140941000Y-122650000D01*
X142851000Y-122650000D01*
X142851000Y-123910000D01*
G36*
X142851000Y-123910000D02*
G01*
X140941000Y-123910000D01*
X140941000Y-122650000D01*
X142851000Y-122650000D01*
X142851000Y-123910000D01*
G37*
X142851000Y-125670000D02*
X140941000Y-125670000D01*
X140941000Y-124410000D01*
X142851000Y-124410000D01*
X142851000Y-125670000D01*
G36*
X142851000Y-125670000D02*
G01*
X140941000Y-125670000D01*
X140941000Y-124410000D01*
X142851000Y-124410000D01*
X142851000Y-125670000D01*
G37*
X142851000Y-127430000D02*
X140941000Y-127430000D01*
X140941000Y-126170000D01*
X142851000Y-126170000D01*
X142851000Y-127430000D01*
G36*
X142851000Y-127430000D02*
G01*
X140941000Y-127430000D01*
X140941000Y-126170000D01*
X142851000Y-126170000D01*
X142851000Y-127430000D01*
G37*
X146271000Y-118630000D02*
X144361000Y-118630000D01*
X144361000Y-117370000D01*
X146271000Y-117370000D01*
X146271000Y-118630000D01*
G36*
X146271000Y-118630000D02*
G01*
X144361000Y-118630000D01*
X144361000Y-117370000D01*
X146271000Y-117370000D01*
X146271000Y-118630000D01*
G37*
X146271000Y-120390000D02*
X144361000Y-120390000D01*
X144361000Y-119130000D01*
X146271000Y-119130000D01*
X146271000Y-120390000D01*
G36*
X146271000Y-120390000D02*
G01*
X144361000Y-120390000D01*
X144361000Y-119130000D01*
X146271000Y-119130000D01*
X146271000Y-120390000D01*
G37*
X146271000Y-122150000D02*
X144361000Y-122150000D01*
X144361000Y-120890000D01*
X146271000Y-120890000D01*
X146271000Y-122150000D01*
G36*
X146271000Y-122150000D02*
G01*
X144361000Y-122150000D01*
X144361000Y-120890000D01*
X146271000Y-120890000D01*
X146271000Y-122150000D01*
G37*
X146271000Y-123910000D02*
X144361000Y-123910000D01*
X144361000Y-122650000D01*
X146271000Y-122650000D01*
X146271000Y-123910000D01*
G36*
X146271000Y-123910000D02*
G01*
X144361000Y-123910000D01*
X144361000Y-122650000D01*
X146271000Y-122650000D01*
X146271000Y-123910000D01*
G37*
X146271000Y-125670000D02*
X144361000Y-125670000D01*
X144361000Y-124410000D01*
X146271000Y-124410000D01*
X146271000Y-125670000D01*
G36*
X146271000Y-125670000D02*
G01*
X144361000Y-125670000D01*
X144361000Y-124410000D01*
X146271000Y-124410000D01*
X146271000Y-125670000D01*
G37*
X146271000Y-127430000D02*
X144361000Y-127430000D01*
X144361000Y-126170000D01*
X146271000Y-126170000D01*
X146271000Y-127430000D01*
G36*
X146271000Y-127430000D02*
G01*
X144361000Y-127430000D01*
X144361000Y-126170000D01*
X146271000Y-126170000D01*
X146271000Y-127430000D01*
G37*
%TD*%
D11*
%TO.C,R2*%
X89306400Y-107730800D03*
X89306400Y-105730800D03*
%TD*%
D12*
%TO.C,R8*%
X132318000Y-132588000D03*
X130318000Y-132588000D03*
%TD*%
D13*
%TO.C,U3*%
X123531400Y-78602400D03*
X123531400Y-79102400D03*
X123531400Y-79602400D03*
X123531400Y-80102400D03*
X123531400Y-80602400D03*
X123531400Y-81102400D03*
X123531400Y-81602400D03*
X123531400Y-82102400D03*
X123531400Y-82602400D03*
X123531400Y-83102400D03*
X123531400Y-83602400D03*
X123531400Y-84102400D03*
X123531400Y-84602400D03*
X123531400Y-85102400D03*
X123531400Y-85602400D03*
X123531400Y-86102400D03*
X123531400Y-86602400D03*
X123531400Y-87102400D03*
X123531400Y-87602400D03*
X123531400Y-88102400D03*
X123531400Y-88602400D03*
X123531400Y-89102400D03*
X123531400Y-89602400D03*
X123531400Y-90102400D03*
X123531400Y-90602400D03*
D14*
X125206400Y-92277400D03*
X125706400Y-92277400D03*
X126206400Y-92277400D03*
X126706400Y-92277400D03*
X127206400Y-92277400D03*
X127706400Y-92277400D03*
X128206400Y-92277400D03*
X128706400Y-92277400D03*
X129206400Y-92277400D03*
X129706400Y-92277400D03*
X130206400Y-92277400D03*
X130706400Y-92277400D03*
X131206400Y-92277400D03*
X131706400Y-92277400D03*
X132206400Y-92277400D03*
X132706400Y-92277400D03*
X133206400Y-92277400D03*
X133706400Y-92277400D03*
X134206400Y-92277400D03*
X134706400Y-92277400D03*
X135206400Y-92277400D03*
X135706400Y-92277400D03*
X136206400Y-92277400D03*
X136706400Y-92277400D03*
X137206400Y-92277400D03*
D13*
X138881400Y-90602400D03*
X138881400Y-90102400D03*
X138881400Y-89602400D03*
X138881400Y-89102400D03*
X138881400Y-88602400D03*
X138881400Y-88102400D03*
X138881400Y-87602400D03*
X138881400Y-87102400D03*
X138881400Y-86602400D03*
X138881400Y-86102400D03*
X138881400Y-85602400D03*
X138881400Y-85102400D03*
X138881400Y-84602400D03*
X138881400Y-84102400D03*
X138881400Y-83602400D03*
X138881400Y-83102400D03*
X138881400Y-82602400D03*
X138881400Y-82102400D03*
X138881400Y-81602400D03*
X138881400Y-81102400D03*
X138881400Y-80602400D03*
X138881400Y-80102400D03*
X138881400Y-79602400D03*
X138881400Y-79102400D03*
X138881400Y-78602400D03*
D14*
X137206400Y-76927400D03*
X136706400Y-76927400D03*
X136206400Y-76927400D03*
X135706400Y-76927400D03*
X135206400Y-76927400D03*
X134706400Y-76927400D03*
X134206400Y-76927400D03*
X133706400Y-76927400D03*
X133206400Y-76927400D03*
X132706400Y-76927400D03*
X132206400Y-76927400D03*
X131706400Y-76927400D03*
X131206400Y-76927400D03*
X130706400Y-76927400D03*
X130206400Y-76927400D03*
X129706400Y-76927400D03*
X129206400Y-76927400D03*
X128706400Y-76927400D03*
X128206400Y-76927400D03*
X127706400Y-76927400D03*
X127206400Y-76927400D03*
X126706400Y-76927400D03*
X126206400Y-76927400D03*
X125706400Y-76927400D03*
X125206400Y-76927400D03*
%TD*%
D15*
%TO.C,D6*%
X105104200Y-107259200D03*
X103054200Y-107259200D03*
%TD*%
D16*
%TO.C,C5*%
X115098900Y-125648800D03*
X113023900Y-125648800D03*
%TD*%
D17*
%TO.C,Q1*%
X89864800Y-113117600D03*
X89864800Y-115417600D03*
D18*
X96164800Y-115417600D03*
D17*
X89864800Y-117717600D03*
%TD*%
D12*
%TO.C,R14*%
X105079200Y-102179200D03*
X103079200Y-102179200D03*
%TD*%
D19*
%TO.C,L1*%
X124206000Y-126238000D03*
X124206000Y-119578000D03*
%TD*%
D20*
%TO.C,R12*%
X152304400Y-74386600D03*
X154304400Y-74386600D03*
%TD*%
D16*
%TO.C,C18*%
X119950300Y-83535600D03*
X117875300Y-83535600D03*
%TD*%
D20*
%TO.C,R15*%
X152304400Y-66766600D03*
X154304400Y-66766600D03*
%TD*%
D21*
%TO.C,D4*%
X170728800Y-123526000D03*
X170728800Y-118526000D03*
%TD*%
D22*
%TO.C,Y1*%
X103227200Y-74529400D03*
X108487200Y-74529400D03*
X108487200Y-69529400D03*
X103227200Y-69529400D03*
%TD*%
D23*
%TO.C,C9*%
X91567000Y-107844500D03*
X91567000Y-105769500D03*
%TD*%
D17*
%TO.C,Q3*%
X160172000Y-118350000D03*
X160172000Y-120650000D03*
D18*
X166472000Y-120650000D03*
D17*
X160172000Y-122950000D03*
%TD*%
D12*
%TO.C,R19*%
X105079200Y-104719200D03*
X103079200Y-104719200D03*
%TD*%
D11*
%TO.C,R6*%
X88646000Y-124139200D03*
X88646000Y-122139200D03*
%TD*%
D24*
%TO.C,D2*%
X169774400Y-95930800D03*
X164774400Y-95930800D03*
%TD*%
D17*
%TO.C,Q2*%
X95554400Y-123125200D03*
X95554400Y-125425200D03*
D18*
X101854400Y-125425200D03*
D17*
X95554400Y-127725200D03*
%TD*%
D25*
%TO.C,C14*%
X136489600Y-96925300D03*
X136489600Y-99000300D03*
%TD*%
D11*
%TO.C,R11*%
X170322400Y-64317200D03*
X170322400Y-62317200D03*
%TD*%
D20*
%TO.C,R20*%
X168560400Y-100350400D03*
X170560400Y-100350400D03*
%TD*%
D12*
%TO.C,R10*%
X93700000Y-64130000D03*
X91700000Y-64130000D03*
%TD*%
%TO.C,R9*%
X93700000Y-61590000D03*
X91700000Y-61590000D03*
%TD*%
D16*
%TO.C,C13*%
X105040500Y-99639200D03*
X102965500Y-99639200D03*
%TD*%
D26*
%TO.C,D1*%
X121038800Y-114168000D03*
X126438800Y-114168000D03*
%TD*%
D12*
%TO.C,R16*%
X154304400Y-64226600D03*
X152304400Y-64226600D03*
%TD*%
D24*
%TO.C,D3*%
X165314000Y-128016000D03*
X160314000Y-128016000D03*
%TD*%
D27*
%TO.C,C12*%
X104870500Y-65908000D03*
X106945500Y-65908000D03*
%TD*%
D28*
%TO.C,R5*%
X90982800Y-122139200D03*
X90982800Y-124139200D03*
%TD*%
D16*
%TO.C,C19*%
X124649300Y-96616600D03*
X122574300Y-96616600D03*
%TD*%
D20*
%TO.C,R18*%
X168560400Y-105430400D03*
X170560400Y-105430400D03*
%TD*%
D15*
%TO.C,D5*%
X132343000Y-136652000D03*
X130293000Y-136652000D03*
%TD*%
D28*
%TO.C,R13*%
X117947600Y-70724600D03*
X117947600Y-72724600D03*
%TD*%
D11*
%TO.C,R4*%
X107729333Y-56838856D03*
X107729333Y-54838856D03*
%TD*%
%TO.C,R3*%
X104300333Y-56838856D03*
X104300333Y-54838856D03*
%TD*%
D16*
%TO.C,C7*%
X164867500Y-134112000D03*
X162792500Y-134112000D03*
%TD*%
D25*
%TO.C,C10*%
X170170000Y-55167700D03*
X170170000Y-57242700D03*
%TD*%
D16*
%TO.C,C6*%
X110511500Y-125648800D03*
X108436500Y-125648800D03*
%TD*%
D23*
%TO.C,C17*%
X124627800Y-73320900D03*
X124627800Y-71245900D03*
%TD*%
D12*
%TO.C,R7*%
X162026000Y-114168000D03*
X160026000Y-114168000D03*
%TD*%
D29*
%TO.C,U4*%
X147132800Y-101539200D03*
X147132800Y-102809200D03*
X147132800Y-104089200D03*
X147132800Y-105359200D03*
X154192800Y-105359200D03*
X154192800Y-104089200D03*
X154192800Y-102809200D03*
X154192800Y-101539200D03*
%TD*%
D27*
%TO.C,C15*%
X142716500Y-79573200D03*
X144791500Y-79573200D03*
%TD*%
D28*
%TO.C,R1*%
X93853000Y-105807000D03*
X93853000Y-107807000D03*
%TD*%
D20*
%TO.C,R17*%
X168560400Y-102890400D03*
X170560400Y-102890400D03*
%TD*%
D27*
%TO.C,C22*%
X142716500Y-77515800D03*
X144791500Y-77515800D03*
%TD*%
D30*
%TO.C,U1*%
X133256000Y-118590000D03*
X133256000Y-119860000D03*
X133256000Y-121130000D03*
X133256000Y-122400000D03*
X133256000Y-123670000D03*
X133256000Y-124940000D03*
X133256000Y-126210000D03*
%TD*%
D16*
%TO.C,C2*%
X134387500Y-114780000D03*
X132312500Y-114780000D03*
%TD*%
%TO.C,C16*%
X151547900Y-99283600D03*
X149472900Y-99283600D03*
%TD*%
D25*
%TO.C,C20*%
X139080400Y-96925300D03*
X139080400Y-99000300D03*
%TD*%
D27*
%TO.C,C8*%
X88624500Y-127635000D03*
X90699500Y-127635000D03*
%TD*%
%TO.C,C11*%
X85195500Y-70480000D03*
X87270500Y-70480000D03*
%TD*%
D31*
%TO.C,U2*%
X109714000Y-120874000D03*
X112014000Y-120874000D03*
D32*
X112014000Y-114574000D03*
D31*
X114314000Y-120874000D03*
%TD*%
D16*
%TO.C,C21*%
X154341900Y-70734000D03*
X152266900Y-70734000D03*
%TD*%
M02*
