M48
; DRILL file {KiCad 9.0.0} date 2025-04-03T13:22:55+0800
; FORMAT={-:-/ absolute / metric / decimal}
; #@! TF.CreationDate,2025-04-03T13:22:55+08:00
; #@! TF.GenerationSoftware,Kicad,Pcbnew,9.0.0
; #@! TF.FileFunction,MixedPlating,1,2
FMAT,2
METRIC
; #@! TA.AperFunction,Plated,PTH,ViaDrill
T1C0.400
; #@! TA.AperFunction,Plated,PTH,ComponentDrill
T2C1.000
; #@! TA.AperFunction,Plated,PTH,ComponentDrill
T3C3.000
%
G90
G05
T1
X84.182Y-70.316
X88.236Y-117.723
X91.43Y-104.135
X93.008Y-127.044
X95.367Y-83.307
X99.71Y-84.348
X100.066Y-91.943
X100.193Y-55.402
X100.193Y-60.955
X100.193Y-76.322
X100.726Y-83.307
X101.971Y-91.054
X102.862Y-85.263
X104.14Y-89.784
X105.504Y-86.076
X105.527Y-76.195
X105.62Y-96.02
X106.416Y-115.946
X106.67Y-87.752
X106.68Y-125.476
X107.051Y-122.804
X107.178Y-83.307
X107.94Y-81.29
X107.94Y-110.498
X109.686Y-53.982
X109.845Y-94.229
X111.496Y-83.307
X111.76Y-126.751
X111.953Y-86.926
X113.02Y-89.784
X113.02Y-112.009
X114.163Y-75.179
X114.3Y-110.993
X114.417Y-93.607
X115.052Y-81.402
X115.56Y-110.98
X116.83Y-77.719
X116.875Y-111.006
X118.1Y-83.307
X118.227Y-56.637
X118.227Y-103.373
X119.37Y-88.91
X120.589Y-51.328
X120.744Y-103.5
X121.148Y-80.259
X122.062Y-86.533
X122.926Y-95.245
X124.45Y-89.987
X125.466Y-83.307
X125.697Y-111.605
X127.0Y-87.701
X127.0Y-111.501
X128.26Y-109.723
X128.792Y-115.05
X129.149Y-91.308
X129.276Y-75.306
X130.931Y-122.254
X131.689Y-103.373
X131.816Y-83.307
X133.34Y-50.287
X133.34Y-112.506
X133.387Y-136.462
X134.483Y-95.372
X134.61Y-82.291
X135.626Y-114.803
X135.626Y-121.153
X135.88Y-75.306
X135.88Y-95.613
X135.88Y-102.598
X136.007Y-109.977
X136.642Y-83.18
X137.15Y-45.08
X137.201Y-86.634
X137.277Y-76.322
X138.336Y-110.104
X139.69Y-92.07
X139.817Y-102.598
X140.135Y-59.621
X140.876Y-92.451
X140.96Y-106.421
X142.103Y-83.307
X142.23Y-57.907
X143.489Y-80.364
X144.77Y-83.307
X147.183Y-95.893
X147.691Y-56.637
X148.072Y-77.592
X148.148Y-118.903
X148.834Y-81.148
X149.86Y-95.118
X151.374Y-78.735
X151.755Y-83.307
X152.263Y-86.228
X154.676Y-83.307
X155.184Y-95.232
X157.47Y-58.288
X157.724Y-74.925
X157.724Y-84.323
X160.01Y-70.226
X161.534Y-96.134
X162.906Y-76.474
X162.906Y-110.104
X164.582Y-75.941
X164.709Y-86.228
X165.471Y-90.038
X165.646Y-71.077
X165.725Y-98.801
X165.852Y-76.068
X165.852Y-81.148
X166.627Y-65.146
X169.06Y-67.779
X170.17Y-76.83
X170.17Y-101.722
T2
X83.81Y-76.21
X83.81Y-78.75
X83.81Y-81.29
X83.81Y-83.83
X83.81Y-86.37
X83.81Y-88.91
X83.81Y-91.45
X83.81Y-93.99
X83.81Y-96.53
X84.785Y-106.578
X84.785Y-109.118
X84.785Y-111.658
X84.785Y-120.802
X84.785Y-123.342
X84.785Y-125.882
X86.35Y-56.52
X86.35Y-59.06
X86.35Y-61.6
X86.35Y-64.14
X86.35Y-76.21
X86.35Y-78.75
X86.35Y-81.29
X86.35Y-83.83
X86.35Y-86.37
X86.35Y-88.91
X86.35Y-91.45
X86.35Y-93.99
X86.35Y-96.53
X99.736Y-45.055
X99.746Y-50.135
X101.6Y-62.52
X101.6Y-65.06
X101.6Y-98.081
X101.6Y-100.62
X102.276Y-45.055
X102.286Y-50.135
X104.14Y-62.52
X104.14Y-65.06
X104.14Y-70.141
X104.14Y-72.68
X104.14Y-98.081
X104.14Y-100.62
X104.14Y-105.7
X104.14Y-108.24
X104.816Y-45.055
X104.826Y-50.135
X106.68Y-62.52
X106.68Y-65.06
X106.68Y-70.141
X106.68Y-72.68
X106.68Y-98.081
X106.68Y-100.62
X106.68Y-105.7
X106.68Y-108.24
X107.356Y-45.055
X107.366Y-50.135
X109.22Y-62.52
X109.22Y-65.06
X109.22Y-70.141
X109.22Y-72.68
X109.22Y-98.081
X109.22Y-100.62
X109.22Y-105.7
X109.22Y-108.24
X111.506Y-131.036
X111.506Y-134.536
X111.76Y-62.52
X111.76Y-65.06
X111.76Y-70.141
X111.76Y-72.68
X111.76Y-98.081
X111.76Y-100.62
X111.76Y-105.7
X111.76Y-108.24
X114.3Y-62.52
X114.3Y-65.06
X114.3Y-70.141
X114.3Y-72.68
X114.3Y-98.081
X114.3Y-100.62
X114.3Y-105.7
X114.3Y-108.24
X116.84Y-62.52
X116.84Y-65.06
X116.84Y-70.141
X116.84Y-72.68
X116.84Y-98.081
X116.84Y-100.62
X116.84Y-105.7
X116.84Y-108.24
X119.38Y-62.52
X119.38Y-65.06
X119.38Y-70.141
X119.38Y-72.68
X119.38Y-98.081
X119.38Y-100.62
X119.38Y-105.7
X119.38Y-108.24
X119.502Y-44.958
X119.502Y-47.498
X121.666Y-131.036
X121.666Y-134.536
X121.92Y-62.52
X121.92Y-65.06
X121.92Y-70.141
X121.92Y-72.68
X121.92Y-98.081
X121.92Y-100.62
X121.92Y-105.7
X121.92Y-108.24
X122.042Y-44.958
X122.042Y-47.498
X124.46Y-62.52
X124.46Y-65.06
X124.46Y-70.141
X124.46Y-72.68
X124.46Y-98.081
X124.46Y-100.62
X124.46Y-105.7
X124.46Y-108.24
X124.582Y-44.958
X124.582Y-47.498
X127.0Y-62.52
X127.0Y-65.06
X127.0Y-70.141
X127.0Y-72.68
X127.0Y-98.081
X127.0Y-100.62
X127.0Y-105.7
X127.0Y-108.24
X127.122Y-44.958
X127.122Y-47.498
X129.54Y-62.52
X129.54Y-65.06
X129.54Y-70.141
X129.54Y-72.68
X129.54Y-98.081
X129.54Y-100.62
X129.54Y-105.7
X129.54Y-108.24
X129.662Y-44.958
X129.662Y-47.498
X132.08Y-62.52
X132.08Y-65.06
X132.08Y-70.141
X132.08Y-72.68
X132.08Y-98.081
X132.08Y-100.62
X132.08Y-105.7
X132.08Y-108.24
X134.62Y-62.52
X134.62Y-65.06
X134.62Y-70.141
X134.62Y-72.68
X134.62Y-98.081
X134.62Y-100.62
X134.62Y-105.7
X134.62Y-108.24
X137.16Y-62.52
X137.16Y-65.06
X137.16Y-70.141
X137.16Y-72.68
X137.16Y-98.081
X137.16Y-100.62
X137.16Y-105.7
X137.16Y-108.24
X139.7Y-62.52
X139.7Y-65.06
X139.7Y-70.141
X139.7Y-72.68
X139.7Y-98.081
X139.7Y-100.62
X139.7Y-105.7
X139.7Y-108.24
X142.24Y-62.52
X142.24Y-65.06
X142.24Y-70.141
X142.24Y-72.68
X142.24Y-98.081
X142.24Y-100.62
X142.24Y-105.7
X142.24Y-108.24
X142.499Y-45.08
X142.499Y-50.16
X144.78Y-62.52
X144.78Y-65.06
X144.78Y-70.141
X144.78Y-72.68
X144.78Y-98.081
X144.78Y-100.62
X144.78Y-105.7
X144.78Y-108.24
X145.039Y-45.08
X145.039Y-50.16
X145.425Y-134.112
X147.32Y-62.52
X147.32Y-65.06
X147.32Y-70.141
X147.32Y-72.68
X147.32Y-98.081
X147.32Y-100.62
X147.32Y-105.7
X147.32Y-108.24
X147.579Y-45.08
X147.579Y-50.16
X147.965Y-134.112
X149.86Y-62.52
X149.86Y-65.06
X149.86Y-70.141
X149.86Y-72.68
X149.86Y-98.081
X149.86Y-100.62
X149.86Y-105.7
X149.86Y-108.24
X150.505Y-134.112
X151.374Y-122.296
X152.4Y-62.52
X152.4Y-65.06
X152.4Y-70.141
X152.4Y-72.68
X152.4Y-98.081
X152.4Y-100.62
X152.4Y-105.7
X152.4Y-108.24
X153.045Y-134.112
X154.874Y-122.296
X154.94Y-62.52
X154.94Y-65.06
X154.94Y-70.141
X154.94Y-72.68
X154.94Y-98.081
X154.94Y-100.62
X154.94Y-105.7
X154.94Y-108.24
X157.48Y-62.52
X157.48Y-65.06
X157.48Y-70.141
X157.48Y-72.68
X157.48Y-98.081
X157.48Y-100.62
X157.48Y-105.7
X157.48Y-108.24
X157.485Y-45.08
X160.02Y-62.52
X160.02Y-65.06
X160.02Y-98.081
X160.02Y-100.62
X160.025Y-45.08
X162.565Y-45.08
X174.752Y-66.04
X174.752Y-68.58
X174.752Y-71.12
X174.752Y-73.66
X174.752Y-76.2
X174.752Y-78.74
X174.752Y-81.28
X174.752Y-83.82
X174.752Y-86.36
X174.752Y-88.9
X174.752Y-91.44
X174.752Y-93.98
X174.752Y-96.52
X174.752Y-99.06
X174.752Y-101.6
X175.006Y-118.349
X175.006Y-120.889
X175.006Y-123.429
T3
X85.0Y-45.0
X85.0Y-135.0
X175.0Y-45.0
X175.0Y-135.0
M30
