%TF.GenerationSoftware,KiCad,Pcbnew,9.0.1*%
%TF.CreationDate,2025-04-23T10:10:32+08:00*%
%TF.ProjectId,EggClassifier,45676743-6c61-4737-9369-666965722e6b,rev?*%
%TF.SameCoordinates,Original*%
%TF.FileFunction,Soldermask,Bot*%
%TF.FilePolarity,Negative*%
%FSLAX46Y46*%
G04 Gerber Fmt 4.6, Leading zero omitted, Abs format (unit mm)*
G04 Created by KiCad (PCBNEW 9.0.1) date 2025-04-23 10:10:32*
%MOMM*%
%LPD*%
G01*
G04 APERTURE LIST*
G04 Aperture macros list*
%AMRoundRect*
0 Rectangle with rounded corners*
0 $1 Rounding radius*
0 $2 $3 $4 $5 $6 $7 $8 $9 X,Y pos of 4 corners*
0 Add a 4 corners polygon primitive as box body*
4,1,4,$2,$3,$4,$5,$6,$7,$8,$9,$2,$3,0*
0 Add four circle primitives for the rounded corners*
1,1,$1+$1,$2,$3*
1,1,$1+$1,$4,$5*
1,1,$1+$1,$6,$7*
1,1,$1+$1,$8,$9*
0 Add four rect primitives between the rounded corners*
20,1,$1+$1,$2,$3,$4,$5,0*
20,1,$1+$1,$4,$5,$6,$7,0*
20,1,$1+$1,$6,$7,$8,$9,0*
20,1,$1+$1,$8,$9,$2,$3,0*%
G04 Aperture macros list end*
%ADD10R,1.600000X1.600000*%
%ADD11C,1.600000*%
%ADD12R,1.700000X1.700000*%
%ADD13O,1.700000X1.700000*%
%ADD14C,5.200000*%
%ADD15C,2.000000*%
%ADD16RoundRect,0.250000X-0.750000X-0.750000X0.750000X-0.750000X0.750000X0.750000X-0.750000X0.750000X0*%
G04 APERTURE END LIST*
D10*
%TO.C,C4*%
X111506000Y-131036000D03*
D11*
X111506000Y-134536000D03*
%TD*%
D12*
%TO.C,J15*%
X142499000Y-51430000D03*
D13*
X145039000Y-51430000D03*
X147579000Y-51430000D03*
%TD*%
D12*
%TO.C,J11*%
X84785200Y-125882400D03*
D13*
X84785200Y-123342400D03*
X84785200Y-120802400D03*
%TD*%
D14*
%TO.C,H2*%
X85000000Y-135000000D03*
%TD*%
%TO.C,H4*%
X175000000Y-45000000D03*
%TD*%
D12*
%TO.C,J2*%
X175000000Y-100350400D03*
D13*
X175000000Y-102890400D03*
X175000000Y-105430400D03*
X175000000Y-107970400D03*
%TD*%
D11*
%TO.C,L1*%
X124206000Y-124908000D03*
X124206000Y-120908000D03*
%TD*%
D12*
%TO.C,J10*%
X99761200Y-44267200D03*
D13*
X102301200Y-44267200D03*
X104841200Y-44267200D03*
X107381200Y-44267200D03*
%TD*%
D12*
%TO.C,J1*%
X158130400Y-74386600D03*
D13*
X158130400Y-71846600D03*
X158130400Y-69306600D03*
X158130400Y-66766600D03*
X158130400Y-64226600D03*
%TD*%
D15*
%TO.C,SW1*%
X102096800Y-137169800D03*
X95596800Y-137169800D03*
X102096800Y-132669800D03*
X95596800Y-132669800D03*
%TD*%
D12*
%TO.C,J17*%
X175000000Y-55000000D03*
D13*
X175000000Y-57540000D03*
X175000000Y-60080000D03*
X175000000Y-62620000D03*
X175000000Y-65160000D03*
X175000000Y-67700000D03*
X175000000Y-70240000D03*
X175000000Y-72780000D03*
X175000000Y-75320000D03*
X175000000Y-77860000D03*
X175000000Y-80400000D03*
X175000000Y-82940000D03*
X175000000Y-85480000D03*
X175000000Y-88020000D03*
%TD*%
D12*
%TO.C,J9*%
X157485000Y-45080000D03*
D13*
X160025000Y-45080000D03*
X162565000Y-45080000D03*
%TD*%
D10*
%TO.C,C3*%
X121666000Y-131036000D03*
D11*
X121666000Y-134536000D03*
%TD*%
D14*
%TO.C,H1*%
X85000000Y-45000000D03*
%TD*%
%TO.C,H3*%
X175000000Y-135000000D03*
%TD*%
D12*
%TO.C,J14*%
X175006000Y-123429000D03*
D13*
X175006000Y-120889000D03*
X175006000Y-118349000D03*
%TD*%
D10*
%TO.C,C1*%
X151374000Y-122296000D03*
D11*
X154874000Y-122296000D03*
%TD*%
D12*
%TO.C,J12*%
X99761200Y-51430000D03*
D13*
X102301200Y-51430000D03*
X104841200Y-51430000D03*
X107381200Y-51430000D03*
%TD*%
D12*
%TO.C,J16*%
X86350000Y-56520000D03*
D13*
X86350000Y-59060000D03*
X86350000Y-61600000D03*
X86350000Y-64140000D03*
%TD*%
D12*
%TO.C,J13*%
X142499000Y-44267200D03*
D13*
X145039000Y-44267200D03*
X147579000Y-44267200D03*
%TD*%
D12*
%TO.C,J7*%
X119502000Y-47498000D03*
D13*
X119502000Y-44958000D03*
X122042000Y-47498000D03*
X122042000Y-44958000D03*
X124582000Y-47498000D03*
X124582000Y-44958000D03*
X127122000Y-47498000D03*
X127122000Y-44958000D03*
X129662000Y-47498000D03*
X129662000Y-44958000D03*
%TD*%
D16*
%TO.C,J5*%
X145425000Y-134112000D03*
D15*
X147965000Y-134112000D03*
X150505000Y-134112000D03*
X153045000Y-134112000D03*
%TD*%
D12*
%TO.C,J8*%
X84785200Y-111658400D03*
D13*
X84785200Y-109118400D03*
X84785200Y-106578400D03*
%TD*%
D12*
%TO.C,J6*%
X83810000Y-76210000D03*
D13*
X86350000Y-76210000D03*
X83810000Y-78750000D03*
X86350000Y-78750000D03*
X83810000Y-81290000D03*
X86350000Y-81290000D03*
X83810000Y-83830000D03*
X86350000Y-83830000D03*
X83810000Y-86370000D03*
X86350000Y-86370000D03*
X83810000Y-88910000D03*
X86350000Y-88910000D03*
X83810000Y-91450000D03*
X86350000Y-91450000D03*
X83810000Y-93990000D03*
X86350000Y-93990000D03*
X83810000Y-96530000D03*
X86350000Y-96530000D03*
%TD*%
M02*
