%TF.GenerationSoftware,KiCad,Pcbnew,9.0.1*%
%TF.CreationDate,2025-04-23T10:10:32+08:00*%
%TF.ProjectId,EggClassifier,45676743-6c61-4737-9369-666965722e6b,rev?*%
%TF.SameCoordinates,Original*%
%TF.FileFunction,Legend,Top*%
%TF.FilePolarity,Positive*%
%FSLAX46Y46*%
G04 Gerber Fmt 4.6, Leading zero omitted, Abs format (unit mm)*
G04 Created by KiCad (PCBNEW 9.0.1) date 2025-04-23 10:10:32*
%MOMM*%
%LPD*%
G01*
G04 APERTURE LIST*
%ADD10C,0.150000*%
%ADD11C,0.120000*%
%ADD12C,0.127000*%
%ADD13C,0.200000*%
G04 APERTURE END LIST*
D10*
X89700419Y-103666666D02*
X89224228Y-103999999D01*
X89700419Y-104238094D02*
X88700419Y-104238094D01*
X88700419Y-104238094D02*
X88700419Y-103857142D01*
X88700419Y-103857142D02*
X88748038Y-103761904D01*
X88748038Y-103761904D02*
X88795657Y-103714285D01*
X88795657Y-103714285D02*
X88890895Y-103666666D01*
X88890895Y-103666666D02*
X89033752Y-103666666D01*
X89033752Y-103666666D02*
X89128990Y-103714285D01*
X89128990Y-103714285D02*
X89176609Y-103761904D01*
X89176609Y-103761904D02*
X89224228Y-103857142D01*
X89224228Y-103857142D02*
X89224228Y-104238094D01*
X88795657Y-103285713D02*
X88748038Y-103238094D01*
X88748038Y-103238094D02*
X88700419Y-103142856D01*
X88700419Y-103142856D02*
X88700419Y-102904761D01*
X88700419Y-102904761D02*
X88748038Y-102809523D01*
X88748038Y-102809523D02*
X88795657Y-102761904D01*
X88795657Y-102761904D02*
X88890895Y-102714285D01*
X88890895Y-102714285D02*
X88986133Y-102714285D01*
X88986133Y-102714285D02*
X89128990Y-102761904D01*
X89128990Y-102761904D02*
X89700419Y-103333332D01*
X89700419Y-103333332D02*
X89700419Y-102714285D01*
X134189333Y-133114019D02*
X133856000Y-132637828D01*
X133617905Y-133114019D02*
X133617905Y-132114019D01*
X133617905Y-132114019D02*
X133998857Y-132114019D01*
X133998857Y-132114019D02*
X134094095Y-132161638D01*
X134094095Y-132161638D02*
X134141714Y-132209257D01*
X134141714Y-132209257D02*
X134189333Y-132304495D01*
X134189333Y-132304495D02*
X134189333Y-132447352D01*
X134189333Y-132447352D02*
X134141714Y-132542590D01*
X134141714Y-132542590D02*
X134094095Y-132590209D01*
X134094095Y-132590209D02*
X133998857Y-132637828D01*
X133998857Y-132637828D02*
X133617905Y-132637828D01*
X134760762Y-132542590D02*
X134665524Y-132494971D01*
X134665524Y-132494971D02*
X134617905Y-132447352D01*
X134617905Y-132447352D02*
X134570286Y-132352114D01*
X134570286Y-132352114D02*
X134570286Y-132304495D01*
X134570286Y-132304495D02*
X134617905Y-132209257D01*
X134617905Y-132209257D02*
X134665524Y-132161638D01*
X134665524Y-132161638D02*
X134760762Y-132114019D01*
X134760762Y-132114019D02*
X134951238Y-132114019D01*
X134951238Y-132114019D02*
X135046476Y-132161638D01*
X135046476Y-132161638D02*
X135094095Y-132209257D01*
X135094095Y-132209257D02*
X135141714Y-132304495D01*
X135141714Y-132304495D02*
X135141714Y-132352114D01*
X135141714Y-132352114D02*
X135094095Y-132447352D01*
X135094095Y-132447352D02*
X135046476Y-132494971D01*
X135046476Y-132494971D02*
X134951238Y-132542590D01*
X134951238Y-132542590D02*
X134760762Y-132542590D01*
X134760762Y-132542590D02*
X134665524Y-132590209D01*
X134665524Y-132590209D02*
X134617905Y-132637828D01*
X134617905Y-132637828D02*
X134570286Y-132733066D01*
X134570286Y-132733066D02*
X134570286Y-132923542D01*
X134570286Y-132923542D02*
X134617905Y-133018780D01*
X134617905Y-133018780D02*
X134665524Y-133066400D01*
X134665524Y-133066400D02*
X134760762Y-133114019D01*
X134760762Y-133114019D02*
X134951238Y-133114019D01*
X134951238Y-133114019D02*
X135046476Y-133066400D01*
X135046476Y-133066400D02*
X135094095Y-133018780D01*
X135094095Y-133018780D02*
X135141714Y-132923542D01*
X135141714Y-132923542D02*
X135141714Y-132733066D01*
X135141714Y-132733066D02*
X135094095Y-132637828D01*
X135094095Y-132637828D02*
X135046476Y-132590209D01*
X135046476Y-132590209D02*
X134951238Y-132542590D01*
X114783733Y-137565380D02*
X114736114Y-137613000D01*
X114736114Y-137613000D02*
X114593257Y-137660619D01*
X114593257Y-137660619D02*
X114498019Y-137660619D01*
X114498019Y-137660619D02*
X114355162Y-137613000D01*
X114355162Y-137613000D02*
X114259924Y-137517761D01*
X114259924Y-137517761D02*
X114212305Y-137422523D01*
X114212305Y-137422523D02*
X114164686Y-137232047D01*
X114164686Y-137232047D02*
X114164686Y-137089190D01*
X114164686Y-137089190D02*
X114212305Y-136898714D01*
X114212305Y-136898714D02*
X114259924Y-136803476D01*
X114259924Y-136803476D02*
X114355162Y-136708238D01*
X114355162Y-136708238D02*
X114498019Y-136660619D01*
X114498019Y-136660619D02*
X114593257Y-136660619D01*
X114593257Y-136660619D02*
X114736114Y-136708238D01*
X114736114Y-136708238D02*
X114783733Y-136755857D01*
X115640876Y-136993952D02*
X115640876Y-137660619D01*
X115402781Y-136613000D02*
X115164686Y-137327285D01*
X115164686Y-137327285D02*
X115783733Y-137327285D01*
X138992419Y-52239523D02*
X139706704Y-52239523D01*
X139706704Y-52239523D02*
X139849561Y-52287142D01*
X139849561Y-52287142D02*
X139944800Y-52382380D01*
X139944800Y-52382380D02*
X139992419Y-52525237D01*
X139992419Y-52525237D02*
X139992419Y-52620475D01*
X139992419Y-51239523D02*
X139992419Y-51810951D01*
X139992419Y-51525237D02*
X138992419Y-51525237D01*
X138992419Y-51525237D02*
X139135276Y-51620475D01*
X139135276Y-51620475D02*
X139230514Y-51715713D01*
X139230514Y-51715713D02*
X139278133Y-51810951D01*
X138992419Y-50334761D02*
X138992419Y-50810951D01*
X138992419Y-50810951D02*
X139468609Y-50858570D01*
X139468609Y-50858570D02*
X139420990Y-50810951D01*
X139420990Y-50810951D02*
X139373371Y-50715713D01*
X139373371Y-50715713D02*
X139373371Y-50477618D01*
X139373371Y-50477618D02*
X139420990Y-50382380D01*
X139420990Y-50382380D02*
X139468609Y-50334761D01*
X139468609Y-50334761D02*
X139563847Y-50287142D01*
X139563847Y-50287142D02*
X139801942Y-50287142D01*
X139801942Y-50287142D02*
X139897180Y-50334761D01*
X139897180Y-50334761D02*
X139944800Y-50382380D01*
X139944800Y-50382380D02*
X139992419Y-50477618D01*
X139992419Y-50477618D02*
X139992419Y-50715713D01*
X139992419Y-50715713D02*
X139944800Y-50810951D01*
X139944800Y-50810951D02*
X139897180Y-50858570D01*
X130444495Y-74637219D02*
X130444495Y-75446742D01*
X130444495Y-75446742D02*
X130492114Y-75541980D01*
X130492114Y-75541980D02*
X130539733Y-75589600D01*
X130539733Y-75589600D02*
X130634971Y-75637219D01*
X130634971Y-75637219D02*
X130825447Y-75637219D01*
X130825447Y-75637219D02*
X130920685Y-75589600D01*
X130920685Y-75589600D02*
X130968304Y-75541980D01*
X130968304Y-75541980D02*
X131015923Y-75446742D01*
X131015923Y-75446742D02*
X131015923Y-74637219D01*
X131396876Y-74637219D02*
X132015923Y-74637219D01*
X132015923Y-74637219D02*
X131682590Y-75018171D01*
X131682590Y-75018171D02*
X131825447Y-75018171D01*
X131825447Y-75018171D02*
X131920685Y-75065790D01*
X131920685Y-75065790D02*
X131968304Y-75113409D01*
X131968304Y-75113409D02*
X132015923Y-75208647D01*
X132015923Y-75208647D02*
X132015923Y-75446742D01*
X132015923Y-75446742D02*
X131968304Y-75541980D01*
X131968304Y-75541980D02*
X131920685Y-75589600D01*
X131920685Y-75589600D02*
X131825447Y-75637219D01*
X131825447Y-75637219D02*
X131539733Y-75637219D01*
X131539733Y-75637219D02*
X131444495Y-75589600D01*
X131444495Y-75589600D02*
X131396876Y-75541980D01*
X83991076Y-128278619D02*
X83991076Y-128992904D01*
X83991076Y-128992904D02*
X83943457Y-129135761D01*
X83943457Y-129135761D02*
X83848219Y-129231000D01*
X83848219Y-129231000D02*
X83705362Y-129278619D01*
X83705362Y-129278619D02*
X83610124Y-129278619D01*
X84991076Y-129278619D02*
X84419648Y-129278619D01*
X84705362Y-129278619D02*
X84705362Y-128278619D01*
X84705362Y-128278619D02*
X84610124Y-128421476D01*
X84610124Y-128421476D02*
X84514886Y-128516714D01*
X84514886Y-128516714D02*
X84419648Y-128564333D01*
X85943457Y-129278619D02*
X85372029Y-129278619D01*
X85657743Y-129278619D02*
X85657743Y-128278619D01*
X85657743Y-128278619D02*
X85562505Y-128421476D01*
X85562505Y-128421476D02*
X85467267Y-128516714D01*
X85467267Y-128516714D02*
X85372029Y-128564333D01*
X106338305Y-107764819D02*
X106338305Y-106764819D01*
X106338305Y-106764819D02*
X106576400Y-106764819D01*
X106576400Y-106764819D02*
X106719257Y-106812438D01*
X106719257Y-106812438D02*
X106814495Y-106907676D01*
X106814495Y-106907676D02*
X106862114Y-107002914D01*
X106862114Y-107002914D02*
X106909733Y-107193390D01*
X106909733Y-107193390D02*
X106909733Y-107336247D01*
X106909733Y-107336247D02*
X106862114Y-107526723D01*
X106862114Y-107526723D02*
X106814495Y-107621961D01*
X106814495Y-107621961D02*
X106719257Y-107717200D01*
X106719257Y-107717200D02*
X106576400Y-107764819D01*
X106576400Y-107764819D02*
X106338305Y-107764819D01*
X107766876Y-106764819D02*
X107576400Y-106764819D01*
X107576400Y-106764819D02*
X107481162Y-106812438D01*
X107481162Y-106812438D02*
X107433543Y-106860057D01*
X107433543Y-106860057D02*
X107338305Y-107002914D01*
X107338305Y-107002914D02*
X107290686Y-107193390D01*
X107290686Y-107193390D02*
X107290686Y-107574342D01*
X107290686Y-107574342D02*
X107338305Y-107669580D01*
X107338305Y-107669580D02*
X107385924Y-107717200D01*
X107385924Y-107717200D02*
X107481162Y-107764819D01*
X107481162Y-107764819D02*
X107671638Y-107764819D01*
X107671638Y-107764819D02*
X107766876Y-107717200D01*
X107766876Y-107717200D02*
X107814495Y-107669580D01*
X107814495Y-107669580D02*
X107862114Y-107574342D01*
X107862114Y-107574342D02*
X107862114Y-107336247D01*
X107862114Y-107336247D02*
X107814495Y-107241009D01*
X107814495Y-107241009D02*
X107766876Y-107193390D01*
X107766876Y-107193390D02*
X107671638Y-107145771D01*
X107671638Y-107145771D02*
X107481162Y-107145771D01*
X107481162Y-107145771D02*
X107385924Y-107193390D01*
X107385924Y-107193390D02*
X107338305Y-107241009D01*
X107338305Y-107241009D02*
X107290686Y-107336247D01*
X113894733Y-127688380D02*
X113847114Y-127736000D01*
X113847114Y-127736000D02*
X113704257Y-127783619D01*
X113704257Y-127783619D02*
X113609019Y-127783619D01*
X113609019Y-127783619D02*
X113466162Y-127736000D01*
X113466162Y-127736000D02*
X113370924Y-127640761D01*
X113370924Y-127640761D02*
X113323305Y-127545523D01*
X113323305Y-127545523D02*
X113275686Y-127355047D01*
X113275686Y-127355047D02*
X113275686Y-127212190D01*
X113275686Y-127212190D02*
X113323305Y-127021714D01*
X113323305Y-127021714D02*
X113370924Y-126926476D01*
X113370924Y-126926476D02*
X113466162Y-126831238D01*
X113466162Y-126831238D02*
X113609019Y-126783619D01*
X113609019Y-126783619D02*
X113704257Y-126783619D01*
X113704257Y-126783619D02*
X113847114Y-126831238D01*
X113847114Y-126831238D02*
X113894733Y-126878857D01*
X114799495Y-126783619D02*
X114323305Y-126783619D01*
X114323305Y-126783619D02*
X114275686Y-127259809D01*
X114275686Y-127259809D02*
X114323305Y-127212190D01*
X114323305Y-127212190D02*
X114418543Y-127164571D01*
X114418543Y-127164571D02*
X114656638Y-127164571D01*
X114656638Y-127164571D02*
X114751876Y-127212190D01*
X114751876Y-127212190D02*
X114799495Y-127259809D01*
X114799495Y-127259809D02*
X114847114Y-127355047D01*
X114847114Y-127355047D02*
X114847114Y-127593142D01*
X114847114Y-127593142D02*
X114799495Y-127688380D01*
X114799495Y-127688380D02*
X114751876Y-127736000D01*
X114751876Y-127736000D02*
X114656638Y-127783619D01*
X114656638Y-127783619D02*
X114418543Y-127783619D01*
X114418543Y-127783619D02*
X114323305Y-127736000D01*
X114323305Y-127736000D02*
X114275686Y-127688380D01*
X174662666Y-97112819D02*
X174662666Y-97827104D01*
X174662666Y-97827104D02*
X174615047Y-97969961D01*
X174615047Y-97969961D02*
X174519809Y-98065200D01*
X174519809Y-98065200D02*
X174376952Y-98112819D01*
X174376952Y-98112819D02*
X174281714Y-98112819D01*
X175091238Y-97208057D02*
X175138857Y-97160438D01*
X175138857Y-97160438D02*
X175234095Y-97112819D01*
X175234095Y-97112819D02*
X175472190Y-97112819D01*
X175472190Y-97112819D02*
X175567428Y-97160438D01*
X175567428Y-97160438D02*
X175615047Y-97208057D01*
X175615047Y-97208057D02*
X175662666Y-97303295D01*
X175662666Y-97303295D02*
X175662666Y-97398533D01*
X175662666Y-97398533D02*
X175615047Y-97541390D01*
X175615047Y-97541390D02*
X175043619Y-98112819D01*
X175043619Y-98112819D02*
X175662666Y-98112819D01*
X96414761Y-111111257D02*
X96319523Y-111063638D01*
X96319523Y-111063638D02*
X96224285Y-110968400D01*
X96224285Y-110968400D02*
X96081428Y-110825542D01*
X96081428Y-110825542D02*
X95986190Y-110777923D01*
X95986190Y-110777923D02*
X95890952Y-110777923D01*
X95938571Y-111016019D02*
X95843333Y-110968400D01*
X95843333Y-110968400D02*
X95748095Y-110873161D01*
X95748095Y-110873161D02*
X95700476Y-110682685D01*
X95700476Y-110682685D02*
X95700476Y-110349352D01*
X95700476Y-110349352D02*
X95748095Y-110158876D01*
X95748095Y-110158876D02*
X95843333Y-110063638D01*
X95843333Y-110063638D02*
X95938571Y-110016019D01*
X95938571Y-110016019D02*
X96129047Y-110016019D01*
X96129047Y-110016019D02*
X96224285Y-110063638D01*
X96224285Y-110063638D02*
X96319523Y-110158876D01*
X96319523Y-110158876D02*
X96367142Y-110349352D01*
X96367142Y-110349352D02*
X96367142Y-110682685D01*
X96367142Y-110682685D02*
X96319523Y-110873161D01*
X96319523Y-110873161D02*
X96224285Y-110968400D01*
X96224285Y-110968400D02*
X96129047Y-111016019D01*
X96129047Y-111016019D02*
X95938571Y-111016019D01*
X97319523Y-111016019D02*
X96748095Y-111016019D01*
X97033809Y-111016019D02*
X97033809Y-110016019D01*
X97033809Y-110016019D02*
X96938571Y-110158876D01*
X96938571Y-110158876D02*
X96843333Y-110254114D01*
X96843333Y-110254114D02*
X96748095Y-110301733D01*
X106789142Y-102811819D02*
X106455809Y-102335628D01*
X106217714Y-102811819D02*
X106217714Y-101811819D01*
X106217714Y-101811819D02*
X106598666Y-101811819D01*
X106598666Y-101811819D02*
X106693904Y-101859438D01*
X106693904Y-101859438D02*
X106741523Y-101907057D01*
X106741523Y-101907057D02*
X106789142Y-102002295D01*
X106789142Y-102002295D02*
X106789142Y-102145152D01*
X106789142Y-102145152D02*
X106741523Y-102240390D01*
X106741523Y-102240390D02*
X106693904Y-102288009D01*
X106693904Y-102288009D02*
X106598666Y-102335628D01*
X106598666Y-102335628D02*
X106217714Y-102335628D01*
X107741523Y-102811819D02*
X107170095Y-102811819D01*
X107455809Y-102811819D02*
X107455809Y-101811819D01*
X107455809Y-101811819D02*
X107360571Y-101954676D01*
X107360571Y-101954676D02*
X107265333Y-102049914D01*
X107265333Y-102049914D02*
X107170095Y-102097533D01*
X108598666Y-102145152D02*
X108598666Y-102811819D01*
X108360571Y-101764200D02*
X108122476Y-102478485D01*
X108122476Y-102478485D02*
X108741523Y-102478485D01*
X148978542Y-74871819D02*
X148645209Y-74395628D01*
X148407114Y-74871819D02*
X148407114Y-73871819D01*
X148407114Y-73871819D02*
X148788066Y-73871819D01*
X148788066Y-73871819D02*
X148883304Y-73919438D01*
X148883304Y-73919438D02*
X148930923Y-73967057D01*
X148930923Y-73967057D02*
X148978542Y-74062295D01*
X148978542Y-74062295D02*
X148978542Y-74205152D01*
X148978542Y-74205152D02*
X148930923Y-74300390D01*
X148930923Y-74300390D02*
X148883304Y-74348009D01*
X148883304Y-74348009D02*
X148788066Y-74395628D01*
X148788066Y-74395628D02*
X148407114Y-74395628D01*
X149930923Y-74871819D02*
X149359495Y-74871819D01*
X149645209Y-74871819D02*
X149645209Y-73871819D01*
X149645209Y-73871819D02*
X149549971Y-74014676D01*
X149549971Y-74014676D02*
X149454733Y-74109914D01*
X149454733Y-74109914D02*
X149359495Y-74157533D01*
X150311876Y-73967057D02*
X150359495Y-73919438D01*
X150359495Y-73919438D02*
X150454733Y-73871819D01*
X150454733Y-73871819D02*
X150692828Y-73871819D01*
X150692828Y-73871819D02*
X150788066Y-73919438D01*
X150788066Y-73919438D02*
X150835685Y-73967057D01*
X150835685Y-73967057D02*
X150883304Y-74062295D01*
X150883304Y-74062295D02*
X150883304Y-74157533D01*
X150883304Y-74157533D02*
X150835685Y-74300390D01*
X150835685Y-74300390D02*
X150264257Y-74871819D01*
X150264257Y-74871819D02*
X150883304Y-74871819D01*
X96142619Y-45076723D02*
X96856904Y-45076723D01*
X96856904Y-45076723D02*
X96999761Y-45124342D01*
X96999761Y-45124342D02*
X97095000Y-45219580D01*
X97095000Y-45219580D02*
X97142619Y-45362437D01*
X97142619Y-45362437D02*
X97142619Y-45457675D01*
X97142619Y-44076723D02*
X97142619Y-44648151D01*
X97142619Y-44362437D02*
X96142619Y-44362437D01*
X96142619Y-44362437D02*
X96285476Y-44457675D01*
X96285476Y-44457675D02*
X96380714Y-44552913D01*
X96380714Y-44552913D02*
X96428333Y-44648151D01*
X96142619Y-43457675D02*
X96142619Y-43362437D01*
X96142619Y-43362437D02*
X96190238Y-43267199D01*
X96190238Y-43267199D02*
X96237857Y-43219580D01*
X96237857Y-43219580D02*
X96333095Y-43171961D01*
X96333095Y-43171961D02*
X96523571Y-43124342D01*
X96523571Y-43124342D02*
X96761666Y-43124342D01*
X96761666Y-43124342D02*
X96952142Y-43171961D01*
X96952142Y-43171961D02*
X97047380Y-43219580D01*
X97047380Y-43219580D02*
X97095000Y-43267199D01*
X97095000Y-43267199D02*
X97142619Y-43362437D01*
X97142619Y-43362437D02*
X97142619Y-43457675D01*
X97142619Y-43457675D02*
X97095000Y-43552913D01*
X97095000Y-43552913D02*
X97047380Y-43600532D01*
X97047380Y-43600532D02*
X96952142Y-43648151D01*
X96952142Y-43648151D02*
X96761666Y-43695770D01*
X96761666Y-43695770D02*
X96523571Y-43695770D01*
X96523571Y-43695770D02*
X96333095Y-43648151D01*
X96333095Y-43648151D02*
X96237857Y-43600532D01*
X96237857Y-43600532D02*
X96190238Y-43552913D01*
X96190238Y-43552913D02*
X96142619Y-43457675D01*
X157797066Y-76171419D02*
X157797066Y-76885704D01*
X157797066Y-76885704D02*
X157749447Y-77028561D01*
X157749447Y-77028561D02*
X157654209Y-77123800D01*
X157654209Y-77123800D02*
X157511352Y-77171419D01*
X157511352Y-77171419D02*
X157416114Y-77171419D01*
X158797066Y-77171419D02*
X158225638Y-77171419D01*
X158511352Y-77171419D02*
X158511352Y-76171419D01*
X158511352Y-76171419D02*
X158416114Y-76314276D01*
X158416114Y-76314276D02*
X158320876Y-76409514D01*
X158320876Y-76409514D02*
X158225638Y-76457133D01*
X118269942Y-85575180D02*
X118222323Y-85622800D01*
X118222323Y-85622800D02*
X118079466Y-85670419D01*
X118079466Y-85670419D02*
X117984228Y-85670419D01*
X117984228Y-85670419D02*
X117841371Y-85622800D01*
X117841371Y-85622800D02*
X117746133Y-85527561D01*
X117746133Y-85527561D02*
X117698514Y-85432323D01*
X117698514Y-85432323D02*
X117650895Y-85241847D01*
X117650895Y-85241847D02*
X117650895Y-85098990D01*
X117650895Y-85098990D02*
X117698514Y-84908514D01*
X117698514Y-84908514D02*
X117746133Y-84813276D01*
X117746133Y-84813276D02*
X117841371Y-84718038D01*
X117841371Y-84718038D02*
X117984228Y-84670419D01*
X117984228Y-84670419D02*
X118079466Y-84670419D01*
X118079466Y-84670419D02*
X118222323Y-84718038D01*
X118222323Y-84718038D02*
X118269942Y-84765657D01*
X119222323Y-85670419D02*
X118650895Y-85670419D01*
X118936609Y-85670419D02*
X118936609Y-84670419D01*
X118936609Y-84670419D02*
X118841371Y-84813276D01*
X118841371Y-84813276D02*
X118746133Y-84908514D01*
X118746133Y-84908514D02*
X118650895Y-84956133D01*
X119793752Y-85098990D02*
X119698514Y-85051371D01*
X119698514Y-85051371D02*
X119650895Y-85003752D01*
X119650895Y-85003752D02*
X119603276Y-84908514D01*
X119603276Y-84908514D02*
X119603276Y-84860895D01*
X119603276Y-84860895D02*
X119650895Y-84765657D01*
X119650895Y-84765657D02*
X119698514Y-84718038D01*
X119698514Y-84718038D02*
X119793752Y-84670419D01*
X119793752Y-84670419D02*
X119984228Y-84670419D01*
X119984228Y-84670419D02*
X120079466Y-84718038D01*
X120079466Y-84718038D02*
X120127085Y-84765657D01*
X120127085Y-84765657D02*
X120174704Y-84860895D01*
X120174704Y-84860895D02*
X120174704Y-84908514D01*
X120174704Y-84908514D02*
X120127085Y-85003752D01*
X120127085Y-85003752D02*
X120079466Y-85051371D01*
X120079466Y-85051371D02*
X119984228Y-85098990D01*
X119984228Y-85098990D02*
X119793752Y-85098990D01*
X119793752Y-85098990D02*
X119698514Y-85146609D01*
X119698514Y-85146609D02*
X119650895Y-85194228D01*
X119650895Y-85194228D02*
X119603276Y-85289466D01*
X119603276Y-85289466D02*
X119603276Y-85479942D01*
X119603276Y-85479942D02*
X119650895Y-85575180D01*
X119650895Y-85575180D02*
X119698514Y-85622800D01*
X119698514Y-85622800D02*
X119793752Y-85670419D01*
X119793752Y-85670419D02*
X119984228Y-85670419D01*
X119984228Y-85670419D02*
X120079466Y-85622800D01*
X120079466Y-85622800D02*
X120127085Y-85575180D01*
X120127085Y-85575180D02*
X120174704Y-85479942D01*
X120174704Y-85479942D02*
X120174704Y-85289466D01*
X120174704Y-85289466D02*
X120127085Y-85194228D01*
X120127085Y-85194228D02*
X120079466Y-85146609D01*
X120079466Y-85146609D02*
X119984228Y-85098990D01*
X149105542Y-67348419D02*
X148772209Y-66872228D01*
X148534114Y-67348419D02*
X148534114Y-66348419D01*
X148534114Y-66348419D02*
X148915066Y-66348419D01*
X148915066Y-66348419D02*
X149010304Y-66396038D01*
X149010304Y-66396038D02*
X149057923Y-66443657D01*
X149057923Y-66443657D02*
X149105542Y-66538895D01*
X149105542Y-66538895D02*
X149105542Y-66681752D01*
X149105542Y-66681752D02*
X149057923Y-66776990D01*
X149057923Y-66776990D02*
X149010304Y-66824609D01*
X149010304Y-66824609D02*
X148915066Y-66872228D01*
X148915066Y-66872228D02*
X148534114Y-66872228D01*
X150057923Y-67348419D02*
X149486495Y-67348419D01*
X149772209Y-67348419D02*
X149772209Y-66348419D01*
X149772209Y-66348419D02*
X149676971Y-66491276D01*
X149676971Y-66491276D02*
X149581733Y-66586514D01*
X149581733Y-66586514D02*
X149486495Y-66634133D01*
X150962685Y-66348419D02*
X150486495Y-66348419D01*
X150486495Y-66348419D02*
X150438876Y-66824609D01*
X150438876Y-66824609D02*
X150486495Y-66776990D01*
X150486495Y-66776990D02*
X150581733Y-66729371D01*
X150581733Y-66729371D02*
X150819828Y-66729371D01*
X150819828Y-66729371D02*
X150915066Y-66776990D01*
X150915066Y-66776990D02*
X150962685Y-66824609D01*
X150962685Y-66824609D02*
X151010304Y-66919847D01*
X151010304Y-66919847D02*
X151010304Y-67157942D01*
X151010304Y-67157942D02*
X150962685Y-67253180D01*
X150962685Y-67253180D02*
X150915066Y-67300800D01*
X150915066Y-67300800D02*
X150819828Y-67348419D01*
X150819828Y-67348419D02*
X150581733Y-67348419D01*
X150581733Y-67348419D02*
X150486495Y-67300800D01*
X150486495Y-67300800D02*
X150438876Y-67253180D01*
X169787505Y-115842019D02*
X169787505Y-114842019D01*
X169787505Y-114842019D02*
X170025600Y-114842019D01*
X170025600Y-114842019D02*
X170168457Y-114889638D01*
X170168457Y-114889638D02*
X170263695Y-114984876D01*
X170263695Y-114984876D02*
X170311314Y-115080114D01*
X170311314Y-115080114D02*
X170358933Y-115270590D01*
X170358933Y-115270590D02*
X170358933Y-115413447D01*
X170358933Y-115413447D02*
X170311314Y-115603923D01*
X170311314Y-115603923D02*
X170263695Y-115699161D01*
X170263695Y-115699161D02*
X170168457Y-115794400D01*
X170168457Y-115794400D02*
X170025600Y-115842019D01*
X170025600Y-115842019D02*
X169787505Y-115842019D01*
X171216076Y-115175352D02*
X171216076Y-115842019D01*
X170977981Y-114794400D02*
X170739886Y-115508685D01*
X170739886Y-115508685D02*
X171358933Y-115508685D01*
X90731667Y-135073000D02*
X90874524Y-135120619D01*
X90874524Y-135120619D02*
X91112619Y-135120619D01*
X91112619Y-135120619D02*
X91207857Y-135073000D01*
X91207857Y-135073000D02*
X91255476Y-135025380D01*
X91255476Y-135025380D02*
X91303095Y-134930142D01*
X91303095Y-134930142D02*
X91303095Y-134834904D01*
X91303095Y-134834904D02*
X91255476Y-134739666D01*
X91255476Y-134739666D02*
X91207857Y-134692047D01*
X91207857Y-134692047D02*
X91112619Y-134644428D01*
X91112619Y-134644428D02*
X90922143Y-134596809D01*
X90922143Y-134596809D02*
X90826905Y-134549190D01*
X90826905Y-134549190D02*
X90779286Y-134501571D01*
X90779286Y-134501571D02*
X90731667Y-134406333D01*
X90731667Y-134406333D02*
X90731667Y-134311095D01*
X90731667Y-134311095D02*
X90779286Y-134215857D01*
X90779286Y-134215857D02*
X90826905Y-134168238D01*
X90826905Y-134168238D02*
X90922143Y-134120619D01*
X90922143Y-134120619D02*
X91160238Y-134120619D01*
X91160238Y-134120619D02*
X91303095Y-134168238D01*
X91636429Y-134120619D02*
X91874524Y-135120619D01*
X91874524Y-135120619D02*
X92065000Y-134406333D01*
X92065000Y-134406333D02*
X92255476Y-135120619D01*
X92255476Y-135120619D02*
X92493572Y-134120619D01*
X93398333Y-135120619D02*
X92826905Y-135120619D01*
X93112619Y-135120619D02*
X93112619Y-134120619D01*
X93112619Y-134120619D02*
X93017381Y-134263476D01*
X93017381Y-134263476D02*
X92922143Y-134358714D01*
X92922143Y-134358714D02*
X92826905Y-134406333D01*
X174190476Y-51684819D02*
X174190476Y-52399104D01*
X174190476Y-52399104D02*
X174142857Y-52541961D01*
X174142857Y-52541961D02*
X174047619Y-52637200D01*
X174047619Y-52637200D02*
X173904762Y-52684819D01*
X173904762Y-52684819D02*
X173809524Y-52684819D01*
X175190476Y-52684819D02*
X174619048Y-52684819D01*
X174904762Y-52684819D02*
X174904762Y-51684819D01*
X174904762Y-51684819D02*
X174809524Y-51827676D01*
X174809524Y-51827676D02*
X174714286Y-51922914D01*
X174714286Y-51922914D02*
X174619048Y-51970533D01*
X175523810Y-51684819D02*
X176190476Y-51684819D01*
X176190476Y-51684819D02*
X175761905Y-52684819D01*
X105406409Y-77469028D02*
X105406409Y-77945219D01*
X105073076Y-76945219D02*
X105406409Y-77469028D01*
X105406409Y-77469028D02*
X105739742Y-76945219D01*
X106596885Y-77945219D02*
X106025457Y-77945219D01*
X106311171Y-77945219D02*
X106311171Y-76945219D01*
X106311171Y-76945219D02*
X106215933Y-77088076D01*
X106215933Y-77088076D02*
X106120695Y-77183314D01*
X106120695Y-77183314D02*
X106025457Y-77230933D01*
X91789580Y-103031666D02*
X91837200Y-103079285D01*
X91837200Y-103079285D02*
X91884819Y-103222142D01*
X91884819Y-103222142D02*
X91884819Y-103317380D01*
X91884819Y-103317380D02*
X91837200Y-103460237D01*
X91837200Y-103460237D02*
X91741961Y-103555475D01*
X91741961Y-103555475D02*
X91646723Y-103603094D01*
X91646723Y-103603094D02*
X91456247Y-103650713D01*
X91456247Y-103650713D02*
X91313390Y-103650713D01*
X91313390Y-103650713D02*
X91122914Y-103603094D01*
X91122914Y-103603094D02*
X91027676Y-103555475D01*
X91027676Y-103555475D02*
X90932438Y-103460237D01*
X90932438Y-103460237D02*
X90884819Y-103317380D01*
X90884819Y-103317380D02*
X90884819Y-103222142D01*
X90884819Y-103222142D02*
X90932438Y-103079285D01*
X90932438Y-103079285D02*
X90980057Y-103031666D01*
X91884819Y-102555475D02*
X91884819Y-102364999D01*
X91884819Y-102364999D02*
X91837200Y-102269761D01*
X91837200Y-102269761D02*
X91789580Y-102222142D01*
X91789580Y-102222142D02*
X91646723Y-102126904D01*
X91646723Y-102126904D02*
X91456247Y-102079285D01*
X91456247Y-102079285D02*
X91075295Y-102079285D01*
X91075295Y-102079285D02*
X90980057Y-102126904D01*
X90980057Y-102126904D02*
X90932438Y-102174523D01*
X90932438Y-102174523D02*
X90884819Y-102269761D01*
X90884819Y-102269761D02*
X90884819Y-102460237D01*
X90884819Y-102460237D02*
X90932438Y-102555475D01*
X90932438Y-102555475D02*
X90980057Y-102603094D01*
X90980057Y-102603094D02*
X91075295Y-102650713D01*
X91075295Y-102650713D02*
X91313390Y-102650713D01*
X91313390Y-102650713D02*
X91408628Y-102603094D01*
X91408628Y-102603094D02*
X91456247Y-102555475D01*
X91456247Y-102555475D02*
X91503866Y-102460237D01*
X91503866Y-102460237D02*
X91503866Y-102269761D01*
X91503866Y-102269761D02*
X91456247Y-102174523D01*
X91456247Y-102174523D02*
X91408628Y-102126904D01*
X91408628Y-102126904D02*
X91313390Y-102079285D01*
X165299561Y-116445257D02*
X165204323Y-116397638D01*
X165204323Y-116397638D02*
X165109085Y-116302400D01*
X165109085Y-116302400D02*
X164966228Y-116159542D01*
X164966228Y-116159542D02*
X164870990Y-116111923D01*
X164870990Y-116111923D02*
X164775752Y-116111923D01*
X164823371Y-116350019D02*
X164728133Y-116302400D01*
X164728133Y-116302400D02*
X164632895Y-116207161D01*
X164632895Y-116207161D02*
X164585276Y-116016685D01*
X164585276Y-116016685D02*
X164585276Y-115683352D01*
X164585276Y-115683352D02*
X164632895Y-115492876D01*
X164632895Y-115492876D02*
X164728133Y-115397638D01*
X164728133Y-115397638D02*
X164823371Y-115350019D01*
X164823371Y-115350019D02*
X165013847Y-115350019D01*
X165013847Y-115350019D02*
X165109085Y-115397638D01*
X165109085Y-115397638D02*
X165204323Y-115492876D01*
X165204323Y-115492876D02*
X165251942Y-115683352D01*
X165251942Y-115683352D02*
X165251942Y-116016685D01*
X165251942Y-116016685D02*
X165204323Y-116207161D01*
X165204323Y-116207161D02*
X165109085Y-116302400D01*
X165109085Y-116302400D02*
X165013847Y-116350019D01*
X165013847Y-116350019D02*
X164823371Y-116350019D01*
X165585276Y-115350019D02*
X166204323Y-115350019D01*
X166204323Y-115350019D02*
X165870990Y-115730971D01*
X165870990Y-115730971D02*
X166013847Y-115730971D01*
X166013847Y-115730971D02*
X166109085Y-115778590D01*
X166109085Y-115778590D02*
X166156704Y-115826209D01*
X166156704Y-115826209D02*
X166204323Y-115921447D01*
X166204323Y-115921447D02*
X166204323Y-116159542D01*
X166204323Y-116159542D02*
X166156704Y-116254780D01*
X166156704Y-116254780D02*
X166109085Y-116302400D01*
X166109085Y-116302400D02*
X166013847Y-116350019D01*
X166013847Y-116350019D02*
X165728133Y-116350019D01*
X165728133Y-116350019D02*
X165632895Y-116302400D01*
X165632895Y-116302400D02*
X165585276Y-116254780D01*
X106916142Y-105326419D02*
X106582809Y-104850228D01*
X106344714Y-105326419D02*
X106344714Y-104326419D01*
X106344714Y-104326419D02*
X106725666Y-104326419D01*
X106725666Y-104326419D02*
X106820904Y-104374038D01*
X106820904Y-104374038D02*
X106868523Y-104421657D01*
X106868523Y-104421657D02*
X106916142Y-104516895D01*
X106916142Y-104516895D02*
X106916142Y-104659752D01*
X106916142Y-104659752D02*
X106868523Y-104754990D01*
X106868523Y-104754990D02*
X106820904Y-104802609D01*
X106820904Y-104802609D02*
X106725666Y-104850228D01*
X106725666Y-104850228D02*
X106344714Y-104850228D01*
X107868523Y-105326419D02*
X107297095Y-105326419D01*
X107582809Y-105326419D02*
X107582809Y-104326419D01*
X107582809Y-104326419D02*
X107487571Y-104469276D01*
X107487571Y-104469276D02*
X107392333Y-104564514D01*
X107392333Y-104564514D02*
X107297095Y-104612133D01*
X108344714Y-105326419D02*
X108535190Y-105326419D01*
X108535190Y-105326419D02*
X108630428Y-105278800D01*
X108630428Y-105278800D02*
X108678047Y-105231180D01*
X108678047Y-105231180D02*
X108773285Y-105088323D01*
X108773285Y-105088323D02*
X108820904Y-104897847D01*
X108820904Y-104897847D02*
X108820904Y-104516895D01*
X108820904Y-104516895D02*
X108773285Y-104421657D01*
X108773285Y-104421657D02*
X108725666Y-104374038D01*
X108725666Y-104374038D02*
X108630428Y-104326419D01*
X108630428Y-104326419D02*
X108439952Y-104326419D01*
X108439952Y-104326419D02*
X108344714Y-104374038D01*
X108344714Y-104374038D02*
X108297095Y-104421657D01*
X108297095Y-104421657D02*
X108249476Y-104516895D01*
X108249476Y-104516895D02*
X108249476Y-104754990D01*
X108249476Y-104754990D02*
X108297095Y-104850228D01*
X108297095Y-104850228D02*
X108344714Y-104897847D01*
X108344714Y-104897847D02*
X108439952Y-104945466D01*
X108439952Y-104945466D02*
X108630428Y-104945466D01*
X108630428Y-104945466D02*
X108725666Y-104897847D01*
X108725666Y-104897847D02*
X108773285Y-104850228D01*
X108773285Y-104850228D02*
X108820904Y-104754990D01*
X153927619Y-45413333D02*
X154641904Y-45413333D01*
X154641904Y-45413333D02*
X154784761Y-45460952D01*
X154784761Y-45460952D02*
X154880000Y-45556190D01*
X154880000Y-45556190D02*
X154927619Y-45699047D01*
X154927619Y-45699047D02*
X154927619Y-45794285D01*
X154927619Y-44889523D02*
X154927619Y-44699047D01*
X154927619Y-44699047D02*
X154880000Y-44603809D01*
X154880000Y-44603809D02*
X154832380Y-44556190D01*
X154832380Y-44556190D02*
X154689523Y-44460952D01*
X154689523Y-44460952D02*
X154499047Y-44413333D01*
X154499047Y-44413333D02*
X154118095Y-44413333D01*
X154118095Y-44413333D02*
X154022857Y-44460952D01*
X154022857Y-44460952D02*
X153975238Y-44508571D01*
X153975238Y-44508571D02*
X153927619Y-44603809D01*
X153927619Y-44603809D02*
X153927619Y-44794285D01*
X153927619Y-44794285D02*
X153975238Y-44889523D01*
X153975238Y-44889523D02*
X154022857Y-44937142D01*
X154022857Y-44937142D02*
X154118095Y-44984761D01*
X154118095Y-44984761D02*
X154356190Y-44984761D01*
X154356190Y-44984761D02*
X154451428Y-44937142D01*
X154451428Y-44937142D02*
X154499047Y-44889523D01*
X154499047Y-44889523D02*
X154546666Y-44794285D01*
X154546666Y-44794285D02*
X154546666Y-44603809D01*
X154546666Y-44603809D02*
X154499047Y-44508571D01*
X154499047Y-44508571D02*
X154451428Y-44460952D01*
X154451428Y-44460952D02*
X154356190Y-44413333D01*
X125680333Y-137387580D02*
X125632714Y-137435200D01*
X125632714Y-137435200D02*
X125489857Y-137482819D01*
X125489857Y-137482819D02*
X125394619Y-137482819D01*
X125394619Y-137482819D02*
X125251762Y-137435200D01*
X125251762Y-137435200D02*
X125156524Y-137339961D01*
X125156524Y-137339961D02*
X125108905Y-137244723D01*
X125108905Y-137244723D02*
X125061286Y-137054247D01*
X125061286Y-137054247D02*
X125061286Y-136911390D01*
X125061286Y-136911390D02*
X125108905Y-136720914D01*
X125108905Y-136720914D02*
X125156524Y-136625676D01*
X125156524Y-136625676D02*
X125251762Y-136530438D01*
X125251762Y-136530438D02*
X125394619Y-136482819D01*
X125394619Y-136482819D02*
X125489857Y-136482819D01*
X125489857Y-136482819D02*
X125632714Y-136530438D01*
X125632714Y-136530438D02*
X125680333Y-136578057D01*
X126013667Y-136482819D02*
X126632714Y-136482819D01*
X126632714Y-136482819D02*
X126299381Y-136863771D01*
X126299381Y-136863771D02*
X126442238Y-136863771D01*
X126442238Y-136863771D02*
X126537476Y-136911390D01*
X126537476Y-136911390D02*
X126585095Y-136959009D01*
X126585095Y-136959009D02*
X126632714Y-137054247D01*
X126632714Y-137054247D02*
X126632714Y-137292342D01*
X126632714Y-137292342D02*
X126585095Y-137387580D01*
X126585095Y-137387580D02*
X126537476Y-137435200D01*
X126537476Y-137435200D02*
X126442238Y-137482819D01*
X126442238Y-137482819D02*
X126156524Y-137482819D01*
X126156524Y-137482819D02*
X126061286Y-137435200D01*
X126061286Y-137435200D02*
X126013667Y-137387580D01*
X87450819Y-123305866D02*
X86974628Y-123639199D01*
X87450819Y-123877294D02*
X86450819Y-123877294D01*
X86450819Y-123877294D02*
X86450819Y-123496342D01*
X86450819Y-123496342D02*
X86498438Y-123401104D01*
X86498438Y-123401104D02*
X86546057Y-123353485D01*
X86546057Y-123353485D02*
X86641295Y-123305866D01*
X86641295Y-123305866D02*
X86784152Y-123305866D01*
X86784152Y-123305866D02*
X86879390Y-123353485D01*
X86879390Y-123353485D02*
X86927009Y-123401104D01*
X86927009Y-123401104D02*
X86974628Y-123496342D01*
X86974628Y-123496342D02*
X86974628Y-123877294D01*
X86450819Y-122448723D02*
X86450819Y-122639199D01*
X86450819Y-122639199D02*
X86498438Y-122734437D01*
X86498438Y-122734437D02*
X86546057Y-122782056D01*
X86546057Y-122782056D02*
X86688914Y-122877294D01*
X86688914Y-122877294D02*
X86879390Y-122924913D01*
X86879390Y-122924913D02*
X87260342Y-122924913D01*
X87260342Y-122924913D02*
X87355580Y-122877294D01*
X87355580Y-122877294D02*
X87403200Y-122829675D01*
X87403200Y-122829675D02*
X87450819Y-122734437D01*
X87450819Y-122734437D02*
X87450819Y-122543961D01*
X87450819Y-122543961D02*
X87403200Y-122448723D01*
X87403200Y-122448723D02*
X87355580Y-122401104D01*
X87355580Y-122401104D02*
X87260342Y-122353485D01*
X87260342Y-122353485D02*
X87022247Y-122353485D01*
X87022247Y-122353485D02*
X86927009Y-122401104D01*
X86927009Y-122401104D02*
X86879390Y-122448723D01*
X86879390Y-122448723D02*
X86831771Y-122543961D01*
X86831771Y-122543961D02*
X86831771Y-122734437D01*
X86831771Y-122734437D02*
X86879390Y-122829675D01*
X86879390Y-122829675D02*
X86927009Y-122877294D01*
X86927009Y-122877294D02*
X87022247Y-122924913D01*
X166383905Y-93794819D02*
X166383905Y-92794819D01*
X166383905Y-92794819D02*
X166622000Y-92794819D01*
X166622000Y-92794819D02*
X166764857Y-92842438D01*
X166764857Y-92842438D02*
X166860095Y-92937676D01*
X166860095Y-92937676D02*
X166907714Y-93032914D01*
X166907714Y-93032914D02*
X166955333Y-93223390D01*
X166955333Y-93223390D02*
X166955333Y-93366247D01*
X166955333Y-93366247D02*
X166907714Y-93556723D01*
X166907714Y-93556723D02*
X166860095Y-93651961D01*
X166860095Y-93651961D02*
X166764857Y-93747200D01*
X166764857Y-93747200D02*
X166622000Y-93794819D01*
X166622000Y-93794819D02*
X166383905Y-93794819D01*
X167336286Y-92890057D02*
X167383905Y-92842438D01*
X167383905Y-92842438D02*
X167479143Y-92794819D01*
X167479143Y-92794819D02*
X167717238Y-92794819D01*
X167717238Y-92794819D02*
X167812476Y-92842438D01*
X167812476Y-92842438D02*
X167860095Y-92890057D01*
X167860095Y-92890057D02*
X167907714Y-92985295D01*
X167907714Y-92985295D02*
X167907714Y-93080533D01*
X167907714Y-93080533D02*
X167860095Y-93223390D01*
X167860095Y-93223390D02*
X167288667Y-93794819D01*
X167288667Y-93794819D02*
X167907714Y-93794819D01*
X98609161Y-121331257D02*
X98513923Y-121283638D01*
X98513923Y-121283638D02*
X98418685Y-121188400D01*
X98418685Y-121188400D02*
X98275828Y-121045542D01*
X98275828Y-121045542D02*
X98180590Y-120997923D01*
X98180590Y-120997923D02*
X98085352Y-120997923D01*
X98132971Y-121236019D02*
X98037733Y-121188400D01*
X98037733Y-121188400D02*
X97942495Y-121093161D01*
X97942495Y-121093161D02*
X97894876Y-120902685D01*
X97894876Y-120902685D02*
X97894876Y-120569352D01*
X97894876Y-120569352D02*
X97942495Y-120378876D01*
X97942495Y-120378876D02*
X98037733Y-120283638D01*
X98037733Y-120283638D02*
X98132971Y-120236019D01*
X98132971Y-120236019D02*
X98323447Y-120236019D01*
X98323447Y-120236019D02*
X98418685Y-120283638D01*
X98418685Y-120283638D02*
X98513923Y-120378876D01*
X98513923Y-120378876D02*
X98561542Y-120569352D01*
X98561542Y-120569352D02*
X98561542Y-120902685D01*
X98561542Y-120902685D02*
X98513923Y-121093161D01*
X98513923Y-121093161D02*
X98418685Y-121188400D01*
X98418685Y-121188400D02*
X98323447Y-121236019D01*
X98323447Y-121236019D02*
X98132971Y-121236019D01*
X98942495Y-120331257D02*
X98990114Y-120283638D01*
X98990114Y-120283638D02*
X99085352Y-120236019D01*
X99085352Y-120236019D02*
X99323447Y-120236019D01*
X99323447Y-120236019D02*
X99418685Y-120283638D01*
X99418685Y-120283638D02*
X99466304Y-120331257D01*
X99466304Y-120331257D02*
X99513923Y-120426495D01*
X99513923Y-120426495D02*
X99513923Y-120521733D01*
X99513923Y-120521733D02*
X99466304Y-120664590D01*
X99466304Y-120664590D02*
X98894876Y-121236019D01*
X98894876Y-121236019D02*
X99513923Y-121236019D01*
X136849180Y-102161657D02*
X136896800Y-102209276D01*
X136896800Y-102209276D02*
X136944419Y-102352133D01*
X136944419Y-102352133D02*
X136944419Y-102447371D01*
X136944419Y-102447371D02*
X136896800Y-102590228D01*
X136896800Y-102590228D02*
X136801561Y-102685466D01*
X136801561Y-102685466D02*
X136706323Y-102733085D01*
X136706323Y-102733085D02*
X136515847Y-102780704D01*
X136515847Y-102780704D02*
X136372990Y-102780704D01*
X136372990Y-102780704D02*
X136182514Y-102733085D01*
X136182514Y-102733085D02*
X136087276Y-102685466D01*
X136087276Y-102685466D02*
X135992038Y-102590228D01*
X135992038Y-102590228D02*
X135944419Y-102447371D01*
X135944419Y-102447371D02*
X135944419Y-102352133D01*
X135944419Y-102352133D02*
X135992038Y-102209276D01*
X135992038Y-102209276D02*
X136039657Y-102161657D01*
X136944419Y-101209276D02*
X136944419Y-101780704D01*
X136944419Y-101494990D02*
X135944419Y-101494990D01*
X135944419Y-101494990D02*
X136087276Y-101590228D01*
X136087276Y-101590228D02*
X136182514Y-101685466D01*
X136182514Y-101685466D02*
X136230133Y-101780704D01*
X136277752Y-100352133D02*
X136944419Y-100352133D01*
X135896800Y-100590228D02*
X136611085Y-100828323D01*
X136611085Y-100828323D02*
X136611085Y-100209276D01*
X169127219Y-63960057D02*
X168651028Y-64293390D01*
X169127219Y-64531485D02*
X168127219Y-64531485D01*
X168127219Y-64531485D02*
X168127219Y-64150533D01*
X168127219Y-64150533D02*
X168174838Y-64055295D01*
X168174838Y-64055295D02*
X168222457Y-64007676D01*
X168222457Y-64007676D02*
X168317695Y-63960057D01*
X168317695Y-63960057D02*
X168460552Y-63960057D01*
X168460552Y-63960057D02*
X168555790Y-64007676D01*
X168555790Y-64007676D02*
X168603409Y-64055295D01*
X168603409Y-64055295D02*
X168651028Y-64150533D01*
X168651028Y-64150533D02*
X168651028Y-64531485D01*
X169127219Y-63007676D02*
X169127219Y-63579104D01*
X169127219Y-63293390D02*
X168127219Y-63293390D01*
X168127219Y-63293390D02*
X168270076Y-63388628D01*
X168270076Y-63388628D02*
X168365314Y-63483866D01*
X168365314Y-63483866D02*
X168412933Y-63579104D01*
X169127219Y-62055295D02*
X169127219Y-62626723D01*
X169127219Y-62341009D02*
X168127219Y-62341009D01*
X168127219Y-62341009D02*
X168270076Y-62436247D01*
X168270076Y-62436247D02*
X168365314Y-62531485D01*
X168365314Y-62531485D02*
X168412933Y-62626723D01*
X165412342Y-100906819D02*
X165079009Y-100430628D01*
X164840914Y-100906819D02*
X164840914Y-99906819D01*
X164840914Y-99906819D02*
X165221866Y-99906819D01*
X165221866Y-99906819D02*
X165317104Y-99954438D01*
X165317104Y-99954438D02*
X165364723Y-100002057D01*
X165364723Y-100002057D02*
X165412342Y-100097295D01*
X165412342Y-100097295D02*
X165412342Y-100240152D01*
X165412342Y-100240152D02*
X165364723Y-100335390D01*
X165364723Y-100335390D02*
X165317104Y-100383009D01*
X165317104Y-100383009D02*
X165221866Y-100430628D01*
X165221866Y-100430628D02*
X164840914Y-100430628D01*
X165793295Y-100002057D02*
X165840914Y-99954438D01*
X165840914Y-99954438D02*
X165936152Y-99906819D01*
X165936152Y-99906819D02*
X166174247Y-99906819D01*
X166174247Y-99906819D02*
X166269485Y-99954438D01*
X166269485Y-99954438D02*
X166317104Y-100002057D01*
X166317104Y-100002057D02*
X166364723Y-100097295D01*
X166364723Y-100097295D02*
X166364723Y-100192533D01*
X166364723Y-100192533D02*
X166317104Y-100335390D01*
X166317104Y-100335390D02*
X165745676Y-100906819D01*
X165745676Y-100906819D02*
X166364723Y-100906819D01*
X166983771Y-99906819D02*
X167079009Y-99906819D01*
X167079009Y-99906819D02*
X167174247Y-99954438D01*
X167174247Y-99954438D02*
X167221866Y-100002057D01*
X167221866Y-100002057D02*
X167269485Y-100097295D01*
X167269485Y-100097295D02*
X167317104Y-100287771D01*
X167317104Y-100287771D02*
X167317104Y-100525866D01*
X167317104Y-100525866D02*
X167269485Y-100716342D01*
X167269485Y-100716342D02*
X167221866Y-100811580D01*
X167221866Y-100811580D02*
X167174247Y-100859200D01*
X167174247Y-100859200D02*
X167079009Y-100906819D01*
X167079009Y-100906819D02*
X166983771Y-100906819D01*
X166983771Y-100906819D02*
X166888533Y-100859200D01*
X166888533Y-100859200D02*
X166840914Y-100811580D01*
X166840914Y-100811580D02*
X166793295Y-100716342D01*
X166793295Y-100716342D02*
X166745676Y-100525866D01*
X166745676Y-100525866D02*
X166745676Y-100287771D01*
X166745676Y-100287771D02*
X166793295Y-100097295D01*
X166793295Y-100097295D02*
X166840914Y-100002057D01*
X166840914Y-100002057D02*
X166888533Y-99954438D01*
X166888533Y-99954438D02*
X166983771Y-99906819D01*
X96070342Y-64737219D02*
X95737009Y-64261028D01*
X95498914Y-64737219D02*
X95498914Y-63737219D01*
X95498914Y-63737219D02*
X95879866Y-63737219D01*
X95879866Y-63737219D02*
X95975104Y-63784838D01*
X95975104Y-63784838D02*
X96022723Y-63832457D01*
X96022723Y-63832457D02*
X96070342Y-63927695D01*
X96070342Y-63927695D02*
X96070342Y-64070552D01*
X96070342Y-64070552D02*
X96022723Y-64165790D01*
X96022723Y-64165790D02*
X95975104Y-64213409D01*
X95975104Y-64213409D02*
X95879866Y-64261028D01*
X95879866Y-64261028D02*
X95498914Y-64261028D01*
X97022723Y-64737219D02*
X96451295Y-64737219D01*
X96737009Y-64737219D02*
X96737009Y-63737219D01*
X96737009Y-63737219D02*
X96641771Y-63880076D01*
X96641771Y-63880076D02*
X96546533Y-63975314D01*
X96546533Y-63975314D02*
X96451295Y-64022933D01*
X97641771Y-63737219D02*
X97737009Y-63737219D01*
X97737009Y-63737219D02*
X97832247Y-63784838D01*
X97832247Y-63784838D02*
X97879866Y-63832457D01*
X97879866Y-63832457D02*
X97927485Y-63927695D01*
X97927485Y-63927695D02*
X97975104Y-64118171D01*
X97975104Y-64118171D02*
X97975104Y-64356266D01*
X97975104Y-64356266D02*
X97927485Y-64546742D01*
X97927485Y-64546742D02*
X97879866Y-64641980D01*
X97879866Y-64641980D02*
X97832247Y-64689600D01*
X97832247Y-64689600D02*
X97737009Y-64737219D01*
X97737009Y-64737219D02*
X97641771Y-64737219D01*
X97641771Y-64737219D02*
X97546533Y-64689600D01*
X97546533Y-64689600D02*
X97498914Y-64641980D01*
X97498914Y-64641980D02*
X97451295Y-64546742D01*
X97451295Y-64546742D02*
X97403676Y-64356266D01*
X97403676Y-64356266D02*
X97403676Y-64118171D01*
X97403676Y-64118171D02*
X97451295Y-63927695D01*
X97451295Y-63927695D02*
X97498914Y-63832457D01*
X97498914Y-63832457D02*
X97546533Y-63784838D01*
X97546533Y-63784838D02*
X97641771Y-63737219D01*
X96022533Y-62095619D02*
X95689200Y-61619428D01*
X95451105Y-62095619D02*
X95451105Y-61095619D01*
X95451105Y-61095619D02*
X95832057Y-61095619D01*
X95832057Y-61095619D02*
X95927295Y-61143238D01*
X95927295Y-61143238D02*
X95974914Y-61190857D01*
X95974914Y-61190857D02*
X96022533Y-61286095D01*
X96022533Y-61286095D02*
X96022533Y-61428952D01*
X96022533Y-61428952D02*
X95974914Y-61524190D01*
X95974914Y-61524190D02*
X95927295Y-61571809D01*
X95927295Y-61571809D02*
X95832057Y-61619428D01*
X95832057Y-61619428D02*
X95451105Y-61619428D01*
X96498724Y-62095619D02*
X96689200Y-62095619D01*
X96689200Y-62095619D02*
X96784438Y-62048000D01*
X96784438Y-62048000D02*
X96832057Y-62000380D01*
X96832057Y-62000380D02*
X96927295Y-61857523D01*
X96927295Y-61857523D02*
X96974914Y-61667047D01*
X96974914Y-61667047D02*
X96974914Y-61286095D01*
X96974914Y-61286095D02*
X96927295Y-61190857D01*
X96927295Y-61190857D02*
X96879676Y-61143238D01*
X96879676Y-61143238D02*
X96784438Y-61095619D01*
X96784438Y-61095619D02*
X96593962Y-61095619D01*
X96593962Y-61095619D02*
X96498724Y-61143238D01*
X96498724Y-61143238D02*
X96451105Y-61190857D01*
X96451105Y-61190857D02*
X96403486Y-61286095D01*
X96403486Y-61286095D02*
X96403486Y-61524190D01*
X96403486Y-61524190D02*
X96451105Y-61619428D01*
X96451105Y-61619428D02*
X96498724Y-61667047D01*
X96498724Y-61667047D02*
X96593962Y-61714666D01*
X96593962Y-61714666D02*
X96784438Y-61714666D01*
X96784438Y-61714666D02*
X96879676Y-61667047D01*
X96879676Y-61667047D02*
X96927295Y-61619428D01*
X96927295Y-61619428D02*
X96974914Y-61524190D01*
X174196476Y-125213819D02*
X174196476Y-125928104D01*
X174196476Y-125928104D02*
X174148857Y-126070961D01*
X174148857Y-126070961D02*
X174053619Y-126166200D01*
X174053619Y-126166200D02*
X173910762Y-126213819D01*
X173910762Y-126213819D02*
X173815524Y-126213819D01*
X175196476Y-126213819D02*
X174625048Y-126213819D01*
X174910762Y-126213819D02*
X174910762Y-125213819D01*
X174910762Y-125213819D02*
X174815524Y-125356676D01*
X174815524Y-125356676D02*
X174720286Y-125451914D01*
X174720286Y-125451914D02*
X174625048Y-125499533D01*
X176053619Y-125547152D02*
X176053619Y-126213819D01*
X175815524Y-125166200D02*
X175577429Y-125880485D01*
X175577429Y-125880485D02*
X176196476Y-125880485D01*
X106839942Y-100125780D02*
X106792323Y-100173400D01*
X106792323Y-100173400D02*
X106649466Y-100221019D01*
X106649466Y-100221019D02*
X106554228Y-100221019D01*
X106554228Y-100221019D02*
X106411371Y-100173400D01*
X106411371Y-100173400D02*
X106316133Y-100078161D01*
X106316133Y-100078161D02*
X106268514Y-99982923D01*
X106268514Y-99982923D02*
X106220895Y-99792447D01*
X106220895Y-99792447D02*
X106220895Y-99649590D01*
X106220895Y-99649590D02*
X106268514Y-99459114D01*
X106268514Y-99459114D02*
X106316133Y-99363876D01*
X106316133Y-99363876D02*
X106411371Y-99268638D01*
X106411371Y-99268638D02*
X106554228Y-99221019D01*
X106554228Y-99221019D02*
X106649466Y-99221019D01*
X106649466Y-99221019D02*
X106792323Y-99268638D01*
X106792323Y-99268638D02*
X106839942Y-99316257D01*
X107792323Y-100221019D02*
X107220895Y-100221019D01*
X107506609Y-100221019D02*
X107506609Y-99221019D01*
X107506609Y-99221019D02*
X107411371Y-99363876D01*
X107411371Y-99363876D02*
X107316133Y-99459114D01*
X107316133Y-99459114D02*
X107220895Y-99506733D01*
X108125657Y-99221019D02*
X108744704Y-99221019D01*
X108744704Y-99221019D02*
X108411371Y-99601971D01*
X108411371Y-99601971D02*
X108554228Y-99601971D01*
X108554228Y-99601971D02*
X108649466Y-99649590D01*
X108649466Y-99649590D02*
X108697085Y-99697209D01*
X108697085Y-99697209D02*
X108744704Y-99792447D01*
X108744704Y-99792447D02*
X108744704Y-100030542D01*
X108744704Y-100030542D02*
X108697085Y-100125780D01*
X108697085Y-100125780D02*
X108649466Y-100173400D01*
X108649466Y-100173400D02*
X108554228Y-100221019D01*
X108554228Y-100221019D02*
X108268514Y-100221019D01*
X108268514Y-100221019D02*
X108173276Y-100173400D01*
X108173276Y-100173400D02*
X108125657Y-100125780D01*
X152957333Y-117405580D02*
X152909714Y-117453200D01*
X152909714Y-117453200D02*
X152766857Y-117500819D01*
X152766857Y-117500819D02*
X152671619Y-117500819D01*
X152671619Y-117500819D02*
X152528762Y-117453200D01*
X152528762Y-117453200D02*
X152433524Y-117357961D01*
X152433524Y-117357961D02*
X152385905Y-117262723D01*
X152385905Y-117262723D02*
X152338286Y-117072247D01*
X152338286Y-117072247D02*
X152338286Y-116929390D01*
X152338286Y-116929390D02*
X152385905Y-116738914D01*
X152385905Y-116738914D02*
X152433524Y-116643676D01*
X152433524Y-116643676D02*
X152528762Y-116548438D01*
X152528762Y-116548438D02*
X152671619Y-116500819D01*
X152671619Y-116500819D02*
X152766857Y-116500819D01*
X152766857Y-116500819D02*
X152909714Y-116548438D01*
X152909714Y-116548438D02*
X152957333Y-116596057D01*
X153909714Y-117500819D02*
X153338286Y-117500819D01*
X153624000Y-117500819D02*
X153624000Y-116500819D01*
X153624000Y-116500819D02*
X153528762Y-116643676D01*
X153528762Y-116643676D02*
X153433524Y-116738914D01*
X153433524Y-116738914D02*
X153338286Y-116786533D01*
X123000705Y-111622819D02*
X123000705Y-110622819D01*
X123000705Y-110622819D02*
X123238800Y-110622819D01*
X123238800Y-110622819D02*
X123381657Y-110670438D01*
X123381657Y-110670438D02*
X123476895Y-110765676D01*
X123476895Y-110765676D02*
X123524514Y-110860914D01*
X123524514Y-110860914D02*
X123572133Y-111051390D01*
X123572133Y-111051390D02*
X123572133Y-111194247D01*
X123572133Y-111194247D02*
X123524514Y-111384723D01*
X123524514Y-111384723D02*
X123476895Y-111479961D01*
X123476895Y-111479961D02*
X123381657Y-111575200D01*
X123381657Y-111575200D02*
X123238800Y-111622819D01*
X123238800Y-111622819D02*
X123000705Y-111622819D01*
X124524514Y-111622819D02*
X123953086Y-111622819D01*
X124238800Y-111622819D02*
X124238800Y-110622819D01*
X124238800Y-110622819D02*
X124143562Y-110765676D01*
X124143562Y-110765676D02*
X124048324Y-110860914D01*
X124048324Y-110860914D02*
X123953086Y-110908533D01*
X96208819Y-52239523D02*
X96923104Y-52239523D01*
X96923104Y-52239523D02*
X97065961Y-52287142D01*
X97065961Y-52287142D02*
X97161200Y-52382380D01*
X97161200Y-52382380D02*
X97208819Y-52525237D01*
X97208819Y-52525237D02*
X97208819Y-52620475D01*
X97208819Y-51239523D02*
X97208819Y-51810951D01*
X97208819Y-51525237D02*
X96208819Y-51525237D01*
X96208819Y-51525237D02*
X96351676Y-51620475D01*
X96351676Y-51620475D02*
X96446914Y-51715713D01*
X96446914Y-51715713D02*
X96494533Y-51810951D01*
X96304057Y-50858570D02*
X96256438Y-50810951D01*
X96256438Y-50810951D02*
X96208819Y-50715713D01*
X96208819Y-50715713D02*
X96208819Y-50477618D01*
X96208819Y-50477618D02*
X96256438Y-50382380D01*
X96256438Y-50382380D02*
X96304057Y-50334761D01*
X96304057Y-50334761D02*
X96399295Y-50287142D01*
X96399295Y-50287142D02*
X96494533Y-50287142D01*
X96494533Y-50287142D02*
X96637390Y-50334761D01*
X96637390Y-50334761D02*
X97208819Y-50906189D01*
X97208819Y-50906189D02*
X97208819Y-50287142D01*
X85591276Y-53170819D02*
X85591276Y-53885104D01*
X85591276Y-53885104D02*
X85543657Y-54027961D01*
X85543657Y-54027961D02*
X85448419Y-54123200D01*
X85448419Y-54123200D02*
X85305562Y-54170819D01*
X85305562Y-54170819D02*
X85210324Y-54170819D01*
X86591276Y-54170819D02*
X86019848Y-54170819D01*
X86305562Y-54170819D02*
X86305562Y-53170819D01*
X86305562Y-53170819D02*
X86210324Y-53313676D01*
X86210324Y-53313676D02*
X86115086Y-53408914D01*
X86115086Y-53408914D02*
X86019848Y-53456533D01*
X87448419Y-53170819D02*
X87257943Y-53170819D01*
X87257943Y-53170819D02*
X87162705Y-53218438D01*
X87162705Y-53218438D02*
X87115086Y-53266057D01*
X87115086Y-53266057D02*
X87019848Y-53408914D01*
X87019848Y-53408914D02*
X86972229Y-53599390D01*
X86972229Y-53599390D02*
X86972229Y-53980342D01*
X86972229Y-53980342D02*
X87019848Y-54075580D01*
X87019848Y-54075580D02*
X87067467Y-54123200D01*
X87067467Y-54123200D02*
X87162705Y-54170819D01*
X87162705Y-54170819D02*
X87353181Y-54170819D01*
X87353181Y-54170819D02*
X87448419Y-54123200D01*
X87448419Y-54123200D02*
X87496038Y-54075580D01*
X87496038Y-54075580D02*
X87543657Y-53980342D01*
X87543657Y-53980342D02*
X87543657Y-53742247D01*
X87543657Y-53742247D02*
X87496038Y-53647009D01*
X87496038Y-53647009D02*
X87448419Y-53599390D01*
X87448419Y-53599390D02*
X87353181Y-53551771D01*
X87353181Y-53551771D02*
X87162705Y-53551771D01*
X87162705Y-53551771D02*
X87067467Y-53599390D01*
X87067467Y-53599390D02*
X87019848Y-53647009D01*
X87019848Y-53647009D02*
X86972229Y-53742247D01*
X149181742Y-64783019D02*
X148848409Y-64306828D01*
X148610314Y-64783019D02*
X148610314Y-63783019D01*
X148610314Y-63783019D02*
X148991266Y-63783019D01*
X148991266Y-63783019D02*
X149086504Y-63830638D01*
X149086504Y-63830638D02*
X149134123Y-63878257D01*
X149134123Y-63878257D02*
X149181742Y-63973495D01*
X149181742Y-63973495D02*
X149181742Y-64116352D01*
X149181742Y-64116352D02*
X149134123Y-64211590D01*
X149134123Y-64211590D02*
X149086504Y-64259209D01*
X149086504Y-64259209D02*
X148991266Y-64306828D01*
X148991266Y-64306828D02*
X148610314Y-64306828D01*
X150134123Y-64783019D02*
X149562695Y-64783019D01*
X149848409Y-64783019D02*
X149848409Y-63783019D01*
X149848409Y-63783019D02*
X149753171Y-63925876D01*
X149753171Y-63925876D02*
X149657933Y-64021114D01*
X149657933Y-64021114D02*
X149562695Y-64068733D01*
X150991266Y-63783019D02*
X150800790Y-63783019D01*
X150800790Y-63783019D02*
X150705552Y-63830638D01*
X150705552Y-63830638D02*
X150657933Y-63878257D01*
X150657933Y-63878257D02*
X150562695Y-64021114D01*
X150562695Y-64021114D02*
X150515076Y-64211590D01*
X150515076Y-64211590D02*
X150515076Y-64592542D01*
X150515076Y-64592542D02*
X150562695Y-64687780D01*
X150562695Y-64687780D02*
X150610314Y-64735400D01*
X150610314Y-64735400D02*
X150705552Y-64783019D01*
X150705552Y-64783019D02*
X150896028Y-64783019D01*
X150896028Y-64783019D02*
X150991266Y-64735400D01*
X150991266Y-64735400D02*
X151038885Y-64687780D01*
X151038885Y-64687780D02*
X151086504Y-64592542D01*
X151086504Y-64592542D02*
X151086504Y-64354447D01*
X151086504Y-64354447D02*
X151038885Y-64259209D01*
X151038885Y-64259209D02*
X150991266Y-64211590D01*
X150991266Y-64211590D02*
X150896028Y-64163971D01*
X150896028Y-64163971D02*
X150705552Y-64163971D01*
X150705552Y-64163971D02*
X150610314Y-64211590D01*
X150610314Y-64211590D02*
X150562695Y-64259209D01*
X150562695Y-64259209D02*
X150515076Y-64354447D01*
X162075905Y-130970819D02*
X162075905Y-129970819D01*
X162075905Y-129970819D02*
X162314000Y-129970819D01*
X162314000Y-129970819D02*
X162456857Y-130018438D01*
X162456857Y-130018438D02*
X162552095Y-130113676D01*
X162552095Y-130113676D02*
X162599714Y-130208914D01*
X162599714Y-130208914D02*
X162647333Y-130399390D01*
X162647333Y-130399390D02*
X162647333Y-130542247D01*
X162647333Y-130542247D02*
X162599714Y-130732723D01*
X162599714Y-130732723D02*
X162552095Y-130827961D01*
X162552095Y-130827961D02*
X162456857Y-130923200D01*
X162456857Y-130923200D02*
X162314000Y-130970819D01*
X162314000Y-130970819D02*
X162075905Y-130970819D01*
X162980667Y-129970819D02*
X163599714Y-129970819D01*
X163599714Y-129970819D02*
X163266381Y-130351771D01*
X163266381Y-130351771D02*
X163409238Y-130351771D01*
X163409238Y-130351771D02*
X163504476Y-130399390D01*
X163504476Y-130399390D02*
X163552095Y-130447009D01*
X163552095Y-130447009D02*
X163599714Y-130542247D01*
X163599714Y-130542247D02*
X163599714Y-130780342D01*
X163599714Y-130780342D02*
X163552095Y-130875580D01*
X163552095Y-130875580D02*
X163504476Y-130923200D01*
X163504476Y-130923200D02*
X163409238Y-130970819D01*
X163409238Y-130970819D02*
X163123524Y-130970819D01*
X163123524Y-130970819D02*
X163028286Y-130923200D01*
X163028286Y-130923200D02*
X162980667Y-130875580D01*
X105265142Y-64587580D02*
X105217523Y-64635200D01*
X105217523Y-64635200D02*
X105074666Y-64682819D01*
X105074666Y-64682819D02*
X104979428Y-64682819D01*
X104979428Y-64682819D02*
X104836571Y-64635200D01*
X104836571Y-64635200D02*
X104741333Y-64539961D01*
X104741333Y-64539961D02*
X104693714Y-64444723D01*
X104693714Y-64444723D02*
X104646095Y-64254247D01*
X104646095Y-64254247D02*
X104646095Y-64111390D01*
X104646095Y-64111390D02*
X104693714Y-63920914D01*
X104693714Y-63920914D02*
X104741333Y-63825676D01*
X104741333Y-63825676D02*
X104836571Y-63730438D01*
X104836571Y-63730438D02*
X104979428Y-63682819D01*
X104979428Y-63682819D02*
X105074666Y-63682819D01*
X105074666Y-63682819D02*
X105217523Y-63730438D01*
X105217523Y-63730438D02*
X105265142Y-63778057D01*
X106217523Y-64682819D02*
X105646095Y-64682819D01*
X105931809Y-64682819D02*
X105931809Y-63682819D01*
X105931809Y-63682819D02*
X105836571Y-63825676D01*
X105836571Y-63825676D02*
X105741333Y-63920914D01*
X105741333Y-63920914D02*
X105646095Y-63968533D01*
X106598476Y-63778057D02*
X106646095Y-63730438D01*
X106646095Y-63730438D02*
X106741333Y-63682819D01*
X106741333Y-63682819D02*
X106979428Y-63682819D01*
X106979428Y-63682819D02*
X107074666Y-63730438D01*
X107074666Y-63730438D02*
X107122285Y-63778057D01*
X107122285Y-63778057D02*
X107169904Y-63873295D01*
X107169904Y-63873295D02*
X107169904Y-63968533D01*
X107169904Y-63968533D02*
X107122285Y-64111390D01*
X107122285Y-64111390D02*
X106550857Y-64682819D01*
X106550857Y-64682819D02*
X107169904Y-64682819D01*
X93087619Y-123305866D02*
X92611428Y-123639199D01*
X93087619Y-123877294D02*
X92087619Y-123877294D01*
X92087619Y-123877294D02*
X92087619Y-123496342D01*
X92087619Y-123496342D02*
X92135238Y-123401104D01*
X92135238Y-123401104D02*
X92182857Y-123353485D01*
X92182857Y-123353485D02*
X92278095Y-123305866D01*
X92278095Y-123305866D02*
X92420952Y-123305866D01*
X92420952Y-123305866D02*
X92516190Y-123353485D01*
X92516190Y-123353485D02*
X92563809Y-123401104D01*
X92563809Y-123401104D02*
X92611428Y-123496342D01*
X92611428Y-123496342D02*
X92611428Y-123877294D01*
X92087619Y-122401104D02*
X92087619Y-122877294D01*
X92087619Y-122877294D02*
X92563809Y-122924913D01*
X92563809Y-122924913D02*
X92516190Y-122877294D01*
X92516190Y-122877294D02*
X92468571Y-122782056D01*
X92468571Y-122782056D02*
X92468571Y-122543961D01*
X92468571Y-122543961D02*
X92516190Y-122448723D01*
X92516190Y-122448723D02*
X92563809Y-122401104D01*
X92563809Y-122401104D02*
X92659047Y-122353485D01*
X92659047Y-122353485D02*
X92897142Y-122353485D01*
X92897142Y-122353485D02*
X92992380Y-122401104D01*
X92992380Y-122401104D02*
X93040000Y-122448723D01*
X93040000Y-122448723D02*
X93087619Y-122543961D01*
X93087619Y-122543961D02*
X93087619Y-122782056D01*
X93087619Y-122782056D02*
X93040000Y-122877294D01*
X93040000Y-122877294D02*
X92992380Y-122924913D01*
X122968942Y-98656180D02*
X122921323Y-98703800D01*
X122921323Y-98703800D02*
X122778466Y-98751419D01*
X122778466Y-98751419D02*
X122683228Y-98751419D01*
X122683228Y-98751419D02*
X122540371Y-98703800D01*
X122540371Y-98703800D02*
X122445133Y-98608561D01*
X122445133Y-98608561D02*
X122397514Y-98513323D01*
X122397514Y-98513323D02*
X122349895Y-98322847D01*
X122349895Y-98322847D02*
X122349895Y-98179990D01*
X122349895Y-98179990D02*
X122397514Y-97989514D01*
X122397514Y-97989514D02*
X122445133Y-97894276D01*
X122445133Y-97894276D02*
X122540371Y-97799038D01*
X122540371Y-97799038D02*
X122683228Y-97751419D01*
X122683228Y-97751419D02*
X122778466Y-97751419D01*
X122778466Y-97751419D02*
X122921323Y-97799038D01*
X122921323Y-97799038D02*
X122968942Y-97846657D01*
X123921323Y-98751419D02*
X123349895Y-98751419D01*
X123635609Y-98751419D02*
X123635609Y-97751419D01*
X123635609Y-97751419D02*
X123540371Y-97894276D01*
X123540371Y-97894276D02*
X123445133Y-97989514D01*
X123445133Y-97989514D02*
X123349895Y-98037133D01*
X124397514Y-98751419D02*
X124587990Y-98751419D01*
X124587990Y-98751419D02*
X124683228Y-98703800D01*
X124683228Y-98703800D02*
X124730847Y-98656180D01*
X124730847Y-98656180D02*
X124826085Y-98513323D01*
X124826085Y-98513323D02*
X124873704Y-98322847D01*
X124873704Y-98322847D02*
X124873704Y-97941895D01*
X124873704Y-97941895D02*
X124826085Y-97846657D01*
X124826085Y-97846657D02*
X124778466Y-97799038D01*
X124778466Y-97799038D02*
X124683228Y-97751419D01*
X124683228Y-97751419D02*
X124492752Y-97751419D01*
X124492752Y-97751419D02*
X124397514Y-97799038D01*
X124397514Y-97799038D02*
X124349895Y-97846657D01*
X124349895Y-97846657D02*
X124302276Y-97941895D01*
X124302276Y-97941895D02*
X124302276Y-98179990D01*
X124302276Y-98179990D02*
X124349895Y-98275228D01*
X124349895Y-98275228D02*
X124397514Y-98322847D01*
X124397514Y-98322847D02*
X124492752Y-98370466D01*
X124492752Y-98370466D02*
X124683228Y-98370466D01*
X124683228Y-98370466D02*
X124778466Y-98322847D01*
X124778466Y-98322847D02*
X124826085Y-98275228D01*
X124826085Y-98275228D02*
X124873704Y-98179990D01*
X165310742Y-105834419D02*
X164977409Y-105358228D01*
X164739314Y-105834419D02*
X164739314Y-104834419D01*
X164739314Y-104834419D02*
X165120266Y-104834419D01*
X165120266Y-104834419D02*
X165215504Y-104882038D01*
X165215504Y-104882038D02*
X165263123Y-104929657D01*
X165263123Y-104929657D02*
X165310742Y-105024895D01*
X165310742Y-105024895D02*
X165310742Y-105167752D01*
X165310742Y-105167752D02*
X165263123Y-105262990D01*
X165263123Y-105262990D02*
X165215504Y-105310609D01*
X165215504Y-105310609D02*
X165120266Y-105358228D01*
X165120266Y-105358228D02*
X164739314Y-105358228D01*
X166263123Y-105834419D02*
X165691695Y-105834419D01*
X165977409Y-105834419D02*
X165977409Y-104834419D01*
X165977409Y-104834419D02*
X165882171Y-104977276D01*
X165882171Y-104977276D02*
X165786933Y-105072514D01*
X165786933Y-105072514D02*
X165691695Y-105120133D01*
X166834552Y-105262990D02*
X166739314Y-105215371D01*
X166739314Y-105215371D02*
X166691695Y-105167752D01*
X166691695Y-105167752D02*
X166644076Y-105072514D01*
X166644076Y-105072514D02*
X166644076Y-105024895D01*
X166644076Y-105024895D02*
X166691695Y-104929657D01*
X166691695Y-104929657D02*
X166739314Y-104882038D01*
X166739314Y-104882038D02*
X166834552Y-104834419D01*
X166834552Y-104834419D02*
X167025028Y-104834419D01*
X167025028Y-104834419D02*
X167120266Y-104882038D01*
X167120266Y-104882038D02*
X167167885Y-104929657D01*
X167167885Y-104929657D02*
X167215504Y-105024895D01*
X167215504Y-105024895D02*
X167215504Y-105072514D01*
X167215504Y-105072514D02*
X167167885Y-105167752D01*
X167167885Y-105167752D02*
X167120266Y-105215371D01*
X167120266Y-105215371D02*
X167025028Y-105262990D01*
X167025028Y-105262990D02*
X166834552Y-105262990D01*
X166834552Y-105262990D02*
X166739314Y-105310609D01*
X166739314Y-105310609D02*
X166691695Y-105358228D01*
X166691695Y-105358228D02*
X166644076Y-105453466D01*
X166644076Y-105453466D02*
X166644076Y-105643942D01*
X166644076Y-105643942D02*
X166691695Y-105739180D01*
X166691695Y-105739180D02*
X166739314Y-105786800D01*
X166739314Y-105786800D02*
X166834552Y-105834419D01*
X166834552Y-105834419D02*
X167025028Y-105834419D01*
X167025028Y-105834419D02*
X167120266Y-105786800D01*
X167120266Y-105786800D02*
X167167885Y-105739180D01*
X167167885Y-105739180D02*
X167215504Y-105643942D01*
X167215504Y-105643942D02*
X167215504Y-105453466D01*
X167215504Y-105453466D02*
X167167885Y-105358228D01*
X167167885Y-105358228D02*
X167120266Y-105310609D01*
X167120266Y-105310609D02*
X167025028Y-105262990D01*
X133922705Y-137076419D02*
X133922705Y-136076419D01*
X133922705Y-136076419D02*
X134160800Y-136076419D01*
X134160800Y-136076419D02*
X134303657Y-136124038D01*
X134303657Y-136124038D02*
X134398895Y-136219276D01*
X134398895Y-136219276D02*
X134446514Y-136314514D01*
X134446514Y-136314514D02*
X134494133Y-136504990D01*
X134494133Y-136504990D02*
X134494133Y-136647847D01*
X134494133Y-136647847D02*
X134446514Y-136838323D01*
X134446514Y-136838323D02*
X134398895Y-136933561D01*
X134398895Y-136933561D02*
X134303657Y-137028800D01*
X134303657Y-137028800D02*
X134160800Y-137076419D01*
X134160800Y-137076419D02*
X133922705Y-137076419D01*
X135398895Y-136076419D02*
X134922705Y-136076419D01*
X134922705Y-136076419D02*
X134875086Y-136552609D01*
X134875086Y-136552609D02*
X134922705Y-136504990D01*
X134922705Y-136504990D02*
X135017943Y-136457371D01*
X135017943Y-136457371D02*
X135256038Y-136457371D01*
X135256038Y-136457371D02*
X135351276Y-136504990D01*
X135351276Y-136504990D02*
X135398895Y-136552609D01*
X135398895Y-136552609D02*
X135446514Y-136647847D01*
X135446514Y-136647847D02*
X135446514Y-136885942D01*
X135446514Y-136885942D02*
X135398895Y-136981180D01*
X135398895Y-136981180D02*
X135351276Y-137028800D01*
X135351276Y-137028800D02*
X135256038Y-137076419D01*
X135256038Y-137076419D02*
X135017943Y-137076419D01*
X135017943Y-137076419D02*
X134922705Y-137028800D01*
X134922705Y-137028800D02*
X134875086Y-136981180D01*
X139017819Y-45102123D02*
X139732104Y-45102123D01*
X139732104Y-45102123D02*
X139874961Y-45149742D01*
X139874961Y-45149742D02*
X139970200Y-45244980D01*
X139970200Y-45244980D02*
X140017819Y-45387837D01*
X140017819Y-45387837D02*
X140017819Y-45483075D01*
X140017819Y-44102123D02*
X140017819Y-44673551D01*
X140017819Y-44387837D02*
X139017819Y-44387837D01*
X139017819Y-44387837D02*
X139160676Y-44483075D01*
X139160676Y-44483075D02*
X139255914Y-44578313D01*
X139255914Y-44578313D02*
X139303533Y-44673551D01*
X139017819Y-43768789D02*
X139017819Y-43149742D01*
X139017819Y-43149742D02*
X139398771Y-43483075D01*
X139398771Y-43483075D02*
X139398771Y-43340218D01*
X139398771Y-43340218D02*
X139446390Y-43244980D01*
X139446390Y-43244980D02*
X139494009Y-43197361D01*
X139494009Y-43197361D02*
X139589247Y-43149742D01*
X139589247Y-43149742D02*
X139827342Y-43149742D01*
X139827342Y-43149742D02*
X139922580Y-43197361D01*
X139922580Y-43197361D02*
X139970200Y-43244980D01*
X139970200Y-43244980D02*
X140017819Y-43340218D01*
X140017819Y-43340218D02*
X140017819Y-43625932D01*
X140017819Y-43625932D02*
X139970200Y-43721170D01*
X139970200Y-43721170D02*
X139922580Y-43768789D01*
X120052419Y-72367457D02*
X119576228Y-72700790D01*
X120052419Y-72938885D02*
X119052419Y-72938885D01*
X119052419Y-72938885D02*
X119052419Y-72557933D01*
X119052419Y-72557933D02*
X119100038Y-72462695D01*
X119100038Y-72462695D02*
X119147657Y-72415076D01*
X119147657Y-72415076D02*
X119242895Y-72367457D01*
X119242895Y-72367457D02*
X119385752Y-72367457D01*
X119385752Y-72367457D02*
X119480990Y-72415076D01*
X119480990Y-72415076D02*
X119528609Y-72462695D01*
X119528609Y-72462695D02*
X119576228Y-72557933D01*
X119576228Y-72557933D02*
X119576228Y-72938885D01*
X120052419Y-71415076D02*
X120052419Y-71986504D01*
X120052419Y-71700790D02*
X119052419Y-71700790D01*
X119052419Y-71700790D02*
X119195276Y-71796028D01*
X119195276Y-71796028D02*
X119290514Y-71891266D01*
X119290514Y-71891266D02*
X119338133Y-71986504D01*
X119052419Y-71081742D02*
X119052419Y-70462695D01*
X119052419Y-70462695D02*
X119433371Y-70796028D01*
X119433371Y-70796028D02*
X119433371Y-70653171D01*
X119433371Y-70653171D02*
X119480990Y-70557933D01*
X119480990Y-70557933D02*
X119528609Y-70510314D01*
X119528609Y-70510314D02*
X119623847Y-70462695D01*
X119623847Y-70462695D02*
X119861942Y-70462695D01*
X119861942Y-70462695D02*
X119957180Y-70510314D01*
X119957180Y-70510314D02*
X120004800Y-70557933D01*
X120004800Y-70557933D02*
X120052419Y-70653171D01*
X120052419Y-70653171D02*
X120052419Y-70938885D01*
X120052419Y-70938885D02*
X120004800Y-71034123D01*
X120004800Y-71034123D02*
X119957180Y-71081742D01*
X108184152Y-59180522D02*
X107707961Y-59513855D01*
X108184152Y-59751950D02*
X107184152Y-59751950D01*
X107184152Y-59751950D02*
X107184152Y-59370998D01*
X107184152Y-59370998D02*
X107231771Y-59275760D01*
X107231771Y-59275760D02*
X107279390Y-59228141D01*
X107279390Y-59228141D02*
X107374628Y-59180522D01*
X107374628Y-59180522D02*
X107517485Y-59180522D01*
X107517485Y-59180522D02*
X107612723Y-59228141D01*
X107612723Y-59228141D02*
X107660342Y-59275760D01*
X107660342Y-59275760D02*
X107707961Y-59370998D01*
X107707961Y-59370998D02*
X107707961Y-59751950D01*
X107517485Y-58323379D02*
X108184152Y-58323379D01*
X107136533Y-58561474D02*
X107850818Y-58799569D01*
X107850818Y-58799569D02*
X107850818Y-58180522D01*
X104882152Y-59129722D02*
X104405961Y-59463055D01*
X104882152Y-59701150D02*
X103882152Y-59701150D01*
X103882152Y-59701150D02*
X103882152Y-59320198D01*
X103882152Y-59320198D02*
X103929771Y-59224960D01*
X103929771Y-59224960D02*
X103977390Y-59177341D01*
X103977390Y-59177341D02*
X104072628Y-59129722D01*
X104072628Y-59129722D02*
X104215485Y-59129722D01*
X104215485Y-59129722D02*
X104310723Y-59177341D01*
X104310723Y-59177341D02*
X104358342Y-59224960D01*
X104358342Y-59224960D02*
X104405961Y-59320198D01*
X104405961Y-59320198D02*
X104405961Y-59701150D01*
X103882152Y-58796388D02*
X103882152Y-58177341D01*
X103882152Y-58177341D02*
X104263104Y-58510674D01*
X104263104Y-58510674D02*
X104263104Y-58367817D01*
X104263104Y-58367817D02*
X104310723Y-58272579D01*
X104310723Y-58272579D02*
X104358342Y-58224960D01*
X104358342Y-58224960D02*
X104453580Y-58177341D01*
X104453580Y-58177341D02*
X104691675Y-58177341D01*
X104691675Y-58177341D02*
X104786913Y-58224960D01*
X104786913Y-58224960D02*
X104834533Y-58272579D01*
X104834533Y-58272579D02*
X104882152Y-58367817D01*
X104882152Y-58367817D02*
X104882152Y-58653531D01*
X104882152Y-58653531D02*
X104834533Y-58748769D01*
X104834533Y-58748769D02*
X104786913Y-58796388D01*
X163602533Y-136320780D02*
X163554914Y-136368400D01*
X163554914Y-136368400D02*
X163412057Y-136416019D01*
X163412057Y-136416019D02*
X163316819Y-136416019D01*
X163316819Y-136416019D02*
X163173962Y-136368400D01*
X163173962Y-136368400D02*
X163078724Y-136273161D01*
X163078724Y-136273161D02*
X163031105Y-136177923D01*
X163031105Y-136177923D02*
X162983486Y-135987447D01*
X162983486Y-135987447D02*
X162983486Y-135844590D01*
X162983486Y-135844590D02*
X163031105Y-135654114D01*
X163031105Y-135654114D02*
X163078724Y-135558876D01*
X163078724Y-135558876D02*
X163173962Y-135463638D01*
X163173962Y-135463638D02*
X163316819Y-135416019D01*
X163316819Y-135416019D02*
X163412057Y-135416019D01*
X163412057Y-135416019D02*
X163554914Y-135463638D01*
X163554914Y-135463638D02*
X163602533Y-135511257D01*
X163935867Y-135416019D02*
X164602533Y-135416019D01*
X164602533Y-135416019D02*
X164173962Y-136416019D01*
X168675380Y-57076657D02*
X168723000Y-57124276D01*
X168723000Y-57124276D02*
X168770619Y-57267133D01*
X168770619Y-57267133D02*
X168770619Y-57362371D01*
X168770619Y-57362371D02*
X168723000Y-57505228D01*
X168723000Y-57505228D02*
X168627761Y-57600466D01*
X168627761Y-57600466D02*
X168532523Y-57648085D01*
X168532523Y-57648085D02*
X168342047Y-57695704D01*
X168342047Y-57695704D02*
X168199190Y-57695704D01*
X168199190Y-57695704D02*
X168008714Y-57648085D01*
X168008714Y-57648085D02*
X167913476Y-57600466D01*
X167913476Y-57600466D02*
X167818238Y-57505228D01*
X167818238Y-57505228D02*
X167770619Y-57362371D01*
X167770619Y-57362371D02*
X167770619Y-57267133D01*
X167770619Y-57267133D02*
X167818238Y-57124276D01*
X167818238Y-57124276D02*
X167865857Y-57076657D01*
X168770619Y-56124276D02*
X168770619Y-56695704D01*
X168770619Y-56409990D02*
X167770619Y-56409990D01*
X167770619Y-56409990D02*
X167913476Y-56505228D01*
X167913476Y-56505228D02*
X168008714Y-56600466D01*
X168008714Y-56600466D02*
X168056333Y-56695704D01*
X167770619Y-55505228D02*
X167770619Y-55409990D01*
X167770619Y-55409990D02*
X167818238Y-55314752D01*
X167818238Y-55314752D02*
X167865857Y-55267133D01*
X167865857Y-55267133D02*
X167961095Y-55219514D01*
X167961095Y-55219514D02*
X168151571Y-55171895D01*
X168151571Y-55171895D02*
X168389666Y-55171895D01*
X168389666Y-55171895D02*
X168580142Y-55219514D01*
X168580142Y-55219514D02*
X168675380Y-55267133D01*
X168675380Y-55267133D02*
X168723000Y-55314752D01*
X168723000Y-55314752D02*
X168770619Y-55409990D01*
X168770619Y-55409990D02*
X168770619Y-55505228D01*
X168770619Y-55505228D02*
X168723000Y-55600466D01*
X168723000Y-55600466D02*
X168675380Y-55648085D01*
X168675380Y-55648085D02*
X168580142Y-55695704D01*
X168580142Y-55695704D02*
X168389666Y-55743323D01*
X168389666Y-55743323D02*
X168151571Y-55743323D01*
X168151571Y-55743323D02*
X167961095Y-55695704D01*
X167961095Y-55695704D02*
X167865857Y-55648085D01*
X167865857Y-55648085D02*
X167818238Y-55600466D01*
X167818238Y-55600466D02*
X167770619Y-55505228D01*
X109307333Y-127688380D02*
X109259714Y-127736000D01*
X109259714Y-127736000D02*
X109116857Y-127783619D01*
X109116857Y-127783619D02*
X109021619Y-127783619D01*
X109021619Y-127783619D02*
X108878762Y-127736000D01*
X108878762Y-127736000D02*
X108783524Y-127640761D01*
X108783524Y-127640761D02*
X108735905Y-127545523D01*
X108735905Y-127545523D02*
X108688286Y-127355047D01*
X108688286Y-127355047D02*
X108688286Y-127212190D01*
X108688286Y-127212190D02*
X108735905Y-127021714D01*
X108735905Y-127021714D02*
X108783524Y-126926476D01*
X108783524Y-126926476D02*
X108878762Y-126831238D01*
X108878762Y-126831238D02*
X109021619Y-126783619D01*
X109021619Y-126783619D02*
X109116857Y-126783619D01*
X109116857Y-126783619D02*
X109259714Y-126831238D01*
X109259714Y-126831238D02*
X109307333Y-126878857D01*
X110164476Y-126783619D02*
X109974000Y-126783619D01*
X109974000Y-126783619D02*
X109878762Y-126831238D01*
X109878762Y-126831238D02*
X109831143Y-126878857D01*
X109831143Y-126878857D02*
X109735905Y-127021714D01*
X109735905Y-127021714D02*
X109688286Y-127212190D01*
X109688286Y-127212190D02*
X109688286Y-127593142D01*
X109688286Y-127593142D02*
X109735905Y-127688380D01*
X109735905Y-127688380D02*
X109783524Y-127736000D01*
X109783524Y-127736000D02*
X109878762Y-127783619D01*
X109878762Y-127783619D02*
X110069238Y-127783619D01*
X110069238Y-127783619D02*
X110164476Y-127736000D01*
X110164476Y-127736000D02*
X110212095Y-127688380D01*
X110212095Y-127688380D02*
X110259714Y-127593142D01*
X110259714Y-127593142D02*
X110259714Y-127355047D01*
X110259714Y-127355047D02*
X110212095Y-127259809D01*
X110212095Y-127259809D02*
X110164476Y-127212190D01*
X110164476Y-127212190D02*
X110069238Y-127164571D01*
X110069238Y-127164571D02*
X109878762Y-127164571D01*
X109878762Y-127164571D02*
X109783524Y-127212190D01*
X109783524Y-127212190D02*
X109735905Y-127259809D01*
X109735905Y-127259809D02*
X109688286Y-127355047D01*
X123307380Y-72926257D02*
X123355000Y-72973876D01*
X123355000Y-72973876D02*
X123402619Y-73116733D01*
X123402619Y-73116733D02*
X123402619Y-73211971D01*
X123402619Y-73211971D02*
X123355000Y-73354828D01*
X123355000Y-73354828D02*
X123259761Y-73450066D01*
X123259761Y-73450066D02*
X123164523Y-73497685D01*
X123164523Y-73497685D02*
X122974047Y-73545304D01*
X122974047Y-73545304D02*
X122831190Y-73545304D01*
X122831190Y-73545304D02*
X122640714Y-73497685D01*
X122640714Y-73497685D02*
X122545476Y-73450066D01*
X122545476Y-73450066D02*
X122450238Y-73354828D01*
X122450238Y-73354828D02*
X122402619Y-73211971D01*
X122402619Y-73211971D02*
X122402619Y-73116733D01*
X122402619Y-73116733D02*
X122450238Y-72973876D01*
X122450238Y-72973876D02*
X122497857Y-72926257D01*
X123402619Y-71973876D02*
X123402619Y-72545304D01*
X123402619Y-72259590D02*
X122402619Y-72259590D01*
X122402619Y-72259590D02*
X122545476Y-72354828D01*
X122545476Y-72354828D02*
X122640714Y-72450066D01*
X122640714Y-72450066D02*
X122688333Y-72545304D01*
X122402619Y-71640542D02*
X122402619Y-70973876D01*
X122402619Y-70973876D02*
X123402619Y-71402447D01*
X115624419Y-46556333D02*
X116338704Y-46556333D01*
X116338704Y-46556333D02*
X116481561Y-46603952D01*
X116481561Y-46603952D02*
X116576800Y-46699190D01*
X116576800Y-46699190D02*
X116624419Y-46842047D01*
X116624419Y-46842047D02*
X116624419Y-46937285D01*
X115624419Y-46175380D02*
X115624419Y-45508714D01*
X115624419Y-45508714D02*
X116624419Y-45937285D01*
X157455733Y-114470419D02*
X157122400Y-113994228D01*
X156884305Y-114470419D02*
X156884305Y-113470419D01*
X156884305Y-113470419D02*
X157265257Y-113470419D01*
X157265257Y-113470419D02*
X157360495Y-113518038D01*
X157360495Y-113518038D02*
X157408114Y-113565657D01*
X157408114Y-113565657D02*
X157455733Y-113660895D01*
X157455733Y-113660895D02*
X157455733Y-113803752D01*
X157455733Y-113803752D02*
X157408114Y-113898990D01*
X157408114Y-113898990D02*
X157360495Y-113946609D01*
X157360495Y-113946609D02*
X157265257Y-113994228D01*
X157265257Y-113994228D02*
X156884305Y-113994228D01*
X157789067Y-113470419D02*
X158455733Y-113470419D01*
X158455733Y-113470419D02*
X158027162Y-114470419D01*
X150002495Y-106714019D02*
X150002495Y-107523542D01*
X150002495Y-107523542D02*
X150050114Y-107618780D01*
X150050114Y-107618780D02*
X150097733Y-107666400D01*
X150097733Y-107666400D02*
X150192971Y-107714019D01*
X150192971Y-107714019D02*
X150383447Y-107714019D01*
X150383447Y-107714019D02*
X150478685Y-107666400D01*
X150478685Y-107666400D02*
X150526304Y-107618780D01*
X150526304Y-107618780D02*
X150573923Y-107523542D01*
X150573923Y-107523542D02*
X150573923Y-106714019D01*
X151478685Y-107047352D02*
X151478685Y-107714019D01*
X151240590Y-106666400D02*
X151002495Y-107380685D01*
X151002495Y-107380685D02*
X151621542Y-107380685D01*
X148901666Y-129346819D02*
X148901666Y-130061104D01*
X148901666Y-130061104D02*
X148854047Y-130203961D01*
X148854047Y-130203961D02*
X148758809Y-130299200D01*
X148758809Y-130299200D02*
X148615952Y-130346819D01*
X148615952Y-130346819D02*
X148520714Y-130346819D01*
X149854047Y-129346819D02*
X149377857Y-129346819D01*
X149377857Y-129346819D02*
X149330238Y-129823009D01*
X149330238Y-129823009D02*
X149377857Y-129775390D01*
X149377857Y-129775390D02*
X149473095Y-129727771D01*
X149473095Y-129727771D02*
X149711190Y-129727771D01*
X149711190Y-129727771D02*
X149806428Y-129775390D01*
X149806428Y-129775390D02*
X149854047Y-129823009D01*
X149854047Y-129823009D02*
X149901666Y-129918247D01*
X149901666Y-129918247D02*
X149901666Y-130156342D01*
X149901666Y-130156342D02*
X149854047Y-130251580D01*
X149854047Y-130251580D02*
X149806428Y-130299200D01*
X149806428Y-130299200D02*
X149711190Y-130346819D01*
X149711190Y-130346819D02*
X149473095Y-130346819D01*
X149473095Y-130346819D02*
X149377857Y-130299200D01*
X149377857Y-130299200D02*
X149330238Y-130251580D01*
X147175142Y-80034380D02*
X147127523Y-80082000D01*
X147127523Y-80082000D02*
X146984666Y-80129619D01*
X146984666Y-80129619D02*
X146889428Y-80129619D01*
X146889428Y-80129619D02*
X146746571Y-80082000D01*
X146746571Y-80082000D02*
X146651333Y-79986761D01*
X146651333Y-79986761D02*
X146603714Y-79891523D01*
X146603714Y-79891523D02*
X146556095Y-79701047D01*
X146556095Y-79701047D02*
X146556095Y-79558190D01*
X146556095Y-79558190D02*
X146603714Y-79367714D01*
X146603714Y-79367714D02*
X146651333Y-79272476D01*
X146651333Y-79272476D02*
X146746571Y-79177238D01*
X146746571Y-79177238D02*
X146889428Y-79129619D01*
X146889428Y-79129619D02*
X146984666Y-79129619D01*
X146984666Y-79129619D02*
X147127523Y-79177238D01*
X147127523Y-79177238D02*
X147175142Y-79224857D01*
X148127523Y-80129619D02*
X147556095Y-80129619D01*
X147841809Y-80129619D02*
X147841809Y-79129619D01*
X147841809Y-79129619D02*
X147746571Y-79272476D01*
X147746571Y-79272476D02*
X147651333Y-79367714D01*
X147651333Y-79367714D02*
X147556095Y-79415333D01*
X149032285Y-79129619D02*
X148556095Y-79129619D01*
X148556095Y-79129619D02*
X148508476Y-79605809D01*
X148508476Y-79605809D02*
X148556095Y-79558190D01*
X148556095Y-79558190D02*
X148651333Y-79510571D01*
X148651333Y-79510571D02*
X148889428Y-79510571D01*
X148889428Y-79510571D02*
X148984666Y-79558190D01*
X148984666Y-79558190D02*
X149032285Y-79605809D01*
X149032285Y-79605809D02*
X149079904Y-79701047D01*
X149079904Y-79701047D02*
X149079904Y-79939142D01*
X149079904Y-79939142D02*
X149032285Y-80034380D01*
X149032285Y-80034380D02*
X148984666Y-80082000D01*
X148984666Y-80082000D02*
X148889428Y-80129619D01*
X148889428Y-80129619D02*
X148651333Y-80129619D01*
X148651333Y-80129619D02*
X148556095Y-80082000D01*
X148556095Y-80082000D02*
X148508476Y-80034380D01*
X84451866Y-113443219D02*
X84451866Y-114157504D01*
X84451866Y-114157504D02*
X84404247Y-114300361D01*
X84404247Y-114300361D02*
X84309009Y-114395600D01*
X84309009Y-114395600D02*
X84166152Y-114443219D01*
X84166152Y-114443219D02*
X84070914Y-114443219D01*
X85070914Y-113871790D02*
X84975676Y-113824171D01*
X84975676Y-113824171D02*
X84928057Y-113776552D01*
X84928057Y-113776552D02*
X84880438Y-113681314D01*
X84880438Y-113681314D02*
X84880438Y-113633695D01*
X84880438Y-113633695D02*
X84928057Y-113538457D01*
X84928057Y-113538457D02*
X84975676Y-113490838D01*
X84975676Y-113490838D02*
X85070914Y-113443219D01*
X85070914Y-113443219D02*
X85261390Y-113443219D01*
X85261390Y-113443219D02*
X85356628Y-113490838D01*
X85356628Y-113490838D02*
X85404247Y-113538457D01*
X85404247Y-113538457D02*
X85451866Y-113633695D01*
X85451866Y-113633695D02*
X85451866Y-113681314D01*
X85451866Y-113681314D02*
X85404247Y-113776552D01*
X85404247Y-113776552D02*
X85356628Y-113824171D01*
X85356628Y-113824171D02*
X85261390Y-113871790D01*
X85261390Y-113871790D02*
X85070914Y-113871790D01*
X85070914Y-113871790D02*
X84975676Y-113919409D01*
X84975676Y-113919409D02*
X84928057Y-113967028D01*
X84928057Y-113967028D02*
X84880438Y-114062266D01*
X84880438Y-114062266D02*
X84880438Y-114252742D01*
X84880438Y-114252742D02*
X84928057Y-114347980D01*
X84928057Y-114347980D02*
X84975676Y-114395600D01*
X84975676Y-114395600D02*
X85070914Y-114443219D01*
X85070914Y-114443219D02*
X85261390Y-114443219D01*
X85261390Y-114443219D02*
X85356628Y-114395600D01*
X85356628Y-114395600D02*
X85404247Y-114347980D01*
X85404247Y-114347980D02*
X85451866Y-114252742D01*
X85451866Y-114252742D02*
X85451866Y-114062266D01*
X85451866Y-114062266D02*
X85404247Y-113967028D01*
X85404247Y-113967028D02*
X85356628Y-113919409D01*
X85356628Y-113919409D02*
X85261390Y-113871790D01*
X94221619Y-103768266D02*
X93745428Y-104101599D01*
X94221619Y-104339694D02*
X93221619Y-104339694D01*
X93221619Y-104339694D02*
X93221619Y-103958742D01*
X93221619Y-103958742D02*
X93269238Y-103863504D01*
X93269238Y-103863504D02*
X93316857Y-103815885D01*
X93316857Y-103815885D02*
X93412095Y-103768266D01*
X93412095Y-103768266D02*
X93554952Y-103768266D01*
X93554952Y-103768266D02*
X93650190Y-103815885D01*
X93650190Y-103815885D02*
X93697809Y-103863504D01*
X93697809Y-103863504D02*
X93745428Y-103958742D01*
X93745428Y-103958742D02*
X93745428Y-104339694D01*
X94221619Y-102815885D02*
X94221619Y-103387313D01*
X94221619Y-103101599D02*
X93221619Y-103101599D01*
X93221619Y-103101599D02*
X93364476Y-103196837D01*
X93364476Y-103196837D02*
X93459714Y-103292075D01*
X93459714Y-103292075D02*
X93507333Y-103387313D01*
X84695866Y-72500219D02*
X84695866Y-73214504D01*
X84695866Y-73214504D02*
X84648247Y-73357361D01*
X84648247Y-73357361D02*
X84553009Y-73452600D01*
X84553009Y-73452600D02*
X84410152Y-73500219D01*
X84410152Y-73500219D02*
X84314914Y-73500219D01*
X85600628Y-72500219D02*
X85410152Y-72500219D01*
X85410152Y-72500219D02*
X85314914Y-72547838D01*
X85314914Y-72547838D02*
X85267295Y-72595457D01*
X85267295Y-72595457D02*
X85172057Y-72738314D01*
X85172057Y-72738314D02*
X85124438Y-72928790D01*
X85124438Y-72928790D02*
X85124438Y-73309742D01*
X85124438Y-73309742D02*
X85172057Y-73404980D01*
X85172057Y-73404980D02*
X85219676Y-73452600D01*
X85219676Y-73452600D02*
X85314914Y-73500219D01*
X85314914Y-73500219D02*
X85505390Y-73500219D01*
X85505390Y-73500219D02*
X85600628Y-73452600D01*
X85600628Y-73452600D02*
X85648247Y-73404980D01*
X85648247Y-73404980D02*
X85695866Y-73309742D01*
X85695866Y-73309742D02*
X85695866Y-73071647D01*
X85695866Y-73071647D02*
X85648247Y-72976409D01*
X85648247Y-72976409D02*
X85600628Y-72928790D01*
X85600628Y-72928790D02*
X85505390Y-72881171D01*
X85505390Y-72881171D02*
X85314914Y-72881171D01*
X85314914Y-72881171D02*
X85219676Y-72928790D01*
X85219676Y-72928790D02*
X85172057Y-72976409D01*
X85172057Y-72976409D02*
X85124438Y-73071647D01*
X165361542Y-103446819D02*
X165028209Y-102970628D01*
X164790114Y-103446819D02*
X164790114Y-102446819D01*
X164790114Y-102446819D02*
X165171066Y-102446819D01*
X165171066Y-102446819D02*
X165266304Y-102494438D01*
X165266304Y-102494438D02*
X165313923Y-102542057D01*
X165313923Y-102542057D02*
X165361542Y-102637295D01*
X165361542Y-102637295D02*
X165361542Y-102780152D01*
X165361542Y-102780152D02*
X165313923Y-102875390D01*
X165313923Y-102875390D02*
X165266304Y-102923009D01*
X165266304Y-102923009D02*
X165171066Y-102970628D01*
X165171066Y-102970628D02*
X164790114Y-102970628D01*
X166313923Y-103446819D02*
X165742495Y-103446819D01*
X166028209Y-103446819D02*
X166028209Y-102446819D01*
X166028209Y-102446819D02*
X165932971Y-102589676D01*
X165932971Y-102589676D02*
X165837733Y-102684914D01*
X165837733Y-102684914D02*
X165742495Y-102732533D01*
X166647257Y-102446819D02*
X167313923Y-102446819D01*
X167313923Y-102446819D02*
X166885352Y-103446819D01*
X147149742Y-78053180D02*
X147102123Y-78100800D01*
X147102123Y-78100800D02*
X146959266Y-78148419D01*
X146959266Y-78148419D02*
X146864028Y-78148419D01*
X146864028Y-78148419D02*
X146721171Y-78100800D01*
X146721171Y-78100800D02*
X146625933Y-78005561D01*
X146625933Y-78005561D02*
X146578314Y-77910323D01*
X146578314Y-77910323D02*
X146530695Y-77719847D01*
X146530695Y-77719847D02*
X146530695Y-77576990D01*
X146530695Y-77576990D02*
X146578314Y-77386514D01*
X146578314Y-77386514D02*
X146625933Y-77291276D01*
X146625933Y-77291276D02*
X146721171Y-77196038D01*
X146721171Y-77196038D02*
X146864028Y-77148419D01*
X146864028Y-77148419D02*
X146959266Y-77148419D01*
X146959266Y-77148419D02*
X147102123Y-77196038D01*
X147102123Y-77196038D02*
X147149742Y-77243657D01*
X147530695Y-77243657D02*
X147578314Y-77196038D01*
X147578314Y-77196038D02*
X147673552Y-77148419D01*
X147673552Y-77148419D02*
X147911647Y-77148419D01*
X147911647Y-77148419D02*
X148006885Y-77196038D01*
X148006885Y-77196038D02*
X148054504Y-77243657D01*
X148054504Y-77243657D02*
X148102123Y-77338895D01*
X148102123Y-77338895D02*
X148102123Y-77434133D01*
X148102123Y-77434133D02*
X148054504Y-77576990D01*
X148054504Y-77576990D02*
X147483076Y-78148419D01*
X147483076Y-78148419D02*
X148102123Y-78148419D01*
X148483076Y-77243657D02*
X148530695Y-77196038D01*
X148530695Y-77196038D02*
X148625933Y-77148419D01*
X148625933Y-77148419D02*
X148864028Y-77148419D01*
X148864028Y-77148419D02*
X148959266Y-77196038D01*
X148959266Y-77196038D02*
X149006885Y-77243657D01*
X149006885Y-77243657D02*
X149054504Y-77338895D01*
X149054504Y-77338895D02*
X149054504Y-77434133D01*
X149054504Y-77434133D02*
X149006885Y-77576990D01*
X149006885Y-77576990D02*
X148435457Y-78148419D01*
X148435457Y-78148419D02*
X149054504Y-78148419D01*
X147575819Y-120276904D02*
X148385342Y-120276904D01*
X148385342Y-120276904D02*
X148480580Y-120229285D01*
X148480580Y-120229285D02*
X148528200Y-120181666D01*
X148528200Y-120181666D02*
X148575819Y-120086428D01*
X148575819Y-120086428D02*
X148575819Y-119895952D01*
X148575819Y-119895952D02*
X148528200Y-119800714D01*
X148528200Y-119800714D02*
X148480580Y-119753095D01*
X148480580Y-119753095D02*
X148385342Y-119705476D01*
X148385342Y-119705476D02*
X147575819Y-119705476D01*
X148575819Y-118705476D02*
X148575819Y-119276904D01*
X148575819Y-118991190D02*
X147575819Y-118991190D01*
X147575819Y-118991190D02*
X147718676Y-119086428D01*
X147718676Y-119086428D02*
X147813914Y-119181666D01*
X147813914Y-119181666D02*
X147861533Y-119276904D01*
X133183333Y-116819580D02*
X133135714Y-116867200D01*
X133135714Y-116867200D02*
X132992857Y-116914819D01*
X132992857Y-116914819D02*
X132897619Y-116914819D01*
X132897619Y-116914819D02*
X132754762Y-116867200D01*
X132754762Y-116867200D02*
X132659524Y-116771961D01*
X132659524Y-116771961D02*
X132611905Y-116676723D01*
X132611905Y-116676723D02*
X132564286Y-116486247D01*
X132564286Y-116486247D02*
X132564286Y-116343390D01*
X132564286Y-116343390D02*
X132611905Y-116152914D01*
X132611905Y-116152914D02*
X132659524Y-116057676D01*
X132659524Y-116057676D02*
X132754762Y-115962438D01*
X132754762Y-115962438D02*
X132897619Y-115914819D01*
X132897619Y-115914819D02*
X132992857Y-115914819D01*
X132992857Y-115914819D02*
X133135714Y-115962438D01*
X133135714Y-115962438D02*
X133183333Y-116010057D01*
X133564286Y-116010057D02*
X133611905Y-115962438D01*
X133611905Y-115962438D02*
X133707143Y-115914819D01*
X133707143Y-115914819D02*
X133945238Y-115914819D01*
X133945238Y-115914819D02*
X134040476Y-115962438D01*
X134040476Y-115962438D02*
X134088095Y-116010057D01*
X134088095Y-116010057D02*
X134135714Y-116105295D01*
X134135714Y-116105295D02*
X134135714Y-116200533D01*
X134135714Y-116200533D02*
X134088095Y-116343390D01*
X134088095Y-116343390D02*
X133516667Y-116914819D01*
X133516667Y-116914819D02*
X134135714Y-116914819D01*
X149969142Y-97865180D02*
X149921523Y-97912800D01*
X149921523Y-97912800D02*
X149778666Y-97960419D01*
X149778666Y-97960419D02*
X149683428Y-97960419D01*
X149683428Y-97960419D02*
X149540571Y-97912800D01*
X149540571Y-97912800D02*
X149445333Y-97817561D01*
X149445333Y-97817561D02*
X149397714Y-97722323D01*
X149397714Y-97722323D02*
X149350095Y-97531847D01*
X149350095Y-97531847D02*
X149350095Y-97388990D01*
X149350095Y-97388990D02*
X149397714Y-97198514D01*
X149397714Y-97198514D02*
X149445333Y-97103276D01*
X149445333Y-97103276D02*
X149540571Y-97008038D01*
X149540571Y-97008038D02*
X149683428Y-96960419D01*
X149683428Y-96960419D02*
X149778666Y-96960419D01*
X149778666Y-96960419D02*
X149921523Y-97008038D01*
X149921523Y-97008038D02*
X149969142Y-97055657D01*
X150921523Y-97960419D02*
X150350095Y-97960419D01*
X150635809Y-97960419D02*
X150635809Y-96960419D01*
X150635809Y-96960419D02*
X150540571Y-97103276D01*
X150540571Y-97103276D02*
X150445333Y-97198514D01*
X150445333Y-97198514D02*
X150350095Y-97246133D01*
X151778666Y-96960419D02*
X151588190Y-96960419D01*
X151588190Y-96960419D02*
X151492952Y-97008038D01*
X151492952Y-97008038D02*
X151445333Y-97055657D01*
X151445333Y-97055657D02*
X151350095Y-97198514D01*
X151350095Y-97198514D02*
X151302476Y-97388990D01*
X151302476Y-97388990D02*
X151302476Y-97769942D01*
X151302476Y-97769942D02*
X151350095Y-97865180D01*
X151350095Y-97865180D02*
X151397714Y-97912800D01*
X151397714Y-97912800D02*
X151492952Y-97960419D01*
X151492952Y-97960419D02*
X151683428Y-97960419D01*
X151683428Y-97960419D02*
X151778666Y-97912800D01*
X151778666Y-97912800D02*
X151826285Y-97865180D01*
X151826285Y-97865180D02*
X151873904Y-97769942D01*
X151873904Y-97769942D02*
X151873904Y-97531847D01*
X151873904Y-97531847D02*
X151826285Y-97436609D01*
X151826285Y-97436609D02*
X151778666Y-97388990D01*
X151778666Y-97388990D02*
X151683428Y-97341371D01*
X151683428Y-97341371D02*
X151492952Y-97341371D01*
X151492952Y-97341371D02*
X151397714Y-97388990D01*
X151397714Y-97388990D02*
X151350095Y-97436609D01*
X151350095Y-97436609D02*
X151302476Y-97531847D01*
X139516180Y-102187057D02*
X139563800Y-102234676D01*
X139563800Y-102234676D02*
X139611419Y-102377533D01*
X139611419Y-102377533D02*
X139611419Y-102472771D01*
X139611419Y-102472771D02*
X139563800Y-102615628D01*
X139563800Y-102615628D02*
X139468561Y-102710866D01*
X139468561Y-102710866D02*
X139373323Y-102758485D01*
X139373323Y-102758485D02*
X139182847Y-102806104D01*
X139182847Y-102806104D02*
X139039990Y-102806104D01*
X139039990Y-102806104D02*
X138849514Y-102758485D01*
X138849514Y-102758485D02*
X138754276Y-102710866D01*
X138754276Y-102710866D02*
X138659038Y-102615628D01*
X138659038Y-102615628D02*
X138611419Y-102472771D01*
X138611419Y-102472771D02*
X138611419Y-102377533D01*
X138611419Y-102377533D02*
X138659038Y-102234676D01*
X138659038Y-102234676D02*
X138706657Y-102187057D01*
X138706657Y-101806104D02*
X138659038Y-101758485D01*
X138659038Y-101758485D02*
X138611419Y-101663247D01*
X138611419Y-101663247D02*
X138611419Y-101425152D01*
X138611419Y-101425152D02*
X138659038Y-101329914D01*
X138659038Y-101329914D02*
X138706657Y-101282295D01*
X138706657Y-101282295D02*
X138801895Y-101234676D01*
X138801895Y-101234676D02*
X138897133Y-101234676D01*
X138897133Y-101234676D02*
X139039990Y-101282295D01*
X139039990Y-101282295D02*
X139611419Y-101853723D01*
X139611419Y-101853723D02*
X139611419Y-101234676D01*
X138611419Y-100615628D02*
X138611419Y-100520390D01*
X138611419Y-100520390D02*
X138659038Y-100425152D01*
X138659038Y-100425152D02*
X138706657Y-100377533D01*
X138706657Y-100377533D02*
X138801895Y-100329914D01*
X138801895Y-100329914D02*
X138992371Y-100282295D01*
X138992371Y-100282295D02*
X139230466Y-100282295D01*
X139230466Y-100282295D02*
X139420942Y-100329914D01*
X139420942Y-100329914D02*
X139516180Y-100377533D01*
X139516180Y-100377533D02*
X139563800Y-100425152D01*
X139563800Y-100425152D02*
X139611419Y-100520390D01*
X139611419Y-100520390D02*
X139611419Y-100615628D01*
X139611419Y-100615628D02*
X139563800Y-100710866D01*
X139563800Y-100710866D02*
X139516180Y-100758485D01*
X139516180Y-100758485D02*
X139420942Y-100806104D01*
X139420942Y-100806104D02*
X139230466Y-100853723D01*
X139230466Y-100853723D02*
X138992371Y-100853723D01*
X138992371Y-100853723D02*
X138801895Y-100806104D01*
X138801895Y-100806104D02*
X138706657Y-100758485D01*
X138706657Y-100758485D02*
X138659038Y-100710866D01*
X138659038Y-100710866D02*
X138611419Y-100615628D01*
X89536133Y-130072380D02*
X89488514Y-130120000D01*
X89488514Y-130120000D02*
X89345657Y-130167619D01*
X89345657Y-130167619D02*
X89250419Y-130167619D01*
X89250419Y-130167619D02*
X89107562Y-130120000D01*
X89107562Y-130120000D02*
X89012324Y-130024761D01*
X89012324Y-130024761D02*
X88964705Y-129929523D01*
X88964705Y-129929523D02*
X88917086Y-129739047D01*
X88917086Y-129739047D02*
X88917086Y-129596190D01*
X88917086Y-129596190D02*
X88964705Y-129405714D01*
X88964705Y-129405714D02*
X89012324Y-129310476D01*
X89012324Y-129310476D02*
X89107562Y-129215238D01*
X89107562Y-129215238D02*
X89250419Y-129167619D01*
X89250419Y-129167619D02*
X89345657Y-129167619D01*
X89345657Y-129167619D02*
X89488514Y-129215238D01*
X89488514Y-129215238D02*
X89536133Y-129262857D01*
X90107562Y-129596190D02*
X90012324Y-129548571D01*
X90012324Y-129548571D02*
X89964705Y-129500952D01*
X89964705Y-129500952D02*
X89917086Y-129405714D01*
X89917086Y-129405714D02*
X89917086Y-129358095D01*
X89917086Y-129358095D02*
X89964705Y-129262857D01*
X89964705Y-129262857D02*
X90012324Y-129215238D01*
X90012324Y-129215238D02*
X90107562Y-129167619D01*
X90107562Y-129167619D02*
X90298038Y-129167619D01*
X90298038Y-129167619D02*
X90393276Y-129215238D01*
X90393276Y-129215238D02*
X90440895Y-129262857D01*
X90440895Y-129262857D02*
X90488514Y-129358095D01*
X90488514Y-129358095D02*
X90488514Y-129405714D01*
X90488514Y-129405714D02*
X90440895Y-129500952D01*
X90440895Y-129500952D02*
X90393276Y-129548571D01*
X90393276Y-129548571D02*
X90298038Y-129596190D01*
X90298038Y-129596190D02*
X90107562Y-129596190D01*
X90107562Y-129596190D02*
X90012324Y-129643809D01*
X90012324Y-129643809D02*
X89964705Y-129691428D01*
X89964705Y-129691428D02*
X89917086Y-129786666D01*
X89917086Y-129786666D02*
X89917086Y-129977142D01*
X89917086Y-129977142D02*
X89964705Y-130072380D01*
X89964705Y-130072380D02*
X90012324Y-130120000D01*
X90012324Y-130120000D02*
X90107562Y-130167619D01*
X90107562Y-130167619D02*
X90298038Y-130167619D01*
X90298038Y-130167619D02*
X90393276Y-130120000D01*
X90393276Y-130120000D02*
X90440895Y-130072380D01*
X90440895Y-130072380D02*
X90488514Y-129977142D01*
X90488514Y-129977142D02*
X90488514Y-129786666D01*
X90488514Y-129786666D02*
X90440895Y-129691428D01*
X90440895Y-129691428D02*
X90393276Y-129643809D01*
X90393276Y-129643809D02*
X90298038Y-129596190D01*
X89618742Y-70966580D02*
X89571123Y-71014200D01*
X89571123Y-71014200D02*
X89428266Y-71061819D01*
X89428266Y-71061819D02*
X89333028Y-71061819D01*
X89333028Y-71061819D02*
X89190171Y-71014200D01*
X89190171Y-71014200D02*
X89094933Y-70918961D01*
X89094933Y-70918961D02*
X89047314Y-70823723D01*
X89047314Y-70823723D02*
X88999695Y-70633247D01*
X88999695Y-70633247D02*
X88999695Y-70490390D01*
X88999695Y-70490390D02*
X89047314Y-70299914D01*
X89047314Y-70299914D02*
X89094933Y-70204676D01*
X89094933Y-70204676D02*
X89190171Y-70109438D01*
X89190171Y-70109438D02*
X89333028Y-70061819D01*
X89333028Y-70061819D02*
X89428266Y-70061819D01*
X89428266Y-70061819D02*
X89571123Y-70109438D01*
X89571123Y-70109438D02*
X89618742Y-70157057D01*
X90571123Y-71061819D02*
X89999695Y-71061819D01*
X90285409Y-71061819D02*
X90285409Y-70061819D01*
X90285409Y-70061819D02*
X90190171Y-70204676D01*
X90190171Y-70204676D02*
X90094933Y-70299914D01*
X90094933Y-70299914D02*
X89999695Y-70347533D01*
X91523504Y-71061819D02*
X90952076Y-71061819D01*
X91237790Y-71061819D02*
X91237790Y-70061819D01*
X91237790Y-70061819D02*
X91142552Y-70204676D01*
X91142552Y-70204676D02*
X91047314Y-70299914D01*
X91047314Y-70299914D02*
X90952076Y-70347533D01*
X106968819Y-118485904D02*
X107778342Y-118485904D01*
X107778342Y-118485904D02*
X107873580Y-118438285D01*
X107873580Y-118438285D02*
X107921200Y-118390666D01*
X107921200Y-118390666D02*
X107968819Y-118295428D01*
X107968819Y-118295428D02*
X107968819Y-118104952D01*
X107968819Y-118104952D02*
X107921200Y-118009714D01*
X107921200Y-118009714D02*
X107873580Y-117962095D01*
X107873580Y-117962095D02*
X107778342Y-117914476D01*
X107778342Y-117914476D02*
X106968819Y-117914476D01*
X107064057Y-117485904D02*
X107016438Y-117438285D01*
X107016438Y-117438285D02*
X106968819Y-117343047D01*
X106968819Y-117343047D02*
X106968819Y-117104952D01*
X106968819Y-117104952D02*
X107016438Y-117009714D01*
X107016438Y-117009714D02*
X107064057Y-116962095D01*
X107064057Y-116962095D02*
X107159295Y-116914476D01*
X107159295Y-116914476D02*
X107254533Y-116914476D01*
X107254533Y-116914476D02*
X107397390Y-116962095D01*
X107397390Y-116962095D02*
X107968819Y-117533523D01*
X107968819Y-117533523D02*
X107968819Y-116914476D01*
X149181742Y-71068180D02*
X149134123Y-71115800D01*
X149134123Y-71115800D02*
X148991266Y-71163419D01*
X148991266Y-71163419D02*
X148896028Y-71163419D01*
X148896028Y-71163419D02*
X148753171Y-71115800D01*
X148753171Y-71115800D02*
X148657933Y-71020561D01*
X148657933Y-71020561D02*
X148610314Y-70925323D01*
X148610314Y-70925323D02*
X148562695Y-70734847D01*
X148562695Y-70734847D02*
X148562695Y-70591990D01*
X148562695Y-70591990D02*
X148610314Y-70401514D01*
X148610314Y-70401514D02*
X148657933Y-70306276D01*
X148657933Y-70306276D02*
X148753171Y-70211038D01*
X148753171Y-70211038D02*
X148896028Y-70163419D01*
X148896028Y-70163419D02*
X148991266Y-70163419D01*
X148991266Y-70163419D02*
X149134123Y-70211038D01*
X149134123Y-70211038D02*
X149181742Y-70258657D01*
X149562695Y-70258657D02*
X149610314Y-70211038D01*
X149610314Y-70211038D02*
X149705552Y-70163419D01*
X149705552Y-70163419D02*
X149943647Y-70163419D01*
X149943647Y-70163419D02*
X150038885Y-70211038D01*
X150038885Y-70211038D02*
X150086504Y-70258657D01*
X150086504Y-70258657D02*
X150134123Y-70353895D01*
X150134123Y-70353895D02*
X150134123Y-70449133D01*
X150134123Y-70449133D02*
X150086504Y-70591990D01*
X150086504Y-70591990D02*
X149515076Y-71163419D01*
X149515076Y-71163419D02*
X150134123Y-71163419D01*
X151086504Y-71163419D02*
X150515076Y-71163419D01*
X150800790Y-71163419D02*
X150800790Y-70163419D01*
X150800790Y-70163419D02*
X150705552Y-70306276D01*
X150705552Y-70306276D02*
X150610314Y-70401514D01*
X150610314Y-70401514D02*
X150515076Y-70449133D01*
D11*
%TO.C,R2*%
X88571400Y-106957864D02*
X88571400Y-106503736D01*
X90041400Y-106957864D02*
X90041400Y-106503736D01*
%TO.C,R8*%
X131545064Y-131853000D02*
X131090936Y-131853000D01*
X131545064Y-133323000D02*
X131090936Y-133323000D01*
%TO.C,C4*%
X110466000Y-133507000D02*
X107489000Y-133507000D01*
X110466000Y-133547000D02*
X107496000Y-133547000D01*
X110466000Y-133587000D02*
X107504000Y-133587000D01*
X110466000Y-133627000D02*
X107512000Y-133627000D01*
X110466000Y-133667000D02*
X107521000Y-133667000D01*
X110466000Y-133707000D02*
X107530000Y-133707000D01*
X110466000Y-133747000D02*
X107539000Y-133747000D01*
X110466000Y-133787000D02*
X107549000Y-133787000D01*
X110466000Y-133827000D02*
X107559000Y-133827000D01*
X110466000Y-133867000D02*
X107570000Y-133867000D01*
X110466000Y-133907000D02*
X107581000Y-133907000D01*
X110466000Y-133947000D02*
X107592000Y-133947000D01*
X110466000Y-133987000D02*
X107604000Y-133987000D01*
X110466000Y-134027000D02*
X107617000Y-134027000D01*
X110466000Y-134067000D02*
X107629000Y-134067000D01*
X110466000Y-134107000D02*
X107643000Y-134107000D01*
X110466000Y-134147000D02*
X107656000Y-134147000D01*
X110466000Y-134187000D02*
X107671000Y-134187000D01*
X110466000Y-134227000D02*
X107685000Y-134227000D01*
X110466000Y-134267000D02*
X107701000Y-134267000D01*
X110466000Y-134307000D02*
X107716000Y-134307000D01*
X110466000Y-134347000D02*
X107732000Y-134347000D01*
X110466000Y-134387000D02*
X107749000Y-134387000D01*
X110466000Y-134427000D02*
X107766000Y-134427000D01*
X110466000Y-134467000D02*
X107784000Y-134467000D01*
X110466000Y-134507000D02*
X107802000Y-134507000D01*
X110466000Y-134547000D02*
X107820000Y-134547000D01*
X110466000Y-134587000D02*
X107840000Y-134587000D01*
X110466000Y-134627000D02*
X107859000Y-134627000D01*
X110466000Y-134667000D02*
X107879000Y-134667000D01*
X110466000Y-134707000D02*
X107900000Y-134707000D01*
X110466000Y-134747000D02*
X107922000Y-134747000D01*
X110466000Y-134787000D02*
X107944000Y-134787000D01*
X110466000Y-134827000D02*
X107966000Y-134827000D01*
X110466000Y-134867000D02*
X107989000Y-134867000D01*
X110466000Y-134907000D02*
X108013000Y-134907000D01*
X110466000Y-134947000D02*
X108037000Y-134947000D01*
X110466000Y-134987000D02*
X108062000Y-134987000D01*
X110466000Y-135027000D02*
X108088000Y-135027000D01*
X110466000Y-135067000D02*
X108114000Y-135067000D01*
X110466000Y-135107000D02*
X108141000Y-135107000D01*
X110466000Y-135147000D02*
X108168000Y-135147000D01*
X110466000Y-135187000D02*
X108197000Y-135187000D01*
X110466000Y-135227000D02*
X108226000Y-135227000D01*
X110466000Y-135267000D02*
X108256000Y-135267000D01*
X110466000Y-135307000D02*
X108286000Y-135307000D01*
X110466000Y-135347000D02*
X108317000Y-135347000D01*
X110466000Y-135387000D02*
X108350000Y-135387000D01*
X110466000Y-135427000D02*
X108382000Y-135427000D01*
X110466000Y-135467000D02*
X108416000Y-135467000D01*
X110466000Y-135507000D02*
X108451000Y-135507000D01*
X110466000Y-135547000D02*
X108487000Y-135547000D01*
X112039000Y-136867000D02*
X110973000Y-136867000D01*
X112274000Y-136827000D02*
X110738000Y-136827000D01*
X112454000Y-136787000D02*
X110558000Y-136787000D01*
X112604000Y-136747000D02*
X110408000Y-136747000D01*
X112735000Y-136707000D02*
X110277000Y-136707000D01*
X112852000Y-136667000D02*
X110160000Y-136667000D01*
X112959000Y-136627000D02*
X110053000Y-136627000D01*
X113058000Y-136587000D02*
X109954000Y-136587000D01*
X113151000Y-136547000D02*
X109861000Y-136547000D01*
X113237000Y-136507000D02*
X109775000Y-136507000D01*
X113319000Y-136467000D02*
X109693000Y-136467000D01*
X113396000Y-136427000D02*
X109616000Y-136427000D01*
X113470000Y-136387000D02*
X109542000Y-136387000D01*
X113540000Y-136347000D02*
X109472000Y-136347000D01*
X113608000Y-136307000D02*
X109404000Y-136307000D01*
X113672000Y-136267000D02*
X109340000Y-136267000D01*
X113734000Y-136227000D02*
X109278000Y-136227000D01*
X113793000Y-136187000D02*
X109219000Y-136187000D01*
X113821000Y-128376302D02*
X113821000Y-129176302D01*
X113851000Y-136147000D02*
X109161000Y-136147000D01*
X113906000Y-136107000D02*
X109106000Y-136107000D01*
X113960000Y-136067000D02*
X109052000Y-136067000D01*
X114011000Y-136027000D02*
X109001000Y-136027000D01*
X114062000Y-135987000D02*
X108950000Y-135987000D01*
X114110000Y-135947000D02*
X108902000Y-135947000D01*
X114157000Y-135907000D02*
X108855000Y-135907000D01*
X114203000Y-135867000D02*
X108809000Y-135867000D01*
X114221000Y-128776302D02*
X113421000Y-128776302D01*
X114247000Y-135827000D02*
X108765000Y-135827000D01*
X114290000Y-135787000D02*
X108722000Y-135787000D01*
X114332000Y-135747000D02*
X108680000Y-135747000D01*
X114373000Y-135707000D02*
X108639000Y-135707000D01*
X114413000Y-135667000D02*
X108599000Y-135667000D01*
X114451000Y-135627000D02*
X108561000Y-135627000D01*
X114489000Y-135587000D02*
X108523000Y-135587000D01*
X114525000Y-135547000D02*
X112546000Y-135547000D01*
X114561000Y-135507000D02*
X112546000Y-135507000D01*
X114596000Y-135467000D02*
X112546000Y-135467000D01*
X114630000Y-135427000D02*
X112546000Y-135427000D01*
X114662000Y-135387000D02*
X112546000Y-135387000D01*
X114695000Y-135347000D02*
X112546000Y-135347000D01*
X114726000Y-135307000D02*
X112546000Y-135307000D01*
X114756000Y-135267000D02*
X112546000Y-135267000D01*
X114786000Y-135227000D02*
X112546000Y-135227000D01*
X114815000Y-135187000D02*
X112546000Y-135187000D01*
X114844000Y-135147000D02*
X112546000Y-135147000D01*
X114871000Y-135107000D02*
X112546000Y-135107000D01*
X114898000Y-135067000D02*
X112546000Y-135067000D01*
X114924000Y-135027000D02*
X112546000Y-135027000D01*
X114950000Y-134987000D02*
X112546000Y-134987000D01*
X114975000Y-134947000D02*
X112546000Y-134947000D01*
X114999000Y-134907000D02*
X112546000Y-134907000D01*
X115023000Y-134867000D02*
X112546000Y-134867000D01*
X115046000Y-134827000D02*
X112546000Y-134827000D01*
X115068000Y-134787000D02*
X112546000Y-134787000D01*
X115090000Y-134747000D02*
X112546000Y-134747000D01*
X115112000Y-134707000D02*
X112546000Y-134707000D01*
X115133000Y-134667000D02*
X112546000Y-134667000D01*
X115153000Y-134627000D02*
X112546000Y-134627000D01*
X115172000Y-134587000D02*
X112546000Y-134587000D01*
X115192000Y-134547000D02*
X112546000Y-134547000D01*
X115210000Y-134507000D02*
X112546000Y-134507000D01*
X115228000Y-134467000D02*
X112546000Y-134467000D01*
X115246000Y-134427000D02*
X112546000Y-134427000D01*
X115263000Y-134387000D02*
X112546000Y-134387000D01*
X115280000Y-134347000D02*
X112546000Y-134347000D01*
X115296000Y-134307000D02*
X112546000Y-134307000D01*
X115311000Y-134267000D02*
X112546000Y-134267000D01*
X115327000Y-134227000D02*
X112546000Y-134227000D01*
X115341000Y-134187000D02*
X112546000Y-134187000D01*
X115356000Y-134147000D02*
X112546000Y-134147000D01*
X115369000Y-134107000D02*
X112546000Y-134107000D01*
X115383000Y-134067000D02*
X112546000Y-134067000D01*
X115395000Y-134027000D02*
X112546000Y-134027000D01*
X115408000Y-133987000D02*
X112546000Y-133987000D01*
X115420000Y-133947000D02*
X112546000Y-133947000D01*
X115431000Y-133907000D02*
X112546000Y-133907000D01*
X115442000Y-133867000D02*
X112546000Y-133867000D01*
X115453000Y-133827000D02*
X112546000Y-133827000D01*
X115463000Y-133787000D02*
X112546000Y-133787000D01*
X115473000Y-133747000D02*
X112546000Y-133747000D01*
X115482000Y-133707000D02*
X112546000Y-133707000D01*
X115491000Y-133667000D02*
X112546000Y-133667000D01*
X115500000Y-133627000D02*
X112546000Y-133627000D01*
X115508000Y-133587000D02*
X112546000Y-133587000D01*
X115516000Y-133547000D02*
X112546000Y-133547000D01*
X115523000Y-133507000D02*
X112546000Y-133507000D01*
X115530000Y-133466000D02*
X107482000Y-133466000D01*
X115536000Y-133426000D02*
X107476000Y-133426000D01*
X115543000Y-133386000D02*
X107469000Y-133386000D01*
X115548000Y-133346000D02*
X107464000Y-133346000D01*
X115554000Y-133306000D02*
X107458000Y-133306000D01*
X115558000Y-133266000D02*
X107454000Y-133266000D01*
X115563000Y-133226000D02*
X107449000Y-133226000D01*
X115567000Y-133186000D02*
X107445000Y-133186000D01*
X115571000Y-133146000D02*
X107441000Y-133146000D01*
X115574000Y-133106000D02*
X107438000Y-133106000D01*
X115577000Y-133066000D02*
X107435000Y-133066000D01*
X115580000Y-133026000D02*
X107432000Y-133026000D01*
X115582000Y-132986000D02*
X107430000Y-132986000D01*
X115583000Y-132946000D02*
X107429000Y-132946000D01*
X115585000Y-132906000D02*
X107427000Y-132906000D01*
X115586000Y-132786000D02*
X107426000Y-132786000D01*
X115586000Y-132826000D02*
X107426000Y-132826000D01*
X115586000Y-132866000D02*
X107426000Y-132866000D01*
X115626000Y-132786000D02*
G75*
G02*
X107386000Y-132786000I-4120000J0D01*
G01*
X107386000Y-132786000D02*
G75*
G02*
X115626000Y-132786000I4120000J0D01*
G01*
%TO.C,J15*%
X141169000Y-52760000D02*
X141169000Y-51430000D01*
X142499000Y-52760000D02*
X141169000Y-52760000D01*
X143769000Y-50100000D02*
X148909000Y-50100000D01*
X143769000Y-52760000D02*
X143769000Y-50100000D01*
X143769000Y-52760000D02*
X148909000Y-52760000D01*
X148909000Y-52760000D02*
X148909000Y-50100000D01*
%TO.C,U3*%
X124096400Y-77492400D02*
X124096400Y-78192400D01*
X124096400Y-91712400D02*
X124096400Y-91012400D01*
X124796400Y-77492400D02*
X124096400Y-77492400D01*
X124796400Y-91712400D02*
X124096400Y-91712400D01*
X137616400Y-77492400D02*
X138316400Y-77492400D01*
X137616400Y-91712400D02*
X138316400Y-91712400D01*
X138316400Y-77492400D02*
X138316400Y-78192400D01*
X138316400Y-91712400D02*
X138316400Y-91012400D01*
X123468900Y-78192400D02*
X123128900Y-77722400D01*
X123808900Y-77722400D01*
X123468900Y-78192400D01*
G36*
X123468900Y-78192400D02*
G01*
X123128900Y-77722400D01*
X123808900Y-77722400D01*
X123468900Y-78192400D01*
G37*
%TO.C,J11*%
X83455200Y-124612400D02*
X83455200Y-119472400D01*
X86115200Y-119472400D02*
X83455200Y-119472400D01*
X86115200Y-124612400D02*
X83455200Y-124612400D01*
X86115200Y-124612400D02*
X86115200Y-119472400D01*
X86115200Y-125882400D02*
X86115200Y-127212400D01*
X86115200Y-127212400D02*
X84785200Y-127212400D01*
%TO.C,D6*%
X103079200Y-108219200D02*
X105939200Y-108219200D01*
X105939200Y-106299200D02*
X103079200Y-106299200D01*
X105939200Y-108219200D02*
X105939200Y-106299200D01*
%TO.C,C5*%
X114322652Y-124913800D02*
X113800148Y-124913800D01*
X114322652Y-126383800D02*
X113800148Y-126383800D01*
%TO.C,J2*%
X173670000Y-99020400D02*
X175000000Y-99020400D01*
X173670000Y-100350400D02*
X173670000Y-99020400D01*
X173670000Y-101620400D02*
X173670000Y-109300400D01*
X173670000Y-101620400D02*
X176330000Y-101620400D01*
X173670000Y-109300400D02*
X176330000Y-109300400D01*
X176330000Y-101620400D02*
X176330000Y-109300400D01*
%TO.C,Q1*%
X88514800Y-111717600D02*
X97514800Y-111717600D01*
X88514800Y-119117600D02*
X88514800Y-111717600D01*
X97514800Y-111717600D02*
X97514800Y-119117600D01*
X97514800Y-119117600D02*
X88514800Y-119117600D01*
%TO.C,R14*%
X104306264Y-101444200D02*
X103852136Y-101444200D01*
X104306264Y-102914200D02*
X103852136Y-102914200D01*
D10*
%TO.C,L1*%
X120186000Y-118828000D02*
X120186000Y-126988000D01*
X128226000Y-118828000D02*
X128226000Y-126988000D01*
D11*
%TO.C,R12*%
X153077336Y-73651600D02*
X153531464Y-73651600D01*
X153077336Y-75121600D02*
X153531464Y-75121600D01*
%TO.C,J10*%
X98431200Y-45597200D02*
X98431200Y-44267200D01*
X99761200Y-45597200D02*
X98431200Y-45597200D01*
X101031200Y-42937200D02*
X108711200Y-42937200D01*
X101031200Y-45597200D02*
X101031200Y-42937200D01*
X101031200Y-45597200D02*
X108711200Y-45597200D01*
X108711200Y-45597200D02*
X108711200Y-42937200D01*
%TO.C,J1*%
X156800400Y-73116600D02*
X156800400Y-62896600D01*
X159460400Y-62896600D02*
X156800400Y-62896600D01*
X159460400Y-73116600D02*
X156800400Y-73116600D01*
X159460400Y-73116600D02*
X159460400Y-62896600D01*
X159460400Y-74386600D02*
X159460400Y-75716600D01*
X159460400Y-75716600D02*
X158130400Y-75716600D01*
%TO.C,C18*%
X119174052Y-82800600D02*
X118651548Y-82800600D01*
X119174052Y-84270600D02*
X118651548Y-84270600D01*
%TO.C,R15*%
X153077336Y-66031600D02*
X153531464Y-66031600D01*
X153077336Y-67501600D02*
X153531464Y-67501600D01*
%TO.C,D4*%
X169078800Y-125536000D02*
X169078800Y-118526000D01*
X169078800Y-125536000D02*
X172378800Y-125536000D01*
X172378800Y-125536000D02*
X172378800Y-118526000D01*
%TO.C,SW1*%
X95346800Y-134169800D02*
X95346800Y-135669800D01*
X96596800Y-138169800D02*
X101096800Y-138169800D01*
X101096800Y-131669800D02*
X96596800Y-131669800D01*
X102346800Y-135669800D02*
X102346800Y-134169800D01*
%TO.C,J17*%
X173670000Y-56270000D02*
X173670000Y-89350000D01*
X173670000Y-56270000D02*
X176330000Y-56270000D01*
X173670000Y-89350000D02*
X176330000Y-89350000D01*
X175000000Y-53670000D02*
X176330000Y-53670000D01*
X176330000Y-53670000D02*
X176330000Y-55000000D01*
X176330000Y-56270000D02*
X176330000Y-89350000D01*
%TO.C,Y1*%
X101917200Y-72829400D02*
X102157200Y-72829400D01*
X102157200Y-72829400D02*
X102157200Y-71229400D01*
X109557200Y-71229400D02*
X109557200Y-72829400D01*
%TO.C,C9*%
X90832000Y-107068252D02*
X90832000Y-106545748D01*
X92302000Y-107068252D02*
X92302000Y-106545748D01*
%TO.C,Q3*%
X158822000Y-116950000D02*
X167822000Y-116950000D01*
X158822000Y-124350000D02*
X158822000Y-116950000D01*
X167822000Y-116950000D02*
X167822000Y-124350000D01*
X167822000Y-124350000D02*
X158822000Y-124350000D01*
%TO.C,R19*%
X104306264Y-103984200D02*
X103852136Y-103984200D01*
X104306264Y-105454200D02*
X103852136Y-105454200D01*
%TO.C,J9*%
X156155000Y-46410000D02*
X156155000Y-45080000D01*
X157485000Y-46410000D02*
X156155000Y-46410000D01*
X158755000Y-43750000D02*
X163895000Y-43750000D01*
X158755000Y-46410000D02*
X158755000Y-43750000D01*
X158755000Y-46410000D02*
X163895000Y-46410000D01*
X163895000Y-46410000D02*
X163895000Y-43750000D01*
%TO.C,C3*%
X120626000Y-133507000D02*
X117649000Y-133507000D01*
X120626000Y-133547000D02*
X117656000Y-133547000D01*
X120626000Y-133587000D02*
X117664000Y-133587000D01*
X120626000Y-133627000D02*
X117672000Y-133627000D01*
X120626000Y-133667000D02*
X117681000Y-133667000D01*
X120626000Y-133707000D02*
X117690000Y-133707000D01*
X120626000Y-133747000D02*
X117699000Y-133747000D01*
X120626000Y-133787000D02*
X117709000Y-133787000D01*
X120626000Y-133827000D02*
X117719000Y-133827000D01*
X120626000Y-133867000D02*
X117730000Y-133867000D01*
X120626000Y-133907000D02*
X117741000Y-133907000D01*
X120626000Y-133947000D02*
X117752000Y-133947000D01*
X120626000Y-133987000D02*
X117764000Y-133987000D01*
X120626000Y-134027000D02*
X117777000Y-134027000D01*
X120626000Y-134067000D02*
X117789000Y-134067000D01*
X120626000Y-134107000D02*
X117803000Y-134107000D01*
X120626000Y-134147000D02*
X117816000Y-134147000D01*
X120626000Y-134187000D02*
X117831000Y-134187000D01*
X120626000Y-134227000D02*
X117845000Y-134227000D01*
X120626000Y-134267000D02*
X117861000Y-134267000D01*
X120626000Y-134307000D02*
X117876000Y-134307000D01*
X120626000Y-134347000D02*
X117892000Y-134347000D01*
X120626000Y-134387000D02*
X117909000Y-134387000D01*
X120626000Y-134427000D02*
X117926000Y-134427000D01*
X120626000Y-134467000D02*
X117944000Y-134467000D01*
X120626000Y-134507000D02*
X117962000Y-134507000D01*
X120626000Y-134547000D02*
X117980000Y-134547000D01*
X120626000Y-134587000D02*
X118000000Y-134587000D01*
X120626000Y-134627000D02*
X118019000Y-134627000D01*
X120626000Y-134667000D02*
X118039000Y-134667000D01*
X120626000Y-134707000D02*
X118060000Y-134707000D01*
X120626000Y-134747000D02*
X118082000Y-134747000D01*
X120626000Y-134787000D02*
X118104000Y-134787000D01*
X120626000Y-134827000D02*
X118126000Y-134827000D01*
X120626000Y-134867000D02*
X118149000Y-134867000D01*
X120626000Y-134907000D02*
X118173000Y-134907000D01*
X120626000Y-134947000D02*
X118197000Y-134947000D01*
X120626000Y-134987000D02*
X118222000Y-134987000D01*
X120626000Y-135027000D02*
X118248000Y-135027000D01*
X120626000Y-135067000D02*
X118274000Y-135067000D01*
X120626000Y-135107000D02*
X118301000Y-135107000D01*
X120626000Y-135147000D02*
X118328000Y-135147000D01*
X120626000Y-135187000D02*
X118357000Y-135187000D01*
X120626000Y-135227000D02*
X118386000Y-135227000D01*
X120626000Y-135267000D02*
X118416000Y-135267000D01*
X120626000Y-135307000D02*
X118446000Y-135307000D01*
X120626000Y-135347000D02*
X118477000Y-135347000D01*
X120626000Y-135387000D02*
X118510000Y-135387000D01*
X120626000Y-135427000D02*
X118542000Y-135427000D01*
X120626000Y-135467000D02*
X118576000Y-135467000D01*
X120626000Y-135507000D02*
X118611000Y-135507000D01*
X120626000Y-135547000D02*
X118647000Y-135547000D01*
X122199000Y-136867000D02*
X121133000Y-136867000D01*
X122434000Y-136827000D02*
X120898000Y-136827000D01*
X122614000Y-136787000D02*
X120718000Y-136787000D01*
X122764000Y-136747000D02*
X120568000Y-136747000D01*
X122895000Y-136707000D02*
X120437000Y-136707000D01*
X123012000Y-136667000D02*
X120320000Y-136667000D01*
X123119000Y-136627000D02*
X120213000Y-136627000D01*
X123218000Y-136587000D02*
X120114000Y-136587000D01*
X123311000Y-136547000D02*
X120021000Y-136547000D01*
X123397000Y-136507000D02*
X119935000Y-136507000D01*
X123479000Y-136467000D02*
X119853000Y-136467000D01*
X123556000Y-136427000D02*
X119776000Y-136427000D01*
X123630000Y-136387000D02*
X119702000Y-136387000D01*
X123700000Y-136347000D02*
X119632000Y-136347000D01*
X123768000Y-136307000D02*
X119564000Y-136307000D01*
X123832000Y-136267000D02*
X119500000Y-136267000D01*
X123894000Y-136227000D02*
X119438000Y-136227000D01*
X123953000Y-136187000D02*
X119379000Y-136187000D01*
X123981000Y-128376302D02*
X123981000Y-129176302D01*
X124011000Y-136147000D02*
X119321000Y-136147000D01*
X124066000Y-136107000D02*
X119266000Y-136107000D01*
X124120000Y-136067000D02*
X119212000Y-136067000D01*
X124171000Y-136027000D02*
X119161000Y-136027000D01*
X124222000Y-135987000D02*
X119110000Y-135987000D01*
X124270000Y-135947000D02*
X119062000Y-135947000D01*
X124317000Y-135907000D02*
X119015000Y-135907000D01*
X124363000Y-135867000D02*
X118969000Y-135867000D01*
X124381000Y-128776302D02*
X123581000Y-128776302D01*
X124407000Y-135827000D02*
X118925000Y-135827000D01*
X124450000Y-135787000D02*
X118882000Y-135787000D01*
X124492000Y-135747000D02*
X118840000Y-135747000D01*
X124533000Y-135707000D02*
X118799000Y-135707000D01*
X124573000Y-135667000D02*
X118759000Y-135667000D01*
X124611000Y-135627000D02*
X118721000Y-135627000D01*
X124649000Y-135587000D02*
X118683000Y-135587000D01*
X124685000Y-135547000D02*
X122706000Y-135547000D01*
X124721000Y-135507000D02*
X122706000Y-135507000D01*
X124756000Y-135467000D02*
X122706000Y-135467000D01*
X124790000Y-135427000D02*
X122706000Y-135427000D01*
X124822000Y-135387000D02*
X122706000Y-135387000D01*
X124855000Y-135347000D02*
X122706000Y-135347000D01*
X124886000Y-135307000D02*
X122706000Y-135307000D01*
X124916000Y-135267000D02*
X122706000Y-135267000D01*
X124946000Y-135227000D02*
X122706000Y-135227000D01*
X124975000Y-135187000D02*
X122706000Y-135187000D01*
X125004000Y-135147000D02*
X122706000Y-135147000D01*
X125031000Y-135107000D02*
X122706000Y-135107000D01*
X125058000Y-135067000D02*
X122706000Y-135067000D01*
X125084000Y-135027000D02*
X122706000Y-135027000D01*
X125110000Y-134987000D02*
X122706000Y-134987000D01*
X125135000Y-134947000D02*
X122706000Y-134947000D01*
X125159000Y-134907000D02*
X122706000Y-134907000D01*
X125183000Y-134867000D02*
X122706000Y-134867000D01*
X125206000Y-134827000D02*
X122706000Y-134827000D01*
X125228000Y-134787000D02*
X122706000Y-134787000D01*
X125250000Y-134747000D02*
X122706000Y-134747000D01*
X125272000Y-134707000D02*
X122706000Y-134707000D01*
X125293000Y-134667000D02*
X122706000Y-134667000D01*
X125313000Y-134627000D02*
X122706000Y-134627000D01*
X125332000Y-134587000D02*
X122706000Y-134587000D01*
X125352000Y-134547000D02*
X122706000Y-134547000D01*
X125370000Y-134507000D02*
X122706000Y-134507000D01*
X125388000Y-134467000D02*
X122706000Y-134467000D01*
X125406000Y-134427000D02*
X122706000Y-134427000D01*
X125423000Y-134387000D02*
X122706000Y-134387000D01*
X125440000Y-134347000D02*
X122706000Y-134347000D01*
X125456000Y-134307000D02*
X122706000Y-134307000D01*
X125471000Y-134267000D02*
X122706000Y-134267000D01*
X125487000Y-134227000D02*
X122706000Y-134227000D01*
X125501000Y-134187000D02*
X122706000Y-134187000D01*
X125516000Y-134147000D02*
X122706000Y-134147000D01*
X125529000Y-134107000D02*
X122706000Y-134107000D01*
X125543000Y-134067000D02*
X122706000Y-134067000D01*
X125555000Y-134027000D02*
X122706000Y-134027000D01*
X125568000Y-133987000D02*
X122706000Y-133987000D01*
X125580000Y-133947000D02*
X122706000Y-133947000D01*
X125591000Y-133907000D02*
X122706000Y-133907000D01*
X125602000Y-133867000D02*
X122706000Y-133867000D01*
X125613000Y-133827000D02*
X122706000Y-133827000D01*
X125623000Y-133787000D02*
X122706000Y-133787000D01*
X125633000Y-133747000D02*
X122706000Y-133747000D01*
X125642000Y-133707000D02*
X122706000Y-133707000D01*
X125651000Y-133667000D02*
X122706000Y-133667000D01*
X125660000Y-133627000D02*
X122706000Y-133627000D01*
X125668000Y-133587000D02*
X122706000Y-133587000D01*
X125676000Y-133547000D02*
X122706000Y-133547000D01*
X125683000Y-133507000D02*
X122706000Y-133507000D01*
X125690000Y-133466000D02*
X117642000Y-133466000D01*
X125696000Y-133426000D02*
X117636000Y-133426000D01*
X125703000Y-133386000D02*
X117629000Y-133386000D01*
X125708000Y-133346000D02*
X117624000Y-133346000D01*
X125714000Y-133306000D02*
X117618000Y-133306000D01*
X125718000Y-133266000D02*
X117614000Y-133266000D01*
X125723000Y-133226000D02*
X117609000Y-133226000D01*
X125727000Y-133186000D02*
X117605000Y-133186000D01*
X125731000Y-133146000D02*
X117601000Y-133146000D01*
X125734000Y-133106000D02*
X117598000Y-133106000D01*
X125737000Y-133066000D02*
X117595000Y-133066000D01*
X125740000Y-133026000D02*
X117592000Y-133026000D01*
X125742000Y-132986000D02*
X117590000Y-132986000D01*
X125743000Y-132946000D02*
X117589000Y-132946000D01*
X125745000Y-132906000D02*
X117587000Y-132906000D01*
X125746000Y-132786000D02*
X117586000Y-132786000D01*
X125746000Y-132826000D02*
X117586000Y-132826000D01*
X125746000Y-132866000D02*
X117586000Y-132866000D01*
X125786000Y-132786000D02*
G75*
G02*
X117546000Y-132786000I-4120000J0D01*
G01*
X117546000Y-132786000D02*
G75*
G02*
X125786000Y-132786000I4120000J0D01*
G01*
%TO.C,R6*%
X87911000Y-123366264D02*
X87911000Y-122912136D01*
X89381000Y-123366264D02*
X89381000Y-122912136D01*
%TO.C,D2*%
X171784400Y-94280800D02*
X164774400Y-94280800D01*
X171784400Y-97580800D02*
X164774400Y-97580800D01*
X171784400Y-97580800D02*
X171784400Y-94280800D01*
%TO.C,Q2*%
X94204400Y-121725200D02*
X103204400Y-121725200D01*
X94204400Y-129125200D02*
X94204400Y-121725200D01*
X103204400Y-121725200D02*
X103204400Y-129125200D01*
X103204400Y-129125200D02*
X94204400Y-129125200D01*
%TO.C,C14*%
X135754600Y-97701548D02*
X135754600Y-98224052D01*
X137224600Y-97701548D02*
X137224600Y-98224052D01*
%TO.C,R11*%
X169587400Y-63544264D02*
X169587400Y-63090136D01*
X171057400Y-63544264D02*
X171057400Y-63090136D01*
%TO.C,R20*%
X169333336Y-99615400D02*
X169787464Y-99615400D01*
X169333336Y-101085400D02*
X169787464Y-101085400D01*
%TO.C,R10*%
X92927064Y-63395000D02*
X92472936Y-63395000D01*
X92927064Y-64865000D02*
X92472936Y-64865000D01*
%TO.C,R9*%
X92927064Y-60855000D02*
X92472936Y-60855000D01*
X92927064Y-62325000D02*
X92472936Y-62325000D01*
%TO.C,J14*%
X173676000Y-122159000D02*
X173676000Y-117019000D01*
X176336000Y-117019000D02*
X173676000Y-117019000D01*
X176336000Y-122159000D02*
X173676000Y-122159000D01*
X176336000Y-122159000D02*
X176336000Y-117019000D01*
X176336000Y-123429000D02*
X176336000Y-124759000D01*
X176336000Y-124759000D02*
X175006000Y-124759000D01*
%TO.C,C13*%
X104264252Y-98904200D02*
X103741748Y-98904200D01*
X104264252Y-100374200D02*
X103741748Y-100374200D01*
%TO.C,C1*%
X148714302Y-119981000D02*
X149514302Y-119981000D01*
X149114302Y-119581000D02*
X149114302Y-120381000D01*
X153124000Y-118216000D02*
X153124000Y-126376000D01*
X153164000Y-118216000D02*
X153164000Y-126376000D01*
X153204000Y-118216000D02*
X153204000Y-126376000D01*
X153244000Y-118217000D02*
X153244000Y-126375000D01*
X153284000Y-118219000D02*
X153284000Y-126373000D01*
X153324000Y-118220000D02*
X153324000Y-126372000D01*
X153364000Y-118222000D02*
X153364000Y-126370000D01*
X153404000Y-118225000D02*
X153404000Y-126367000D01*
X153444000Y-118228000D02*
X153444000Y-126364000D01*
X153484000Y-118231000D02*
X153484000Y-126361000D01*
X153524000Y-118235000D02*
X153524000Y-126357000D01*
X153564000Y-118239000D02*
X153564000Y-126353000D01*
X153604000Y-118244000D02*
X153604000Y-126348000D01*
X153644000Y-118248000D02*
X153644000Y-126344000D01*
X153684000Y-118254000D02*
X153684000Y-126338000D01*
X153724000Y-118259000D02*
X153724000Y-126333000D01*
X153764000Y-118266000D02*
X153764000Y-126326000D01*
X153804000Y-118272000D02*
X153804000Y-126320000D01*
X153845000Y-118279000D02*
X153845000Y-121256000D01*
X153845000Y-123336000D02*
X153845000Y-126313000D01*
X153885000Y-118286000D02*
X153885000Y-121256000D01*
X153885000Y-123336000D02*
X153885000Y-126306000D01*
X153925000Y-118294000D02*
X153925000Y-121256000D01*
X153925000Y-123336000D02*
X153925000Y-126298000D01*
X153965000Y-118302000D02*
X153965000Y-121256000D01*
X153965000Y-123336000D02*
X153965000Y-126290000D01*
X154005000Y-118311000D02*
X154005000Y-121256000D01*
X154005000Y-123336000D02*
X154005000Y-126281000D01*
X154045000Y-118320000D02*
X154045000Y-121256000D01*
X154045000Y-123336000D02*
X154045000Y-126272000D01*
X154085000Y-118329000D02*
X154085000Y-121256000D01*
X154085000Y-123336000D02*
X154085000Y-126263000D01*
X154125000Y-118339000D02*
X154125000Y-121256000D01*
X154125000Y-123336000D02*
X154125000Y-126253000D01*
X154165000Y-118349000D02*
X154165000Y-121256000D01*
X154165000Y-123336000D02*
X154165000Y-126243000D01*
X154205000Y-118360000D02*
X154205000Y-121256000D01*
X154205000Y-123336000D02*
X154205000Y-126232000D01*
X154245000Y-118371000D02*
X154245000Y-121256000D01*
X154245000Y-123336000D02*
X154245000Y-126221000D01*
X154285000Y-118382000D02*
X154285000Y-121256000D01*
X154285000Y-123336000D02*
X154285000Y-126210000D01*
X154325000Y-118394000D02*
X154325000Y-121256000D01*
X154325000Y-123336000D02*
X154325000Y-126198000D01*
X154365000Y-118407000D02*
X154365000Y-121256000D01*
X154365000Y-123336000D02*
X154365000Y-126185000D01*
X154405000Y-118419000D02*
X154405000Y-121256000D01*
X154405000Y-123336000D02*
X154405000Y-126173000D01*
X154445000Y-118433000D02*
X154445000Y-121256000D01*
X154445000Y-123336000D02*
X154445000Y-126159000D01*
X154485000Y-118446000D02*
X154485000Y-121256000D01*
X154485000Y-123336000D02*
X154485000Y-126146000D01*
X154525000Y-118461000D02*
X154525000Y-121256000D01*
X154525000Y-123336000D02*
X154525000Y-126131000D01*
X154565000Y-118475000D02*
X154565000Y-121256000D01*
X154565000Y-123336000D02*
X154565000Y-126117000D01*
X154605000Y-118491000D02*
X154605000Y-121256000D01*
X154605000Y-123336000D02*
X154605000Y-126101000D01*
X154645000Y-118506000D02*
X154645000Y-121256000D01*
X154645000Y-123336000D02*
X154645000Y-126086000D01*
X154685000Y-118522000D02*
X154685000Y-121256000D01*
X154685000Y-123336000D02*
X154685000Y-126070000D01*
X154725000Y-118539000D02*
X154725000Y-121256000D01*
X154725000Y-123336000D02*
X154725000Y-126053000D01*
X154765000Y-118556000D02*
X154765000Y-121256000D01*
X154765000Y-123336000D02*
X154765000Y-126036000D01*
X154805000Y-118574000D02*
X154805000Y-121256000D01*
X154805000Y-123336000D02*
X154805000Y-126018000D01*
X154845000Y-118592000D02*
X154845000Y-121256000D01*
X154845000Y-123336000D02*
X154845000Y-126000000D01*
X154885000Y-118610000D02*
X154885000Y-121256000D01*
X154885000Y-123336000D02*
X154885000Y-125982000D01*
X154925000Y-118630000D02*
X154925000Y-121256000D01*
X154925000Y-123336000D02*
X154925000Y-125962000D01*
X154965000Y-118649000D02*
X154965000Y-121256000D01*
X154965000Y-123336000D02*
X154965000Y-125943000D01*
X155005000Y-118669000D02*
X155005000Y-121256000D01*
X155005000Y-123336000D02*
X155005000Y-125923000D01*
X155045000Y-118690000D02*
X155045000Y-121256000D01*
X155045000Y-123336000D02*
X155045000Y-125902000D01*
X155085000Y-118712000D02*
X155085000Y-121256000D01*
X155085000Y-123336000D02*
X155085000Y-125880000D01*
X155125000Y-118734000D02*
X155125000Y-121256000D01*
X155125000Y-123336000D02*
X155125000Y-125858000D01*
X155165000Y-118756000D02*
X155165000Y-121256000D01*
X155165000Y-123336000D02*
X155165000Y-125836000D01*
X155205000Y-118779000D02*
X155205000Y-121256000D01*
X155205000Y-123336000D02*
X155205000Y-125813000D01*
X155245000Y-118803000D02*
X155245000Y-121256000D01*
X155245000Y-123336000D02*
X155245000Y-125789000D01*
X155285000Y-118827000D02*
X155285000Y-121256000D01*
X155285000Y-123336000D02*
X155285000Y-125765000D01*
X155325000Y-118852000D02*
X155325000Y-121256000D01*
X155325000Y-123336000D02*
X155325000Y-125740000D01*
X155365000Y-118878000D02*
X155365000Y-121256000D01*
X155365000Y-123336000D02*
X155365000Y-125714000D01*
X155405000Y-118904000D02*
X155405000Y-121256000D01*
X155405000Y-123336000D02*
X155405000Y-125688000D01*
X155445000Y-118931000D02*
X155445000Y-121256000D01*
X155445000Y-123336000D02*
X155445000Y-125661000D01*
X155485000Y-118958000D02*
X155485000Y-121256000D01*
X155485000Y-123336000D02*
X155485000Y-125634000D01*
X155525000Y-118987000D02*
X155525000Y-121256000D01*
X155525000Y-123336000D02*
X155525000Y-125605000D01*
X155565000Y-119016000D02*
X155565000Y-121256000D01*
X155565000Y-123336000D02*
X155565000Y-125576000D01*
X155605000Y-119046000D02*
X155605000Y-121256000D01*
X155605000Y-123336000D02*
X155605000Y-125546000D01*
X155645000Y-119076000D02*
X155645000Y-121256000D01*
X155645000Y-123336000D02*
X155645000Y-125516000D01*
X155685000Y-119107000D02*
X155685000Y-121256000D01*
X155685000Y-123336000D02*
X155685000Y-125485000D01*
X155725000Y-119140000D02*
X155725000Y-121256000D01*
X155725000Y-123336000D02*
X155725000Y-125452000D01*
X155765000Y-119172000D02*
X155765000Y-121256000D01*
X155765000Y-123336000D02*
X155765000Y-125420000D01*
X155805000Y-119206000D02*
X155805000Y-121256000D01*
X155805000Y-123336000D02*
X155805000Y-125386000D01*
X155845000Y-119241000D02*
X155845000Y-121256000D01*
X155845000Y-123336000D02*
X155845000Y-125351000D01*
X155885000Y-119277000D02*
X155885000Y-121256000D01*
X155885000Y-123336000D02*
X155885000Y-125315000D01*
X155925000Y-119313000D02*
X155925000Y-125279000D01*
X155965000Y-119351000D02*
X155965000Y-125241000D01*
X156005000Y-119389000D02*
X156005000Y-125203000D01*
X156045000Y-119429000D02*
X156045000Y-125163000D01*
X156085000Y-119470000D02*
X156085000Y-125122000D01*
X156125000Y-119512000D02*
X156125000Y-125080000D01*
X156165000Y-119555000D02*
X156165000Y-125037000D01*
X156205000Y-119599000D02*
X156205000Y-124993000D01*
X156245000Y-119645000D02*
X156245000Y-124947000D01*
X156285000Y-119692000D02*
X156285000Y-124900000D01*
X156325000Y-119740000D02*
X156325000Y-124852000D01*
X156365000Y-119791000D02*
X156365000Y-124801000D01*
X156405000Y-119842000D02*
X156405000Y-124750000D01*
X156445000Y-119896000D02*
X156445000Y-124696000D01*
X156485000Y-119951000D02*
X156485000Y-124641000D01*
X156525000Y-120009000D02*
X156525000Y-124583000D01*
X156565000Y-120068000D02*
X156565000Y-124524000D01*
X156605000Y-120130000D02*
X156605000Y-124462000D01*
X156645000Y-120194000D02*
X156645000Y-124398000D01*
X156685000Y-120262000D02*
X156685000Y-124330000D01*
X156725000Y-120332000D02*
X156725000Y-124260000D01*
X156765000Y-120406000D02*
X156765000Y-124186000D01*
X156805000Y-120483000D02*
X156805000Y-124109000D01*
X156845000Y-120565000D02*
X156845000Y-124027000D01*
X156885000Y-120651000D02*
X156885000Y-123941000D01*
X156925000Y-120744000D02*
X156925000Y-123848000D01*
X156965000Y-120843000D02*
X156965000Y-123749000D01*
X157005000Y-120950000D02*
X157005000Y-123642000D01*
X157045000Y-121067000D02*
X157045000Y-123525000D01*
X157085000Y-121198000D02*
X157085000Y-123394000D01*
X157125000Y-121348000D02*
X157125000Y-123244000D01*
X157165000Y-121528000D02*
X157165000Y-123064000D01*
X157205000Y-121763000D02*
X157205000Y-122829000D01*
X157244000Y-122296000D02*
G75*
G02*
X149004000Y-122296000I-4120000J0D01*
G01*
X149004000Y-122296000D02*
G75*
G02*
X157244000Y-122296000I4120000J0D01*
G01*
%TO.C,D1*%
X119028800Y-112018000D02*
X119028800Y-116318000D01*
X119028800Y-112018000D02*
X126438800Y-112018000D01*
X119028800Y-116318000D02*
X126438800Y-116318000D01*
%TO.C,J12*%
X98431200Y-52760000D02*
X98431200Y-51430000D01*
X99761200Y-52760000D02*
X98431200Y-52760000D01*
X101031200Y-50100000D02*
X108711200Y-50100000D01*
X101031200Y-52760000D02*
X101031200Y-50100000D01*
X101031200Y-52760000D02*
X108711200Y-52760000D01*
X108711200Y-52760000D02*
X108711200Y-50100000D01*
%TO.C,J16*%
X85020000Y-55190000D02*
X86350000Y-55190000D01*
X85020000Y-56520000D02*
X85020000Y-55190000D01*
X85020000Y-57790000D02*
X85020000Y-65470000D01*
X85020000Y-57790000D02*
X87680000Y-57790000D01*
X85020000Y-65470000D02*
X87680000Y-65470000D01*
X87680000Y-57790000D02*
X87680000Y-65470000D01*
%TO.C,R16*%
X153531464Y-63491600D02*
X153077336Y-63491600D01*
X153531464Y-64961600D02*
X153077336Y-64961600D01*
%TO.C,D3*%
X167324000Y-126366000D02*
X160314000Y-126366000D01*
X167324000Y-129666000D02*
X160314000Y-129666000D01*
X167324000Y-129666000D02*
X167324000Y-126366000D01*
%TO.C,C12*%
X105646748Y-65173000D02*
X106169252Y-65173000D01*
X105646748Y-66643000D02*
X106169252Y-66643000D01*
%TO.C,R5*%
X90247800Y-122912136D02*
X90247800Y-123366264D01*
X91717800Y-122912136D02*
X91717800Y-123366264D01*
%TO.C,C19*%
X123873052Y-95881600D02*
X123350548Y-95881600D01*
X123873052Y-97351600D02*
X123350548Y-97351600D01*
%TO.C,R18*%
X169333336Y-104695400D02*
X169787464Y-104695400D01*
X169333336Y-106165400D02*
X169787464Y-106165400D01*
%TO.C,D5*%
X130318000Y-137612000D02*
X133178000Y-137612000D01*
X133178000Y-135692000D02*
X130318000Y-135692000D01*
X133178000Y-137612000D02*
X133178000Y-135692000D01*
%TO.C,J13*%
X141169000Y-45597200D02*
X141169000Y-44267200D01*
X142499000Y-45597200D02*
X141169000Y-45597200D01*
X143769000Y-42937200D02*
X148909000Y-42937200D01*
X143769000Y-45597200D02*
X143769000Y-42937200D01*
X143769000Y-45597200D02*
X148909000Y-45597200D01*
X148909000Y-45597200D02*
X148909000Y-42937200D01*
%TO.C,R13*%
X117212600Y-71497536D02*
X117212600Y-71951664D01*
X118682600Y-71497536D02*
X118682600Y-71951664D01*
%TO.C,R4*%
X106994333Y-56065920D02*
X106994333Y-55611792D01*
X108464333Y-56065920D02*
X108464333Y-55611792D01*
%TO.C,R3*%
X103565333Y-56065920D02*
X103565333Y-55611792D01*
X105035333Y-56065920D02*
X105035333Y-55611792D01*
%TO.C,C7*%
X164091252Y-133377000D02*
X163568748Y-133377000D01*
X164091252Y-134847000D02*
X163568748Y-134847000D01*
%TO.C,C10*%
X169435000Y-55943948D02*
X169435000Y-56466452D01*
X170905000Y-55943948D02*
X170905000Y-56466452D01*
%TO.C,C6*%
X109735252Y-124913800D02*
X109212748Y-124913800D01*
X109735252Y-126383800D02*
X109212748Y-126383800D01*
%TO.C,C17*%
X123892800Y-72544652D02*
X123892800Y-72022148D01*
X125362800Y-72544652D02*
X125362800Y-72022148D01*
%TO.C,J7*%
X118172000Y-43628000D02*
X130992000Y-43628000D01*
X118172000Y-46228000D02*
X118172000Y-43628000D01*
X118172000Y-48828000D02*
X118172000Y-47498000D01*
X119502000Y-48828000D02*
X118172000Y-48828000D01*
X120772000Y-46228000D02*
X118172000Y-46228000D01*
X120772000Y-48828000D02*
X120772000Y-46228000D01*
X120772000Y-48828000D02*
X130992000Y-48828000D01*
X130992000Y-48828000D02*
X130992000Y-43628000D01*
%TO.C,R7*%
X161253064Y-113433000D02*
X160798936Y-113433000D01*
X161253064Y-114903000D02*
X160798936Y-114903000D01*
D10*
%TO.C,U4*%
X148482800Y-100809200D02*
X152842800Y-100809200D01*
X148482800Y-106089200D02*
X148482800Y-100809200D01*
X152842800Y-100809200D02*
X152842800Y-106089200D01*
X152842800Y-106089200D02*
X148482800Y-106089200D01*
X148192800Y-100949200D02*
G75*
G02*
X148132800Y-100949200I-30000J0D01*
G01*
X148132800Y-100949200D02*
G75*
G02*
X148192800Y-100949200I30000J0D01*
G01*
D11*
%TO.C,J5*%
X143785000Y-130892000D02*
X143785000Y-137632000D01*
X143785000Y-130892000D02*
X154685000Y-130892000D01*
X143785000Y-132612000D02*
X154685000Y-132612000D01*
X143785000Y-135712000D02*
X154685000Y-135712000D01*
X143785000Y-136712000D02*
X154685000Y-136712000D01*
X143785000Y-137632000D02*
X145125000Y-137632000D01*
X145725000Y-137632000D02*
X154685000Y-137632000D01*
X154685000Y-130892000D02*
X154685000Y-137632000D01*
X145865000Y-138242000D02*
X144985000Y-138242000D01*
X145425000Y-137632000D01*
X145865000Y-138242000D01*
G36*
X145865000Y-138242000D02*
G01*
X144985000Y-138242000D01*
X145425000Y-137632000D01*
X145865000Y-138242000D01*
G37*
%TO.C,C15*%
X143492748Y-78838200D02*
X144015252Y-78838200D01*
X143492748Y-80308200D02*
X144015252Y-80308200D01*
%TO.C,J8*%
X83455200Y-110388400D02*
X83455200Y-105248400D01*
X86115200Y-105248400D02*
X83455200Y-105248400D01*
X86115200Y-110388400D02*
X83455200Y-110388400D01*
X86115200Y-110388400D02*
X86115200Y-105248400D01*
X86115200Y-111658400D02*
X86115200Y-112988400D01*
X86115200Y-112988400D02*
X84785200Y-112988400D01*
%TO.C,R1*%
X93118000Y-106579936D02*
X93118000Y-107034064D01*
X94588000Y-106579936D02*
X94588000Y-107034064D01*
%TO.C,J6*%
X82480000Y-74880000D02*
X83810000Y-74880000D01*
X82480000Y-76210000D02*
X82480000Y-74880000D01*
X82480000Y-77480000D02*
X82480000Y-97860000D01*
X82480000Y-77480000D02*
X85080000Y-77480000D01*
X82480000Y-97860000D02*
X87680000Y-97860000D01*
X85080000Y-74880000D02*
X87680000Y-74880000D01*
X85080000Y-77480000D02*
X85080000Y-74880000D01*
X87680000Y-74880000D02*
X87680000Y-97860000D01*
%TO.C,R17*%
X169333336Y-102155400D02*
X169787464Y-102155400D01*
X169333336Y-103625400D02*
X169787464Y-103625400D01*
%TO.C,C22*%
X143492748Y-76780800D02*
X144015252Y-76780800D01*
X143492748Y-78250800D02*
X144015252Y-78250800D01*
D12*
%TO.C,U1*%
X136871000Y-117320000D02*
X136871000Y-127480000D01*
X136871000Y-127480000D02*
X139746000Y-127480000D01*
X139746000Y-117320000D02*
X136871000Y-117320000D01*
D13*
X133246000Y-117400000D02*
G75*
G02*
X133046000Y-117400000I-100000J0D01*
G01*
X133046000Y-117400000D02*
G75*
G02*
X133246000Y-117400000I100000J0D01*
G01*
D11*
%TO.C,C2*%
X133611252Y-114045000D02*
X133088748Y-114045000D01*
X133611252Y-115515000D02*
X133088748Y-115515000D01*
%TO.C,C16*%
X150771652Y-98548600D02*
X150249148Y-98548600D01*
X150771652Y-100018600D02*
X150249148Y-100018600D01*
%TO.C,C20*%
X138345400Y-97701548D02*
X138345400Y-98224052D01*
X139815400Y-97701548D02*
X139815400Y-98224052D01*
%TO.C,C8*%
X89400748Y-126900000D02*
X89923252Y-126900000D01*
X89400748Y-128370000D02*
X89923252Y-128370000D01*
%TO.C,C11*%
X85971748Y-69745000D02*
X86494252Y-69745000D01*
X85971748Y-71215000D02*
X86494252Y-71215000D01*
%TO.C,U2*%
X108604000Y-115814000D02*
X109864000Y-115814000D01*
X108604000Y-119574000D02*
X108604000Y-115814000D01*
X115424000Y-115814000D02*
X114164000Y-115814000D01*
X115424000Y-119574000D02*
X115424000Y-115814000D01*
X108704000Y-120854000D02*
X108374000Y-121094000D01*
X108374000Y-120614000D01*
X108704000Y-120854000D01*
G36*
X108704000Y-120854000D02*
G01*
X108374000Y-121094000D01*
X108374000Y-120614000D01*
X108704000Y-120854000D01*
G37*
%TO.C,C21*%
X153565652Y-69999000D02*
X153043148Y-69999000D01*
X153565652Y-71469000D02*
X153043148Y-71469000D01*
%TD*%
M02*
